<?xml version="1.0" encoding="UTF-8"?>
<svg width="256px" height="256px" viewBox="0 0 256 256" version="1.1" xmlns="http://www.w3.org/2000/svg" xmlns:xlink="http://www.w3.org/1999/xlink">
    <title>gesha</title>
    <defs>
        <linearGradient x1="50%" y1="0.409100507%" x2="50%" y2="100%" id="linearGradient-1">
            <stop stop-color="#9D61A9" offset="0%"></stop>
            <stop stop-color="#834294" offset="100%"></stop>
        </linearGradient>
    </defs>
    <g id="gesha" stroke="none" stroke-width="1" fill="none" fill-rule="evenodd">
        <rect id="Rectangle" fill="url(#linearGradient-1)" x="0" y="0" width="256" height="256" rx="30"></rect>
        <path d="M67.3986,176.61115 C72.70285,171.3069 73.99505,167.60425 75.49095,163.3171 C77.1685,158.5095 79.07005,153.06035 86.0718,146.05825 C93.0739,139.05615 98.5227,137.1546 103.3303,135.4774 C106.4705,134.38155 109.29815,133.3935 112.6704,130.85915 C105.5108,124.31975 95.6156,121.52115 84.63435,122.9754 C73.64925,124.4293 62.81045,130.01915 54.1147,138.7149 C45.4186,147.41065 39.8291,158.24945 38.3752,169.23455 C37.31295,177.26005 38.52255,184.7049 41.8017,190.9272 C46.5218,187.34915 50.4943,185.9628 54.1049,184.7028 C58.39205,183.20725 62.09435,181.9154 67.3986,176.61115 Z" id="Path" fill="#43271E" fill-rule="nonzero"></path>
        <path d="M106.7897,145.3915 C102.5029,146.88705 98.8006,148.1789 93.4967,153.48315 C88.1928,158.7874 86.9006,162.4897 85.4047,166.77685 C83.72715,171.58445 81.8256,177.0336 74.8235,184.03605 C67.8214,191.03815 62.37225,192.9397 57.5643,194.61725 C54.4241,195.7131 51.5968,196.7015 48.2242,199.2355 C54.1469,204.64475 61.93895,207.4955 70.67145,207.4955 C72.496,207.4955 74.36185,207.37125 76.25955,207.11995 C87.24465,205.66605 98.08345,200.0762 106.7792,191.38045 C115.4753,182.6847 121.0648,171.8459 122.5187,160.8608 C123.58095,152.83495 122.37135,145.3901 119.0922,139.1678 C114.3721,142.7455 110.39995,144.1315 106.7897,145.3915 L106.7897,145.3915 Z" id="Path" fill="#2E1B15" fill-rule="nonzero"></path>
        <path d="M161.704,176.61115 C167.00825,171.3069 168.30045,167.60425 169.79635,163.3171 C171.4739,158.5095 173.37545,153.06035 180.3772,146.05825 C187.3793,139.05615 192.8281,137.1546 197.6357,135.4774 C200.7759,134.38155 203.60355,133.3935 206.9758,130.85915 C199.8162,124.31975 189.921,121.52115 178.93975,122.9754 C167.95465,124.4293 157.11585,130.01915 148.4201,138.7149 C139.724,147.41065 134.1345,158.24945 132.6806,169.23455 C131.61835,177.26005 132.82795,184.7049 136.1071,190.9272 C140.8272,187.34915 144.7997,185.9628 148.4103,184.7028 C152.69745,183.20725 156.39975,181.9154 161.704,176.61115 L161.704,176.61115 Z" id="Path" fill="#43271E" fill-rule="nonzero"></path>
        <path d="M201.0951,145.3915 C196.8083,146.88705 193.106,148.1789 187.8021,153.48315 C182.4982,158.7874 181.206,162.4897 179.7101,166.77685 C178.03255,171.58445 176.131,177.0336 169.1289,184.03605 C162.1268,191.03815 156.67765,192.9397 151.8697,194.61725 C148.7295,195.7131 145.9022,196.7015 142.5296,199.2355 C148.4523,204.64475 156.24435,207.4955 164.97685,207.4955 C166.8014,207.4955 168.66725,207.37125 170.56495,207.11995 C181.55005,205.66605 192.38885,200.0762 201.0846,191.38045 C209.7807,182.6847 215.3702,171.8459 216.8241,160.8608 C217.88635,152.83495 216.67675,145.3901 213.3976,139.1678 C208.67785,142.7455 204.70535,144.1315 201.0951,145.3915 L201.0951,145.3915 Z" id="Path" fill="#2E1B15" fill-rule="nonzero"></path>
        <path d="M132.3761,91.31545 C137.68035,86.0112 138.97255,82.30855 140.46845,78.0214 C142.146,73.2138 144.04755,67.76465 151.0493,60.76255 C158.0514,53.76045 163.5002,51.8589 168.3078,50.1817 C171.448,49.08585 174.27565,48.0978 177.6479,45.56345 C170.4883,39.02405 160.5931,36.22545 149.61185,37.6797 C138.62675,39.1336 127.78795,44.72345 119.0922,53.4192 C110.3961,62.11495 104.8066,72.95375 103.3527,83.93885 C102.29045,91.96435 103.50005,99.4092 106.7792,105.6315 C111.4993,102.05345 115.4718,100.6671 119.0824,99.4071 C123.36955,97.91155 127.07185,96.6197 132.3761,91.31545 L132.3761,91.31545 Z" id="Path" fill="#43271E" fill-rule="nonzero"></path>
        <path d="M171.7672,60.0958 C167.4804,61.59135 163.7781,62.8832 158.4742,68.18745 C153.1703,73.4917 151.8781,77.194 150.3822,81.48115 C148.70465,86.28875 146.8031,91.7379 139.801,98.74035 C132.7989,105.74245 127.34975,107.644 122.5418,109.32155 C119.4016,110.4174 116.5743,111.4058 113.2017,113.9398 C119.1244,119.34905 126.91645,122.1998 135.64895,122.1998 C137.4735,122.1998 139.33935,122.07555 141.23705,121.82425 C152.22215,120.37035 163.06095,114.7805 171.7567,106.08475 C180.4528,97.389 186.0423,86.5502 187.4962,75.5651 C188.55845,67.53925 187.34885,60.0944 184.0697,53.8721 C179.34995,57.4498 175.37745,58.83615 171.7672,60.0958 L171.7672,60.0958 Z" id="Path" fill="#2E1B15" fill-rule="nonzero"></path>
    </g>
</svg>