<?xml version="1.0" encoding="UTF-8"?>
<svg width="256px" height="256px" viewBox="0 0 256 256" version="1.1" xmlns="http://www.w3.org/2000/svg" xmlns:xlink="http://www.w3.org/1999/xlink">
    <title>gesha</title>
    <defs>
        <linearGradient x1="50%" y1="0.409100507%" x2="50%" y2="100%" id="linearGradient-1">
            <stop stop-color="#AB51BD" offset="0%"></stop>
            <stop stop-color="#9932AE" offset="100%"></stop>
        </linearGradient>
    </defs>
    <g id="gesha" stroke="none" stroke-width="1" fill="none" fill-rule="evenodd">
        <rect id="Rectangle" fill="url(#linearGradient-1)" x="0" y="0" width="256" height="256" rx="30"></rect>
        <g id="Group" transform="translate(48.000000, 48.000000)" fill-rule="nonzero">
            <path d="M55.4774628,101.324972 C65.4870209,91.3742226 67.9255091,84.4280676 70.748396,76.3853933 C73.9140715,67.366357 77.5024535,57.1437758 90.7153344,44.0078673 C103.928876,30.8719588 114.211212,27.3046595 123.28355,24.1582397 C129.209367,22.10243 134.545376,20.2488526 140.909091,15.4944233 C127.398334,3.22653792 108.725274,-2.02362325 88.0027475,0.704543291 C67.2729559,3.43205323 46.8192445,13.918587 30.4096456,30.2317754 C13.9993862,46.5449637 3.45153775,66.8785044 0.707908294,87.4865032 C-1.29664525,102.542306 0.985969922,116.508811 7.17399698,128.181818 C16.0812158,121.469412 23.5776516,118.868626 30.3911522,116.504871 C38.4813586,113.699226 45.4679046,111.275721 55.4774628,101.324972 L55.4774628,101.324972 Z" id="Path" fill="#43271E"></path>
            <path d="M129.609884,43.4937568 C121.520262,46.2993878 114.533651,48.7228805 104.524659,58.67358 C94.5156676,68.6242795 92.0771566,75.569743 89.2542432,83.612377 C86.088538,92.6313679 82.5001224,102.853898 69.2864571,115.990397 C56.0727918,129.126239 45.789699,132.693521 36.7166149,135.840581 C30.7907425,137.896381 25.4553437,139.750606 19.0909091,144.504354 C30.2676383,154.652033 44.9720184,160 61.4511221,160 C64.894231,160 68.4152772,159.766909 71.9964275,159.295473 C92.7264134,156.567977 113.180317,146.081496 129.590069,129.76839 C146.000483,113.455283 156.54843,93.1218445 159.292085,72.5139492 C161.296657,57.4575658 159.014021,43.4911304 152.825936,31.8181818 C143.919294,38.5298974 136.422788,41.1300142 129.609884,43.4937568 L129.609884,43.4937568 Z" id="Path" fill="#2E1B15"></path>
        </g>
    </g>
</svg>