<?xml version="1.0" encoding="utf-8" standalone="no"?>
<!DOCTYPE svg PUBLIC "-//W3C//DTD SVG 1.1//EN"
  "http://www.w3.org/Graphics/SVG/1.1/DTD/svg11.dtd">
<svg xmlns:xlink="http://www.w3.org/1999/xlink" width="609.467188pt" height="379.909531pt" viewBox="0 0 609.467188 379.909531" xmlns="http://www.w3.org/2000/svg" version="1.1">
 <metadata>
  <rdf:RDF xmlns:dc="http://purl.org/dc/elements/1.1/" xmlns:cc="http://creativecommons.org/ns#" xmlns:rdf="http://www.w3.org/1999/02/22-rdf-syntax-ns#">
   <cc:Work>
    <dc:type rdf:resource="http://purl.org/dc/dcmitype/StillImage"/>
    <dc:date>2023-08-24T00:23:45.328313</dc:date>
    <dc:format>image/svg+xml</dc:format>
    <dc:creator>
     <cc:Agent>
      <dc:title>Matplotlib v3.7.2, https://matplotlib.org/</dc:title>
     </cc:Agent>
    </dc:creator>
   </cc:Work>
  </rdf:RDF>
 </metadata>
 <defs>
  <style type="text/css">*{stroke-linejoin: round; stroke-linecap: butt}</style>
 </defs>
 <g id="figure_1">
  <g id="patch_1">
   <path d="M 0 379.909531 
L 609.467188 379.909531 
L 609.467188 0 
L 0 0 
z
" style="fill: #ffffff"/>
  </g>
  <g id="axes_1">
   <g id="patch_2">
    <path d="M 44.267187 343.418906 
L 602.267187 343.418906 
L 602.267187 10.778906 
L 44.267187 10.778906 
z
" style="fill: #ffffff"/>
   </g>
   <g id="patch_3">
    <path d="M 118.885392 343.418906 
L 118.885392 10.778906 
L 131.709901 10.778906 
L 131.709901 343.418906 
z
" clip-path="url(#pafce6432cd)" style="fill: #ff0000; opacity: 0.1; stroke: #ff0000; stroke-linejoin: miter"/>
   </g>
   <g id="patch_4">
    <path d="M 177.08893 343.418906 
L 177.08893 10.778906 
L 179.837039 10.778906 
L 179.837039 343.418906 
z
" clip-path="url(#pafce6432cd)" style="fill: #ff0000; opacity: 0.1; stroke: #ff0000; stroke-linejoin: miter"/>
   </g>
   <g id="patch_5">
    <path d="M 223.877247 343.418906 
L 223.877247 10.778906 
L 226.20257 10.778906 
L 226.20257 343.418906 
z
" clip-path="url(#pafce6432cd)" style="fill: #ff0000; opacity: 0.1; stroke: #ff0000; stroke-linejoin: miter"/>
   </g>
   <g id="patch_6">
    <path d="M 273.69553 343.418906 
L 273.69553 10.778906 
L 275.879924 10.778906 
L 275.879924 343.418906 
z
" clip-path="url(#pafce6432cd)" style="fill: #ff0000; opacity: 0.1; stroke: #ff0000; stroke-linejoin: miter"/>
   </g>
   <g id="patch_7">
    <path d="M 325.9096 343.418906 
L 325.9096 10.778906 
L 328.093994 10.778906 
L 328.093994 343.418906 
z
" clip-path="url(#pafce6432cd)" style="fill: #ff0000; opacity: 0.1; stroke: #ff0000; stroke-linejoin: miter"/>
   </g>
   <g id="patch_8">
    <path d="M 378.757849 343.418906 
L 378.757849 10.778906 
L 380.942243 10.778906 
L 380.942243 343.418906 
z
" clip-path="url(#pafce6432cd)" style="fill: #ff0000; opacity: 0.1; stroke: #ff0000; stroke-linejoin: miter"/>
   </g>
   <g id="patch_9">
    <path d="M 432.592599 343.418906 
L 432.592599 10.778906 
L 434.847457 10.778906 
L 434.847457 343.418906 
z
" clip-path="url(#pafce6432cd)" style="fill: #ff0000; opacity: 0.1; stroke: #ff0000; stroke-linejoin: miter"/>
   </g>
   <g id="patch_10">
    <path d="M 486.427349 343.418906 
L 486.427349 10.778906 
L 488.541279 10.778906 
L 488.541279 343.418906 
z
" clip-path="url(#pafce6432cd)" style="fill: #ff0000; opacity: 0.1; stroke: #ff0000; stroke-linejoin: miter"/>
   </g>
   <g id="patch_11">
    <path d="M 542.516957 343.418906 
L 542.516957 10.778906 
L 544.630887 10.778906 
L 544.630887 343.418906 
z
" clip-path="url(#pafce6432cd)" style="fill: #ff0000; opacity: 0.1; stroke: #ff0000; stroke-linejoin: miter"/>
   </g>
   <g id="PolyCollection_1"/>
   <g id="matplotlib.axis_1">
    <g id="xtick_1">
     <g id="line2d_1">
      <defs>
       <path id="m84efaa6750" d="M 0 0 
L 0 3.5 
" style="stroke: #000000; stroke-width: 0.8"/>
      </defs>
      <g>
       <use xlink:href="#m84efaa6750" x="69.630824" y="343.418906" style="stroke: #000000; stroke-width: 0.8"/>
      </g>
     </g>
     <g id="text_1">
      <!-- 14:00:00 -->
      <g transform="translate(50.169886 357.576719) scale(0.1 -0.1)">
       <defs>
        <path id="ArialMT-31" d="M 2384 0 
L 1822 0 
L 1822 3584 
Q 1619 3391 1289 3197 
Q 959 3003 697 2906 
L 697 3450 
Q 1169 3672 1522 3987 
Q 1875 4303 2022 4600 
L 2384 4600 
L 2384 0 
z
" transform="scale(0.015625)"/>
        <path id="ArialMT-34" d="M 2069 0 
L 2069 1097 
L 81 1097 
L 81 1613 
L 2172 4581 
L 2631 4581 
L 2631 1613 
L 3250 1613 
L 3250 1097 
L 2631 1097 
L 2631 0 
L 2069 0 
z
M 2069 1613 
L 2069 3678 
L 634 1613 
L 2069 1613 
z
" transform="scale(0.015625)"/>
        <path id="ArialMT-3a" d="M 578 2678 
L 578 3319 
L 1219 3319 
L 1219 2678 
L 578 2678 
z
M 578 0 
L 578 641 
L 1219 641 
L 1219 0 
L 578 0 
z
" transform="scale(0.015625)"/>
        <path id="ArialMT-30" d="M 266 2259 
Q 266 3072 433 3567 
Q 600 4063 929 4331 
Q 1259 4600 1759 4600 
Q 2128 4600 2406 4451 
Q 2684 4303 2865 4023 
Q 3047 3744 3150 3342 
Q 3253 2941 3253 2259 
Q 3253 1453 3087 958 
Q 2922 463 2592 192 
Q 2263 -78 1759 -78 
Q 1097 -78 719 397 
Q 266 969 266 2259 
z
M 844 2259 
Q 844 1131 1108 757 
Q 1372 384 1759 384 
Q 2147 384 2411 759 
Q 2675 1134 2675 2259 
Q 2675 3391 2411 3762 
Q 2147 4134 1753 4134 
Q 1366 4134 1134 3806 
Q 844 3388 844 2259 
z
" transform="scale(0.015625)"/>
       </defs>
       <use xlink:href="#ArialMT-31"/>
       <use xlink:href="#ArialMT-34" x="55.615234"/>
       <use xlink:href="#ArialMT-3a" x="111.230469"/>
       <use xlink:href="#ArialMT-30" x="139.013672"/>
       <use xlink:href="#ArialMT-30" x="194.628906"/>
       <use xlink:href="#ArialMT-3a" x="250.244141"/>
       <use xlink:href="#ArialMT-30" x="278.027344"/>
       <use xlink:href="#ArialMT-30" x="333.642578"/>
      </g>
     </g>
    </g>
    <g id="xtick_2">
     <g id="line2d_2">
      <g>
       <use xlink:href="#m84efaa6750" x="154.188022" y="343.418906" style="stroke: #000000; stroke-width: 0.8"/>
      </g>
     </g>
     <g id="text_2">
      <!-- 14:10:00 -->
      <g transform="translate(134.727085 357.576719) scale(0.1 -0.1)">
       <use xlink:href="#ArialMT-31"/>
       <use xlink:href="#ArialMT-34" x="55.615234"/>
       <use xlink:href="#ArialMT-3a" x="111.230469"/>
       <use xlink:href="#ArialMT-31" x="139.013672"/>
       <use xlink:href="#ArialMT-30" x="194.628906"/>
       <use xlink:href="#ArialMT-3a" x="250.244141"/>
       <use xlink:href="#ArialMT-30" x="278.027344"/>
       <use xlink:href="#ArialMT-30" x="333.642578"/>
      </g>
     </g>
    </g>
    <g id="xtick_3">
     <g id="line2d_3">
      <g>
       <use xlink:href="#m84efaa6750" x="238.745221" y="343.418906" style="stroke: #000000; stroke-width: 0.8"/>
      </g>
     </g>
     <g id="text_3">
      <!-- 14:20:00 -->
      <g transform="translate(219.284284 357.576719) scale(0.1 -0.1)">
       <defs>
        <path id="ArialMT-32" d="M 3222 541 
L 3222 0 
L 194 0 
Q 188 203 259 391 
Q 375 700 629 1000 
Q 884 1300 1366 1694 
Q 2113 2306 2375 2664 
Q 2638 3022 2638 3341 
Q 2638 3675 2398 3904 
Q 2159 4134 1775 4134 
Q 1369 4134 1125 3890 
Q 881 3647 878 3216 
L 300 3275 
Q 359 3922 746 4261 
Q 1134 4600 1788 4600 
Q 2447 4600 2831 4234 
Q 3216 3869 3216 3328 
Q 3216 3053 3103 2787 
Q 2991 2522 2730 2228 
Q 2469 1934 1863 1422 
Q 1356 997 1212 845 
Q 1069 694 975 541 
L 3222 541 
z
" transform="scale(0.015625)"/>
       </defs>
       <use xlink:href="#ArialMT-31"/>
       <use xlink:href="#ArialMT-34" x="55.615234"/>
       <use xlink:href="#ArialMT-3a" x="111.230469"/>
       <use xlink:href="#ArialMT-32" x="139.013672"/>
       <use xlink:href="#ArialMT-30" x="194.628906"/>
       <use xlink:href="#ArialMT-3a" x="250.244141"/>
       <use xlink:href="#ArialMT-30" x="278.027344"/>
       <use xlink:href="#ArialMT-30" x="333.642578"/>
      </g>
     </g>
    </g>
    <g id="xtick_4">
     <g id="line2d_4">
      <g>
       <use xlink:href="#m84efaa6750" x="323.30242" y="343.418906" style="stroke: #000000; stroke-width: 0.8"/>
      </g>
     </g>
     <g id="text_4">
      <!-- 14:30:00 -->
      <g transform="translate(303.841482 357.576719) scale(0.1 -0.1)">
       <defs>
        <path id="ArialMT-33" d="M 269 1209 
L 831 1284 
Q 928 806 1161 595 
Q 1394 384 1728 384 
Q 2125 384 2398 659 
Q 2672 934 2672 1341 
Q 2672 1728 2419 1979 
Q 2166 2231 1775 2231 
Q 1616 2231 1378 2169 
L 1441 2663 
Q 1497 2656 1531 2656 
Q 1891 2656 2178 2843 
Q 2466 3031 2466 3422 
Q 2466 3731 2256 3934 
Q 2047 4138 1716 4138 
Q 1388 4138 1169 3931 
Q 950 3725 888 3313 
L 325 3413 
Q 428 3978 793 4289 
Q 1159 4600 1703 4600 
Q 2078 4600 2393 4439 
Q 2709 4278 2876 4000 
Q 3044 3722 3044 3409 
Q 3044 3113 2884 2869 
Q 2725 2625 2413 2481 
Q 2819 2388 3044 2092 
Q 3269 1797 3269 1353 
Q 3269 753 2831 336 
Q 2394 -81 1725 -81 
Q 1122 -81 723 278 
Q 325 638 269 1209 
z
" transform="scale(0.015625)"/>
       </defs>
       <use xlink:href="#ArialMT-31"/>
       <use xlink:href="#ArialMT-34" x="55.615234"/>
       <use xlink:href="#ArialMT-3a" x="111.230469"/>
       <use xlink:href="#ArialMT-33" x="139.013672"/>
       <use xlink:href="#ArialMT-30" x="194.628906"/>
       <use xlink:href="#ArialMT-3a" x="250.244141"/>
       <use xlink:href="#ArialMT-30" x="278.027344"/>
       <use xlink:href="#ArialMT-30" x="333.642578"/>
      </g>
     </g>
    </g>
    <g id="xtick_5">
     <g id="line2d_5">
      <g>
       <use xlink:href="#m84efaa6750" x="407.859618" y="343.418906" style="stroke: #000000; stroke-width: 0.8"/>
      </g>
     </g>
     <g id="text_5">
      <!-- 14:40:00 -->
      <g transform="translate(388.398681 357.576719) scale(0.1 -0.1)">
       <use xlink:href="#ArialMT-31"/>
       <use xlink:href="#ArialMT-34" x="55.615234"/>
       <use xlink:href="#ArialMT-3a" x="111.230469"/>
       <use xlink:href="#ArialMT-34" x="139.013672"/>
       <use xlink:href="#ArialMT-30" x="194.628906"/>
       <use xlink:href="#ArialMT-3a" x="250.244141"/>
       <use xlink:href="#ArialMT-30" x="278.027344"/>
       <use xlink:href="#ArialMT-30" x="333.642578"/>
      </g>
     </g>
    </g>
    <g id="xtick_6">
     <g id="line2d_6">
      <g>
       <use xlink:href="#m84efaa6750" x="492.416817" y="343.418906" style="stroke: #000000; stroke-width: 0.8"/>
      </g>
     </g>
     <g id="text_6">
      <!-- 14:50:00 -->
      <g transform="translate(472.955879 357.576719) scale(0.1 -0.1)">
       <defs>
        <path id="ArialMT-35" d="M 266 1200 
L 856 1250 
Q 922 819 1161 601 
Q 1400 384 1738 384 
Q 2144 384 2425 690 
Q 2706 997 2706 1503 
Q 2706 1984 2436 2262 
Q 2166 2541 1728 2541 
Q 1456 2541 1237 2417 
Q 1019 2294 894 2097 
L 366 2166 
L 809 4519 
L 3088 4519 
L 3088 3981 
L 1259 3981 
L 1013 2750 
Q 1425 3038 1878 3038 
Q 2478 3038 2890 2622 
Q 3303 2206 3303 1553 
Q 3303 931 2941 478 
Q 2500 -78 1738 -78 
Q 1113 -78 717 272 
Q 322 622 266 1200 
z
" transform="scale(0.015625)"/>
       </defs>
       <use xlink:href="#ArialMT-31"/>
       <use xlink:href="#ArialMT-34" x="55.615234"/>
       <use xlink:href="#ArialMT-3a" x="111.230469"/>
       <use xlink:href="#ArialMT-35" x="139.013672"/>
       <use xlink:href="#ArialMT-30" x="194.628906"/>
       <use xlink:href="#ArialMT-3a" x="250.244141"/>
       <use xlink:href="#ArialMT-30" x="278.027344"/>
       <use xlink:href="#ArialMT-30" x="333.642578"/>
      </g>
     </g>
    </g>
    <g id="xtick_7">
     <g id="line2d_7">
      <g>
       <use xlink:href="#m84efaa6750" x="576.974015" y="343.418906" style="stroke: #000000; stroke-width: 0.8"/>
      </g>
     </g>
     <g id="text_7">
      <!-- 15:00:00 -->
      <g transform="translate(557.513078 357.576719) scale(0.1 -0.1)">
       <use xlink:href="#ArialMT-31"/>
       <use xlink:href="#ArialMT-35" x="55.615234"/>
       <use xlink:href="#ArialMT-3a" x="111.230469"/>
       <use xlink:href="#ArialMT-30" x="139.013672"/>
       <use xlink:href="#ArialMT-30" x="194.628906"/>
       <use xlink:href="#ArialMT-3a" x="250.244141"/>
       <use xlink:href="#ArialMT-30" x="278.027344"/>
       <use xlink:href="#ArialMT-30" x="333.642578"/>
      </g>
     </g>
    </g>
    <g id="text_8">
     <!-- Time -->
     <g transform="translate(312.344531 370.722031) scale(0.1 -0.1)">
      <defs>
       <path id="ArialMT-54" d="M 1659 0 
L 1659 4041 
L 150 4041 
L 150 4581 
L 3781 4581 
L 3781 4041 
L 2266 4041 
L 2266 0 
L 1659 0 
z
" transform="scale(0.015625)"/>
       <path id="ArialMT-69" d="M 425 3934 
L 425 4581 
L 988 4581 
L 988 3934 
L 425 3934 
z
M 425 0 
L 425 3319 
L 988 3319 
L 988 0 
L 425 0 
z
" transform="scale(0.015625)"/>
       <path id="ArialMT-6d" d="M 422 0 
L 422 3319 
L 925 3319 
L 925 2853 
Q 1081 3097 1340 3245 
Q 1600 3394 1931 3394 
Q 2300 3394 2536 3241 
Q 2772 3088 2869 2813 
Q 3263 3394 3894 3394 
Q 4388 3394 4653 3120 
Q 4919 2847 4919 2278 
L 4919 0 
L 4359 0 
L 4359 2091 
Q 4359 2428 4304 2576 
Q 4250 2725 4106 2815 
Q 3963 2906 3769 2906 
Q 3419 2906 3187 2673 
Q 2956 2441 2956 1928 
L 2956 0 
L 2394 0 
L 2394 2156 
Q 2394 2531 2256 2718 
Q 2119 2906 1806 2906 
Q 1569 2906 1367 2781 
Q 1166 2656 1075 2415 
Q 984 2175 984 1722 
L 984 0 
L 422 0 
z
" transform="scale(0.015625)"/>
       <path id="ArialMT-65" d="M 2694 1069 
L 3275 997 
Q 3138 488 2766 206 
Q 2394 -75 1816 -75 
Q 1088 -75 661 373 
Q 234 822 234 1631 
Q 234 2469 665 2931 
Q 1097 3394 1784 3394 
Q 2450 3394 2872 2941 
Q 3294 2488 3294 1666 
Q 3294 1616 3291 1516 
L 816 1516 
Q 847 969 1125 678 
Q 1403 388 1819 388 
Q 2128 388 2347 550 
Q 2566 713 2694 1069 
z
M 847 1978 
L 2700 1978 
Q 2663 2397 2488 2606 
Q 2219 2931 1791 2931 
Q 1403 2931 1139 2672 
Q 875 2413 847 1978 
z
" transform="scale(0.015625)"/>
      </defs>
      <use xlink:href="#ArialMT-54"/>
      <use xlink:href="#ArialMT-69" x="57.333984"/>
      <use xlink:href="#ArialMT-6d" x="79.550781"/>
      <use xlink:href="#ArialMT-65" x="162.851562"/>
     </g>
    </g>
   </g>
   <g id="matplotlib.axis_2">
    <g id="ytick_1">
     <g id="line2d_8">
      <defs>
       <path id="m21b5ff443b" d="M 0 0 
L -3.5 0 
" style="stroke: #000000; stroke-width: 0.8"/>
      </defs>
      <g>
       <use xlink:href="#m21b5ff443b" x="44.267187" y="343.418906" style="stroke: #000000; stroke-width: 0.8"/>
      </g>
     </g>
     <g id="text_9">
      <!-- 80 -->
      <g transform="translate(26.145312 346.997812) scale(0.1 -0.1)">
       <defs>
        <path id="ArialMT-38" d="M 1131 2484 
Q 781 2613 612 2850 
Q 444 3088 444 3419 
Q 444 3919 803 4259 
Q 1163 4600 1759 4600 
Q 2359 4600 2725 4251 
Q 3091 3903 3091 3403 
Q 3091 3084 2923 2848 
Q 2756 2613 2416 2484 
Q 2838 2347 3058 2040 
Q 3278 1734 3278 1309 
Q 3278 722 2862 322 
Q 2447 -78 1769 -78 
Q 1091 -78 675 323 
Q 259 725 259 1325 
Q 259 1772 486 2073 
Q 713 2375 1131 2484 
z
M 1019 3438 
Q 1019 3113 1228 2906 
Q 1438 2700 1772 2700 
Q 2097 2700 2305 2904 
Q 2513 3109 2513 3406 
Q 2513 3716 2298 3927 
Q 2084 4138 1766 4138 
Q 1444 4138 1231 3931 
Q 1019 3725 1019 3438 
z
M 838 1322 
Q 838 1081 952 856 
Q 1066 631 1291 507 
Q 1516 384 1775 384 
Q 2178 384 2440 643 
Q 2703 903 2703 1303 
Q 2703 1709 2433 1975 
Q 2163 2241 1756 2241 
Q 1359 2241 1098 1978 
Q 838 1716 838 1322 
z
" transform="scale(0.015625)"/>
       </defs>
       <use xlink:href="#ArialMT-38"/>
       <use xlink:href="#ArialMT-30" x="55.615234"/>
      </g>
     </g>
    </g>
    <g id="ytick_2">
     <g id="line2d_9">
      <g>
       <use xlink:href="#m21b5ff443b" x="44.267187" y="301.838906" style="stroke: #000000; stroke-width: 0.8"/>
      </g>
     </g>
     <g id="text_10">
      <!-- 85 -->
      <g transform="translate(26.145312 305.417812) scale(0.1 -0.1)">
       <use xlink:href="#ArialMT-38"/>
       <use xlink:href="#ArialMT-35" x="55.615234"/>
      </g>
     </g>
    </g>
    <g id="ytick_3">
     <g id="line2d_10">
      <g>
       <use xlink:href="#m21b5ff443b" x="44.267187" y="260.258906" style="stroke: #000000; stroke-width: 0.8"/>
      </g>
     </g>
     <g id="text_11">
      <!-- 90 -->
      <g transform="translate(26.145312 263.837812) scale(0.1 -0.1)">
       <defs>
        <path id="ArialMT-39" d="M 350 1059 
L 891 1109 
Q 959 728 1153 556 
Q 1347 384 1650 384 
Q 1909 384 2104 503 
Q 2300 622 2425 820 
Q 2550 1019 2634 1356 
Q 2719 1694 2719 2044 
Q 2719 2081 2716 2156 
Q 2547 1888 2255 1720 
Q 1963 1553 1622 1553 
Q 1053 1553 659 1965 
Q 266 2378 266 3053 
Q 266 3750 677 4175 
Q 1088 4600 1706 4600 
Q 2153 4600 2523 4359 
Q 2894 4119 3086 3673 
Q 3278 3228 3278 2384 
Q 3278 1506 3087 986 
Q 2897 466 2520 194 
Q 2144 -78 1638 -78 
Q 1100 -78 759 220 
Q 419 519 350 1059 
z
M 2653 3081 
Q 2653 3566 2395 3850 
Q 2138 4134 1775 4134 
Q 1400 4134 1122 3828 
Q 844 3522 844 3034 
Q 844 2597 1108 2323 
Q 1372 2050 1759 2050 
Q 2150 2050 2401 2323 
Q 2653 2597 2653 3081 
z
" transform="scale(0.015625)"/>
       </defs>
       <use xlink:href="#ArialMT-39"/>
       <use xlink:href="#ArialMT-30" x="55.615234"/>
      </g>
     </g>
    </g>
    <g id="ytick_4">
     <g id="line2d_11">
      <g>
       <use xlink:href="#m21b5ff443b" x="44.267187" y="218.678906" style="stroke: #000000; stroke-width: 0.8"/>
      </g>
     </g>
     <g id="text_12">
      <!-- 95 -->
      <g transform="translate(26.145312 222.257812) scale(0.1 -0.1)">
       <use xlink:href="#ArialMT-39"/>
       <use xlink:href="#ArialMT-35" x="55.615234"/>
      </g>
     </g>
    </g>
    <g id="ytick_5">
     <g id="line2d_12">
      <g>
       <use xlink:href="#m21b5ff443b" x="44.267187" y="177.098906" style="stroke: #000000; stroke-width: 0.8"/>
      </g>
     </g>
     <g id="text_13">
      <!-- 100 -->
      <g transform="translate(20.584375 180.677812) scale(0.1 -0.1)">
       <use xlink:href="#ArialMT-31"/>
       <use xlink:href="#ArialMT-30" x="55.615234"/>
       <use xlink:href="#ArialMT-30" x="111.230469"/>
      </g>
     </g>
    </g>
    <g id="ytick_6">
     <g id="line2d_13">
      <g>
       <use xlink:href="#m21b5ff443b" x="44.267187" y="135.518906" style="stroke: #000000; stroke-width: 0.8"/>
      </g>
     </g>
     <g id="text_14">
      <!-- 105 -->
      <g transform="translate(20.584375 139.097812) scale(0.1 -0.1)">
       <use xlink:href="#ArialMT-31"/>
       <use xlink:href="#ArialMT-30" x="55.615234"/>
       <use xlink:href="#ArialMT-35" x="111.230469"/>
      </g>
     </g>
    </g>
    <g id="ytick_7">
     <g id="line2d_14">
      <g>
       <use xlink:href="#m21b5ff443b" x="44.267187" y="93.938906" style="stroke: #000000; stroke-width: 0.8"/>
      </g>
     </g>
     <g id="text_15">
      <!-- 110 -->
      <g transform="translate(21.321875 97.517812) scale(0.1 -0.1)">
       <use xlink:href="#ArialMT-31"/>
       <use xlink:href="#ArialMT-31" x="48.240234"/>
       <use xlink:href="#ArialMT-30" x="103.855469"/>
      </g>
     </g>
    </g>
    <g id="ytick_8">
     <g id="line2d_15">
      <g>
       <use xlink:href="#m21b5ff443b" x="44.267187" y="52.358906" style="stroke: #000000; stroke-width: 0.8"/>
      </g>
     </g>
     <g id="text_16">
      <!-- 115 -->
      <g transform="translate(21.321875 55.937812) scale(0.1 -0.1)">
       <use xlink:href="#ArialMT-31"/>
       <use xlink:href="#ArialMT-31" x="48.240234"/>
       <use xlink:href="#ArialMT-35" x="103.855469"/>
      </g>
     </g>
    </g>
    <g id="ytick_9">
     <g id="line2d_16">
      <g>
       <use xlink:href="#m21b5ff443b" x="44.267187" y="10.778906" style="stroke: #000000; stroke-width: 0.8"/>
      </g>
     </g>
     <g id="text_17">
      <!-- 120 -->
      <g transform="translate(20.584375 14.357812) scale(0.1 -0.1)">
       <use xlink:href="#ArialMT-31"/>
       <use xlink:href="#ArialMT-32" x="55.615234"/>
       <use xlink:href="#ArialMT-30" x="111.230469"/>
      </g>
     </g>
    </g>
    <g id="text_18">
     <!-- Boiler temperature (°C) -->
     <g transform="translate(14.479687 228.555156) rotate(-90) scale(0.1 -0.1)">
      <defs>
       <path id="ArialMT-42" d="M 469 0 
L 469 4581 
L 2188 4581 
Q 2713 4581 3030 4442 
Q 3347 4303 3526 4014 
Q 3706 3725 3706 3409 
Q 3706 3116 3547 2856 
Q 3388 2597 3066 2438 
Q 3481 2316 3704 2022 
Q 3928 1728 3928 1328 
Q 3928 1006 3792 729 
Q 3656 453 3456 303 
Q 3256 153 2954 76 
Q 2653 0 2216 0 
L 469 0 
z
M 1075 2656 
L 2066 2656 
Q 2469 2656 2644 2709 
Q 2875 2778 2992 2937 
Q 3109 3097 3109 3338 
Q 3109 3566 3000 3739 
Q 2891 3913 2687 3977 
Q 2484 4041 1991 4041 
L 1075 4041 
L 1075 2656 
z
M 1075 541 
L 2216 541 
Q 2509 541 2628 563 
Q 2838 600 2978 687 
Q 3119 775 3209 942 
Q 3300 1109 3300 1328 
Q 3300 1584 3169 1773 
Q 3038 1963 2805 2039 
Q 2572 2116 2134 2116 
L 1075 2116 
L 1075 541 
z
" transform="scale(0.015625)"/>
       <path id="ArialMT-6f" d="M 213 1659 
Q 213 2581 725 3025 
Q 1153 3394 1769 3394 
Q 2453 3394 2887 2945 
Q 3322 2497 3322 1706 
Q 3322 1066 3130 698 
Q 2938 331 2570 128 
Q 2203 -75 1769 -75 
Q 1072 -75 642 372 
Q 213 819 213 1659 
z
M 791 1659 
Q 791 1022 1069 705 
Q 1347 388 1769 388 
Q 2188 388 2466 706 
Q 2744 1025 2744 1678 
Q 2744 2294 2464 2611 
Q 2184 2928 1769 2928 
Q 1347 2928 1069 2612 
Q 791 2297 791 1659 
z
" transform="scale(0.015625)"/>
       <path id="ArialMT-6c" d="M 409 0 
L 409 4581 
L 972 4581 
L 972 0 
L 409 0 
z
" transform="scale(0.015625)"/>
       <path id="ArialMT-72" d="M 416 0 
L 416 3319 
L 922 3319 
L 922 2816 
Q 1116 3169 1280 3281 
Q 1444 3394 1641 3394 
Q 1925 3394 2219 3213 
L 2025 2691 
Q 1819 2813 1613 2813 
Q 1428 2813 1281 2702 
Q 1134 2591 1072 2394 
Q 978 2094 978 1738 
L 978 0 
L 416 0 
z
" transform="scale(0.015625)"/>
       <path id="ArialMT-20" transform="scale(0.015625)"/>
       <path id="ArialMT-74" d="M 1650 503 
L 1731 6 
Q 1494 -44 1306 -44 
Q 1000 -44 831 53 
Q 663 150 594 308 
Q 525 466 525 972 
L 525 2881 
L 113 2881 
L 113 3319 
L 525 3319 
L 525 4141 
L 1084 4478 
L 1084 3319 
L 1650 3319 
L 1650 2881 
L 1084 2881 
L 1084 941 
Q 1084 700 1114 631 
Q 1144 563 1211 522 
Q 1278 481 1403 481 
Q 1497 481 1650 503 
z
" transform="scale(0.015625)"/>
       <path id="ArialMT-70" d="M 422 -1272 
L 422 3319 
L 934 3319 
L 934 2888 
Q 1116 3141 1344 3267 
Q 1572 3394 1897 3394 
Q 2322 3394 2647 3175 
Q 2972 2956 3137 2557 
Q 3303 2159 3303 1684 
Q 3303 1175 3120 767 
Q 2938 359 2589 142 
Q 2241 -75 1856 -75 
Q 1575 -75 1351 44 
Q 1128 163 984 344 
L 984 -1272 
L 422 -1272 
z
M 931 1641 
Q 931 1000 1190 694 
Q 1450 388 1819 388 
Q 2194 388 2461 705 
Q 2728 1022 2728 1688 
Q 2728 2322 2467 2637 
Q 2206 2953 1844 2953 
Q 1484 2953 1207 2617 
Q 931 2281 931 1641 
z
" transform="scale(0.015625)"/>
       <path id="ArialMT-61" d="M 2588 409 
Q 2275 144 1986 34 
Q 1697 -75 1366 -75 
Q 819 -75 525 192 
Q 231 459 231 875 
Q 231 1119 342 1320 
Q 453 1522 633 1644 
Q 813 1766 1038 1828 
Q 1203 1872 1538 1913 
Q 2219 1994 2541 2106 
Q 2544 2222 2544 2253 
Q 2544 2597 2384 2738 
Q 2169 2928 1744 2928 
Q 1347 2928 1158 2789 
Q 969 2650 878 2297 
L 328 2372 
Q 403 2725 575 2942 
Q 747 3159 1072 3276 
Q 1397 3394 1825 3394 
Q 2250 3394 2515 3294 
Q 2781 3194 2906 3042 
Q 3031 2891 3081 2659 
Q 3109 2516 3109 2141 
L 3109 1391 
Q 3109 606 3145 398 
Q 3181 191 3288 0 
L 2700 0 
Q 2613 175 2588 409 
z
M 2541 1666 
Q 2234 1541 1622 1453 
Q 1275 1403 1131 1340 
Q 988 1278 909 1158 
Q 831 1038 831 891 
Q 831 666 1001 516 
Q 1172 366 1500 366 
Q 1825 366 2078 508 
Q 2331 650 2450 897 
Q 2541 1088 2541 1459 
L 2541 1666 
z
" transform="scale(0.015625)"/>
       <path id="ArialMT-75" d="M 2597 0 
L 2597 488 
Q 2209 -75 1544 -75 
Q 1250 -75 995 37 
Q 741 150 617 320 
Q 494 491 444 738 
Q 409 903 409 1263 
L 409 3319 
L 972 3319 
L 972 1478 
Q 972 1038 1006 884 
Q 1059 663 1231 536 
Q 1403 409 1656 409 
Q 1909 409 2131 539 
Q 2353 669 2445 892 
Q 2538 1116 2538 1541 
L 2538 3319 
L 3100 3319 
L 3100 0 
L 2597 0 
z
" transform="scale(0.015625)"/>
       <path id="ArialMT-28" d="M 1497 -1347 
Q 1031 -759 709 28 
Q 388 816 388 1659 
Q 388 2403 628 3084 
Q 909 3875 1497 4659 
L 1900 4659 
Q 1522 4009 1400 3731 
Q 1209 3300 1100 2831 
Q 966 2247 966 1656 
Q 966 153 1900 -1347 
L 1497 -1347 
z
" transform="scale(0.015625)"/>
       <path id="ArialMT-b0" d="M 400 3794 
Q 400 4153 654 4406 
Q 909 4659 1266 4659 
Q 1628 4659 1881 4406 
Q 2134 4153 2134 3794 
Q 2134 3434 1879 3179 
Q 1625 2925 1266 2925 
Q 909 2925 654 3178 
Q 400 3431 400 3794 
z
M 741 3794 
Q 741 3575 895 3420 
Q 1050 3266 1269 3266 
Q 1484 3266 1639 3420 
Q 1794 3575 1794 3794 
Q 1794 4013 1639 4167 
Q 1484 4322 1269 4322 
Q 1050 4322 895 4167 
Q 741 4013 741 3794 
z
" transform="scale(0.015625)"/>
       <path id="ArialMT-43" d="M 3763 1606 
L 4369 1453 
Q 4178 706 3683 314 
Q 3188 -78 2472 -78 
Q 1731 -78 1267 223 
Q 803 525 561 1097 
Q 319 1669 319 2325 
Q 319 3041 592 3573 
Q 866 4106 1370 4382 
Q 1875 4659 2481 4659 
Q 3169 4659 3637 4309 
Q 4106 3959 4291 3325 
L 3694 3184 
Q 3534 3684 3231 3912 
Q 2928 4141 2469 4141 
Q 1941 4141 1586 3887 
Q 1231 3634 1087 3207 
Q 944 2781 944 2328 
Q 944 1744 1114 1308 
Q 1284 872 1643 656 
Q 2003 441 2422 441 
Q 2931 441 3284 734 
Q 3638 1028 3763 1606 
z
" transform="scale(0.015625)"/>
       <path id="ArialMT-29" d="M 791 -1347 
L 388 -1347 
Q 1322 153 1322 1656 
Q 1322 2244 1188 2822 
Q 1081 3291 891 3722 
Q 769 4003 388 4659 
L 791 4659 
Q 1378 3875 1659 3084 
Q 1900 2403 1900 1659 
Q 1900 816 1576 28 
Q 1253 -759 791 -1347 
z
" transform="scale(0.015625)"/>
      </defs>
      <use xlink:href="#ArialMT-42"/>
      <use xlink:href="#ArialMT-6f" x="66.699219"/>
      <use xlink:href="#ArialMT-69" x="122.314453"/>
      <use xlink:href="#ArialMT-6c" x="144.53125"/>
      <use xlink:href="#ArialMT-65" x="166.748047"/>
      <use xlink:href="#ArialMT-72" x="222.363281"/>
      <use xlink:href="#ArialMT-20" x="255.664062"/>
      <use xlink:href="#ArialMT-74" x="283.447266"/>
      <use xlink:href="#ArialMT-65" x="311.230469"/>
      <use xlink:href="#ArialMT-6d" x="366.845703"/>
      <use xlink:href="#ArialMT-70" x="450.146484"/>
      <use xlink:href="#ArialMT-65" x="505.761719"/>
      <use xlink:href="#ArialMT-72" x="561.376953"/>
      <use xlink:href="#ArialMT-61" x="594.677734"/>
      <use xlink:href="#ArialMT-74" x="650.292969"/>
      <use xlink:href="#ArialMT-75" x="678.076172"/>
      <use xlink:href="#ArialMT-72" x="733.691406"/>
      <use xlink:href="#ArialMT-65" x="766.992188"/>
      <use xlink:href="#ArialMT-20" x="822.607422"/>
      <use xlink:href="#ArialMT-28" x="850.390625"/>
      <use xlink:href="#ArialMT-b0" x="883.691406"/>
      <use xlink:href="#ArialMT-43" x="923.681641"/>
      <use xlink:href="#ArialMT-29" x="995.898438"/>
     </g>
    </g>
   </g>
   <g id="line2d_17">
    <path d="M 126.134237 380.909531 
L 126.566004 364.901906 
L 126.847862 354.645506 
L 127.411576 333.023906 
L 127.904827 315.560306 
L 128.891327 278.276906 
L 129.736899 248.477906 
L 130.300614 227.341406 
L 132.696401 141.409406 
L 133.189651 125.123906 
L 134.176152 98.512706 
L 134.669402 89.780906 
L 134.880795 85.622906 
L 136.078689 72.109406 
L 136.149153 72.317306 
L 136.290082 71.069906 
L 136.360546 71.069906 
L 136.642404 68.990906 
L 136.783332 68.990906 
L 136.924261 67.327706 
L 136.994725 67.258406 
L 137.135654 66.911906 
L 137.417511 66.911906 
L 137.55844 64.832906 
L 137.699369 65.248706 
L 137.769833 65.248706 
L 137.910762 64.832906 
L 139.249584 64.832906 
L 139.320048 65.179406 
L 139.390513 66.496106 
L 139.460977 65.872406 
L 139.531441 66.080306 
L 139.67237 66.911906 
L 139.954227 66.911906 
L 140.377013 68.990906 
L 140.658871 68.990906 
L 140.799799 69.822506 
L 140.870264 69.337406 
L 141.081657 71.069906 
L 141.7863 71.069906 
L 141.856764 72.802406 
L 141.927229 72.733106 
L 141.997693 72.802406 
L 142.138622 73.148906 
L 142.490943 73.148906 
L 142.913729 75.227906 
L 143.054658 75.227906 
L 143.125122 76.059506 
L 143.195587 75.574406 
L 143.547908 77.306906 
L 143.618373 77.306906 
L 143.688837 77.653406 
L 143.829766 79.385906 
L 144.182087 79.385906 
L 144.252552 79.801706 
L 144.39348 79.385906 
L 144.675338 81.464906 
L 145.027659 81.464906 
L 145.309517 83.959706 
L 145.379981 83.543906 
L 145.661838 85.622906 
L 146.084624 85.622906 
L 146.296017 87.701906 
L 146.50741 87.701906 
L 146.577875 88.117706 
L 146.648339 88.048406 
L 146.718803 88.117706 
L 146.859732 89.780906 
L 147.141589 89.780906 
L 147.423447 91.859906 
L 147.63484 91.859906 
L 147.775768 93.107306 
L 147.916697 93.938906 
L 148.198554 93.938906 
L 148.62134 96.017906 
L 149.044126 96.017906 
L 149.185055 98.096906 
L 149.396448 97.403906 
L 149.537377 98.096906 
L 149.74877 98.096906 
L 149.889698 99.136406 
L 150.030627 100.175906 
L 150.101091 100.175906 
L 150.24202 100.591706 
L 150.382949 102.254906 
L 150.876199 102.254906 
L 151.017128 102.947906 
L 151.087592 102.670706 
L 151.228521 104.333906 
L 151.721771 104.333906 
L 151.933164 106.412906 
L 152.215021 106.412906 
L 152.285485 106.828706 
L 152.426414 108.491906 
L 152.708272 108.491906 
L 152.8492 110.570906 
L 153.060593 110.570906 
L 153.271986 112.649906 
L 153.694772 112.649906 
L 153.835701 113.897306 
L 154.047094 114.728906 
L 154.540344 114.728906 
L 154.751737 116.807906 
L 155.104059 116.807906 
L 155.315452 118.193906 
L 155.45638 118.886906 
L 155.949631 118.886906 
L 156.090559 120.272906 
L 156.372417 120.965906 
L 156.58381 120.965906 
L 157.006596 123.044906 
L 157.288453 123.044906 
L 157.711239 125.123906 
L 158.063561 125.123906 
L 158.134025 125.470406 
L 158.274954 127.202906 
L 158.556811 127.202906 
L 158.627275 128.450306 
L 158.69774 128.034506 
L 158.838668 129.281906 
L 159.050061 129.281906 
L 159.120526 129.697706 
L 159.19099 129.281906 
L 159.331919 130.321406 
L 159.472847 131.360906 
L 159.754705 131.360906 
L 159.895633 132.192506 
L 159.966098 133.093406 
L 160.036562 132.608306 
L 160.177491 133.439906 
L 160.388884 133.439906 
L 160.600277 134.825906 
L 160.670741 135.518906 
L 160.741205 135.172406 
L 160.882134 135.518906 
L 161.234456 135.518906 
L 161.516313 137.597906 
L 161.868635 137.597906 
L 161.939099 138.013706 
L 162.080028 139.676906 
L 162.502814 139.676906 
L 162.9256 141.755906 
L 163.136993 141.755906 
L 163.207457 142.102406 
L 163.277921 141.755906 
L 163.348386 143.419106 
L 163.41885 143.141906 
L 163.489314 143.003306 
L 163.630243 143.834906 
L 164.123493 143.834906 
L 164.334886 145.220906 
L 164.405351 145.082306 
L 164.616744 145.913906 
L 164.828137 145.913906 
L 165.321387 147.992906 
L 165.53278 147.992906 
L 165.955566 150.071906 
L 166.237423 150.071906 
L 166.307888 151.457906 
L 166.378352 150.487706 
L 166.519281 152.150906 
L 166.589745 151.804406 
L 166.730674 152.150906 
L 166.871602 152.150906 
L 167.15346 154.229906 
L 167.505781 154.229906 
L 167.576246 154.576406 
L 167.64671 154.229906 
L 167.717174 154.922906 
L 167.787639 154.229906 
L 167.999032 156.308906 
L 168.421818 156.308906 
L 168.562746 156.724706 
L 168.633211 156.655406 
L 168.774139 158.387906 
L 169.126461 158.387906 
L 169.196925 158.803706 
L 169.26739 158.734406 
L 169.337854 158.803706 
L 169.619711 160.466906 
L 169.972033 160.466906 
L 170.465283 162.545906 
L 170.676676 162.545906 
L 170.817605 163.793306 
L 170.958534 164.624906 
L 171.028998 164.209106 
L 171.169926 164.624906 
L 171.310855 164.624906 
L 171.381319 164.971406 
L 171.451784 164.624906 
L 171.522248 164.971406 
L 171.663177 166.288106 
L 171.733641 166.010906 
L 171.87457 166.703906 
L 172.508749 166.703906 
L 172.720142 168.367106 
L 172.790606 168.089906 
L 172.861071 167.951306 
L 173.072463 168.782906 
L 173.213392 168.782906 
L 173.706642 170.861906 
L 174.270357 170.861906 
L 174.763607 172.940906 
L 175.186393 172.940906 
L 175.256858 173.287406 
L 175.327322 172.940906 
L 175.468251 175.019906 
L 175.538715 174.604106 
L 175.679644 175.019906 
L 176.10243 175.019906 
L 176.243358 176.267306 
L 176.384287 177.098906 
L 176.454751 176.683106 
L 176.59568 177.098906 
L 176.807073 177.098906 
L 177.08893 179.177906 
L 177.159395 178.346306 
L 177.300323 179.177906 
L 177.370788 178.762106 
L 177.511716 179.177906 
L 177.652645 179.177906 
L 177.723109 179.524406 
L 177.793574 179.177906 
L 178.004967 180.009506 
L 178.145895 181.256906 
L 178.21636 180.910406 
L 178.357288 181.256906 
L 178.568681 181.256906 
L 178.850539 182.088506 
L 179.061932 181.256906 
L 179.132396 181.603406 
L 179.273325 181.256906 
L 179.414253 181.256906 
L 180.259825 170.861906 
L 180.541683 166.357406 
L 181.31679 150.071906 
L 181.739576 142.102406 
L 181.810041 141.755906 
L 182.091898 135.934706 
L 182.162362 135.518906 
L 182.44422 130.945106 
L 182.867006 125.123906 
L 183.148863 121.312406 
L 183.289792 120.272906 
L 183.571649 116.807906 
L 183.712578 116.807906 
L 184.064899 112.649906 
L 184.276292 112.649906 
L 184.417221 110.570906 
L 184.628614 110.570906 
L 184.910471 108.491906 
L 185.262793 108.491906 
L 185.474186 106.412906 
L 185.756043 106.412906 
L 185.967436 105.026906 
L 186.108365 104.333906 
L 186.178829 104.749706 
L 186.319758 104.333906 
L 188.997403 104.333906 
L 189.490653 106.412906 
L 190.124832 106.412906 
L 190.336225 107.660306 
L 190.547618 108.491906 
L 191.252261 108.491906 
L 191.322726 109.323506 
L 191.39319 108.838406 
L 191.604583 110.570906 
L 192.238762 110.570906 
L 192.309226 111.610406 
L 192.450155 110.917406 
L 192.661548 112.303406 
L 192.802476 112.649906 
L 193.295727 112.649906 
L 193.366191 113.065706 
L 193.436655 112.649906 
L 193.50712 113.065706 
L 193.648048 114.728906 
L 194.423156 114.728906 
L 194.634549 116.461406 
L 194.705013 116.392106 
L 194.775478 116.807906 
L 194.845942 116.114906 
L 194.986871 116.807906 
L 195.339192 116.807906 
L 195.832443 118.886906 
L 196.255229 118.886906 
L 196.537086 120.272906 
L 196.60755 120.134306 
L 196.678015 120.272906 
L 196.818943 120.965906 
L 197.241729 120.965906 
L 197.73498 123.044906 
L 198.087301 123.044906 
L 198.510087 125.123906 
L 199.003338 125.123906 
L 199.214731 126.787106 
L 199.285195 126.856406 
L 199.426124 127.202906 
L 199.778445 127.202906 
L 199.84891 127.618706 
L 199.919374 127.202906 
L 200.130767 129.281906 
L 200.483089 129.281906 
L 200.553553 129.628406 
L 200.624017 129.281906 
L 200.694482 130.667906 
L 200.764946 130.113506 
L 200.83541 129.974906 
L 201.117268 131.360906 
L 201.540054 131.360906 
L 202.033304 133.439906 
L 202.597019 133.439906 
L 202.667483 135.518906 
L 202.737947 134.825906 
L 202.878876 135.518906 
L 203.301662 135.518906 
L 203.794912 137.597906 
L 204.217698 137.597906 
L 204.710949 139.676906 
L 205.274663 139.676906 
L 205.415592 140.924306 
L 205.486056 140.023406 
L 205.697449 141.409406 
L 205.838378 141.755906 
L 206.1907 141.755906 
L 206.613486 143.834906 
L 207.106736 143.834906 
L 207.529522 145.913906 
L 207.952308 145.913906 
L 208.093237 147.992906 
L 208.163701 147.646406 
L 208.30463 147.992906 
L 208.868344 147.992906 
L 208.938809 148.339406 
L 209.009273 147.992906 
L 209.150202 150.071906 
L 209.220666 149.240306 
L 209.432059 150.071906 
L 209.995774 150.071906 
L 210.136702 151.735106 
L 210.277631 151.319306 
L 210.489024 152.150906 
L 210.841346 152.150906 
L 211.264132 154.229906 
L 211.686918 154.229906 
L 211.757382 154.922906 
L 211.827846 154.229906 
L 211.898311 155.269406 
L 211.968775 154.229906 
L 212.180168 156.308906 
L 212.884811 156.308906 
L 213.096204 158.041406 
L 213.237133 158.387906 
L 213.51899 158.387906 
L 213.589455 158.734406 
L 213.730383 158.387906 
L 213.871312 159.427406 
L 214.01224 160.466906 
L 214.435026 160.466906 
L 214.505491 160.813406 
L 214.575955 160.466906 
L 215.069205 162.545906 
L 215.844313 162.545906 
L 215.985242 163.377506 
L 216.055706 162.545906 
L 216.267099 164.624906 
L 216.337563 164.278406 
L 216.478492 164.624906 
L 216.830814 164.624906 
L 217.042207 166.288106 
L 217.112671 165.317906 
L 217.183135 165.872306 
L 217.2536 165.872306 
L 217.464993 166.703906 
L 217.958243 166.703906 
L 218.169636 167.951306 
L 218.381029 168.782906 
L 219.156137 168.782906 
L 219.36753 170.030306 
L 219.437994 170.515406 
L 219.508458 170.030306 
L 219.649387 170.861906 
L 220.072173 170.861906 
L 220.213102 171.901406 
L 220.35403 171.554906 
L 220.565423 172.940906 
L 221.129138 172.940906 
L 221.199602 173.772506 
L 221.270067 173.287406 
L 221.48146 174.673406 
L 221.551924 174.188306 
L 221.692853 175.019906 
L 222.115639 175.019906 
L 222.186103 175.435706 
L 222.327032 175.019906 
L 222.397496 175.435706 
L 222.46796 175.019906 
L 222.890746 177.098906 
L 223.454461 177.098906 
L 223.665854 178.346306 
L 223.806783 178.762106 
L 223.947711 179.177906 
L 224.370497 179.177906 
L 224.511426 180.425306 
L 224.58189 179.177906 
L 224.652355 179.593706 
L 224.722819 179.593706 
L 225.004676 181.256906 
L 225.70932 181.256906 
L 226.132106 178.484906 
L 226.413963 175.019906 
L 226.625356 172.247906 
L 228.386964 139.261106 
L 228.668822 135.518906 
L 228.880215 131.776706 
L 228.950679 131.360906 
L 229.091608 129.281906 
L 230.078108 118.886906 
L 230.148573 118.471106 
L 230.289501 116.807906 
L 230.500894 115.560506 
L 230.853216 112.649906 
L 231.064609 112.649906 
L 231.205538 110.570906 
L 231.276002 111.263906 
L 231.416931 110.570906 
L 231.487395 110.570906 
L 231.910181 108.491906 
L 232.332967 108.491906 
L 232.54436 106.759406 
L 232.614824 107.244506 
L 232.685288 107.105906 
L 232.967146 106.412906 
L 235.010611 106.412906 
L 235.081076 106.828706 
L 235.222004 106.412906 
L 235.292469 106.412906 
L 235.362933 107.244506 
L 235.433397 106.759406 
L 235.503862 107.244506 
L 235.574326 106.828706 
L 235.64479 107.452406 
L 235.715255 106.828706 
L 235.785719 107.105906 
L 235.856183 107.244506 
L 235.997112 108.076106 
L 236.067576 107.798906 
L 236.208505 108.491906 
L 236.278969 108.491906 
L 236.349434 108.076106 
L 236.490362 108.491906 
L 236.913148 108.491906 
L 236.983613 108.907706 
L 237.124541 108.491906 
L 237.335934 110.224406 
L 237.406399 109.739306 
L 237.547327 110.570906 
L 238.181506 110.570906 
L 238.251971 110.917406 
L 238.322435 110.570906 
L 238.392899 110.917406 
L 238.463364 110.570906 
L 238.674757 112.234106 
L 238.745221 111.956906 
L 238.88615 112.649906 
L 239.238471 112.649906 
L 239.449864 114.313106 
L 239.590793 114.728906 
L 240.084043 114.728906 
L 240.154508 115.075406 
L 240.224972 116.392106 
L 240.295436 115.768406 
L 240.365901 116.392106 
L 240.436365 115.075406 
L 240.577294 116.461406 
L 240.647758 116.392106 
L 240.788687 116.807906 
L 241.422866 116.807906 
L 241.775187 118.055306 
L 241.845652 118.193906 
L 241.98658 118.886906 
L 242.550295 118.886906 
L 242.761688 120.272906 
L 242.832152 120.134306 
L 242.973081 120.965906 
L 243.60726 120.965906 
L 243.889117 122.698406 
L 243.959582 122.629106 
L 244.030046 122.698406 
L 244.170975 123.044906 
L 244.382368 123.044906 
L 244.452832 123.460706 
L 244.523296 123.044906 
L 244.664225 124.777406 
L 244.734689 124.708106 
L 244.875618 125.123906 
L 245.298404 125.123906 
L 245.580261 126.509906 
L 245.650726 125.955506 
L 245.791654 127.202906 
L 246.637226 127.202906 
L 247.060012 129.281906 
L 247.130477 128.935406 
L 247.271405 129.281906 
L 247.623727 129.281906 
L 247.764656 130.321406 
L 247.83512 130.113506 
L 247.976049 131.360906 
L 248.046513 131.014406 
L 248.187442 131.360906 
L 248.469299 131.360906 
L 248.610228 131.776706 
L 248.680692 131.707406 
L 248.892085 133.439906 
L 248.962549 133.439906 
L 249.033014 133.024106 
L 249.173942 133.439906 
L 249.4558 133.439906 
L 249.526264 134.687306 
L 249.596728 134.479406 
L 249.808121 135.518906 
L 250.4423 135.518906 
L 250.653693 136.904906 
L 250.724158 136.766306 
L 250.794622 136.904906 
L 250.865086 137.597906 
L 250.935551 137.182106 
L 251.076479 137.597906 
L 251.287872 137.597906 
L 251.56973 139.676906 
L 251.992516 139.676906 
L 252.06298 140.023406 
L 252.133444 139.676906 
L 252.274373 140.092706 
L 252.344837 140.023406 
L 252.415302 141.755906 
L 252.485766 140.924306 
L 252.697159 141.755906 
L 253.260873 141.755906 
L 253.331338 142.171706 
L 253.472266 141.755906 
L 253.683659 141.755906 
L 254.17691 143.834906 
L 254.811089 143.834906 
L 254.952017 145.082306 
L 255.022482 144.874406 
L 255.092946 144.666506 
L 255.16341 145.913906 
L 255.233875 145.498106 
L 255.304339 145.567406 
L 255.445268 145.913906 
L 255.797589 145.913906 
L 255.868054 147.577106 
L 255.938518 146.953406 
L 256.079447 147.992906 
L 256.149911 147.577106 
L 256.29084 147.992906 
L 256.502233 147.992906 
L 256.713626 149.032406 
L 256.78409 148.408706 
L 256.995483 150.071906 
L 257.559198 150.071906 
L 257.629662 150.418406 
L 257.770591 150.071906 
L 257.911519 151.457906 
L 257.981984 150.487706 
L 258.193377 152.150906 
L 258.827556 152.150906 
L 258.968484 152.566706 
L 259.109413 154.229906 
L 259.954985 154.229906 
L 260.377771 156.308906 
L 261.082414 156.308906 
L 261.152879 156.724706 
L 261.223343 156.655406 
L 261.293807 156.724706 
L 261.575665 158.387906 
L 262.562165 158.387906 
L 262.773558 159.773906 
L 263.055416 160.466906 
L 263.61913 160.466906 
L 263.689595 161.159906 
L 263.760059 160.882706 
L 263.830523 161.159906 
L 263.900988 160.882706 
L 264.182845 162.545906 
L 264.253309 162.545906 
L 264.323774 162.199406 
L 264.464702 162.545906 
L 264.74656 162.545906 
L 264.887488 163.377506 
L 265.028417 162.545906 
L 265.098881 163.931906 
L 265.169346 163.793306 
L 265.310274 164.209106 
L 265.451203 164.624906 
L 266.085382 164.624906 
L 266.155846 166.010906 
L 266.296775 164.624906 
L 266.367239 164.624906 
L 266.437704 166.703906 
L 266.508168 165.872306 
L 266.649097 166.703906 
L 267.212811 166.703906 
L 267.283276 167.535506 
L 267.35374 166.703906 
L 267.494669 168.367106 
L 267.565133 168.089906 
L 267.635597 168.782906 
L 267.706062 168.436406 
L 267.84699 168.782906 
L 268.410705 168.782906 
L 268.481169 169.129406 
L 268.551634 168.782906 
L 268.692562 170.861906 
L 268.763027 170.030306 
L 268.97442 170.861906 
L 269.679063 170.861906 
L 269.890456 172.594406 
L 270.031385 172.940906 
L 270.665564 172.940906 
L 271.08835 175.019906 
L 271.158814 174.673406 
L 271.299743 175.019906 
L 271.370207 174.604106 
L 271.511136 175.019906 
L 271.792993 175.019906 
L 271.863457 175.851506 
L 271.933922 175.366406 
L 272.004386 175.851506 
L 272.07485 175.366406 
L 272.215779 176.752406 
L 272.286243 176.683106 
L 272.427172 177.098906 
L 273.061351 177.098906 
L 273.131815 177.791906 
L 273.272744 177.098906 
L 273.413672 177.514706 
L 273.484137 178.831406 
L 273.554601 178.762106 
L 273.625066 178.831406 
L 273.69553 179.177906 
L 273.765994 178.831406 
L 273.836459 179.177906 
L 273.906923 178.831406 
L 274.047852 179.177906 
L 274.329709 179.177906 
L 274.400173 179.524406 
L 274.541102 179.177906 
L 274.752495 180.009506 
L 274.822959 179.593706 
L 274.963888 180.425306 
L 275.034352 180.217406 
L 275.104816 181.256906 
L 275.175281 180.910406 
L 275.245745 180.841106 
L 275.457138 180.217406 
L 275.598067 179.177906 
L 275.738995 179.177906 
L 276.373174 171.901406 
L 276.79596 164.624906 
L 277.289211 154.645706 
L 277.430139 152.150906 
L 277.92339 142.587506 
L 278.134783 139.330406 
L 278.41664 134.479406 
L 278.980355 127.202906 
L 279.050819 126.856406 
L 279.262212 124.084406 
L 279.403141 123.044906 
L 279.473605 122.629106 
L 279.755462 119.302706 
L 279.896391 118.886906 
L 280.03732 116.807906 
L 280.107784 116.807906 
L 280.319177 115.421906 
L 280.460106 114.728906 
L 280.53057 114.728906 
L 280.741963 112.649906 
L 280.953356 112.649906 
L 281.235213 110.570906 
L 281.517071 110.570906 
L 281.657999 109.739306 
L 281.798928 108.491906 
L 282.433107 108.491906 
L 282.503571 108.145406 
L 282.6445 108.491906 
L 282.714964 107.660306 
L 282.785429 107.798906 
L 282.855893 108.491906 
L 282.926357 108.145406 
L 282.996822 107.244506 
L 283.067286 107.798906 
L 283.13775 106.412906 
L 283.208215 108.076106 
L 283.278679 107.452406 
L 283.419608 107.105906 
L 283.560536 106.412906 
L 283.631001 106.412906 
L 283.842394 107.244506 
L 283.983322 106.412906 
L 284.124251 106.828706 
L 284.194715 106.759406 
L 284.26518 106.412906 
L 284.335644 107.452406 
L 284.406108 106.412906 
L 284.476573 106.759406 
L 284.547037 107.244506 
L 284.617501 106.828706 
L 284.899359 107.660306 
L 284.969823 107.452406 
L 285.040287 107.660306 
L 285.110752 108.491906 
L 285.181216 108.076106 
L 285.25168 107.105906 
L 285.322145 107.660306 
L 285.392609 107.452406 
L 285.604002 108.145406 
L 285.674466 108.076106 
L 285.744931 108.145406 
L 285.815395 108.491906 
L 285.956324 108.076106 
L 286.097252 108.491906 
L 286.801896 108.491906 
L 286.87236 108.907706 
L 286.942824 108.491906 
L 287.295146 110.570906 
L 287.36561 110.155106 
L 287.506539 110.570906 
L 287.999789 110.570906 
L 288.140718 110.986706 
L 288.211182 110.917406 
L 288.49304 112.234106 
L 288.633968 112.234106 
L 288.774897 112.649906 
L 289.338612 112.649906 
L 289.620469 113.689406 
L 289.761398 114.382406 
L 289.902326 114.728906 
L 290.60697 114.728906 
L 290.747898 116.114906 
L 290.818363 115.144706 
L 290.888827 116.461406 
L 290.959291 116.392106 
L 291.10022 116.807906 
L 291.59347 116.807906 
L 291.663935 117.154406 
L 291.734399 116.807906 
L 291.804863 117.154406 
L 291.875328 118.471106 
L 291.945792 118.193906 
L 292.08672 118.886906 
L 292.579971 118.886906 
L 292.861828 120.550106 
L 292.932292 119.579906 
L 293.073221 120.965906 
L 293.566472 120.965906 
L 293.636936 121.381706 
L 293.7074 121.312406 
L 293.777864 121.381706 
L 294.059722 123.044906 
L 294.130186 123.044906 
L 294.20065 122.698406 
L 294.341579 123.044906 
L 294.905294 123.044906 
L 295.187151 125.123906 
L 295.750866 125.123906 
L 296.173652 127.202906 
L 296.455509 127.202906 
L 296.596438 128.450306 
L 296.737366 129.281906 
L 296.807831 128.588906 
L 296.948759 129.281906 
L 297.089688 129.281906 
L 297.230617 129.697706 
L 297.301081 129.628406 
L 297.512474 131.360906 
L 298.639903 131.360906 
L 298.780832 132.192506 
L 298.851296 131.360906 
L 298.992225 132.608306 
L 299.062689 132.053906 
L 299.133154 132.192506 
L 299.203618 133.439906 
L 299.274082 133.024106 
L 299.415011 133.439906 
L 299.485475 133.439906 
L 299.55594 133.024106 
L 299.696868 133.439906 
L 300.119654 133.439906 
L 300.260583 134.825906 
L 300.331047 134.687306 
L 300.401512 134.479406 
L 300.612905 135.518906 
L 301.035691 135.518906 
L 301.176619 135.934706 
L 301.317548 135.934706 
L 301.388012 137.251406 
L 301.458477 136.350506 
L 301.599405 137.597906 
L 302.022191 137.597906 
L 302.092656 138.013706 
L 302.16312 137.944406 
L 302.233584 137.597906 
L 302.304049 138.290906 
L 302.374513 138.013706 
L 302.515442 138.845306 
L 302.65637 139.676906 
L 303.290549 139.676906 
L 303.361014 141.340106 
L 303.431478 141.062906 
L 303.501942 141.340106 
L 303.572407 141.062906 
L 303.854264 141.755906 
L 304.347514 141.755906 
L 304.558907 143.003306 
L 304.629372 142.795406 
L 304.699836 142.587506 
L 304.840765 143.488406 
L 304.911229 143.419106 
L 305.052158 143.834906 
L 305.545408 143.834906 
L 305.686337 144.666506 
L 305.756801 144.181406 
L 306.109123 145.913906 
L 306.461444 145.913906 
L 306.531909 146.260406 
L 306.602373 145.913906 
L 306.672837 147.299906 
L 306.743302 146.329706 
L 306.813766 146.745506 
L 307.025159 147.992906 
L 307.870731 147.992906 
L 307.941195 148.339406 
L 308.01166 147.992906 
L 308.082124 149.378906 
L 308.152588 149.240306 
L 308.293517 149.725406 
L 308.363981 149.240306 
L 308.50491 150.071906 
L 308.716303 150.071906 
L 308.99816 151.457906 
L 309.068625 151.319306 
L 309.280018 152.150906 
L 309.984661 152.150906 
L 310.266518 153.536906 
L 310.336983 153.398306 
L 310.407447 153.536906 
L 310.548376 154.229906 
L 311.393948 154.229906 
L 311.464412 154.645706 
L 311.534876 154.229906 
L 311.605341 155.061506 
L 311.675805 154.922906 
L 311.746269 155.061506 
L 311.816734 155.615906 
L 311.887198 155.477306 
L 311.957662 155.615906 
L 312.028127 155.477306 
L 312.169055 156.308906 
L 312.73277 156.308906 
L 313.22602 158.387906 
L 314.071592 158.387906 
L 314.282985 159.427406 
L 314.423914 160.466906 
L 315.058093 160.466906 
L 315.128557 160.882706 
L 315.269486 160.466906 
L 315.33995 160.466906 
L 315.8332 162.545906 
L 316.326451 162.545906 
L 316.396915 162.961706 
L 316.467379 162.545906 
L 316.819701 164.209106 
L 316.890165 164.209106 
L 317.031094 164.624906 
L 317.594809 164.624906 
L 317.735737 166.010906 
L 317.806202 165.040706 
L 317.94713 166.288106 
L 318.017595 166.357406 
L 318.158523 166.703906 
L 318.863167 166.703906 
L 319.145024 168.367106 
L 319.215488 167.951306 
L 319.285953 167.743406 
L 319.426881 168.782906 
L 319.990596 168.782906 
L 320.201989 169.475906 
L 320.272453 169.198706 
L 320.342918 169.475906 
L 320.413382 170.861906 
L 320.483846 170.515406 
L 320.624775 170.861906 
L 321.118025 170.861906 
L 321.18849 171.277706 
L 321.258954 171.208406 
L 321.329418 170.861906 
L 321.470347 171.277706 
L 321.540811 171.277706 
L 321.611276 171.554906 
L 321.752204 172.940906 
L 322.245455 172.940906 
L 322.315919 173.287406 
L 322.456848 172.940906 
L 322.527312 173.633906 
L 322.597776 172.940906 
L 322.809169 174.326906 
L 322.879634 174.188306 
L 323.091027 174.604106 
L 323.231955 175.019906 
L 323.725206 175.019906 
L 323.866134 175.435706 
L 323.936599 175.019906 
L 324.007063 175.851506 
L 324.077527 175.712906 
L 324.147992 175.851506 
L 324.28892 177.098906 
L 325.345885 177.098906 
L 325.41635 177.514706 
L 325.486814 177.098906 
L 325.9096 179.177906 
L 325.980064 178.484906 
L 326.120993 179.177906 
L 326.40285 179.177906 
L 326.543779 180.217406 
L 326.614243 179.593706 
L 326.684708 179.870906 
L 326.755172 180.425306 
L 326.825636 179.593706 
L 327.037029 181.256906 
L 327.600744 181.256906 
L 327.741673 180.841106 
L 327.882601 179.177906 
L 327.953066 179.177906 
L 328.093994 177.098906 
L 328.164459 177.098906 
L 328.587245 171.554906 
L 329.080495 162.545906 
L 329.573745 152.150906 
L 329.64421 152.150906 
L 329.926067 146.329706 
L 331.053496 129.281906 
L 331.123961 129.281906 
L 331.405818 125.816906 
L 332.392319 116.807906 
L 332.533247 116.807906 
L 332.674176 115.421906 
L 332.815104 114.728906 
L 332.885569 114.728906 
L 333.167426 112.649906 
L 333.449283 112.649906 
L 333.731141 110.570906 
L 334.012998 110.570906 
L 334.083462 110.155106 
L 334.224391 110.570906 
L 334.294856 110.570906 
L 334.506249 108.491906 
L 334.576713 108.907706 
L 334.717641 108.491906 
L 336.761107 108.491906 
L 336.831571 108.145406 
L 336.9725 108.491906 
L 338.029465 108.491906 
L 338.170394 109.323506 
L 338.240858 108.838406 
L 338.311322 109.323506 
L 338.381787 109.184906 
L 338.522715 109.531406 
L 338.734108 110.570906 
L 338.804573 110.570906 
L 338.875037 110.155106 
L 339.015966 110.570906 
L 339.438752 110.570906 
L 339.509216 110.986706 
L 339.650145 110.570906 
L 339.720609 110.570906 
L 339.861538 110.986706 
L 339.932002 110.917406 
L 340.072931 111.956906 
L 340.143395 111.818306 
L 340.213859 111.956906 
L 340.354788 112.649906 
L 340.425252 112.649906 
L 340.495717 112.234106 
L 340.636645 112.649906 
L 340.918503 112.649906 
L 341.129896 113.342906 
L 341.270824 113.065706 
L 341.482217 114.728906 
L 341.552682 114.313106 
L 341.69361 114.728906 
L 342.186861 114.728906 
L 342.327789 115.144706 
L 342.398254 114.728906 
L 342.609647 115.976306 
L 342.82104 116.807906 
L 343.455219 116.807906 
L 343.878005 118.886906 
L 344.441719 118.886906 
L 344.512184 119.302706 
L 344.582648 118.886906 
L 345.005434 120.965906 
L 345.780542 120.965906 
L 346.203328 123.044906 
L 346.837507 123.044906 
L 347.330757 125.123906 
L 347.753543 125.123906 
L 348.0354 126.787106 
L 348.105865 125.955506 
L 348.246793 127.202906 
L 348.740044 127.202906 
L 349.021901 128.866106 
L 349.16283 128.034506 
L 349.374223 129.281906 
L 349.444687 128.866106 
L 349.585616 129.281906 
L 349.937937 129.281906 
L 350.008402 129.974906 
L 350.078866 129.697706 
L 350.219795 129.697706 
L 350.572116 131.360906 
L 351.065367 131.360906 
L 351.206295 132.192506 
L 351.27676 131.707406 
L 351.558617 133.439906 
L 351.629081 133.024106 
L 351.77001 133.439906 
L 352.051867 133.439906 
L 352.122332 133.855706 
L 352.192796 133.786406 
L 352.333724 133.439906 
L 352.474653 133.439906 
L 352.545117 133.855706 
L 352.615582 135.103106 
L 352.686046 134.479406 
L 352.826975 135.518906 
L 353.108832 135.518906 
L 353.179296 135.934706 
L 353.320225 135.518906 
L 353.390689 135.518906 
L 353.461154 136.211906 
L 353.602082 135.518906 
L 353.813475 137.182106 
L 353.88394 137.251406 
L 354.024869 137.597906 
L 354.659047 137.597906 
L 355.081833 139.676906 
L 355.856941 139.676906 
L 355.927405 140.369906 
L 355.99787 140.092706 
L 356.138798 140.508506 
L 356.279727 141.755906 
L 356.843442 141.755906 
L 357.125299 143.003306 
L 357.266228 142.587506 
L 357.477621 143.834906 
L 357.900407 143.834906 
L 357.970871 144.250706 
L 358.041335 143.834906 
L 358.252728 145.913906 
L 359.027836 145.913906 
L 359.0983 146.329706 
L 359.168765 146.260406 
L 359.239229 146.329706 
L 359.309693 147.299906 
L 359.380158 147.161306 
L 359.450622 147.299906 
L 359.591551 147.992906 
L 360.155265 147.992906 
L 360.296194 148.408706 
L 360.366658 147.992906 
L 360.578051 150.071906 
L 360.71898 149.656106 
L 360.859909 150.071906 
L 361.282695 150.071906 
L 361.564552 151.735106 
L 361.635016 151.457906 
L 361.705481 150.071906 
L 361.775945 151.804406 
L 361.846409 151.735106 
L 361.987338 152.150906 
L 362.903374 152.150906 
L 362.973839 152.497406 
L 363.044303 152.150906 
L 363.114767 153.814106 
L 363.185232 152.843906 
L 363.255696 153.398306 
L 363.32616 153.536906 
L 363.467089 154.229906 
L 363.960339 154.229906 
L 364.030804 154.645706 
L 364.171732 154.229906 
L 364.664983 156.308906 
L 365.299162 156.308906 
L 365.369626 157.140506 
L 365.44009 156.655406 
L 365.792412 158.387906 
L 366.708448 158.387906 
L 366.778913 159.219506 
L 366.849377 158.387906 
L 367.131234 160.466906 
L 367.201699 160.051106 
L 367.342627 160.466906 
L 367.976806 160.466906 
L 368.188199 162.545906 
L 368.258664 162.130106 
L 368.399592 162.545906 
L 369.033771 162.545906 
L 369.386093 164.624906 
L 369.456557 164.278406 
L 369.597486 164.624906 
L 370.161201 164.624906 
L 370.231665 164.971406 
L 370.372594 164.624906 
L 370.443058 164.624906 
L 370.583987 165.040706 
L 370.654451 164.971406 
L 370.724915 166.288106 
L 370.79538 165.872306 
L 370.865844 165.664406 
L 371.006773 166.703906 
L 371.077237 166.703906 
L 371.147701 166.357406 
L 371.28863 166.703906 
L 371.500023 166.703906 
L 371.570487 167.119706 
L 371.711416 166.703906 
L 371.852345 166.703906 
L 371.993273 168.367106 
L 372.063738 168.089906 
L 372.204666 168.782906 
L 372.90931 168.782906 
L 373.050238 169.614506 
L 373.120703 168.782906 
L 373.332096 170.861906 
L 374.318596 170.861906 
L 374.459525 172.109306 
L 374.529989 171.901406 
L 374.670918 172.594406 
L 374.741382 172.525106 
L 374.811846 171.901406 
L 374.952775 172.940906 
L 375.586954 172.940906 
L 375.657418 173.356706 
L 375.727883 172.940906 
L 375.868811 174.188306 
L 376.080204 175.019906 
L 376.925776 175.019906 
L 377.066705 175.851506 
L 377.207634 176.752406 
L 377.348562 176.752406 
L 377.489491 177.098906 
L 378.194134 177.098906 
L 378.264599 177.791906 
L 378.335063 177.098906 
L 378.405527 177.791906 
L 378.475992 177.514706 
L 378.61692 177.930506 
L 378.757849 179.177906 
L 378.828313 179.177906 
L 378.898778 178.831406 
L 379.039706 179.177906 
L 379.110171 179.177906 
L 379.180635 179.524406 
L 379.251099 179.177906 
L 379.321564 179.524406 
L 379.392028 179.177906 
L 379.74435 180.425306 
L 379.814814 180.563906 
L 379.885278 180.009506 
L 379.955743 180.217406 
L 380.026207 180.841106 
L 380.096671 180.563906 
L 380.167136 180.425306 
L 380.308064 181.256906 
L 380.448993 180.425306 
L 380.519457 180.841106 
L 380.660386 179.177906 
L 380.801315 179.177906 
L 380.942243 177.098906 
L 381.012708 177.098906 
L 381.294565 172.940906 
L 381.505958 170.515406 
L 381.928744 162.545906 
L 382.069673 160.466906 
L 382.35153 154.645706 
L 382.985709 143.834906 
L 383.197102 139.676906 
L 383.267566 139.261106 
L 383.619888 133.439906 
L 383.690352 133.439906 
L 383.901745 129.697706 
L 384.042674 128.866106 
L 384.183603 127.202906 
L 384.254067 126.856406 
L 384.535924 123.460706 
L 384.676853 123.044906 
L 384.888246 120.272906 
L 385.099639 118.886906 
L 385.170103 118.886906 
L 385.451961 116.807906 
L 385.522425 116.807906 
L 385.733818 114.728906 
L 385.874747 114.728906 
L 386.156604 112.649906 
L 386.367997 112.649906 
L 386.508926 111.402506 
L 386.57939 111.956906 
L 386.720319 110.570906 
L 387.07264 110.570906 
L 387.143105 110.155106 
L 387.284033 110.570906 
L 387.354498 110.570906 
L 387.424962 108.491906 
L 387.495426 108.838406 
L 387.636355 108.491906 
L 388.763784 108.491906 
L 388.834249 108.076106 
L 388.975177 108.491906 
L 390.736786 108.491906 
L 390.80725 109.323506 
L 390.948179 108.491906 
L 391.018643 108.491906 
L 391.089107 109.184906 
L 391.159572 108.491906 
L 391.230036 108.838406 
L 391.3005 109.323506 
L 391.370964 109.184906 
L 391.441429 109.323506 
L 391.652822 110.570906 
L 392.42793 110.570906 
L 392.498394 110.986706 
L 392.639323 110.570906 
L 393.062109 112.649906 
L 393.978145 112.649906 
L 394.119073 113.897306 
L 394.260002 114.728906 
L 394.682788 114.728906 
L 394.753253 115.075406 
L 394.823717 114.728906 
L 395.03511 116.807906 
L 396.02161 116.807906 
L 396.092075 117.223706 
L 396.162539 118.471106 
L 396.233003 118.193906 
L 396.303468 118.055306 
L 396.444396 118.886906 
L 397.219504 118.886906 
L 397.430897 120.272906 
L 397.501361 120.965906 
L 397.571826 120.619406 
L 397.712754 120.965906 
L 398.206005 120.965906 
L 398.276469 121.381706 
L 398.346933 120.965906 
L 398.417398 122.213306 
L 398.487862 122.005406 
L 398.699255 123.044906 
L 399.474363 123.044906 
L 399.685756 124.708106 
L 399.75622 124.777406 
L 399.897149 125.123906 
L 400.390399 125.123906 
L 400.601792 126.371306 
L 400.672256 125.816906 
L 400.742721 126.371306 
L 400.813185 126.163406 
L 400.883649 125.539706 
L 401.235971 127.202906 
L 401.799686 127.202906 
L 401.87015 127.618706 
L 402.011079 127.202906 
L 402.081543 127.202906 
L 402.152007 128.866106 
L 402.222472 128.588906 
L 402.292936 129.281906 
L 402.3634 128.588906 
L 402.433865 129.281906 
L 402.504329 128.935406 
L 402.645258 129.281906 
L 403.068044 129.281906 
L 403.561294 131.360906 
L 404.054544 131.360906 
L 404.195473 131.776706 
L 404.336402 131.776706 
L 404.547795 133.093406 
L 404.618259 132.608306 
L 404.829652 133.439906 
L 405.322902 133.439906 
L 405.534295 134.479406 
L 405.675224 134.132906 
L 405.745688 134.271506 
L 405.816153 134.132906 
L 406.09801 135.518906 
L 406.732189 135.518906 
L 406.802653 136.350506 
L 406.873118 135.934706 
L 407.154975 137.597906 
L 407.648225 137.597906 
L 407.71869 138.013706 
L 407.859618 137.597906 
L 408.282404 139.676906 
L 408.846119 139.676906 
L 408.916583 140.369906 
L 408.987048 140.092706 
L 409.198441 140.924306 
L 409.339369 141.755906 
L 409.621227 141.755906 
L 413.073979 147.992906 
L 413.496765 147.992906 
L 413.637693 150.071906 
L 414.906051 150.071906 
L 415.04698 151.457906 
L 415.117444 150.071906 
L 415.258373 152.150906 
L 415.328837 151.631156 
L 415.469766 152.150906 
L 416.385802 152.150906 
L 416.526731 154.229906 
L 417.65416 154.229906 
L 418.006482 156.308906 
L 418.852054 156.308906 
L 419.204376 158.387906 
L 420.331805 158.387906 
L 420.543198 160.466906 
L 421.247841 160.466906 
L 421.318306 162.545906 
L 421.38877 160.466906 
L 421.529699 162.545906 
L 422.727592 162.545906 
L 422.938985 164.624906 
L 424.277808 164.624906 
L 424.489201 166.703906 
L 425.405237 166.703906 
L 425.546166 168.782906 
L 426.673595 168.782906 
L 426.814524 170.861906 
L 427.025917 168.782906 
L 427.166845 170.861906 
L 428.082882 170.861906 
L 428.153346 171.901406 
L 428.22381 170.861906 
L 428.364739 172.940906 
L 428.435203 172.940906 
L 428.505668 171.901406 
L 428.646596 172.940906 
L 429.492168 172.940906 
L 429.562633 173.356706 
L 429.703561 172.940906 
L 429.774026 174.326906 
L 429.84449 173.980406 
L 430.126347 175.019906 
L 431.042384 175.019906 
L 431.112848 176.059406 
L 431.253777 175.019906 
L 431.394705 175.019906 
L 431.535634 177.098906 
L 432.522135 177.098906 
L 432.592599 179.177906 
L 432.663063 178.484906 
L 432.733528 179.177906 
L 434.07235 179.177906 
L 434.213278 181.256906 
L 434.354207 179.177906 
L 434.776993 179.177906 
L 434.917922 177.098906 
L 435.05885 177.098906 
L 435.270243 173.772506 
L 435.763494 166.703906 
L 436.820459 147.992906 
L 437.454638 137.597906 
L 437.525102 137.597906 
L 437.736495 133.439906 
L 437.806959 133.439906 
L 438.30021 127.202906 
L 438.370674 127.202906 
L 438.582067 125.123906 
L 438.652531 125.123906 
L 438.934389 123.044906 
L 439.004853 123.044906 
L 439.145782 120.965906 
L 439.216246 120.965906 
L 439.357175 118.886906 
L 439.639032 118.886906 
L 439.779961 116.807906 
L 439.991354 116.807906 
L 440.202747 114.728906 
L 440.625533 114.728906 
L 440.766461 112.649906 
L 441.259712 112.649906 
L 441.330176 112.130156 
L 441.40064 112.649906 
L 441.612033 110.570906 
L 444.289678 110.570906 
L 444.360142 112.649906 
L 444.430607 110.570906 
L 444.571535 112.649906 
L 445.910358 112.649906 
L 445.980822 113.169656 
L 446.121751 112.649906 
L 446.192215 112.649906 
L 446.333144 114.728906 
L 447.390109 114.728906 
L 447.601502 116.807906 
L 448.728931 116.807906 
L 448.86986 117.500906 
L 448.940324 116.807906 
L 449.081253 118.886906 
L 450.067753 118.886906 
L 450.208682 120.965906 
L 450.98379 120.965906 
L 451.124718 123.044906 
L 452.111219 123.044906 
L 452.181683 124.084406 
L 452.252148 123.044906 
L 452.534005 125.123906 
L 453.661434 125.123906 
L 453.872827 127.202906 
L 454.718399 127.202906 
L 454.788863 127.722656 
L 454.929792 129.281906 
L 455.634435 129.281906 
L 455.7049 129.801656 
L 455.775364 129.281906 
L 455.845828 131.360906 
L 455.916293 129.281906 
L 455.986757 131.360906 
L 456.057221 129.974906 
L 456.19815 131.360906 
L 456.902793 131.360906 
L 457.184651 133.439906 
L 457.959758 133.439906 
L 458.030223 135.518906 
L 458.171151 133.439906 
L 458.31208 135.518906 
L 459.016723 135.518906 
L 459.087188 136.038656 
L 459.157652 135.518906 
L 459.228116 137.597906 
L 459.298581 136.350506 
L 459.439509 137.597906 
L 460.214617 137.597906 
L 460.285081 138.117656 
L 460.355546 137.597906 
L 460.496474 139.261106 
L 460.566939 138.290906 
L 460.707867 139.676906 
L 461.482975 139.676906 
L 461.623904 141.755906 
L 461.694368 140.716406 
L 461.835297 141.755906 
L 462.53994 141.755906 
L 462.610404 142.275656 
L 462.751333 141.755906 
L 462.962726 143.834906 
L 463.808298 143.834906 
L 463.878762 144.354656 
L 464.019691 143.834906 
L 464.16062 145.913906 
L 465.076656 145.913906 
L 465.288049 147.992906 
L 466.485943 147.992906 
L 466.838264 150.071906 
L 468.106622 150.071906 
L 468.247551 152.150906 
L 468.318015 150.071906 
L 468.458944 152.150906 
L 469.163587 152.150906 
L 469.234052 152.843906 
L 469.304516 152.150906 
L 469.445445 153.710156 
L 469.515909 152.150906 
L 469.656838 154.229906 
L 470.431945 154.229906 
L 470.643338 156.308906 
L 471.700303 156.308906 
L 471.841232 158.387906 
L 472.123089 158.387906 
L 482.340417 172.940906 
L 482.904132 172.940906 
L 483.045061 173.356706 
L 483.115525 172.940906 
L 483.397382 175.019906 
L 484.17249 175.019906 
L 484.242954 175.435706 
L 484.383883 175.019906 
L 484.595276 176.752406 
L 484.736205 176.059406 
L 484.947598 177.098906 
L 485.934098 177.098906 
L 486.075027 178.346306 
L 486.145491 178.138406 
L 486.568277 179.177906 
L 487.343385 179.177906 
L 487.413849 179.593706 
L 487.484314 179.524406 
L 487.554778 179.593706 
L 487.625242 180.217406 
L 487.695707 180.009506 
L 487.766171 179.870906 
L 487.9071 180.563906 
L 487.977564 179.177906 
L 488.048028 180.009506 
L 488.188957 179.177906 
L 488.259421 179.177906 
L 488.541279 177.098906 
L 489.034529 170.861906 
L 489.245922 166.703906 
L 489.457315 163.585406 
L 489.739172 158.387906 
L 490.02103 152.843906 
L 491.853102 125.123906 
L 491.994031 125.123906 
L 492.346353 121.312406 
L 492.487281 120.965906 
L 492.557745 120.965906 
L 492.698674 118.886906 
L 492.769138 118.886906 
L 492.980532 116.807906 
L 493.12146 116.807906 
L 493.262389 115.075406 
L 493.332853 115.144706 
L 493.473782 114.728906 
L 493.544246 114.728906 
L 493.685175 113.342906 
L 493.755639 112.649906 
L 493.826104 112.996406 
L 493.967032 112.649906 
L 494.037497 112.649906 
L 494.24889 110.570906 
L 494.319354 110.917406 
L 494.460282 110.570906 
L 494.671675 110.570906 
L 494.74214 110.224406 
L 494.812604 110.570906 
L 494.953533 110.155106 
L 495.023997 110.570906 
L 495.164926 110.155106 
L 495.23539 110.224406 
L 495.305854 109.739306 
L 495.376319 110.224406 
L 495.72864 108.491906 
L 495.799105 108.838406 
L 495.940033 108.491906 
L 496.080962 108.491906 
L 496.151426 108.838406 
L 496.292355 108.491906 
L 496.362819 108.491906 
L 496.433284 108.838406 
L 496.574212 108.491906 
L 497.067463 108.491906 
L 497.137927 108.907706 
L 497.278856 108.491906 
L 497.419784 108.491906 
L 497.560713 108.907706 
L 497.701642 108.491906 
L 497.772106 108.491906 
L 497.84257 108.838406 
L 497.983499 108.491906 
L 498.053963 109.739306 
L 498.124428 108.838406 
L 498.194892 109.323506 
L 498.265356 109.184906 
L 498.335821 109.323506 
L 498.547214 110.224406 
L 498.617678 110.570906 
L 498.688142 109.531406 
L 498.899535 110.570906 
L 498.97 110.570906 
L 499.040464 110.224406 
L 499.181393 110.570906 
L 499.674643 110.570906 
L 499.815572 110.986706 
L 499.886036 110.570906 
L 500.097429 112.649906 
L 500.238358 111.956906 
L 500.379286 112.649906 
L 500.449751 112.234106 
L 500.590679 112.649906 
L 501.295323 112.649906 
L 501.365787 113.897306 
L 501.436251 113.065706 
L 501.647644 114.728906 
L 501.718109 114.313106 
L 501.859037 114.728906 
L 502.634145 114.728906 
L 503.056931 116.807906 
L 503.127395 116.461406 
L 503.268324 116.807906 
L 503.69111 116.807906 
L 503.761574 117.154406 
L 503.832039 116.807906 
L 504.043432 117.847406 
L 504.113896 118.471106 
L 504.18436 117.639506 
L 504.254825 117.847406 
L 504.395753 118.886906 
L 504.889004 118.886906 
L 505.029932 120.134306 
L 505.100397 119.718506 
L 505.170861 119.926406 
L 505.382254 120.965906 
L 506.016433 120.965906 
L 506.157362 121.381706 
L 506.227826 122.698406 
L 506.29829 121.381706 
L 506.509683 123.044906 
L 507.002934 123.044906 
L 507.073398 123.460706 
L 507.143862 123.044906 
L 507.355255 124.292306 
L 507.42572 123.391406 
L 507.496184 123.460706 
L 507.707577 124.430906 
L 507.848506 125.123906 
L 508.694078 125.123906 
L 508.835006 126.371306 
L 508.905471 126.163406 
L 509.046399 127.202906 
L 509.751043 127.202906 
L 510.173829 128.935406 
L 510.314757 128.935406 
L 510.455686 129.281906 
L 511.019401 129.281906 
L 511.230794 130.667906 
L 511.301258 130.529306 
L 511.442187 131.360906 
L 511.935437 131.360906 
L 512.14683 132.400406 
L 512.217294 132.192506 
L 512.287758 132.400406 
L 512.499151 133.439906 
L 512.921938 133.439906 
L 512.992402 133.855706 
L 513.133331 133.439906 
L 513.203795 133.786406 
L 513.274259 133.439906 
L 513.556117 135.518906 
L 513.697045 134.687306 
L 513.837974 135.518906 
L 513.908438 135.103106 
L 514.049367 135.518906 
L 514.542617 135.518906 
L 514.824474 137.182106 
L 514.894939 136.904906 
L 515.176796 137.597906 
L 515.670046 137.597906 
L 515.740511 138.845306 
L 515.810975 138.290906 
L 515.881439 138.013706 
L 515.951904 138.983906 
L 516.022368 138.429506 
L 516.233761 139.676906 
L 516.586083 139.676906 
L 516.656547 140.092706 
L 516.727011 139.676906 
L 516.86794 140.716406 
L 516.938404 139.676906 
L 517.008869 140.023406 
L 517.079333 141.340106 
L 517.149797 141.062906 
L 517.220262 141.340106 
L 517.290726 141.062906 
L 517.572583 141.755906 
L 517.995369 141.755906 
L 518.136298 142.171706 
L 518.206762 142.102406 
L 518.277227 141.755906 
L 518.48862 143.003306 
L 518.559084 142.102406 
L 518.770477 143.834906 
L 519.334192 143.834906 
L 519.404656 144.250706 
L 519.47512 144.181406 
L 519.545585 144.250706 
L 519.686513 144.666506 
L 519.827442 145.913906 
L 520.461621 145.913906 
L 520.532085 147.299906 
L 520.60255 146.745506 
L 520.673014 147.299906 
L 520.743478 146.745506 
L 520.813943 146.953406 
L 520.884407 147.992906 
L 520.954871 147.646406 
L 521.025336 147.577106 
L 521.166264 147.992906 
L 521.870908 147.992906 
L 521.941372 148.408706 
L 522.011836 148.339406 
L 522.082301 148.408706 
L 522.152765 147.992906 
L 522.364158 149.378906 
L 522.434622 149.240306 
L 522.505087 148.685906 
L 522.71648 150.071906 
L 523.421123 150.071906 
L 523.562052 151.804406 
L 523.70298 150.764906 
L 523.773445 151.735106 
L 523.843909 151.111406 
L 524.055302 152.150906 
L 524.548552 152.150906 
L 524.689481 152.982506 
L 524.900874 152.150906 
L 525.394124 154.229906 
L 526.028303 154.229906 
L 526.098768 155.061506 
L 526.169232 154.229906 
L 526.239696 154.645706 
L 526.310161 154.576406 
L 526.380625 154.229906 
L 526.592018 155.962406 
L 526.662482 155.893106 
L 526.803411 156.308906 
L 527.578519 156.308906 
L 528.071769 158.387906 
L 528.635484 158.387906 
L 528.776412 158.803706 
L 528.917341 158.803706 
L 528.987805 158.803706 
L 529.269663 160.466906 
L 529.340127 160.120406 
L 529.481056 160.466906 
L 529.55152 160.051106 
L 529.692449 160.466906 
L 529.974306 160.466906 
L 530.04477 160.882706 
L 530.185699 160.466906 
L 530.467556 160.466906 
L 530.749414 162.545906 
L 530.819878 162.545906 
L 530.890342 162.130106 
L 531.031271 162.545906 
L 531.806379 162.545906 
L 532.017772 164.209106 
L 532.088236 163.585406 
L 532.229165 162.892406 
L 532.370093 163.931906 
L 532.511022 162.961706 
L 532.792879 164.624906 
L 533.497522 164.624906 
L 533.638451 165.664406 
L 533.708916 165.456506 
L 533.77938 164.971406 
L 533.990773 166.703906 
L 534.554487 166.703906 
L 534.624952 167.119706 
L 534.695416 167.050406 
L 534.836345 166.703906 
L 534.906809 166.703906 
L 535.118202 168.089906 
L 535.259131 168.782906 
L 536.034238 168.782906 
L 536.104703 169.198706 
L 536.175167 169.129406 
L 536.245631 169.198706 
L 536.597953 170.861906 
L 537.373061 170.861906 
L 537.443525 171.208406 
L 537.513989 170.861906 
L 537.584454 172.247906 
L 537.654918 172.109306 
L 537.725382 171.901406 
L 537.795847 172.109306 
L 537.936775 172.940906 
L 538.852812 172.940906 
L 538.923276 173.980406 
L 539.064205 172.940906 
L 539.275598 173.633906 
L 539.346062 173.356706 
L 539.557455 175.019906 
L 539.627919 175.019906 
L 539.698384 174.673406 
L 539.768848 175.019906 
L 539.909777 174.188306 
L 540.050705 175.019906 
L 540.825813 175.019906 
L 540.896277 175.435706 
L 540.966742 175.019906 
L 541.248599 177.098906 
L 541.812314 177.098906 
L 541.953242 177.514706 
L 542.094171 177.098906 
L 542.164635 177.098906 
L 542.587421 179.177906 
L 543.644386 179.177906 
L 543.714851 180.009506 
L 543.785315 179.870906 
L 543.855779 179.593706 
L 543.926244 180.425306 
L 543.996708 179.870906 
L 544.067172 180.009506 
L 544.137637 179.870906 
L 544.208101 179.177906 
L 544.278565 179.524406 
L 544.419494 179.177906 
L 544.489958 179.177906 
L 544.912744 175.019906 
L 545.053673 172.940906 
L 545.124137 172.525106 
L 545.476459 166.703906 
L 547.519925 132.192506 
L 548.365497 123.044906 
L 548.57689 123.044906 
L 548.717818 120.965906 
L 548.858747 120.965906 
L 548.929211 120.550106 
L 549.07014 118.886906 
L 549.140604 118.886906 
L 549.422462 116.807906 
L 549.56339 116.807906 
L 549.774783 114.728906 
L 550.197569 114.728906 
L 550.338498 113.342906 
L 550.620355 112.649906 
L 550.69082 112.996406 
L 550.972677 111.956906 
L 551.113606 110.570906 
L 552.381964 110.570906 
L 552.452428 110.224406 
L 552.593357 110.570906 
L 554.143572 110.570906 
L 554.214036 111.818306 
L 554.284501 111.610406 
L 554.425429 111.263906 
L 554.566358 112.649906 
L 554.636822 111.956906 
L 554.707287 112.649906 
L 554.777751 111.956906 
L 554.918679 112.649906 
L 555.764251 112.649906 
L 555.834716 112.996406 
L 555.975644 112.649906 
L 556.046109 113.481506 
L 556.116573 112.996406 
L 556.187037 113.481506 
L 556.257502 113.342906 
L 556.327966 113.481506 
L 556.609823 114.728906 
L 557.596324 114.728906 
L 557.666788 115.768406 
L 557.737253 115.560506 
L 557.807717 115.075406 
L 557.878181 115.976306 
L 557.948646 115.768406 
L 558.01911 115.976306 
L 558.160039 116.807906 
L 558.230503 116.392106 
L 558.300967 116.461406 
L 558.441896 116.807906 
L 558.723753 116.807906 
L 559.076075 118.540406 
L 559.146539 117.639506 
L 559.357932 118.886906 
L 559.780718 118.886906 
L 560.13304 120.619406 
L 560.203504 120.134306 
L 560.344433 120.965906 
L 561.049076 120.965906 
L 561.190005 122.005406 
L 561.260469 121.797506 
L 561.542327 123.044906 
L 562.528827 123.044906 
L 562.599292 123.737906 
L 562.669756 123.460706 
L 562.74022 123.391406 
L 563.092542 125.123906 
L 563.163006 125.123906 
L 563.303935 124.708106 
L 563.444864 125.123906 
L 563.938114 125.123906 
L 564.008578 126.163406 
L 564.079043 125.955506 
L 564.290436 126.856406 
L 564.431364 127.202906 
L 564.924615 127.202906 
L 564.995079 127.618706 
L 565.065543 127.202906 
L 565.347401 128.935406 
L 565.417865 128.450306 
L 565.558794 129.281906 
L 565.629258 128.935406 
L 565.770187 129.281906 
L 566.263437 129.281906 
L 566.404366 130.321406 
L 566.545294 131.360906 
L 566.686223 131.360906 
L 566.756687 130.529306 
L 566.897616 131.360906 
L 567.320402 131.360906 
L 567.390866 131.776706 
L 567.461331 131.707406 
L 567.531795 131.360906 
L 567.672724 132.608306 
L 567.743188 132.746906 
L 567.813652 133.439906 
L 567.884117 133.024106 
L 567.954581 133.093406 
L 568.09551 133.439906 
L 568.447831 133.439906 
L 568.518296 133.786406 
L 568.58876 133.439906 
L 568.659224 133.786406 
L 568.729689 135.103106 
L 568.800153 134.825906 
L 568.941082 134.687306 
L 569.152475 135.518906 
L 569.645725 135.518906 
L 570.068511 137.597906 
L 570.138975 137.182106 
L 570.20944 137.251406 
L 570.350368 137.597906 
L 570.914083 137.597906 
L 571.055012 138.429506 
L 571.125476 137.944406 
L 571.19594 138.013706 
L 571.407333 139.676906 
L 571.689191 139.676906 
L 571.759655 139.261106 
L 571.900584 139.676906 
L 572.041512 139.676906 
L 572.111977 140.508506 
L 572.182441 139.676906 
L 572.32337 141.062906 
L 572.393834 140.092706 
L 572.534763 141.755906 
L 572.675691 140.924306 
L 572.746156 141.340106 
L 572.81662 141.062906 
L 573.098477 141.755906 
L 573.450799 141.755906 
L 573.591728 142.587506 
L 573.662192 142.171706 
L 573.732656 142.448906 
L 573.803121 143.834906 
L 573.873585 143.488406 
L 573.944049 143.834906 
L 574.014514 143.488406 
L 574.155442 143.834906 
L 574.578228 143.834906 
L 575.071478 145.913906 
L 575.635193 145.913906 
L 575.705657 146.260406 
L 575.776122 145.913906 
L 575.846586 146.953406 
L 575.91705 146.745506 
L 575.987515 146.953406 
L 576.057979 146.745506 
L 576.128443 147.646406 
L 576.198908 147.577106 
L 576.339836 147.992906 
L 576.903551 147.992906 
L 576.903551 147.992906 
" clip-path="url(#pafce6432cd)" style="fill: none; stroke: #1f77b4; stroke-width: 1.5; stroke-linecap: round"/>
   </g>
   <g id="line2d_18">
    <path d="M 44.267187 177.098906 
L 602.267187 177.098906 
" clip-path="url(#pafce6432cd)" style="fill: none; stroke-dasharray: 5.55,2.4; stroke-dashoffset: 0; stroke: #ff0000; stroke-width: 1.5"/>
   </g>
   <g id="patch_12">
    <path d="M 44.267187 343.418906 
L 44.267187 10.778906 
" style="fill: none; stroke: #000000; stroke-width: 0.8; stroke-linejoin: miter; stroke-linecap: square"/>
   </g>
   <g id="patch_13">
    <path d="M 602.267187 343.418906 
L 602.267187 10.778906 
" style="fill: none; stroke: #000000; stroke-width: 0.8; stroke-linejoin: miter; stroke-linecap: square"/>
   </g>
   <g id="patch_14">
    <path d="M 44.267187 343.418906 
L 602.267187 343.418906 
" style="fill: none; stroke: #000000; stroke-width: 0.8; stroke-linejoin: miter; stroke-linecap: square"/>
   </g>
   <g id="patch_15">
    <path d="M 44.267187 10.778906 
L 602.267187 10.778906 
" style="fill: none; stroke: #000000; stroke-width: 0.8; stroke-linejoin: miter; stroke-linecap: square"/>
   </g>
   <g id="text_19">
    <!-- 91.0s -->
    <g transform="translate(118.885392 52.358906) scale(0.08 -0.08)">
     <defs>
      <path id="Arial-BoldMT-39" d="M 291 1059 
L 1141 1153 
Q 1172 894 1303 769 
Q 1434 644 1650 644 
Q 1922 644 2112 894 
Q 2303 1144 2356 1931 
Q 2025 1547 1528 1547 
Q 988 1547 595 1964 
Q 203 2381 203 3050 
Q 203 3747 617 4173 
Q 1031 4600 1672 4600 
Q 2369 4600 2816 4061 
Q 3263 3522 3263 2288 
Q 3263 1031 2797 475 
Q 2331 -81 1584 -81 
Q 1047 -81 715 205 
Q 384 491 291 1059 
z
M 2278 2978 
Q 2278 3403 2083 3637 
Q 1888 3872 1631 3872 
Q 1388 3872 1227 3680 
Q 1066 3488 1066 3050 
Q 1066 2606 1241 2398 
Q 1416 2191 1678 2191 
Q 1931 2191 2104 2391 
Q 2278 2591 2278 2978 
z
" transform="scale(0.015625)"/>
      <path id="Arial-BoldMT-31" d="M 2519 0 
L 1641 0 
L 1641 3309 
Q 1159 2859 506 2644 
L 506 3441 
Q 850 3553 1253 3867 
Q 1656 4181 1806 4600 
L 2519 4600 
L 2519 0 
z
" transform="scale(0.015625)"/>
      <path id="Arial-BoldMT-2e" d="M 459 0 
L 459 878 
L 1338 878 
L 1338 0 
L 459 0 
z
" transform="scale(0.015625)"/>
      <path id="Arial-BoldMT-30" d="M 1756 4600 
Q 2422 4600 2797 4125 
Q 3244 3563 3244 2259 
Q 3244 959 2794 391 
Q 2422 -78 1756 -78 
Q 1088 -78 678 436 
Q 269 950 269 2269 
Q 269 3563 719 4131 
Q 1091 4600 1756 4600 
z
M 1756 3872 
Q 1597 3872 1472 3770 
Q 1347 3669 1278 3406 
Q 1188 3066 1188 2259 
Q 1188 1453 1269 1151 
Q 1350 850 1473 750 
Q 1597 650 1756 650 
Q 1916 650 2041 751 
Q 2166 853 2234 1116 
Q 2325 1453 2325 2259 
Q 2325 3066 2244 3367 
Q 2163 3669 2039 3770 
Q 1916 3872 1756 3872 
z
" transform="scale(0.015625)"/>
      <path id="Arial-BoldMT-73" d="M 150 947 
L 1031 1081 
Q 1088 825 1259 692 
Q 1431 559 1741 559 
Q 2081 559 2253 684 
Q 2369 772 2369 919 
Q 2369 1019 2306 1084 
Q 2241 1147 2013 1200 
Q 950 1434 666 1628 
Q 272 1897 272 2375 
Q 272 2806 612 3100 
Q 953 3394 1669 3394 
Q 2350 3394 2681 3172 
Q 3013 2950 3138 2516 
L 2309 2363 
Q 2256 2556 2107 2659 
Q 1959 2763 1684 2763 
Q 1338 2763 1188 2666 
Q 1088 2597 1088 2488 
Q 1088 2394 1175 2328 
Q 1294 2241 1995 2081 
Q 2697 1922 2975 1691 
Q 3250 1456 3250 1038 
Q 3250 581 2869 253 
Q 2488 -75 1741 -75 
Q 1063 -75 667 200 
Q 272 475 150 947 
z
" transform="scale(0.015625)"/>
     </defs>
     <use xlink:href="#Arial-BoldMT-39"/>
     <use xlink:href="#Arial-BoldMT-31" x="55.615234"/>
     <use xlink:href="#Arial-BoldMT-2e" x="111.230469"/>
     <use xlink:href="#Arial-BoldMT-30" x="139.013672"/>
     <use xlink:href="#Arial-BoldMT-73" x="194.628906"/>
    </g>
   </g>
   <g id="text_20">
    <!-- 19.5s -->
    <g transform="translate(177.08893 52.358906) scale(0.08 -0.08)">
     <defs>
      <path id="Arial-BoldMT-35" d="M 284 1178 
L 1159 1269 
Q 1197 972 1381 798 
Q 1566 625 1806 625 
Q 2081 625 2272 848 
Q 2463 1072 2463 1522 
Q 2463 1944 2273 2155 
Q 2084 2366 1781 2366 
Q 1403 2366 1103 2031 
L 391 2134 
L 841 4519 
L 3163 4519 
L 3163 3697 
L 1506 3697 
L 1369 2919 
Q 1663 3066 1969 3066 
Q 2553 3066 2959 2641 
Q 3366 2216 3366 1538 
Q 3366 972 3038 528 
Q 2591 -78 1797 -78 
Q 1163 -78 763 262 
Q 363 603 284 1178 
z
" transform="scale(0.015625)"/>
     </defs>
     <use xlink:href="#Arial-BoldMT-31"/>
     <use xlink:href="#Arial-BoldMT-39" x="55.615234"/>
     <use xlink:href="#Arial-BoldMT-2e" x="111.230469"/>
     <use xlink:href="#Arial-BoldMT-35" x="139.013672"/>
     <use xlink:href="#Arial-BoldMT-73" x="194.628906"/>
    </g>
   </g>
   <g id="text_21">
    <!-- 16.5s -->
    <g transform="translate(223.877247 52.358906) scale(0.08 -0.08)">
     <defs>
      <path id="Arial-BoldMT-36" d="M 3247 3459 
L 2397 3366 
Q 2366 3628 2234 3753 
Q 2103 3878 1894 3878 
Q 1616 3878 1423 3628 
Q 1231 3378 1181 2588 
Q 1509 2975 1997 2975 
Q 2547 2975 2939 2556 
Q 3331 2138 3331 1475 
Q 3331 772 2918 347 
Q 2506 -78 1859 -78 
Q 1166 -78 719 461 
Q 272 1000 272 2228 
Q 272 3488 737 4044 
Q 1203 4600 1947 4600 
Q 2469 4600 2811 4308 
Q 3153 4016 3247 3459 
z
M 1256 1544 
Q 1256 1116 1453 883 
Q 1650 650 1903 650 
Q 2147 650 2309 840 
Q 2472 1031 2472 1466 
Q 2472 1913 2297 2120 
Q 2122 2328 1859 2328 
Q 1606 2328 1431 2129 
Q 1256 1931 1256 1544 
z
" transform="scale(0.015625)"/>
     </defs>
     <use xlink:href="#Arial-BoldMT-31"/>
     <use xlink:href="#Arial-BoldMT-36" x="55.615234"/>
     <use xlink:href="#Arial-BoldMT-2e" x="111.230469"/>
     <use xlink:href="#Arial-BoldMT-35" x="139.013672"/>
     <use xlink:href="#Arial-BoldMT-73" x="194.628906"/>
    </g>
   </g>
   <g id="text_22">
    <!-- 15.5s -->
    <g transform="translate(273.69553 52.358906) scale(0.08 -0.08)">
     <use xlink:href="#Arial-BoldMT-31"/>
     <use xlink:href="#Arial-BoldMT-35" x="55.615234"/>
     <use xlink:href="#Arial-BoldMT-2e" x="111.230469"/>
     <use xlink:href="#Arial-BoldMT-35" x="139.013672"/>
     <use xlink:href="#Arial-BoldMT-73" x="194.628906"/>
    </g>
   </g>
   <g id="text_23">
    <!-- 15.5s -->
    <g transform="translate(325.9096 52.358906) scale(0.08 -0.08)">
     <use xlink:href="#Arial-BoldMT-31"/>
     <use xlink:href="#Arial-BoldMT-35" x="55.615234"/>
     <use xlink:href="#Arial-BoldMT-2e" x="111.230469"/>
     <use xlink:href="#Arial-BoldMT-35" x="139.013672"/>
     <use xlink:href="#Arial-BoldMT-73" x="194.628906"/>
    </g>
   </g>
   <g id="text_24">
    <!-- 15.5s -->
    <g transform="translate(378.757849 52.358906) scale(0.08 -0.08)">
     <use xlink:href="#Arial-BoldMT-31"/>
     <use xlink:href="#Arial-BoldMT-35" x="55.615234"/>
     <use xlink:href="#Arial-BoldMT-2e" x="111.230469"/>
     <use xlink:href="#Arial-BoldMT-35" x="139.013672"/>
     <use xlink:href="#Arial-BoldMT-73" x="194.628906"/>
    </g>
   </g>
   <g id="text_25">
    <!-- 16.0s -->
    <g transform="translate(432.592599 52.358906) scale(0.08 -0.08)">
     <use xlink:href="#Arial-BoldMT-31"/>
     <use xlink:href="#Arial-BoldMT-36" x="55.615234"/>
     <use xlink:href="#Arial-BoldMT-2e" x="111.230469"/>
     <use xlink:href="#Arial-BoldMT-30" x="139.013672"/>
     <use xlink:href="#Arial-BoldMT-73" x="194.628906"/>
    </g>
   </g>
   <g id="text_26">
    <!-- 15.0s -->
    <g transform="translate(486.427349 52.358906) scale(0.08 -0.08)">
     <use xlink:href="#Arial-BoldMT-31"/>
     <use xlink:href="#Arial-BoldMT-35" x="55.615234"/>
     <use xlink:href="#Arial-BoldMT-2e" x="111.230469"/>
     <use xlink:href="#Arial-BoldMT-30" x="139.013672"/>
     <use xlink:href="#Arial-BoldMT-73" x="194.628906"/>
    </g>
   </g>
   <g id="text_27">
    <!-- 15.0s -->
    <g transform="translate(542.516957 52.358906) scale(0.08 -0.08)">
     <use xlink:href="#Arial-BoldMT-31"/>
     <use xlink:href="#Arial-BoldMT-35" x="55.615234"/>
     <use xlink:href="#Arial-BoldMT-2e" x="111.230469"/>
     <use xlink:href="#Arial-BoldMT-30" x="139.013672"/>
     <use xlink:href="#Arial-BoldMT-73" x="194.628906"/>
    </g>
   </g>
  </g>
 </g>
 <defs>
  <clipPath id="pafce6432cd">
   <rect x="44.267187" y="10.778906" width="558" height="332.64"/>
  </clipPath>
 </defs>
</svg>
