<svg xmlns="http://www.w3.org/2000/svg" xmlns:xlink="http://www.w3.org/1999/xlink" width="825.513"
    height="422.588" viewBox="0 0 619.135 316.941">
    <defs>
        <style>*{stroke-linejoin:round;stroke-linecap:butt}</style>
    </defs>
    <g id="figure_1">
        <path id="patch_1" d="M0 316.94h619.135V0H0z" style="fill:#fff" />
        <g id="axes_1">
            <path id="patch_2" d="M53.935 297.998h558v-277.2h-558z" style="fill:#fff" />
            <path id="patch_3" d="M105.912 297.998v-277.2h3.226v277.2z"
                clip-path="url(#p45c03732e8)"
                style="fill:red;opacity:.1;stroke:red;stroke-linejoin:miter" />
            <path id="patch_4" d="M159.14 297.998v-277.2h3.226v277.2z" clip-path="url(#p45c03732e8)"
                style="fill:red;opacity:.1;stroke:red;stroke-linejoin:miter" />
            <path id="patch_5" d="M216.4 297.998v-277.2h2.419v277.2z" clip-path="url(#p45c03732e8)"
                style="fill:red;opacity:.1;stroke:red;stroke-linejoin:miter" />
            <path id="patch_6" d="M276.079 297.998v-277.2h2.419v277.2z"
                clip-path="url(#p45c03732e8)"
                style="fill:red;opacity:.1;stroke:red;stroke-linejoin:miter" />
            <path id="patch_7" d="M336.564 297.998v-277.2h2.42v277.2z" clip-path="url(#p45c03732e8)"
                style="fill:red;opacity:.1;stroke:red;stroke-linejoin:miter" />
            <path id="patch_8" d="M398.663 297.998v-277.2h2.42v277.2z" clip-path="url(#p45c03732e8)"
                style="fill:red;opacity:.1;stroke:red;stroke-linejoin:miter" />
            <path id="patch_9" d="M459.955 297.998v-277.2h2.42v277.2z" clip-path="url(#p45c03732e8)"
                style="fill:red;opacity:.1;stroke:red;stroke-linejoin:miter" />
            <path id="patch_10" d="M524.473 297.998v-277.2h2.42v277.2z"
                clip-path="url(#p45c03732e8)"
                style="fill:red;opacity:.1;stroke:red;stroke-linejoin:miter" />
            <g id="matplotlib.axis_1">
                <g id="text_1" transform="matrix(.08 0 0 -.08 323.148 308.077)">
                    <defs>
                        <path id="DejaVuSans-54" d="M-19 4666h3947v-532H2272V0h-634v4134H-19v532z"
                            transform="scale(.01563)" />
                        <path id="DejaVuSans-69"
                            d="M603 3500h575V0H603v3500zm0 1363h575v-729H603v729z"
                            transform="scale(.01563)" />
                        <path id="DejaVuSans-6d"
                            d="M3328 2828q216 388 516 572t706 184q547 0 844-383 297-382 297-1088V0h-578v2094q0 503-179 746-178 244-543 244-447 0-707-297-259-296-259-809V0h-578v2094q0 506-178 748t-550 242q-441 0-701-298-259-298-259-808V0H581v3500h578v-544q197 322 472 475t653 153q382 0 649-194 267-193 395-562z"
                            transform="scale(.01563)" />
                        <path id="DejaVuSans-65"
                            d="M3597 1894v-281H953q38-594 358-905t892-311q331 0 642 81t618 244V178Q3153 47 2828-22t-659-69q-838 0-1327 487-489 488-489 1320 0 859 464 1363 464 505 1252 505 706 0 1117-455 411-454 411-1235zm-575 169q-6 471-264 752-258 282-683 282-481 0-770-272t-333-766l2050 4z"
                            transform="scale(.01563)" />
                    </defs>
                    <use xlink:href="#DejaVuSans-54" />
                    <use xlink:href="#DejaVuSans-69" x="57.959" />
                    <use xlink:href="#DejaVuSans-6d" x="85.742" />
                    <use xlink:href="#DejaVuSans-65" x="183.154" />
                </g>
            </g>
            <g id="matplotlib.axis_2">
                <g id="ytick_1">
                    <g id="line2d_1">
                        <defs>
                            <path id="m6b8be93eb3" d="M0 0h-3.5" style="stroke:#000;stroke-width:.8" />
                        </defs>
                        <use xlink:href="#m6b8be93eb3" x="53.935" y="297.998"
                            style="stroke:#000;stroke-width:.8" />
                    </g>
                    <g id="text_2" transform="matrix(.08 0 0 -.08 29.122 301.038)">
                        <defs>
                            <path id="DejaVuSans-39"
                                d="M703 97v575q238-113 481-172 244-59 479-59 625 0 954 420 330 420 377 1277-181-269-460-413-278-144-615-144-700 0-1108 423-408 424-408 1159 0 718 425 1152 425 435 1131 435 810 0 1236-621 427-620 427-1801 0-1103-524-1761Q2575-91 1691-91q-238 0-482 47Q966 3 703 97zm1256 1978q425 0 673 290 249 291 249 798 0 503-249 795-248 292-673 292t-673-292q-248-292-248-795 0-507 248-798 248-290 673-290z"
                                transform="scale(.01563)" />
                            <path id="DejaVuSans-35"
                                d="M691 4666h2478v-532H1269V2991q137 47 274 70 138 23 276 23 781 0 1237-428 457-428 457-1159 0-753-469-1171Q2575-91 1722-91q-294 0-599 50Q819 9 494 109v635q281-153 581-228t634-75q541 0 856 284 316 284 316 772 0 487-316 771-315 285-856 285-253 0-505-56-251-56-513-175v2344z"
                                transform="scale(.01563)" />
                            <path id="DejaVuSans-2e" d="M684 794h660V0H684v794z"
                                transform="scale(.01563)" />
                            <path id="DejaVuSans-30"
                                d="M2034 4250q-487 0-733-480-245-479-245-1442 0-959 245-1439 246-480 733-480 491 0 736 480 246 480 246 1439 0 963-246 1442-245 480-736 480zm0 500q785 0 1199-621 414-620 414-1801 0-1178-414-1799Q2819-91 2034-91q-784 0-1198 620-414 621-414 1799 0 1181 414 1801 414 621 1198 621z"
                                transform="scale(.01563)" />
                        </defs>
                        <use xlink:href="#DejaVuSans-39" />
                        <use xlink:href="#DejaVuSans-35" x="63.623" />
                        <use xlink:href="#DejaVuSans-2e" x="127.246" />
                        <use xlink:href="#DejaVuSans-30" x="159.033" />
                    </g>
                </g>
                <g id="ytick_2">
                    <use xlink:href="#m6b8be93eb3" id="line2d_2" x="53.935" y="228.698"
                        style="stroke:#000;stroke-width:.8" />
                    <g id="text_3" transform="matrix(.08 0 0 -.08 24.032 231.738)">
                        <defs>
                            <path id="DejaVuSans-38"
                                d="M2034 2216q-450 0-708-241-257-241-257-662 0-422 257-663 258-241 708-241t709 242q260 243 260 662 0 421-258 662-257 241-711 241zm-631 268q-406 100-633 378-226 279-226 679 0 559 398 884 399 325 1092 325 697 0 1094-325t397-884q0-400-227-679-226-278-629-378 456-106 710-416 255-309 255-755 0-679-414-1042Q2806-91 2034-91q-771 0-1186 362-414 363-414 1042 0 446 256 755 257 310 713 416zm-231 997q0-362 226-565 227-203 636-203 407 0 636 203 230 203 230 565 0 363-230 566-229 203-636 203-409 0-636-203-226-203-226-566z"
                                transform="scale(.01563)" />
                            <path id="DejaVuSans-37"
                                d="M525 4666h3000v-269L1831 0h-659l1594 4134H525v532z"
                                transform="scale(.01563)" />
                        </defs>
                        <use xlink:href="#DejaVuSans-39" />
                        <use xlink:href="#DejaVuSans-38" x="63.623" />
                        <use xlink:href="#DejaVuSans-2e" x="127.246" />
                        <use xlink:href="#DejaVuSans-37" x="159.033" />
                        <use xlink:href="#DejaVuSans-35" x="222.656" />
                    </g>
                </g>
                <g id="ytick_3">
                    <use xlink:href="#m6b8be93eb3" id="line2d_3" x="53.935" y="159.398"
                        style="stroke:#000;stroke-width:.8" />
                    <g id="text_4" transform="matrix(.08 0 0 -.08 24.032 162.438)">
                        <defs>
                            <path id="DejaVuSans-31"
                                d="M794 531h1031v3560L703 3866v575l1116 225h631V531h1031V0H794v531z"
                                transform="scale(.01563)" />
                            <path id="DejaVuSans-32"
                                d="M1228 531h2203V0H469v531q359 372 979 998 621 627 780 809 303 340 423 576 121 236 121 464 0 372-261 606-261 235-680 235-297 0-627-103-329-103-704-313v638q381 153 712 231 332 78 607 78 725 0 1156-363 431-362 431-968 0-288-108-546-107-257-392-607-78-91-497-524-418-433-1181-1211z"
                                transform="scale(.01563)" />
                        </defs>
                        <use xlink:href="#DejaVuSans-31" />
                        <use xlink:href="#DejaVuSans-30" x="63.623" />
                        <use xlink:href="#DejaVuSans-32" x="127.246" />
                        <use xlink:href="#DejaVuSans-2e" x="190.869" />
                        <use xlink:href="#DejaVuSans-35" x="222.656" />
                    </g>
                </g>
                <g id="ytick_4">
                    <use xlink:href="#m6b8be93eb3" id="line2d_4" x="53.935" y="90.098"
                        style="stroke:#000;stroke-width:.8" />
                    <g id="text_5" transform="matrix(.08 0 0 -.08 18.942 93.138)">
                        <defs>
                            <path id="DejaVuSans-36"
                                d="M2113 2584q-425 0-674-291-248-290-248-796 0-503 248-796 249-292 674-292t673 292q248 293 248 796 0 506-248 796-248 291-673 291zm1253 1979v-575q-238 112-480 171-242 60-480 60-625 0-955-422-329-422-376-1275 184 272 462 417 279 145 613 145 703 0 1111-427 408-426 408-1160 0-719-425-1154Q2819-91 2113-91q-810 0-1238 620-428 621-428 1799 0 1106 525 1764t1409 658q238 0 480-47t505-140z"
                                transform="scale(.01563)" />
                        </defs>
                        <use xlink:href="#DejaVuSans-31" />
                        <use xlink:href="#DejaVuSans-30" x="63.623" />
                        <use xlink:href="#DejaVuSans-36" x="127.246" />
                        <use xlink:href="#DejaVuSans-2e" x="190.869" />
                        <use xlink:href="#DejaVuSans-32" x="222.656" />
                        <use xlink:href="#DejaVuSans-35" x="286.279" />
                    </g>
                </g>
                <g id="ytick_5">
                    <use xlink:href="#m6b8be93eb3" id="line2d_5" x="53.935" y="20.798"
                        style="stroke:#000;stroke-width:.8" />
                    <g id="text_6" transform="matrix(.08 0 0 -.08 24.032 23.838)">
                        <use xlink:href="#DejaVuSans-31" />
                        <use xlink:href="#DejaVuSans-31" x="63.623" />
                        <use xlink:href="#DejaVuSans-30" x="127.246" />
                        <use xlink:href="#DejaVuSans-2e" x="190.869" />
                        <use xlink:href="#DejaVuSans-30" x="222.656" />
                    </g>
                </g>
                <g id="text_7" transform="matrix(0 -.08 -.08 0 13.279 206.516)">
                    <defs>
                        <path id="DejaVuSans-42"
                            d="M1259 2228V519h1013q509 0 754 211 246 211 246 645 0 438-246 645-245 208-754 208H1259zm0 1919V2741h935q462 0 688 173 227 174 227 530 0 353-227 528-226 175-688 175h-935zm-631 519h1613q722 0 1112-300 391-300 391-853 0-429-200-682t-588-315q466-100 724-418 258-317 258-792 0-625-425-966Q3088 0 2303 0H628v4666z"
                            transform="scale(.01563)" />
                        <path id="DejaVuSans-6f"
                            d="M1959 3097q-462 0-731-361t-269-989q0-628 267-989 268-361 733-361 460 0 728 362 269 363 269 988 0 622-269 986-268 364-728 364zm0 487q750 0 1178-488 429-487 429-1349 0-859-429-1349Q2709-91 1959-91q-753 0-1180 489-426 490-426 1349 0 862 426 1349 427 488 1180 488z"
                            transform="scale(.01563)" />
                        <path id="DejaVuSans-6c" d="M603 4863h575V0H603v4863z"
                            transform="scale(.01563)" />
                        <path id="DejaVuSans-72"
                            d="M2631 2963q-97 56-211 82-114 27-251 27-488 0-749-317t-261-911V0H581v3500h578v-544q182 319 472 473 291 155 707 155 59 0 131-8 72-7 159-23l3-590z"
                            transform="scale(.01563)" />
                        <path id="DejaVuSans-74"
                            d="M1172 4494v-994h1184v-447H1172V1153q0-428 117-550t477-122h590V0h-590q-666 0-919 248-253 249-253 905v1900H172v447h422v994h578z"
                            transform="scale(.01563)" />
                        <path id="DejaVuSans-70"
                            d="M1159 525v-1856H581v4831h578v-531q182 312 458 463 277 152 661 152 638 0 1036-506 399-506 399-1331T3314 415Q2916-91 2278-91q-384 0-661 152-276 152-458 464zm1957 1222q0 634-261 995t-717 361q-457 0-718-361t-261-995q0-634 261-995t718-361q456 0 717 361t261 995z"
                            transform="scale(.01563)" />
                        <path id="DejaVuSans-61"
                            d="M2194 1759q-697 0-966-159t-269-544q0-306 202-486 202-179 548-179 479 0 768 339t289 901v128h-572zm1147 238V0h-575v531q-197-318-491-470T1556-91q-537 0-855 302-317 302-317 808 0 590 395 890 396 300 1180 300h807v57q0 397-261 614t-733 217q-300 0-585-72-284-72-546-216v532q315 122 612 182 297 61 578 61 760 0 1135-394 375-393 375-1193z"
                            transform="scale(.01563)" />
                        <path id="DejaVuSans-75"
                            d="M544 1381v2119h575V1403q0-497 193-746 194-248 582-248 465 0 735 297 271 297 271 810v1984h575V0h-575v538q-209-319-486-474-276-155-642-155-603 0-916 375-312 375-312 1097zm1447 2203z"
                            transform="scale(.01563)" />
                        <path id="DejaVuSans-28"
                            d="M1984 4856q-418-718-622-1422-203-703-203-1425 0-721 205-1429t620-1424h-500Q1016-109 783 600T550 2009q0 697 231 1403 232 707 703 1444h500z"
                            transform="scale(.01563)" />
                        <path id="DejaVuSans-b0"
                            d="M1600 4347q-250 0-422-174-172-173-172-423 0-247 172-417t422-170q250 0 422 170t172 417q0 247-174 422-173 175-420 175zm0 403q200 0 384-77 185-76 319-220 144-140 216-319 72-178 72-384 0-412-289-698t-708-286q-422 0-704 281-281 281-281 703 0 419 287 709 288 291 704 291z"
                            transform="scale(.01563)" />
                        <path id="DejaVuSans-43"
                            d="M4122 4306v-665q-319 297-680 443-361 147-767 147-800 0-1225-489t-425-1414q0-922 425-1411t1225-489q406 0 767 147t680 444V359q-331-225-702-338-370-112-782-112-1060 0-1670 648-609 649-609 1771 0 1125 609 1773 610 649 1670 649 418 0 788-111 371-111 696-333z"
                            transform="scale(.01563)" />
                        <path id="DejaVuSans-29"
                            d="M513 4856h500q468-737 701-1444 233-706 233-1403 0-700-233-1409T1013-844H513q415 716 620 1424t205 1429q0 722-205 1425-205 704-620 1422z"
                            transform="scale(.01563)" />
                    </defs>
                    <use xlink:href="#DejaVuSans-42" />
                    <use xlink:href="#DejaVuSans-6f" x="68.604" />
                    <use xlink:href="#DejaVuSans-69" x="129.785" />
                    <use xlink:href="#DejaVuSans-6c" x="157.568" />
                    <use xlink:href="#DejaVuSans-65" x="185.352" />
                    <use xlink:href="#DejaVuSans-72" x="246.875" />
                    <use xlink:href="#DejaVuSans-20" x="287.988" />
                    <use xlink:href="#DejaVuSans-74" x="319.775" />
                    <use xlink:href="#DejaVuSans-65" x="358.984" />
                    <use xlink:href="#DejaVuSans-6d" x="420.508" />
                    <use xlink:href="#DejaVuSans-70" x="517.92" />
                    <use xlink:href="#DejaVuSans-65" x="581.396" />
                    <use xlink:href="#DejaVuSans-72" x="642.92" />
                    <use xlink:href="#DejaVuSans-61" x="684.033" />
                    <use xlink:href="#DejaVuSans-74" x="745.313" />
                    <use xlink:href="#DejaVuSans-75" x="784.521" />
                    <use xlink:href="#DejaVuSans-72" x="847.9" />
                    <use xlink:href="#DejaVuSans-65" x="886.764" />
                    <use xlink:href="#DejaVuSans-20" x="948.287" />
                    <use xlink:href="#DejaVuSans-28" x="980.074" />
                    <use xlink:href="#DejaVuSans-b0" x="1019.088" />
                    <use xlink:href="#DejaVuSans-43" x="1069.088" />
                    <use xlink:href="#DejaVuSans-29" x="1138.912" />
                </g>
            </g>
            <path id="line2d_6"
                d="m79.299 68.594.806 4.992.807 4.08 3.225 19.74 2.42 15.28.806 3.956.807 5.454 1.613 9.162.806 3.244 4.033 22.964 1.613 8.435.806 3.997.807 4.986.806 4.17 4.032 17.388 2.42 11.723.806 3.061.807 3.864.806.005.807-11.513.806-24.591 1.613-59.804.807-24.133.806-18.302.807-13.366.806-8.365 1.613-10.61.806-.513h1.613l.807 1.428 1.613 6.552.806 1.774.807 4.022 1.613 5.292.806 4.032 1.613 5.647 4.839 22.073 1.613 8.148.806 2.89.807 3.578 1.613 8.064.806 3.672.807 2.04 2.42 11.256.806 4.5.806 2.472.807 3.944.806 2.692 2.42 10.654.806 3.122 2.42 10.92.806 1.016.806 4.024 2.42 9.408.806 2.184.807 3.192.806 3.693.807 2.943.806 2.02.807 3.593.806 2.62 1.613 6.449.807-.234.806-12 .807-25.464 1.613-57.708.806-22.062.806-17.418.807-12.355.806-7.72.807-5.456.806-3.7.807-1.177 1.613.084.806 1.114.807 2.918.806 1.018.807 3.854.806 1.28 1.613 8.127.807 3.193.806 1.596.807 3.424.806 2.54 1.613 6.636.806 4.256 3.226 11.38.807 4.02 3.226 13.604.806 4.792.807 2.737 1.613 4.02.806 2.651 2.42 10.836 1.612 5.88.807 2.707.806 3.593 1.613 4.788.807 3.768.806.852.807 4.025.806 1.603.807 3.276 3.226 10.5.806 3.443 1.613 4.705.807 4.2.806 2.132.806 2.74.807 3.163.806 1.793.807 2.856.806 1.768.807 2.432.806-3.716.807-17.032 2.42-84.009.806-18.975.806-14.477.807-9.883.806-6.63.807-4.962.806-.924.807-2.583.806-.357.806 1.726.807.794.806 1.259.807 1.681 1.613 5.46.806 2.27.807 3.358.806 1.69.807 3.938 1.613 5.712 1.613 7.14.806 1.69 1.613 7.785 1.613 9.24.807.941.806 1.968 2.42 8.028.806 3.693 1.613 5.818.806 3.341.807 2.22.806 2.736.807 3.51 1.613 5.646.806 2.184 1.613 7.056 1.613 4.62.807 1.512 1.612 6.132.807 1.596.806 3.612.807 1.35.806 3.942.807 1.962.806 2.994.807 3.444.806 1.433.807 3.523.806 1.867.807 3.51.806 2.051 1.613 5.647.807 1.793.806 3.597.807.855 1.613 5.46.806 3.276.806-3.688.807-17.312 2.42-82.788.806-18.096.806-14.843.807-10.02.806-7.176 1.613-7.187 2.42-.17.806.084 1.613 4.536.807 1.282.806 3.17.806 2.05 1.613 5.817.807 2.13.806 3.944 1.613 4.791.807 3.68.806 2.284 2.42 10.12.806 2.48 1.613 5.544.807 3.612.806 1.68 1.613 6.384.807 2.289.806 3.423.806 1.967 1.613 6.517.807 3.493.806 2.135.807 3.597.806 2.031 1.613 6.182 1.613 3.508 1.613 5.989.807 2.045.806 3.612.807.93.806 3.774.807 2.301.806 2.823.806 3.612.807 1.094.806 2.77.807 1.85.806 4.03.807 1.512.806 3.612.807 1.428.806 2.85.807 2.106 1.613 5.544.806 1.932 2.42 7.786.806-3.67.807-16.692 2.419-80.076.806-19.169.807-14.43.806-10.417.807-7.493.806-3.763.807-4.45 1.613-.171 1.613.257.806 1.34.807 3.108.806 1.37.807 3.25.806 2.225.807 4.16.806 2.855 1.613 4.62.806 3.78.807 2.268 1.613 6.216 1.613 5.04.806 1.604.807 3.772 1.613 5.292.806 3.17.807 2.038.806 2.84.807 2.284 1.613 6.384.806 2.368.807 3.764 4.032 13.86.806 4.461.807.16.806 3.464.807 1.155.806 4.057.807.563.806 4.25.807.678.806 4.312.807.487 1.613 7.83.806.923.807 3.732.806.888.807 2.854.806 1.766.806 4.62.807.22.806 3.63.807.878.806 4.402.807.2.806 3.923.807.607.806 3.388.807 1.232.806 4.077.807.543.806.272.807-5.354.806-19.359 1.613-54.211.807-22.128.806-16.61.807-12.18.806-9.622.806-5.788.807-4.281.806-3.199h1.613l.807.122.806 4.408.807.09.806 3.043.807 1.577.806 3.885.807.735.806 3.465.807 1.155.806 4.62.807 3.234.806 1.477.807 4.058.806.471.806 3.947.807 1.913 1.613 6.579.806 2.051 1.613 7.73.807 1.236.806 3.976.807 1.328 1.613 6.814.806 1.491.807 4.315.806 1.699.807 3.121 1.613 4.62.806 2.99.807 1.63.806 1.05.806 3.57.807 2.997.806 1.728.807 4.417.806 1.253.807 3.465 11.29 32.34.807.343.806 3.941.807 1.26.806 3.012.807.852.806 3.612.807.926.806 1.426.807-6.72.806-20.63 1.613-55.726.807-22.984.806-17.42.807-12.183.806-9.069.807-6.888 1.613-5.46.806-1.344.806-.082.807.166.806 2.268 1.613 3.528.807 2.85.806.93.807 3.864.806.853.807 3.851.806 1.967.807 3.157.806 3.612.807 1.957.806 3.335 1.613 4.536.807 3.024.806 2.1.806 3.518.807 1.942 1.613 7.056.806 1.596.807 3.437.806 1.603.807 3.36 1.613 5.208.806 3.518.807 1.102.806 3.108.807 2.548 1.613 6.588.806 1.196.807 1.848 1.612 5.712.807 1.932 2.42 6.972.806 1.932.806 3.444.807 1.604.806 3.604.807.672.806 3.339.807 1.197.806 1.797.807 2.571.806 1.512.807 3.446.806 2.014.807 2.52.806 2.995.807 1.71.806 3.338.806 1.197 1.613 4.278.807.426.806 4.116.807 1.02.806 3.852 1.613 1.11.807-10.434.806-23.019 1.613-54.429.807-21.8.806-15.496.807-9.996.806-7.875 1.613-9.668.806-.685.807-.084.806.084.807.672.806 3.108.807.84.806 1.596.807 3.024.806.77.807 3.262.806 2.3.807 3.244.806 3.857.807 1.687.806 3.36.807.504.806 3.528.807 1.7.806 3.424.807 2.688.806 2.102.806 4.114.807 1.428.806 3.441.807 2.86.806 2.36.807 3.687.806 1.344.807 3.524 3.226 10 .806 3.86.807 1.936.806 2.94.807.343.806 3.185.807 2.016.806 2.926.806 1.61.807 3.096.806 1.692.807 3.276 1.613 5.124 1.613 4.452.806.856.807 3.176.806 2.268 1.613 5.712.807 1.848.806.428.807 3.604.806 1.444.807 3.764.806.756.807 3.608.806 1.012.806 3.78.807.598.806 3.434.807.758.806 2.434h0"
                clip-path="url(#p45c03732e8)"
                style="fill:none;stroke:#1f77b4;stroke-width:1.5;stroke-linecap:square" />
            <path id="line2d_7" d="M53.935 205.598h558" clip-path="url(#p45c03732e8)"
                style="fill:none;stroke-dasharray:3.7,1.6;stroke-dashoffset:0;stroke:red" />
            <path id="patch_11" d="M53.935 297.998v-277.2"
                style="fill:none;stroke:#000;stroke-width:.8;stroke-linejoin:miter;stroke-linecap:square" />
            <path id="patch_12" d="M611.935 297.998v-277.2"
                style="fill:none;stroke:#000;stroke-width:.8;stroke-linejoin:miter;stroke-linecap:square" />
            <path id="patch_13" d="M53.935 297.998h558"
                style="fill:none;stroke:#000;stroke-width:.8;stroke-linejoin:miter;stroke-linecap:square" />
            <path id="patch_14" d="M53.935 20.798h558"
                style="fill:none;stroke:#000;stroke-width:.8;stroke-linejoin:miter;stroke-linecap:square" />
            <g id="text_8" transform="matrix(.08 0 0 -.08 105.912 261.038)">
                <defs>
                    <path id="DejaVuSans-Bold-32"
                        d="M1844 884h2053V0H506v884l1703 1504q229 206 338 403t109 409q0 328-220 528t-586 200q-281 0-616-120-334-120-715-358v1025q406 134 803 204 397 71 778 71 838 0 1302-369 464-368 464-1028 0-381-197-711-197-329-828-883l-997-875z"
                        transform="scale(.01563)" />
                    <path id="DejaVuSans-Bold-30"
                        d="M2944 2338q0 875-164 1232-164 358-552 358-387 0-553-358-166-357-166-1232 0-885 166-1248 166-362 553-362 385 0 550 362 166 363 166 1248zm1203-10q0-1159-500-1789T2228-91q-922 0-1422 630T306 2328q0 1163 500 1792 500 630 1422 630 919 0 1419-630 500-629 500-1792z"
                        transform="scale(.01563)" />
                    <path id="DejaVuSans-Bold-2e" d="M653 1209h1125V0H653v1209z"
                        transform="scale(.01563)" />
                    <path id="DejaVuSans-Bold-73"
                        d="M3272 3391v-850q-359 150-694 225-334 75-631 75-319 0-474-80-154-80-154-245 0-135 117-207 117-71 420-106l197-28q860-109 1156-359 297-250 297-785 0-559-413-841Q2681-91 1863-91q-347 0-718 55-370 55-761 164v850q335-162 686-244 352-81 714-81 329 0 494 90 166 91 166 270 0 150-114 223t-455 114l-197 25q-747 94-1047 347t-300 769q0 556 381 824 382 269 1169 269 310 0 650-47 341-46 741-146z"
                        transform="scale(.01563)" />
                </defs>
                <use xlink:href="#DejaVuSans-Bold-32" />
                <use xlink:href="#DejaVuSans-Bold-30" x="69.58" />
                <use xlink:href="#DejaVuSans-Bold-2e" x="139.16" />
                <use xlink:href="#DejaVuSans-Bold-30" x="177.148" />
                <use xlink:href="#DejaVuSans-Bold-73" x="246.729" />
            </g>
            <g id="text_9" transform="matrix(.08 0 0 -.08 159.14 261.038)">
                <use xlink:href="#DejaVuSans-Bold-32" />
                <use xlink:href="#DejaVuSans-Bold-30" x="69.58" />
                <use xlink:href="#DejaVuSans-Bold-2e" x="139.16" />
                <use xlink:href="#DejaVuSans-Bold-30" x="177.148" />
                <use xlink:href="#DejaVuSans-Bold-73" x="246.729" />
            </g>
            <g id="text_10" transform="matrix(.08 0 0 -.08 216.4 261.038)">
                <defs>
                    <path id="DejaVuSans-Bold-31"
                        d="M750 831h1063v3016L722 3622v819l1084 225h1144V831h1063V0H750v831z"
                        transform="scale(.01563)" />
                    <path id="DejaVuSans-Bold-35"
                        d="M678 4666h2991v-885H1638v-722q137 38 276 58 139 21 289 21 853 0 1328-427t475-1189q0-756-517-1185Q2972-91 2053-91q-397 0-786 77T494 219v947q381-219 723-329 342-109 646-109 437 0 688 214 252 214 252 580 0 369-252 581-251 213-688 213-260 0-554-68-293-67-631-207v2625z"
                        transform="scale(.01563)" />
                </defs>
                <use xlink:href="#DejaVuSans-Bold-31" />
                <use xlink:href="#DejaVuSans-Bold-35" x="69.58" />
                <use xlink:href="#DejaVuSans-Bold-2e" x="139.16" />
                <use xlink:href="#DejaVuSans-Bold-30" x="177.148" />
                <use xlink:href="#DejaVuSans-Bold-73" x="246.729" />
            </g>
            <g id="text_11" transform="matrix(.08 0 0 -.08 276.079 261.038)">
                <use xlink:href="#DejaVuSans-Bold-31" />
                <use xlink:href="#DejaVuSans-Bold-35" x="69.58" />
                <use xlink:href="#DejaVuSans-Bold-2e" x="139.16" />
                <use xlink:href="#DejaVuSans-Bold-30" x="177.148" />
                <use xlink:href="#DejaVuSans-Bold-73" x="246.729" />
            </g>
            <g id="text_12" transform="matrix(.08 0 0 -.08 336.564 261.038)">
                <use xlink:href="#DejaVuSans-Bold-31" />
                <use xlink:href="#DejaVuSans-Bold-35" x="69.58" />
                <use xlink:href="#DejaVuSans-Bold-2e" x="139.16" />
                <use xlink:href="#DejaVuSans-Bold-30" x="177.148" />
                <use xlink:href="#DejaVuSans-Bold-73" x="246.729" />
            </g>
            <g id="text_13" transform="matrix(.08 0 0 -.08 398.663 261.038)">
                <use xlink:href="#DejaVuSans-Bold-31" />
                <use xlink:href="#DejaVuSans-Bold-35" x="69.58" />
                <use xlink:href="#DejaVuSans-Bold-2e" x="139.16" />
                <use xlink:href="#DejaVuSans-Bold-30" x="177.148" />
                <use xlink:href="#DejaVuSans-Bold-73" x="246.729" />
            </g>
            <g id="text_14" transform="matrix(.08 0 0 -.08 459.955 261.038)">
                <use xlink:href="#DejaVuSans-Bold-31" />
                <use xlink:href="#DejaVuSans-Bold-35" x="69.58" />
                <use xlink:href="#DejaVuSans-Bold-2e" x="139.16" />
                <use xlink:href="#DejaVuSans-Bold-30" x="177.148" />
                <use xlink:href="#DejaVuSans-Bold-73" x="246.729" />
            </g>
            <g id="text_15" transform="matrix(.08 0 0 -.08 524.473 261.038)">
                <use xlink:href="#DejaVuSans-Bold-31" />
                <use xlink:href="#DejaVuSans-Bold-35" x="69.58" />
                <use xlink:href="#DejaVuSans-Bold-2e" x="139.16" />
                <use xlink:href="#DejaVuSans-Bold-30" x="177.148" />
                <use xlink:href="#DejaVuSans-Bold-73" x="246.729" />
            </g>
            <g id="text_16" transform="matrix(.1 0 0 -.1 249.663 14.798)">
                <defs>
                    <path id="DejaVuSans-52"
                        d="M2841 2188q203-69 395-294t386-619L4263 0h-679l-596 1197q-232 469-449 622t-592 153h-688V0H628v4666h1425q800 0 1194-335 394-334 394-1009 0-441-205-732-205-290-595-402zM1259 4147V2491h794q456 0 689 211t233 620q0 409-233 617t-689 208h-794z"
                        transform="scale(.01563)" />
                    <path id="DejaVuSans-6e"
                        d="M3513 2113V0h-575v2094q0 497-194 743-194 247-581 247-466 0-735-297-269-296-269-809V0H581v3500h578v-544q207 316 486 472 280 156 646 156 603 0 912-373 310-373 310-1098z"
                        transform="scale(.01563)" />
                    <path id="DejaVuSans-63"
                        d="M3122 3366v-538q-244 135-489 202t-495 67q-560 0-870-355-309-354-309-995t309-996q310-354 870-354 250 0 495 67t489 202V134Q2881 22 2623-34q-257-57-548-57-791 0-1257 497-465 497-465 1341 0 856 470 1346 471 491 1290 491 265 0 518-55 253-54 491-163z"
                        transform="scale(.01563)" />
                    <path id="DejaVuSans-53"
                        d="M3425 4513v-616q-359 172-678 256-319 85-616 85-515 0-795-200t-280-569q0-310 186-468 186-157 705-254l381-78q706-135 1042-474t336-907q0-679-455-1029Q2797-91 1919-91q-331 0-705 75-373 75-773 222v650q384-215 753-325 369-109 725-109 540 0 834 212 294 213 294 607 0 343-211 537t-692 291l-385 75q-706 140-1022 440-315 300-315 835 0 619 436 975t1201 356q329 0 669-60 341-59 697-177z"
                        transform="scale(.01563)" />
                    <path id="DejaVuSans-76"
                        d="M191 3500h609L1894 563l1094 2937h609L2284 0h-781L191 3500z"
                        transform="scale(.01563)" />
                    <path id="DejaVuSans-62"
                        d="M3116 1747q0 634-261 995t-717 361q-457 0-718-361t-261-995q0-634 261-995t718-361q456 0 717 361t261 995zM1159 2969q182 312 458 463 277 152 661 152 638 0 1036-506 399-506 399-1331T3314 415Q2916-91 2278-91q-384 0-661 152-276 152-458 464V0H581v4863h578V2969z"
                        transform="scale(.01563)" />
                </defs>
                <use xlink:href="#DejaVuSans-52" />
                <use xlink:href="#DejaVuSans-61" x="67.232" />
                <use xlink:href="#DejaVuSans-6e" x="128.512" />
                <use xlink:href="#DejaVuSans-63" x="191.891" />
                <use xlink:href="#DejaVuSans-69" x="246.871" />
                <use xlink:href="#DejaVuSans-6c" x="274.654" />
                <use xlink:href="#DejaVuSans-69" x="302.438" />
                <use xlink:href="#DejaVuSans-6f" x="330.221" />
                <use xlink:href="#DejaVuSans-20" x="391.402" />
                <use xlink:href="#DejaVuSans-53" x="423.189" />
                <use xlink:href="#DejaVuSans-69" x="486.666" />
                <use xlink:href="#DejaVuSans-6c" x="514.449" />
                <use xlink:href="#DejaVuSans-76" x="542.232" />
                <use xlink:href="#DejaVuSans-69" x="601.412" />
                <use xlink:href="#DejaVuSans-61" x="629.195" />
                <use xlink:href="#DejaVuSans-20" x="690.475" />
                <use xlink:href="#DejaVuSans-62" x="722.262" />
                <use xlink:href="#DejaVuSans-6f" x="785.738" />
                <use xlink:href="#DejaVuSans-69" x="846.92" />
                <use xlink:href="#DejaVuSans-6c" x="874.703" />
                <use xlink:href="#DejaVuSans-65" x="902.486" />
                <use xlink:href="#DejaVuSans-72" x="964.01" />
                <use xlink:href="#DejaVuSans-20" x="1005.123" />
                <use xlink:href="#DejaVuSans-74" x="1036.91" />
                <use xlink:href="#DejaVuSans-65" x="1076.119" />
                <use xlink:href="#DejaVuSans-6d" x="1137.643" />
                <use xlink:href="#DejaVuSans-70" x="1235.055" />
                <use xlink:href="#DejaVuSans-65" x="1298.531" />
                <use xlink:href="#DejaVuSans-72" x="1360.055" />
                <use xlink:href="#DejaVuSans-61" x="1401.168" />
                <use xlink:href="#DejaVuSans-74" x="1462.447" />
                <use xlink:href="#DejaVuSans-75" x="1501.656" />
                <use xlink:href="#DejaVuSans-72" x="1565.035" />
                <use xlink:href="#DejaVuSans-65" x="1603.898" />
            </g>
        </g>
    </g>
    <defs>
        <clipPath id="p45c03732e8">
            <path d="M53.935 20.798h558v277.2h-558z" />
        </clipPath>
    </defs>
</svg>
