<svg id="measurement-chart" xmlns="http://www.w3.org/2000/svg" width="100%" height="100%" viewBox="0 0 1266 938"><g data-name="xAxis" transform="translate(0, 888)" fill="none" font-size="10" font-family="sans-serif" text-anchor="middle"><path class="domain" stroke="currentColor" d="M50,6V0H1246V6"></path><g class="tick" opacity="1" transform="translate(77.875503167343,0)"><line stroke="currentColor" y2="6"></line><text fill="currentColor" y="9" dy="0.71em">03:30</text></g><g class="tick" opacity="1" transform="translate(429.76981195361816,0)"><line stroke="currentColor" y2="6"></line><text fill="currentColor" y="9" dy="0.71em">03:45</text></g><g class="tick" opacity="1" transform="translate(781.6641207398934,0)"><line stroke="currentColor" y2="6"></line><text fill="currentColor" y="9" dy="0.71em">04 PM</text></g><g class="tick" opacity="1" transform="translate(1133.5584295261685,0)"><line stroke="currentColor" y2="6"></line><text fill="currentColor" y="9" dy="0.71em">04:15</text></g></g><g data-name="yAxis" transform="translate(50, 0)" fill="none" font-size="10" font-family="sans-serif" text-anchor="end"><g class="tick" opacity="1" transform="translate(0,888)"><text fill="currentColor" x="-9" dy="0.32em">75 °C</text></g><g class="tick" opacity="1" transform="translate(0,784.6666666666666)"><line stroke="currentColor" x2="1196"></line><text fill="currentColor" x="-9" dy="0.32em">80 °C</text></g><g class="tick" opacity="1" transform="translate(0,681.3333333333334)"><line stroke="currentColor" x2="1196"></line><text fill="currentColor" x="-9" dy="0.32em">85 °C</text></g><g class="tick" opacity="1" transform="translate(0,577.9999999999999)"><line stroke="currentColor" x2="1196"></line><text fill="currentColor" x="-9" dy="0.32em">90 °C</text></g><g class="tick" opacity="1" transform="translate(0,474.6666666666667)"><line stroke="currentColor" x2="1196"></line><text fill="currentColor" x="-9" dy="0.32em">95 °C</text></g><g class="tick" opacity="1" transform="translate(0,371.33333333333337)"><line stroke="currentColor" x2="1196"></line><text fill="currentColor" x="-9" dy="0.32em">100 °C</text></g><g class="tick" opacity="1" transform="translate(0,268)"><line stroke="currentColor" x2="1196"></line><text fill="currentColor" x="-9" dy="0.32em">105 °C</text></g><g class="tick" opacity="1" transform="translate(0,164.66666666666663)"><line stroke="currentColor" x2="1196"></line><text fill="currentColor" x="-9" dy="0.32em">110 °C</text></g><g class="tick" opacity="1" transform="translate(0,61.333333333333385)"><line stroke="currentColor" x2="1196"></line><text fill="currentColor" x="-9" dy="0.32em">115 °C</text></g></g><path fill="none" stroke="black" stroke-width="2px" stroke-dasharray="5,5" d="M50,268L54.301,268L57.828,268L61.225,268L62.429,268L65.917,268L67.595,268L69.874,268L71.38,268L73.745,268L75.078,268L77.358,268L79.035,268L81.659,268L82.949,268L85.315,268L87.34,268L89.834,268L91.899,268L94.006,268L95.34,268L96.845,268L99.77,268L101.06,268L104.286,268L105.748,268L108.328,268L109.928,268L112.508,268L114.228,268L116.551,268L118.099,268L119.605,268L122.357,268L124.25,268L126.744,268L128.207,268L130.228,268L132.335,268L134.017,268L137.07,268L137.974,268L140.081,268L141.973,268L146.489,268L146.575,268L150.446,268L150.532,268L159.826,268L164.084,268L166.579,268L168.514,268L172.385,268L176.643,268L180.26,268L181.335,268L184.302,268L185.765,268L188.001,268L189.248,268L191.915,268L192.947,268L194.926,268L196.947,268L203.27,268L206.628,268L211.015,268L214.197,268L215.832,268L218.757,268L219.832,268L222.843,268L224.692,268L226.932,268L228.566,268L230.846,268L232.094,268L234.803,268L236.007,268L238.459,268L240.222,268L242.975,268L244.308,268L246.631,268L248.824,268L251.839,268L253.129,268L256.355,268L258.118,268L260.312,268L261.473,268L263.322,268L265.816,268L267.322,268L269.645,268L271.494,268L274.035,268L275.455,268L277.218,268L279.283,268L281.605,268L283.239,268L285.992,268L287.712,268L289.175,268L291.626,268L294.121,268L296.615,268L297.953,268L302.899,268L303.673,268L306.081,268L310.124,268L310.253,268L316.748,268L318.898,268L321.655,268L325.396,268L326.128,268L329.955,268L333.783,268L338.256,268L341.052,268L345.572,268L348.625,268L348.883,268L352.066,268L357.829,268L359.636,268L361.098,268L362.904,268L365.528,268L367.08,268L369.235,268L370.611,268L373.837,268L374.826,268L377.148,268L380.804,268L383.127,268L385.062,268L387.212,268L392.765,268L394.7,268L397.797,268L398.829,268L401.926,268L406.539,268L406.84,268L411.442,268L414.023,268L415.919,268L419.274,268L420.392,268L423.923,268L426.116,268L427.235,268L429.858,268L431.923,268L433.815,268L435.672,268L437.865,268L439.891,268L441.999,268L443.59,268L446.515,268L448.192,268L450.471,268L453.654,268L455.374,268L457.396,268L460.234,268L462.991,268L467.851,268L472.281,268L473.528,268L477.098,268L479.464,268L481.399,268L484.668,268L488.628,268L492.413,268L493.445,268L495.897,268L497.66,268L499.166,268L502.09,268L503.122,268L505.617,268L506.993,268L509.922,268L512.804,268L513.449,268L516.373,268L517.965,268L519.814,268L524.674,268L524.76,268L526.868,268L532.037,268L535.95,268L541.025,268L541.757,268L546.32,268L550.147,268L554.276,268L555.488,268L559.058,268L562.628,268L563.832,268L567.488,268L572.391,268L574.8,268L576.563,268L580.09,268L581.982,268L584.004,268L586.283,268L587.788,268L590.799,268L592.734,268L594.584,268L596.605,268L598.885,268L600.562,268L602.759,268L604.609,268L606.673,268L609.555,268L611.405,268L613.297,268L616.049,268L617.426,268L619.963,268L622.2,268L625.773,268L626.72,268L629.257,268L630.289,268L633.257,268L634.418,268L637.257,268L640.052,268L641.299,268L642.977,268L645.644,268L647.063,268L649.432,268L650.551,268L653.432,268L656.701,268L657.862,268L660.056,268L664.313,268L667.754,268L671.926,268L676.02,474.667L679.547,474.667L683.203,474.667L689.095,474.667L693.009,474.667L697.959,474.667L700.711,474.667L706.087,474.667L708.969,474.667L710.861,474.667L715.162,474.667L720.112,474.667L724.542,474.667L724.714,474.667L728.628,474.667L733.746,474.667L735.252,474.667L738.735,474.667L740.284,474.667L743.345,474.667L745.152,474.667L747.689,474.667L749.108,474.667L751.904,474.667L753.581,474.667L755.001,474.667L757.667,474.667L763.215,474.667L766.226,474.667L769.803,474.667L771.051,474.667L774.019,474.667L775.266,474.667L776.814,474.667L779.008,474.667L784.169,474.667L787.438,474.667L790.667,474.667L792.043,474.667L793.463,474.667L795.957,474.667L797.119,474.667L799.054,474.667L801.118,474.667L803.527,474.667L806.882,474.667L808.43,474.667L810.064,474.667L812.215,474.667L817.509,474.667L822.283,474.667L823.831,474.667L826.24,474.667L827.358,474.667L829.422,474.667L832.003,474.667L834.67,474.667L838.243,474.667L840.738,474.667L841.813,474.667L843.533,474.667L844.781,474.667L846.759,474.667L852.608,474.667L853.984,474.667L855.318,474.667L858.759,474.667L861.644,474.667L866.504,474.667L868.096,474.667L870.031,474.667L871.579,474.667L875.407,474.667L876.654,474.667L878.375,474.667L880.87,474.667L883.235,474.667L886.167,474.667L887.028,474.667L889.135,474.667L892.447,474.667L893.522,474.667L899.973,474.667L900.145,474.667L903.242,474.667L904.317,474.667L906.769,474.667L911.977,474.667L914.213,474.667L915.762,474.667L918.514,474.667L919.073,474.667L922.643,474.667L925.912,474.667L927.46,474.667L929.052,474.667L936.926,474.667L938.431,474.667L939.937,474.667L941.141,474.667L943.119,474.667L946.947,474.667L950.646,474.667L952.711,474.667L954.087,474.667L957.359,474.667L959.037,474.667L960.714,474.667L963.639,474.667L965.574,474.667L966.52,474.667L971.983,474.667L973.875,474.667L975.638,474.667L977.187,474.667L982.954,474.667L984.76,474.667L986.18,474.667L987.857,474.667L990.524,474.667L992.115,474.667L996.029,474.667L1000.459,474.667L1002.914,474.667L1004.592,474.667L1007.129,474.667L1008.935,474.667L1011.645,474.667L1011.946,474.667L1013.925,474.667L1015.86,474.667L1019.817,474.667L1022.268,474.667L1025.842,474.667L1028.122,474.667L1029.24,474.667L1032.164,474.667L1033.369,474.667L1034.745,474.667L1037.196,474.667L1041.63,474.667L1046.189,474.667L1047.136,474.667L1050.795,474.667L1052.258,474.667L1055.655,474.667L1056.774,474.667L1058.408,474.667L1061.031,474.667L1063.311,474.667L1064.73,474.667L1067.999,474.667L1072.562,474.667L1073.035,474.667L1076.949,474.667L1079.658,474.667L1081.766,474.667L1084.174,474.667L1085.55,474.667L1087.486,474.667L1090.11,474.667L1094.282,474.667L1094.497,474.667L1097.937,474.667L1100.604,474.667L1101.894,474.667L1103.614,474.667L1105.206,474.667L1107.786,474.667L1110.324,474.667L1112.862,474.667L1114.539,474.667L1117.033,474.667L1118.801,474.667L1120.908,474.667L1122.629,474.667L1125.166,474.667L1126.241,474.667L1133.811,474.667L1135.789,474.667L1139.23,474.667L1140.822,474.667L1142.632,474.667L1145.513,474.667L1146.46,474.667L1148.524,474.667L1150.029,474.667L1152.954,474.667L1155.019,474.667L1159.836,474.667L1164.696,474.667L1164.911,474.667L1168.785,474.667L1170.893,474.667L1173.645,474.667L1174.291,474.667L1178.893,474.667L1183.194,474.667L1188.398,474.667L1192.828,474.667L1193.172,474.667L1197.602,474.667L1202.548,474.667L1202.634,474.667L1205.816,474.667L1207.944,474.667L1211.815,474.667L1216.546,474.667L1219.202,474.667L1221.567,474.667L1223.546,474.667L1226.384,474.667L1228.019,474.667L1231.33,474.667L1232.664,474.667L1234.04,474.667L1237.054,474.667L1243.377,474.667L1244.925,474.667L1246,474.667"></path><path fill="none" stroke="red" stroke-width="3px" d="M50,195.667L54.301,200.833L57.828,206L61.225,211.167L62.429,211.167L65.917,216.333L67.595,216.333L69.874,221.5L71.38,221.5L73.745,226.667L75.078,226.667L77.358,231.833L79.035,231.833L81.659,237L82.949,237L85.315,242.167L87.34,242.167L89.834,247.333L91.899,247.333L94.006,252.5L95.34,252.5L96.845,252.5L99.77,257.667L101.06,257.667L104.286,262.833L105.748,262.833L108.328,268L109.928,268L112.508,273.167L114.228,273.167L116.551,278.333L118.099,278.333L119.605,278.333L122.357,273.167L124.25,268L126.744,252.5L128.207,231.833L130.228,206L132.335,185.333L134.017,169.833L137.07,149.167L137.974,144L140.081,133.667L141.973,128.5L146.489,128.5L146.575,123.333L150.446,128.5L150.532,123.333L159.826,133.667L164.084,138.833L166.579,138.833L168.514,144L172.385,149.167L176.643,154.333L180.26,159.5L181.335,159.5L184.302,164.667L185.765,164.667L188.001,169.833L189.248,169.833L191.915,175L192.947,175L194.926,180.167L196.947,180.167L203.27,190.5L206.628,195.667L211.015,200.833L214.197,206L215.832,206L218.757,211.167L219.832,211.167L222.843,216.333L224.692,216.333L226.932,221.5L228.566,221.5L230.846,226.667L232.094,226.667L234.803,231.833L236.007,231.833L238.459,237L240.222,237L242.975,242.167L244.308,242.167L246.631,247.333L248.824,247.333L251.839,252.5L253.129,252.5L256.355,257.667L258.118,257.667L260.312,262.833L261.473,262.833L263.322,262.833L265.816,268L267.322,268L269.645,273.167L271.494,273.167L274.035,278.333L275.455,278.333L277.218,278.333L279.283,273.167L281.605,262.833L283.239,252.5L285.992,226.667L287.712,206L289.175,190.5L291.626,175L294.121,154.333L296.615,149.167L297.953,138.833L302.899,138.833L303.673,133.667L306.081,133.667L310.124,138.833L310.253,133.667L316.748,144L318.898,144L321.655,149.167L325.396,154.333L326.128,149.167L329.955,159.5L333.783,164.667L338.256,169.833L341.052,175L345.572,180.167L348.625,185.333L348.883,180.167L352.066,185.333L357.829,195.667L359.636,195.667L361.098,200.833L362.904,200.833L365.528,206L367.08,206L369.235,211.167L370.611,211.167L373.837,216.333L374.826,216.333L377.148,221.5L380.804,226.667L383.127,226.667L385.062,231.833L387.212,231.833L392.765,242.167L394.7,242.167L397.797,247.333L398.829,247.333L401.926,252.5L406.539,257.667L406.84,252.5L411.442,262.833L414.023,262.833L415.919,268L419.274,273.167L420.392,273.167L423.923,278.333L426.116,278.333L427.235,278.333L429.858,273.167L431.923,262.833L433.815,252.5L435.672,237L437.865,211.167L439.891,190.5L441.999,175L443.59,164.667L446.515,154.333L448.192,149.167L450.471,138.833L453.654,138.833L455.374,138.833L457.396,138.833L460.234,138.833L462.991,144L467.851,149.167L472.281,154.333L473.528,154.333L477.098,159.5L479.464,159.5L481.399,164.667L484.668,169.833L488.628,175L492.413,180.167L493.445,180.167L495.897,180.167L497.66,185.333L499.166,185.333L502.09,190.5L503.122,190.5L505.617,195.667L506.993,195.667L509.922,200.833L512.804,206L513.449,206L516.373,211.167L517.965,211.167L519.814,211.167L524.674,221.5L524.76,221.5L526.868,221.5L532.037,231.833L535.95,237L541.025,242.167L541.757,237L546.32,247.333L550.147,252.5L554.276,257.667L555.488,252.5L559.058,262.833L562.628,268L563.832,262.833L567.488,273.167L572.391,278.333L574.8,278.333L576.563,278.333L580.09,268L581.982,252.5L584.004,231.833L586.283,211.167L587.788,190.5L590.799,169.833L592.734,159.5L594.584,149.167L596.605,144L598.885,144L600.562,138.833L602.759,138.833L604.609,138.833L606.673,138.833L609.555,144L611.405,144L613.297,144L616.049,149.167L617.426,149.167L619.963,154.333L622.2,154.333L625.773,159.5L626.72,159.5L629.257,164.667L630.289,164.667L633.257,169.833L634.418,169.833L637.257,175L640.052,180.167L641.299,180.167L642.977,180.167L645.644,185.333L647.063,185.333L649.432,190.5L650.551,190.5L653.432,195.667L656.701,200.833L657.862,200.833L660.056,206L664.313,211.167L667.754,216.333L671.926,221.5L676.02,226.667L679.547,231.833L683.203,237L689.095,242.167L693.009,247.333L697.959,252.5L700.711,252.5L706.087,262.833L708.969,262.833L710.861,268L715.162,273.167L720.112,278.333L724.542,283.5L724.714,278.333L728.628,288.667L733.746,293.833L735.252,293.833L738.735,299L740.284,299L743.345,304.167L745.152,304.167L747.689,309.333L749.108,309.333L751.904,314.5L753.581,314.5L755.001,314.5L757.667,319.667L763.215,324.833L766.226,324.833L769.803,330L771.051,330L774.019,335.167L775.266,335.167L776.814,335.167L779.008,340.333L784.169,345.5L787.438,345.5L790.667,350.667L792.043,350.667L793.463,350.667L795.957,355.833L797.119,355.833L799.054,355.833L801.118,355.833L803.527,361L806.882,366.167L808.43,366.167L810.064,366.167L812.215,371.333L817.509,376.5L822.283,381.667L823.831,381.667L826.24,381.667L827.358,381.667L829.422,386.833L832.003,386.833L834.67,392L838.243,392L840.738,397.167L841.813,397.167L843.533,397.167L844.781,397.167L846.759,397.167L852.608,407.5L853.984,407.5L855.318,407.5L858.759,412.667L861.644,412.667L866.504,417.833L868.096,417.833L870.031,423L871.579,423L875.407,428.167L876.654,428.167L878.375,428.167L880.87,433.333L883.235,433.333L886.167,438.5L887.028,433.333L889.135,438.5L892.447,443.667L893.522,443.667L899.973,448.833L900.145,443.667L903.242,448.833L904.317,448.833L906.769,454L911.977,459.167L914.213,459.167L915.762,459.167L918.514,464.333L919.073,464.333L922.643,464.333L925.912,469.5L927.46,469.5L929.052,469.5L936.926,479.833L938.431,479.833L939.937,479.833L941.141,479.833L943.119,479.833L946.947,479.833L950.646,459.167L952.711,443.667L954.087,428.167L957.359,402.333L959.037,386.833L960.714,381.667L963.639,376.5L965.574,371.333L966.52,366.167L971.983,366.167L973.875,366.167L975.638,366.167L977.187,361L982.954,371.333L984.76,371.333L986.18,371.333L987.857,371.333L990.524,376.5L992.115,376.5L996.029,381.667L1000.459,386.833L1002.914,386.833L1004.592,386.833L1007.129,392L1008.935,392L1011.645,397.167L1011.946,397.167L1013.925,397.167L1015.86,397.167L1019.817,402.333L1022.268,407.5L1025.842,412.667L1028.122,412.667L1029.24,412.667L1032.164,417.833L1033.369,417.833L1034.745,417.833L1037.196,423L1041.63,428.167L1046.189,433.333L1047.136,433.333L1050.795,438.5L1052.258,438.5L1055.655,443.667L1056.774,443.667L1058.408,443.667L1061.031,448.833L1063.311,448.833L1064.73,448.833L1067.999,454L1072.562,459.167L1073.035,454L1076.949,459.167L1079.658,464.333L1081.766,464.333L1084.174,469.5L1085.55,469.5L1087.486,469.5L1090.11,474.667L1094.282,479.833L1094.497,474.667L1097.937,479.833L1100.604,485L1101.894,485L1103.614,485L1105.206,479.833L1107.786,464.333L1110.324,438.5L1112.862,412.667L1114.539,392L1117.033,376.5L1118.801,366.167L1120.908,361L1122.629,355.833L1125.166,355.833L1126.241,350.667L1133.811,350.667L1135.789,350.667L1139.23,355.833L1140.822,355.833L1142.632,355.833L1145.513,361L1146.46,361L1148.524,361L1150.029,361L1152.954,366.167L1155.019,371.333L1159.836,376.5L1164.696,381.667L1164.911,376.5L1168.785,386.833L1170.893,386.833L1173.645,392L1174.291,386.833L1178.893,397.167L1183.194,402.333L1188.398,407.5L1192.828,412.667L1193.172,407.5L1197.602,417.833L1202.548,423L1202.634,417.833L1205.816,423L1207.944,428.167L1211.815,433.333L1216.546,438.5L1219.202,438.5L1221.567,443.667L1223.546,443.667L1226.384,448.833L1228.019,448.833L1231.33,454L1232.664,454L1234.04,454L1237.054,459.167L1243.377,464.333L1244.925,464.333L1246,464.333"></path><path fill="none" stroke="blue" stroke-width="3px" d="M50,665.833L54.301,665.833L57.828,665.833L61.225,665.833L62.429,665.833L65.917,660.667L67.595,660.667L69.874,665.833L71.38,665.833L73.745,660.667L75.078,665.833L77.358,660.667L79.035,660.667L81.659,665.833L82.949,660.667L85.315,665.833L87.34,665.833L89.834,665.833L91.899,660.667L94.006,665.833L95.34,660.667L96.845,665.833L99.77,665.833L101.06,665.833L104.286,665.833L105.748,665.833L108.328,665.833L109.928,665.833L112.508,665.833L114.228,665.833L116.551,665.833L118.099,660.667L119.605,660.667L122.357,665.833L124.25,665.833L126.744,660.667L128.207,665.833L130.228,660.667L132.335,665.833L134.017,660.667L137.07,660.667L137.974,665.833L140.081,660.667L141.973,665.833L146.489,665.833L146.575,665.833L150.446,665.833L150.532,665.833L159.826,665.833L164.084,665.833L166.579,665.833L168.514,665.833L172.385,665.833L176.643,665.833L180.26,665.833L181.335,665.833L184.302,660.667L185.765,660.667L188.001,665.833L189.248,660.667L191.915,660.667L192.947,665.833L194.926,660.667L196.947,665.833L203.27,660.667L206.628,660.667L211.015,660.667L214.197,660.667L215.832,655.5L218.757,655.5L219.832,660.667L222.843,660.667L224.692,660.667L226.932,660.667L228.566,660.667L230.846,655.5L232.094,660.667L234.803,655.5L236.007,655.5L238.459,655.5L240.222,660.667L242.975,655.5L244.308,660.667L246.631,655.5L248.824,660.667L251.839,655.5L253.129,660.667L256.355,655.5L258.118,655.5L260.312,655.5L261.473,655.5L263.322,660.667L265.816,660.667L267.322,660.667L269.645,660.667L271.494,655.5L274.035,655.5L275.455,655.5L277.218,660.667L279.283,660.667L281.605,660.667L283.239,660.667L285.992,655.5L287.712,660.667L289.175,660.667L291.626,660.667L294.121,660.667L296.615,660.667L297.953,660.667L302.899,660.667L303.673,660.667L306.081,660.667L310.124,660.667L310.253,660.667L316.748,660.667L318.898,665.833L321.655,660.667L325.396,660.667L326.128,660.667L329.955,660.667L333.783,660.667L338.256,660.667L341.052,660.667L345.572,660.667L348.625,660.667L348.883,660.667L352.066,660.667L357.829,655.5L359.636,660.667L361.098,660.667L362.904,660.667L365.528,660.667L367.08,660.667L369.235,655.5L370.611,660.667L373.837,660.667L374.826,655.5L377.148,655.5L380.804,655.5L383.127,655.5L385.062,655.5L387.212,655.5L392.765,655.5L394.7,660.667L397.797,655.5L398.829,655.5L401.926,655.5L406.539,655.5L406.84,655.5L411.442,655.5L414.023,660.667L415.919,660.667L419.274,655.5L420.392,655.5L423.923,655.5L426.116,660.667L427.235,655.5L429.858,655.5L431.923,655.5L433.815,660.667L435.672,655.5L437.865,660.667L439.891,660.667L441.999,655.5L443.59,655.5L446.515,660.667L448.192,660.667L450.471,660.667L453.654,660.667L455.374,660.667L457.396,660.667L460.234,660.667L462.991,660.667L467.851,660.667L472.281,660.667L473.528,660.667L477.098,660.667L479.464,660.667L481.399,660.667L484.668,660.667L488.628,660.667L492.413,660.667L493.445,660.667L495.897,655.5L497.66,660.667L499.166,660.667L502.09,655.5L503.122,660.667L505.617,655.5L506.993,660.667L509.922,660.667L512.804,660.667L513.449,660.667L516.373,655.5L517.965,660.667L519.814,655.5L524.674,660.667L524.76,655.5L526.868,655.5L532.037,655.5L535.95,655.5L541.025,655.5L541.757,655.5L546.32,655.5L550.147,655.5L554.276,655.5L555.488,655.5L559.058,655.5L562.628,655.5L563.832,655.5L567.488,655.5L572.391,655.5L574.8,655.5L576.563,655.5L580.09,655.5L581.982,655.5L584.004,655.5L586.283,655.5L587.788,655.5L590.799,655.5L592.734,655.5L594.584,655.5L596.605,655.5L598.885,655.5L600.562,655.5L602.759,660.667L604.609,660.667L606.673,655.5L609.555,660.667L611.405,655.5L613.297,655.5L616.049,660.667L617.426,660.667L619.963,655.5L622.2,660.667L625.773,655.5L626.72,655.5L629.257,660.667L630.289,655.5L633.257,655.5L634.418,660.667L637.257,660.667L640.052,655.5L641.299,660.667L642.977,655.5L645.644,660.667L647.063,655.5L649.432,660.667L650.551,660.667L653.432,660.667L656.701,655.5L657.862,655.5L660.056,655.5L664.313,655.5L667.754,655.5L671.926,655.5L676.02,655.5L679.547,655.5L683.203,655.5L689.095,655.5L693.009,655.5L697.959,655.5L700.711,650.333L706.087,655.5L708.969,655.5L710.861,655.5L715.162,655.5L720.112,655.5L724.542,655.5L724.714,655.5L728.628,655.5L733.746,655.5L735.252,660.667L738.735,660.667L740.284,655.5L743.345,660.667L745.152,660.667L747.689,655.5L749.108,655.5L751.904,660.667L753.581,660.667L755.001,655.5L757.667,660.667L763.215,660.667L766.226,665.833L769.803,660.667L771.051,665.833L774.019,660.667L775.266,660.667L776.814,665.833L779.008,665.833L784.169,665.833L787.438,665.833L790.667,665.833L792.043,665.833L793.463,665.833L795.957,665.833L797.119,665.833L799.054,665.833L801.118,671L803.527,671L806.882,676.167L808.43,676.167L810.064,671L812.215,676.167L817.509,676.167L822.283,676.167L823.831,676.167L826.24,676.167L827.358,676.167L829.422,676.167L832.003,676.167L834.67,681.333L838.243,686.5L840.738,681.333L841.813,686.5L843.533,681.333L844.781,681.333L846.759,686.5L852.608,691.667L853.984,691.667L855.318,691.667L858.759,691.667L861.644,691.667L866.504,691.667L868.096,696.833L870.031,696.833L871.579,696.833L875.407,696.833L876.654,696.833L878.375,702L880.87,702L883.235,696.833L886.167,702L887.028,702L889.135,702L892.447,707.167L893.522,702L899.973,707.167L900.145,707.167L903.242,707.167L904.317,712.333L906.769,707.167L911.977,712.333L914.213,712.333L915.762,712.333L918.514,712.333L919.073,717.5L922.643,717.5L925.912,722.667L927.46,717.5L929.052,722.667L936.926,722.667L938.431,722.667L939.937,727.833L941.141,727.833L943.119,727.833L946.947,727.833L950.646,727.833L952.711,733L954.087,733L957.359,733L959.037,733L960.714,733L963.639,738.167L965.574,733L966.52,738.167L971.983,738.167L973.875,738.167L975.638,743.333L977.187,743.333L982.954,748.5L984.76,743.333L986.18,743.333L987.857,748.5L990.524,748.5L992.115,748.5L996.029,748.5L1000.459,748.5L1002.914,748.5L1004.592,753.667L1007.129,753.667L1008.935,753.667L1011.645,748.5L1011.946,753.667L1013.925,753.667L1015.86,753.667L1019.817,753.667L1022.268,753.667L1025.842,753.667L1028.122,758.833L1029.24,753.667L1032.164,758.833L1033.369,753.667L1034.745,758.833L1037.196,758.833L1041.63,758.833L1046.189,758.833L1047.136,758.833L1050.795,758.833L1052.258,764L1055.655,758.833L1056.774,764L1058.408,764L1061.031,764L1063.311,758.833L1064.73,764L1067.999,764L1072.562,764L1073.035,764L1076.949,764L1079.658,764L1081.766,769.167L1084.174,764L1085.55,764L1087.486,764L1090.11,769.167L1094.282,769.167L1094.497,769.167L1097.937,774.333L1100.604,774.333L1101.894,774.333L1103.614,769.167L1105.206,769.167L1107.786,769.167L1110.324,774.333L1112.862,774.333L1114.539,774.333L1117.033,774.333L1118.801,774.333L1120.908,779.5L1122.629,779.5L1125.166,779.5L1126.241,779.5L1133.811,779.5L1135.789,779.5L1139.23,784.667L1140.822,784.667L1142.632,784.667L1145.513,784.667L1146.46,779.5L1148.524,784.667L1150.029,784.667L1152.954,784.667L1155.019,784.667L1159.836,784.667L1164.696,784.667L1164.911,784.667L1168.785,784.667L1170.893,784.667L1173.645,784.667L1174.291,784.667L1178.893,784.667L1183.194,784.667L1188.398,784.667L1192.828,784.667L1193.172,784.667L1197.602,784.667L1202.548,784.667L1202.634,784.667L1205.816,784.667L1207.944,784.667L1211.815,784.667L1216.546,784.667L1219.202,784.667L1221.567,784.667L1223.546,779.5L1226.384,784.667L1228.019,784.667L1231.33,784.667L1232.664,779.5L1234.04,779.5L1237.054,784.667L1243.377,784.667L1244.925,784.667L1246,784.667"></path><path fill="none" stroke="blue" stroke-width="3px" d="M50,2438L54.301,2438L57.828,2438L61.225,2438L62.429,2438L65.917,2438L67.595,2438L69.874,2438L71.38,2438L73.745,2438L75.078,2438L77.358,2438L79.035,2438L81.659,2438L82.949,2438L85.315,2438L87.34,2438L89.834,2438L91.899,2438L94.006,2438L95.34,2438L96.845,2438L99.77,2438L101.06,2438L104.286,2438L105.748,2438L108.328,2438L109.928,2438L112.508,2438L114.228,2438L116.551,2438L118.099,2438L119.605,2438L122.357,2438L124.25,2438L126.744,2438L128.207,2438L130.228,2438L132.335,2438L134.017,2438L137.07,2438L137.974,2438L140.081,2438L141.973,2438L146.489,2438L146.575,2438L150.446,2438L150.532,2438L159.826,2438L164.084,2438L166.579,2438L168.514,2438L172.385,2438L176.643,2438L180.26,2438L181.335,2438L184.302,2438L185.765,2438L188.001,2438L189.248,2438L191.915,2438L192.947,2438L194.926,2438L196.947,2438L203.27,2438L206.628,2438L211.015,2438L214.197,2438L215.832,2438L218.757,2438L219.832,2438L222.843,2438L224.692,2438L226.932,2438L228.566,2438L230.846,2438L232.094,2438L234.803,2438L236.007,2438L238.459,2438L240.222,2438L242.975,2438L244.308,2438L246.631,2438L248.824,2438L251.839,2438L253.129,2438L256.355,2438L258.118,2438L260.312,2438L261.473,2438L263.322,2438L265.816,2438L267.322,2438L269.645,2438L271.494,2438L274.035,2438L275.455,2438L277.218,2438L279.283,2438L281.605,2438L283.239,2438L285.992,2438L287.712,2438L289.175,2438L291.626,2438L294.121,2438L296.615,2438L297.953,2438L302.899,2438L303.673,2438L306.081,2438L310.124,2438L310.253,2438L316.748,2438L318.898,2438L321.655,2438L325.396,2438L326.128,2438L329.955,2438L333.783,2438L338.256,2438L341.052,2438L345.572,2438L348.625,2438L348.883,2438L352.066,2438L357.829,2438L359.636,2438L361.098,2438L362.904,2438L365.528,2438L367.08,2438L369.235,2438L370.611,2438L373.837,2438L374.826,2438L377.148,2438L380.804,2438L383.127,2438L385.062,2438L387.212,2438L392.765,2438L394.7,2438L397.797,2438L398.829,2438L401.926,2438L406.539,2438L406.84,2438L411.442,2438L414.023,2438L415.919,2438L419.274,2438L420.392,2438L423.923,2438L426.116,2438L427.235,2438L429.858,2438L431.923,2438L433.815,2438L435.672,2438L437.865,2438L439.891,2438L441.999,2438L443.59,2438L446.515,2438L448.192,2438L450.471,2438L453.654,2438L455.374,2438L457.396,2438L460.234,2438L462.991,2438L467.851,2438L472.281,2438L473.528,2438L477.098,2438L479.464,2438L481.399,2438L484.668,2438L488.628,2438L492.413,2438L493.445,2438L495.897,2438L497.66,2438L499.166,2438L502.09,2438L503.122,2438L505.617,2438L506.993,2438L509.922,2438L512.804,2438L513.449,2438L516.373,2438L517.965,2438L519.814,2438L524.674,2438L524.76,2438L526.868,2438L532.037,2438L535.95,2438L541.025,2438L541.757,2438L546.32,2438L550.147,2438L554.276,2438L555.488,2438L559.058,2438L562.628,2438L563.832,2438L567.488,2438L572.391,2438L574.8,2438L576.563,2438L580.09,2438L581.982,2438L584.004,2438L586.283,2438L587.788,2438L590.799,2438L592.734,2438L594.584,2438L596.605,2438L598.885,2438L600.562,2438L602.759,2438L604.609,2438L606.673,2438L609.555,2438L611.405,2438L613.297,2438L616.049,2438L617.426,2438L619.963,2438L622.2,2438L625.773,2438L626.72,2438L629.257,2438L630.289,2438L633.257,2438L634.418,2438L637.257,2438L640.052,2438L641.299,2438L642.977,2438L645.644,2438L647.063,2438L649.432,2438L650.551,2438L653.432,2438L656.701,2438L657.862,2438L660.056,2438L664.313,2438L667.754,2438L671.926,2438L676.02,2438L679.547,2438L683.203,2438L689.095,2438L693.009,2438L697.959,2438L700.711,2438L706.087,2438L708.969,2438L710.861,2438L715.162,2438L720.112,2438L724.542,2438L724.714,2438L728.628,2438L733.746,2438L735.252,2438L738.735,2438L740.284,2438L743.345,2438L745.152,2438L747.689,2438L749.108,2438L751.904,2438L753.581,2438L755.001,2438L757.667,2438L763.215,2438L766.226,2438L769.803,2438L771.051,2438L774.019,2438L775.266,2438L776.814,2438L779.008,2438L784.169,2438L787.438,2438L790.667,2438L792.043,2438L793.463,2438L795.957,2438L797.119,2438L799.054,2438L801.118,2438L803.527,2438L806.882,2438L808.43,2438L810.064,2438L812.215,2438L817.509,2438L822.283,2438L823.831,2438L826.24,2438L827.358,2438L829.422,2438L832.003,2438L834.67,2438L838.243,2438L840.738,2438L841.813,2438L843.533,2438L844.781,2438L846.759,2438L852.608,2438L853.984,2438L855.318,2438L858.759,2438L861.644,2438L866.504,2438L868.096,2438L870.031,2438L871.579,2438L875.407,2438L876.654,2438L878.375,2438L880.87,2438L883.235,2438L886.167,2438L887.028,2438L889.135,2438L892.447,2438L893.522,2438L899.973,2438L900.145,2438L903.242,2438L904.317,2438L906.769,2438L911.977,2438L914.213,2438L915.762,2438L918.514,2438L919.073,2438L922.643,2438L925.912,2438L927.46,2438L929.052,2438L936.926,2438L938.431,2438L939.937,2438L941.141,2438L943.119,2438L946.947,2438L950.646,2438L952.711,2438L954.087,2438L957.359,2438L959.037,2438L960.714,2438L963.639,2438L965.574,2438L966.52,2438L971.983,2438L973.875,2438L975.638,2438L977.187,2438L982.954,2438L984.76,2438L986.18,2438L987.857,2438L990.524,2438L992.115,2438L996.029,2438L1000.459,2438L1002.914,2438L1004.592,2438L1007.129,2438L1008.935,2438L1011.645,2438L1011.946,2438L1013.925,2438L1015.86,2438L1019.817,2438L1022.268,2438L1025.842,2438L1028.122,2438L1029.24,2438L1032.164,2438L1033.369,2438L1034.745,2438L1037.196,2438L1041.63,2438L1046.189,2438L1047.136,2438L1050.795,2438L1052.258,2438L1055.655,2438L1056.774,2438L1058.408,2438L1061.031,2438L1063.311,2438L1064.73,2438L1067.999,2438L1072.562,2438L1073.035,2438L1076.949,2438L1079.658,2438L1081.766,2438L1084.174,2438L1085.55,2438L1087.486,2438L1090.11,2438L1094.282,2438L1094.497,2438L1097.937,2438L1100.604,2438L1101.894,2438L1103.614,2438L1105.206,2438L1107.786,2438L1110.324,2438L1112.862,2438L1114.539,2438L1117.033,2438L1118.801,2438L1120.908,2438L1122.629,2438L1125.166,2438L1126.241,2438L1133.811,2438L1135.789,2438L1139.23,2438L1140.822,2438L1142.632,2438L1145.513,2438L1146.46,2438L1148.524,2438L1150.029,2438L1152.954,2438L1155.019,2438L1159.836,2438L1164.696,2438L1164.911,2438L1168.785,2438L1170.893,2438L1173.645,2438L1174.291,2438L1178.893,2438L1183.194,2438L1188.398,2438L1192.828,2438L1193.172,2438L1197.602,2438L1202.548,2438L1202.634,2438L1205.816,2438L1207.944,2438L1211.815,2438L1216.546,2438L1219.202,2438L1221.567,2438L1223.546,2438L1226.384,2438L1228.019,2438L1231.33,2438L1232.664,2438L1234.04,2438L1237.054,2438L1243.377,2438L1244.925,2438L1246,2438"></path></svg>