<?xml version="1.0" encoding="utf-8" standalone="no"?>
<!DOCTYPE svg PUBLIC "-//W3C//DTD SVG 1.1//EN"
  "http://www.w3.org/Graphics/SVG/1.1/DTD/svg11.dtd">
<svg xmlns:xlink="http://www.w3.org/1999/xlink" width="590.521875pt" height="377.920938pt" viewBox="0 0 590.521875 377.920938" xmlns="http://www.w3.org/2000/svg" version="1.1">
 <metadata>
  <rdf:RDF xmlns:dc="http://purl.org/dc/elements/1.1/" xmlns:cc="http://creativecommons.org/ns#" xmlns:rdf="http://www.w3.org/1999/02/22-rdf-syntax-ns#">
   <cc:Work>
    <dc:type rdf:resource="http://purl.org/dc/dcmitype/StillImage"/>
    <dc:date>2023-08-31T16:42:09.745354</dc:date>
    <dc:format>image/svg+xml</dc:format>
    <dc:creator>
     <cc:Agent>
      <dc:title>Matplotlib v3.7.2, https://matplotlib.org/</dc:title>
     </cc:Agent>
    </dc:creator>
   </cc:Work>
  </rdf:RDF>
 </metadata>
 <defs>
  <style type="text/css">*{stroke-linejoin: round; stroke-linecap: butt}</style>
 </defs>
 <g id="figure_1">
  <g id="patch_1">
   <path d="M 0 377.920938 
L 590.521875 377.920938 
L 590.521875 0 
L 0 0 
z
" style="fill: #ffffff"/>
  </g>
  <g id="axes_1">
   <g id="patch_2">
    <path d="M 25.321875 354.575625 
L 583.321875 354.575625 
L 583.321875 21.935625 
L 25.321875 21.935625 
z
" style="fill: #ffffff"/>
   </g>
   <g id="PolyCollection_1"/>
   <g id="PolyCollection_2"/>
   <g id="PolyCollection_3"/>
   <g id="PolyCollection_4"/>
   <g id="PolyCollection_5"/>
   <g id="PolyCollection_6"/>
   <g id="PolyCollection_7"/>
   <g id="PolyCollection_8"/>
   <g id="PolyCollection_9"/>
   <g id="PolyCollection_10"/>
   <g id="matplotlib.axis_1">
    <g id="xtick_1">
     <g id="line2d_1">
      <defs>
       <path id="m2e5de71fad" d="M 0 0 
L 0 3.5 
" style="stroke: #000000; stroke-width: 0.8"/>
      </defs>
      <g>
       <use xlink:href="#m2e5de71fad" x="50.685511" y="354.575625" style="stroke: #000000; stroke-width: 0.8"/>
      </g>
     </g>
     <g id="text_1">
      <!-- 00:00 -->
      <g transform="translate(38.174574 368.733438) scale(0.1 -0.1)">
       <defs>
        <path id="ArialMT-30" d="M 266 2259 
Q 266 3072 433 3567 
Q 600 4063 929 4331 
Q 1259 4600 1759 4600 
Q 2128 4600 2406 4451 
Q 2684 4303 2865 4023 
Q 3047 3744 3150 3342 
Q 3253 2941 3253 2259 
Q 3253 1453 3087 958 
Q 2922 463 2592 192 
Q 2263 -78 1759 -78 
Q 1097 -78 719 397 
Q 266 969 266 2259 
z
M 844 2259 
Q 844 1131 1108 757 
Q 1372 384 1759 384 
Q 2147 384 2411 759 
Q 2675 1134 2675 2259 
Q 2675 3391 2411 3762 
Q 2147 4134 1753 4134 
Q 1366 4134 1134 3806 
Q 844 3388 844 2259 
z
" transform="scale(0.015625)"/>
        <path id="ArialMT-3a" d="M 578 2678 
L 578 3319 
L 1219 3319 
L 1219 2678 
L 578 2678 
z
M 578 0 
L 578 641 
L 1219 641 
L 1219 0 
L 578 0 
z
" transform="scale(0.015625)"/>
       </defs>
       <use xlink:href="#ArialMT-30"/>
       <use xlink:href="#ArialMT-30" x="55.615234"/>
       <use xlink:href="#ArialMT-3a" x="111.230469"/>
       <use xlink:href="#ArialMT-30" x="139.013672"/>
       <use xlink:href="#ArialMT-30" x="194.628906"/>
      </g>
     </g>
    </g>
    <g id="xtick_2">
     <g id="line2d_2">
      <g>
       <use xlink:href="#m2e5de71fad" x="118.321875" y="354.575625" style="stroke: #000000; stroke-width: 0.8"/>
      </g>
     </g>
     <g id="text_2">
      <!-- 00:10 -->
      <g transform="translate(105.810938 368.733438) scale(0.1 -0.1)">
       <defs>
        <path id="ArialMT-31" d="M 2384 0 
L 1822 0 
L 1822 3584 
Q 1619 3391 1289 3197 
Q 959 3003 697 2906 
L 697 3450 
Q 1169 3672 1522 3987 
Q 1875 4303 2022 4600 
L 2384 4600 
L 2384 0 
z
" transform="scale(0.015625)"/>
       </defs>
       <use xlink:href="#ArialMT-30"/>
       <use xlink:href="#ArialMT-30" x="55.615234"/>
       <use xlink:href="#ArialMT-3a" x="111.230469"/>
       <use xlink:href="#ArialMT-31" x="139.013672"/>
       <use xlink:href="#ArialMT-30" x="194.628906"/>
      </g>
     </g>
    </g>
    <g id="xtick_3">
     <g id="line2d_3">
      <g>
       <use xlink:href="#m2e5de71fad" x="185.958239" y="354.575625" style="stroke: #000000; stroke-width: 0.8"/>
      </g>
     </g>
     <g id="text_3">
      <!-- 00:20 -->
      <g transform="translate(173.447301 368.733438) scale(0.1 -0.1)">
       <defs>
        <path id="ArialMT-32" d="M 3222 541 
L 3222 0 
L 194 0 
Q 188 203 259 391 
Q 375 700 629 1000 
Q 884 1300 1366 1694 
Q 2113 2306 2375 2664 
Q 2638 3022 2638 3341 
Q 2638 3675 2398 3904 
Q 2159 4134 1775 4134 
Q 1369 4134 1125 3890 
Q 881 3647 878 3216 
L 300 3275 
Q 359 3922 746 4261 
Q 1134 4600 1788 4600 
Q 2447 4600 2831 4234 
Q 3216 3869 3216 3328 
Q 3216 3053 3103 2787 
Q 2991 2522 2730 2228 
Q 2469 1934 1863 1422 
Q 1356 997 1212 845 
Q 1069 694 975 541 
L 3222 541 
z
" transform="scale(0.015625)"/>
       </defs>
       <use xlink:href="#ArialMT-30"/>
       <use xlink:href="#ArialMT-30" x="55.615234"/>
       <use xlink:href="#ArialMT-3a" x="111.230469"/>
       <use xlink:href="#ArialMT-32" x="139.013672"/>
       <use xlink:href="#ArialMT-30" x="194.628906"/>
      </g>
     </g>
    </g>
    <g id="xtick_4">
     <g id="line2d_4">
      <g>
       <use xlink:href="#m2e5de71fad" x="253.594602" y="354.575625" style="stroke: #000000; stroke-width: 0.8"/>
      </g>
     </g>
     <g id="text_4">
      <!-- 00:30 -->
      <g transform="translate(241.083665 368.733438) scale(0.1 -0.1)">
       <defs>
        <path id="ArialMT-33" d="M 269 1209 
L 831 1284 
Q 928 806 1161 595 
Q 1394 384 1728 384 
Q 2125 384 2398 659 
Q 2672 934 2672 1341 
Q 2672 1728 2419 1979 
Q 2166 2231 1775 2231 
Q 1616 2231 1378 2169 
L 1441 2663 
Q 1497 2656 1531 2656 
Q 1891 2656 2178 2843 
Q 2466 3031 2466 3422 
Q 2466 3731 2256 3934 
Q 2047 4138 1716 4138 
Q 1388 4138 1169 3931 
Q 950 3725 888 3313 
L 325 3413 
Q 428 3978 793 4289 
Q 1159 4600 1703 4600 
Q 2078 4600 2393 4439 
Q 2709 4278 2876 4000 
Q 3044 3722 3044 3409 
Q 3044 3113 2884 2869 
Q 2725 2625 2413 2481 
Q 2819 2388 3044 2092 
Q 3269 1797 3269 1353 
Q 3269 753 2831 336 
Q 2394 -81 1725 -81 
Q 1122 -81 723 278 
Q 325 638 269 1209 
z
" transform="scale(0.015625)"/>
       </defs>
       <use xlink:href="#ArialMT-30"/>
       <use xlink:href="#ArialMT-30" x="55.615234"/>
       <use xlink:href="#ArialMT-3a" x="111.230469"/>
       <use xlink:href="#ArialMT-33" x="139.013672"/>
       <use xlink:href="#ArialMT-30" x="194.628906"/>
      </g>
     </g>
    </g>
    <g id="xtick_5">
     <g id="line2d_5">
      <g>
       <use xlink:href="#m2e5de71fad" x="321.230966" y="354.575625" style="stroke: #000000; stroke-width: 0.8"/>
      </g>
     </g>
     <g id="text_5">
      <!-- 00:40 -->
      <g transform="translate(308.720028 368.733438) scale(0.1 -0.1)">
       <defs>
        <path id="ArialMT-34" d="M 2069 0 
L 2069 1097 
L 81 1097 
L 81 1613 
L 2172 4581 
L 2631 4581 
L 2631 1613 
L 3250 1613 
L 3250 1097 
L 2631 1097 
L 2631 0 
L 2069 0 
z
M 2069 1613 
L 2069 3678 
L 634 1613 
L 2069 1613 
z
" transform="scale(0.015625)"/>
       </defs>
       <use xlink:href="#ArialMT-30"/>
       <use xlink:href="#ArialMT-30" x="55.615234"/>
       <use xlink:href="#ArialMT-3a" x="111.230469"/>
       <use xlink:href="#ArialMT-34" x="139.013672"/>
       <use xlink:href="#ArialMT-30" x="194.628906"/>
      </g>
     </g>
    </g>
    <g id="xtick_6">
     <g id="line2d_6">
      <g>
       <use xlink:href="#m2e5de71fad" x="388.86733" y="354.575625" style="stroke: #000000; stroke-width: 0.8"/>
      </g>
     </g>
     <g id="text_6">
      <!-- 00:50 -->
      <g transform="translate(376.356392 368.733438) scale(0.1 -0.1)">
       <defs>
        <path id="ArialMT-35" d="M 266 1200 
L 856 1250 
Q 922 819 1161 601 
Q 1400 384 1738 384 
Q 2144 384 2425 690 
Q 2706 997 2706 1503 
Q 2706 1984 2436 2262 
Q 2166 2541 1728 2541 
Q 1456 2541 1237 2417 
Q 1019 2294 894 2097 
L 366 2166 
L 809 4519 
L 3088 4519 
L 3088 3981 
L 1259 3981 
L 1013 2750 
Q 1425 3038 1878 3038 
Q 2478 3038 2890 2622 
Q 3303 2206 3303 1553 
Q 3303 931 2941 478 
Q 2500 -78 1738 -78 
Q 1113 -78 717 272 
Q 322 622 266 1200 
z
" transform="scale(0.015625)"/>
       </defs>
       <use xlink:href="#ArialMT-30"/>
       <use xlink:href="#ArialMT-30" x="55.615234"/>
       <use xlink:href="#ArialMT-3a" x="111.230469"/>
       <use xlink:href="#ArialMT-35" x="139.013672"/>
       <use xlink:href="#ArialMT-30" x="194.628906"/>
      </g>
     </g>
    </g>
    <g id="xtick_7">
     <g id="line2d_7">
      <g>
       <use xlink:href="#m2e5de71fad" x="456.503693" y="354.575625" style="stroke: #000000; stroke-width: 0.8"/>
      </g>
     </g>
     <g id="text_7">
      <!-- 01:00 -->
      <g transform="translate(443.992756 368.733438) scale(0.1 -0.1)">
       <use xlink:href="#ArialMT-30"/>
       <use xlink:href="#ArialMT-31" x="55.615234"/>
       <use xlink:href="#ArialMT-3a" x="111.230469"/>
       <use xlink:href="#ArialMT-30" x="139.013672"/>
       <use xlink:href="#ArialMT-30" x="194.628906"/>
      </g>
     </g>
    </g>
    <g id="xtick_8">
     <g id="line2d_8">
      <g>
       <use xlink:href="#m2e5de71fad" x="524.140057" y="354.575625" style="stroke: #000000; stroke-width: 0.8"/>
      </g>
     </g>
     <g id="text_8">
      <!-- 01:10 -->
      <g transform="translate(511.629119 368.733438) scale(0.1 -0.1)">
       <use xlink:href="#ArialMT-30"/>
       <use xlink:href="#ArialMT-31" x="55.615234"/>
       <use xlink:href="#ArialMT-3a" x="111.230469"/>
       <use xlink:href="#ArialMT-31" x="139.013672"/>
       <use xlink:href="#ArialMT-30" x="194.628906"/>
      </g>
     </g>
    </g>
   </g>
   <g id="matplotlib.axis_2">
    <g id="ytick_1">
     <g id="line2d_9">
      <defs>
       <path id="m004ccbd482" d="M 0 0 
L -3.5 0 
" style="stroke: #000000; stroke-width: 0.8"/>
      </defs>
      <g>
       <use xlink:href="#m004ccbd482" x="25.321875" y="323.308052" style="stroke: #000000; stroke-width: 0.8"/>
      </g>
     </g>
     <g id="text_9">
      <!-- 0 -->
      <g transform="translate(12.760938 326.886958) scale(0.1 -0.1)">
       <use xlink:href="#ArialMT-30"/>
      </g>
     </g>
    </g>
    <g id="ytick_2">
     <g id="line2d_10">
      <g>
       <use xlink:href="#m004ccbd482" x="25.321875" y="264.589606" style="stroke: #000000; stroke-width: 0.8"/>
      </g>
     </g>
     <g id="text_10">
      <!-- 2 -->
      <g transform="translate(12.760938 268.168512) scale(0.1 -0.1)">
       <use xlink:href="#ArialMT-32"/>
      </g>
     </g>
    </g>
    <g id="ytick_3">
     <g id="line2d_11">
      <g>
       <use xlink:href="#m004ccbd482" x="25.321875" y="205.871159" style="stroke: #000000; stroke-width: 0.8"/>
      </g>
     </g>
     <g id="text_11">
      <!-- 4 -->
      <g transform="translate(12.760938 209.450065) scale(0.1 -0.1)">
       <use xlink:href="#ArialMT-34"/>
      </g>
     </g>
    </g>
    <g id="ytick_4">
     <g id="line2d_12">
      <g>
       <use xlink:href="#m004ccbd482" x="25.321875" y="147.152712" style="stroke: #000000; stroke-width: 0.8"/>
      </g>
     </g>
     <g id="text_12">
      <!-- 6 -->
      <g transform="translate(12.760938 150.731619) scale(0.1 -0.1)">
       <defs>
        <path id="ArialMT-36" d="M 3184 3459 
L 2625 3416 
Q 2550 3747 2413 3897 
Q 2184 4138 1850 4138 
Q 1581 4138 1378 3988 
Q 1113 3794 959 3422 
Q 806 3050 800 2363 
Q 1003 2672 1297 2822 
Q 1591 2972 1913 2972 
Q 2475 2972 2870 2558 
Q 3266 2144 3266 1488 
Q 3266 1056 3080 686 
Q 2894 316 2569 119 
Q 2244 -78 1831 -78 
Q 1128 -78 684 439 
Q 241 956 241 2144 
Q 241 3472 731 4075 
Q 1159 4600 1884 4600 
Q 2425 4600 2770 4297 
Q 3116 3994 3184 3459 
z
M 888 1484 
Q 888 1194 1011 928 
Q 1134 663 1356 523 
Q 1578 384 1822 384 
Q 2178 384 2434 671 
Q 2691 959 2691 1453 
Q 2691 1928 2437 2201 
Q 2184 2475 1800 2475 
Q 1419 2475 1153 2201 
Q 888 1928 888 1484 
z
" transform="scale(0.015625)"/>
       </defs>
       <use xlink:href="#ArialMT-36"/>
      </g>
     </g>
    </g>
    <g id="ytick_5">
     <g id="line2d_13">
      <g>
       <use xlink:href="#m004ccbd482" x="25.321875" y="88.434266" style="stroke: #000000; stroke-width: 0.8"/>
      </g>
     </g>
     <g id="text_13">
      <!-- 8 -->
      <g transform="translate(12.760938 92.013172) scale(0.1 -0.1)">
       <defs>
        <path id="ArialMT-38" d="M 1131 2484 
Q 781 2613 612 2850 
Q 444 3088 444 3419 
Q 444 3919 803 4259 
Q 1163 4600 1759 4600 
Q 2359 4600 2725 4251 
Q 3091 3903 3091 3403 
Q 3091 3084 2923 2848 
Q 2756 2613 2416 2484 
Q 2838 2347 3058 2040 
Q 3278 1734 3278 1309 
Q 3278 722 2862 322 
Q 2447 -78 1769 -78 
Q 1091 -78 675 323 
Q 259 725 259 1325 
Q 259 1772 486 2073 
Q 713 2375 1131 2484 
z
M 1019 3438 
Q 1019 3113 1228 2906 
Q 1438 2700 1772 2700 
Q 2097 2700 2305 2904 
Q 2513 3109 2513 3406 
Q 2513 3716 2298 3927 
Q 2084 4138 1766 4138 
Q 1444 4138 1231 3931 
Q 1019 3725 1019 3438 
z
M 838 1322 
Q 838 1081 952 856 
Q 1066 631 1291 507 
Q 1516 384 1775 384 
Q 2178 384 2440 643 
Q 2703 903 2703 1303 
Q 2703 1709 2433 1975 
Q 2163 2241 1756 2241 
Q 1359 2241 1098 1978 
Q 838 1716 838 1322 
z
" transform="scale(0.015625)"/>
       </defs>
       <use xlink:href="#ArialMT-38"/>
      </g>
     </g>
    </g>
    <g id="ytick_6">
     <g id="line2d_14">
      <g>
       <use xlink:href="#m004ccbd482" x="25.321875" y="29.715819" style="stroke: #000000; stroke-width: 0.8"/>
      </g>
     </g>
     <g id="text_14">
      <!-- 10 -->
      <g transform="translate(7.2 33.294725) scale(0.1 -0.1)">
       <use xlink:href="#ArialMT-31"/>
       <use xlink:href="#ArialMT-30" x="55.615234"/>
      </g>
     </g>
    </g>
   </g>
   <g id="line2d_15">
    <path d="M 50.685511 323.308052 
L 57.449148 323.308052 
L 64.212784 323.308052 
L 70.97642 323.308052 
L 77.740057 323.308052 
L 84.503693 323.308052 
L 91.26733 325.977072 
L 98.030966 324.642562 
L 104.794602 325.509994 
L 111.558239 327.311583 
L 118.321875 325.977072 
L 125.085511 329.313348 
L 131.849148 327.978838 
L 138.612784 329.980603 
L 145.37642 331.315113 
L 152.140057 330.647858 
L 158.903693 330.647858 
L 165.66733 330.647858 
L 172.430966 331.315113 
L 179.194602 331.381839 
L 185.958239 333.316878 
L 192.721875 331.982368 
L 199.485511 334.651388 
L 206.249148 333.316878 
L 213.012784 333.316878 
L 219.77642 334.651388 
L 226.540057 335.318644 
L 233.303693 335.985899 
L 240.06733 336.653154 
L 246.830966 335.985899 
L 253.594602 335.985899 
L 260.358239 335.785722 
L 267.121875 335.985899 
L 273.885511 335.318644 
L 280.649148 333.316878 
L 287.412784 333.984133 
L 294.17642 333.316878 
L 300.940057 333.984133 
L 307.703693 336.653154 
L 314.46733 333.984133 
L 321.230966 336.653154 
L 327.994602 335.985899 
L 334.758239 333.58378 
L 341.521875 334.651388 
L 348.285511 335.985899 
L 355.049148 335.318644 
L 361.812784 335.318644 
L 368.57642 335.318644 
L 375.340057 335.318644 
L 382.103693 337.320409 
L 388.86733 337.320409 
L 395.630966 337.253683 
L 402.394602 336.653154 
L 409.158239 335.985899 
L 415.921875 337.987664 
L 422.685511 337.320409 
L 429.449148 336.653154 
L 436.212784 337.320409 
L 442.97642 337.987664 
L 449.740057 337.987664 
L 456.503693 337.987664 
L 463.26733 337.320409 
L 470.030966 337.987664 
L 476.794602 337.987664 
L 483.558239 337.987664 
L 490.321875 337.987664 
L 497.085511 337.987664 
L 503.849148 337.987664 
L 510.612784 337.987664 
L 517.37642 337.987664 
L 524.140057 337.987664 
L 530.903693 337.987664 
L 537.66733 337.987664 
L 544.430966 337.987664 
L 551.194602 337.987664 
L 557.958239 339.455625 
" clip-path="url(#p14ee65dc71)" style="fill: none; stroke: #1f77b4; stroke-width: 1.5; stroke-linecap: round"/>
   </g>
   <g id="line2d_16">
    <path d="M 50.685511 323.308052 
L 57.449148 323.308052 
L 64.212784 323.308052 
L 70.97642 323.308052 
L 77.740057 323.975307 
L 84.503693 323.975307 
L 91.26733 323.308052 
L 98.030966 323.975307 
L 104.794602 324.642562 
L 111.558239 324.642562 
L 118.321875 324.042033 
L 125.085511 325.309817 
L 131.849148 327.311583 
L 138.612784 326.644328 
L 145.37642 327.311583 
L 152.140057 327.978838 
L 158.903693 327.978838 
L 165.66733 327.978838 
L 172.430966 325.977072 
L 179.194602 325.309817 
L 185.958239 325.509994 
L 192.721875 323.975307 
L 199.485511 323.308052 
L 206.249148 323.308052 
L 213.012784 323.308052 
L 219.77642 323.308052 
L 226.540057 319.304522 
L 233.303693 317.970012 
L 240.06733 316.635501 
L 246.830966 315.968246 
L 253.594602 315.300991 
L 260.358239 313.766305 
L 267.121875 311.964716 
L 273.885511 308.628441 
L 280.649148 308.628441 
L 287.412784 308.628441 
L 294.17642 308.628441 
L 300.940057 308.628441 
L 307.703693 307.961185 
L 314.46733 304.62491 
L 321.230966 301.288635 
L 327.994602 302.756596 
L 334.758239 301.288635 
L 341.521875 301.95589 
L 348.285511 301.288635 
L 355.049148 301.288635 
L 361.812784 301.288635 
L 368.57642 301.288635 
L 375.340057 300.62138 
L 382.103693 298.619614 
L 388.86733 298.619614 
L 395.630966 297.285104 
L 402.394602 296.150771 
L 409.158239 295.950594 
L 415.921875 294.616084 
L 422.685511 294.616084 
L 429.449148 293.948829 
L 436.212784 293.948829 
L 442.97642 293.948829 
L 449.740057 293.948829 
L 456.503693 293.948829 
L 463.26733 293.948829 
L 470.030966 293.948829 
L 476.794602 293.948829 
L 483.558239 293.948829 
L 490.321875 293.948829 
L 497.085511 293.948829 
L 503.849148 293.948829 
L 510.612784 293.948829 
L 517.37642 293.948829 
L 524.140057 293.948829 
L 530.903693 293.948829 
L 537.66733 293.948829 
L 544.430966 293.948829 
L 551.194602 293.281574 
L 557.958239 293.948829 
" clip-path="url(#p14ee65dc71)" style="fill: none; stroke: #ff7f0e; stroke-width: 1.5; stroke-linecap: round"/>
   </g>
   <g id="line2d_17">
    <path d="M 50.685511 323.308052 
L 57.449148 320.37213 
L 64.212784 321.039385 
L 70.97642 321.039385 
L 77.740057 321.70664 
L 84.503693 321.840091 
L 91.26733 325.042915 
L 98.030966 322.373895 
L 104.794602 325.71017 
L 111.558239 325.71017 
L 118.321875 325.71017 
L 125.085511 327.711936 
L 131.849148 327.711936 
L 138.612784 326.377426 
L 145.37642 327.711936 
L 152.140057 327.044681 
L 158.903693 326.977955 
L 165.66733 325.71017 
L 172.430966 321.70664 
L 179.194602 321.039385 
L 185.958239 320.37213 
L 192.721875 319.704875 
L 199.485511 314.366834 
L 206.249148 313.032324 
L 213.012784 313.032324 
L 219.77642 311.697814 
L 226.540057 307.027028 
L 233.303693 305.692518 
L 240.06733 305.692518 
L 246.830966 302.356243 
L 253.594602 298.352712 
L 260.358239 298.352712 
L 267.121875 297.685457 
L 273.885511 291.680162 
L 280.649148 291.012907 
L 287.412784 291.012907 
L 294.17642 288.343886 
L 300.940057 286.342121 
L 307.703693 284.407081 
L 314.46733 283.673101 
L 321.230966 283.673101 
L 327.994602 283.005846 
L 334.758239 278.33506 
L 341.521875 276.333295 
L 348.285511 277.00055 
L 355.049148 276.333295 
L 361.812784 276.333295 
L 368.57642 276.333295 
L 375.340057 274.33153 
L 382.103693 272.99702 
L 388.86733 268.993489 
L 395.630966 268.993489 
L 402.394602 268.993489 
L 409.158239 268.993489 
L 415.921875 268.326234 
L 422.685511 268.993489 
L 429.449148 266.324469 
L 436.212784 264.322704 
L 442.97642 262.988193 
L 449.740057 261.653683 
L 456.503693 261.653683 
L 463.26733 261.653683 
L 470.030966 261.653683 
L 476.794602 261.653683 
L 483.558239 261.653683 
L 490.321875 261.653683 
L 497.085511 261.653683 
L 503.849148 261.653683 
L 510.612784 261.653683 
L 517.37642 261.653683 
L 524.140057 260.919703 
L 530.903693 261.653683 
L 537.66733 261.653683 
L 544.430966 261.653683 
L 551.194602 261.653683 
L 557.958239 261.653683 
" clip-path="url(#p14ee65dc71)" style="fill: none; stroke: #2ca02c; stroke-width: 1.5; stroke-linecap: round"/>
   </g>
   <g id="line2d_18">
    <path d="M 50.685511 323.308052 
L 57.449148 320.37213 
L 64.212784 321.039385 
L 70.97642 321.039385 
L 77.740057 321.039385 
L 84.503693 321.70664 
L 91.26733 321.840091 
L 98.030966 321.039385 
L 104.794602 323.708405 
L 111.558239 323.708405 
L 118.321875 323.04115 
L 125.085511 325.71017 
L 131.849148 325.042915 
L 138.612784 327.044681 
L 145.37642 325.042915 
L 152.140057 324.37566 
L 158.903693 321.840091 
L 165.66733 320.37213 
L 172.430966 320.37213 
L 179.194602 320.37213 
L 185.958239 315.701344 
L 192.721875 313.032324 
L 199.485511 311.697814 
L 206.249148 306.359773 
L 213.012784 305.025263 
L 219.77642 299.019967 
L 226.540057 297.685457 
L 233.303693 291.680162 
L 240.06733 291.012907 
L 246.830966 287.009376 
L 253.594602 283.673101 
L 260.358239 283.005846 
L 267.121875 278.33506 
L 273.885511 276.333295 
L 280.649148 273.664275 
L 287.412784 269.660744 
L 294.17642 267.658979 
L 300.940057 262.320938 
L 307.703693 261.653683 
L 314.46733 261.653683 
L 321.230966 258.317408 
L 327.994602 254.981133 
L 334.758239 254.313877 
L 341.521875 254.313877 
L 348.285511 250.310347 
L 355.049148 247.641327 
L 361.812784 246.306817 
L 368.57642 246.306817 
L 375.340057 244.972306 
L 382.103693 241.102227 
L 388.86733 239.634266 
L 395.630966 239.634266 
L 402.394602 239.634266 
L 409.158239 239.634266 
L 415.921875 238.967011 
L 422.685511 236.965245 
L 429.449148 235.630735 
L 436.212784 233.62897 
L 442.97642 232.29446 
L 449.740057 232.29446 
L 456.503693 232.29446 
L 463.26733 232.29446 
L 470.030966 232.29446 
L 476.794602 230.95995 
L 483.558239 230.95995 
L 490.321875 226.289164 
L 497.085511 226.956419 
L 503.849148 224.954654 
L 510.612784 224.954654 
L 517.37642 224.954654 
L 524.140057 224.954654 
L 530.903693 224.954654 
L 537.66733 224.954654 
L 544.430966 224.954654 
L 551.194602 224.954654 
L 557.958239 224.954654 
" clip-path="url(#p14ee65dc71)" style="fill: none; stroke: #d62728; stroke-width: 1.5; stroke-linecap: round"/>
   </g>
   <g id="line2d_19">
    <path d="M 50.685511 323.308052 
L 57.449148 322.492518 
L 64.212784 322.492518 
L 70.97642 323.159773 
L 77.740057 322.492518 
L 84.503693 323.159773 
L 91.26733 324.494283 
L 98.030966 323.159773 
L 104.794602 325.161539 
L 111.558239 323.159773 
L 118.321875 325.828794 
L 125.085511 325.828794 
L 131.849148 324.69446 
L 138.612784 325.161539 
L 145.37642 323.159773 
L 152.140057 323.159773 
L 158.903693 322.492518 
L 165.66733 322.492518 
L 172.430966 316.487223 
L 179.194602 315.152712 
L 185.958239 308.480162 
L 192.721875 306.478396 
L 199.485511 301.140356 
L 206.249148 297.537178 
L 213.012784 292.46604 
L 219.77642 286.460744 
L 226.540057 283.791724 
L 233.303693 278.453683 
L 240.06733 275.784663 
L 246.830966 271.113877 
L 253.594602 265.775837 
L 260.358239 263.774072 
L 267.121875 256.434266 
L 273.885511 255.700285 
L 280.649148 251.096225 
L 287.412784 248.427205 
L 294.17642 243.089164 
L 300.940057 240.420144 
L 307.703693 236.416614 
L 314.46733 234.414848 
L 321.230966 233.747593 
L 327.994602 230.411318 
L 334.758239 227.742298 
L 341.521875 226.407787 
L 348.285511 221.069747 
L 355.049148 219.735237 
L 361.812784 219.067982 
L 368.57642 215.064451 
L 375.340057 212.395431 
L 382.103693 212.395431 
L 388.86733 210.393666 
L 395.630966 207.05739 
L 402.394602 205.055625 
L 409.158239 205.055625 
L 415.921875 205.055625 
L 422.685511 203.721115 
L 429.449148 202.119703 
L 436.212784 200.384839 
L 442.97642 197.715819 
L 449.740057 197.715819 
L 456.503693 197.715819 
L 463.26733 197.715819 
L 470.030966 197.048564 
L 476.794602 195.046799 
L 483.558239 195.714054 
L 490.321875 192.377779 
L 497.085511 191.043268 
L 503.849148 190.376013 
L 510.612784 190.376013 
L 517.37642 190.376013 
L 524.140057 190.376013 
L 530.903693 190.376013 
L 537.66733 190.376013 
L 544.430966 190.376013 
L 551.194602 190.376013 
L 557.958239 190.376013 
" clip-path="url(#p14ee65dc71)" style="fill: none; stroke: #9467bd; stroke-width: 1.5; stroke-linecap: round"/>
   </g>
   <g id="line2d_20">
    <path d="M 50.685511 323.308052 
L 57.449148 322.640797 
L 64.212784 323.308052 
L 70.97642 323.308052 
L 77.740057 323.308052 
L 84.503693 323.975307 
L 91.26733 323.975307 
L 98.030966 324.108758 
L 104.794602 323.975307 
L 111.558239 325.977072 
L 118.321875 325.977072 
L 125.085511 326.644328 
L 131.849148 325.977072 
L 138.612784 324.642562 
L 145.37642 322.640797 
L 152.140057 322.640797 
L 158.903693 320.639032 
L 165.66733 315.300991 
L 172.430966 313.966481 
L 179.194602 309.429147 
L 185.958239 304.62491 
L 192.721875 298.619614 
L 199.485511 293.281574 
L 206.249148 287.943533 
L 213.012784 281.938238 
L 219.77642 277.267452 
L 226.540057 271.262156 
L 233.303693 266.591371 
L 240.06733 262.58784 
L 246.830966 255.91529 
L 253.594602 249.976719 
L 260.358239 246.573719 
L 267.121875 241.902933 
L 273.885511 236.564892 
L 280.649148 233.895872 
L 287.412784 227.223321 
L 294.17642 227.223321 
L 300.940057 221.218026 
L 307.703693 218.549005 
L 314.46733 213.210965 
L 321.230966 209.874689 
L 327.994602 205.937884 
L 334.758239 205.203904 
L 341.521875 201.200373 
L 348.285511 198.531353 
L 355.049148 197.864098 
L 361.812784 197.196843 
L 368.57642 191.858802 
L 375.340057 190.524292 
L 382.103693 189.857037 
L 388.86733 184.518997 
L 395.630966 183.184486 
L 402.394602 183.184486 
L 409.158239 183.184486 
L 415.921875 182.517231 
L 422.685511 179.180956 
L 429.449148 177.846446 
L 436.212784 176.511936 
L 442.97642 175.844681 
L 449.740057 175.844681 
L 456.503693 175.844681 
L 463.26733 174.51017 
L 470.030966 173.17566 
L 476.794602 168.504875 
L 483.558239 169.839385 
L 490.321875 168.504875 
L 497.085511 168.504875 
L 503.849148 168.504875 
L 510.612784 168.504875 
L 517.37642 165.835854 
L 524.140057 165.168599 
L 530.903693 164.501344 
L 537.66733 166.50311 
L 544.430966 162.63303 
L 551.194602 161.832324 
L 557.958239 161.832324 
" clip-path="url(#p14ee65dc71)" style="fill: none; stroke: #8c564b; stroke-width: 1.5; stroke-linecap: round"/>
   </g>
   <g id="line2d_21">
    <path d="M 50.685511 323.308052 
L 57.449148 321.840091 
L 64.212784 322.507346 
L 70.97642 321.840091 
L 77.740057 323.174601 
L 84.503693 323.174601 
L 91.26733 322.574072 
L 98.030966 323.841856 
L 104.794602 324.509111 
L 111.558239 324.509111 
L 118.321875 323.841856 
L 125.085511 323.174601 
L 131.849148 323.841856 
L 138.612784 322.507346 
L 145.37642 321.840091 
L 152.140057 321.172836 
L 158.903693 315.834795 
L 165.66733 314.500285 
L 172.430966 307.160479 
L 179.194602 305.158714 
L 185.958239 299.153418 
L 192.721875 292.480868 
L 199.485511 285.141062 
L 206.249148 277.801256 
L 213.012784 271.128705 
L 219.77642 264.456155 
L 226.540057 258.450859 
L 233.303693 252.111936 
L 240.06733 244.438502 
L 246.830966 239.100462 
L 253.594602 231.760656 
L 260.358239 226.422615 
L 267.121875 219.082809 
L 273.885511 217.748299 
L 280.649148 210.408493 
L 287.412784 205.070453 
L 294.17642 197.730647 
L 300.940057 195.728882 
L 307.703693 190.457567 
L 314.46733 189.056331 
L 321.230966 182.38378 
L 327.994602 180.382015 
L 334.758239 175.043975 
L 341.521875 175.043975 
L 348.285511 171.040444 
L 355.049148 167.704169 
L 361.812784 167.036914 
L 368.57642 163.033383 
L 375.340057 160.364363 
L 382.103693 157.428441 
L 388.86733 153.691812 
L 395.630966 153.024557 
L 402.394602 152.357302 
L 409.158239 147.686516 
L 415.921875 145.684751 
L 422.685511 145.684751 
L 429.449148 145.684751 
L 436.212784 143.682986 
L 442.97642 138.344945 
L 449.740057 138.344945 
L 456.503693 138.344945 
L 463.26733 138.344945 
L 470.030966 136.34318 
L 476.794602 133.006905 
L 483.558239 131.672395 
L 490.321875 131.00514 
L 497.085511 131.00514 
L 503.849148 131.00514 
L 510.612784 131.00514 
L 517.37642 131.00514 
L 524.140057 128.803198 
L 530.903693 128.336119 
L 537.66733 126.334354 
L 544.430966 125.667099 
L 551.194602 124.332589 
L 557.958239 123.665334 
" clip-path="url(#p14ee65dc71)" style="fill: none; stroke: #e377c2; stroke-width: 1.5; stroke-linecap: round"/>
   </g>
   <g id="line2d_22">
    <path d="M 50.685511 323.308052 
L 57.449148 323.975307 
L 64.212784 323.975307 
L 70.97642 324.642562 
L 77.740057 324.776013 
L 84.503693 325.309817 
L 91.26733 325.309817 
L 98.030966 325.309817 
L 104.794602 325.309817 
L 111.558239 327.311583 
L 118.321875 327.311583 
L 125.085511 325.977072 
L 131.849148 324.642562 
L 138.612784 323.308052 
L 145.37642 323.308052 
L 152.140057 319.638149 
L 158.903693 315.968246 
L 165.66733 311.964716 
L 172.430966 307.961185 
L 179.194602 301.288635 
L 185.958239 296.617849 
L 192.721875 289.278043 
L 199.485511 281.938238 
L 206.249148 273.263922 
L 213.012784 266.791547 
L 219.77642 258.58431 
L 226.540057 251.244504 
L 233.303693 242.570188 
L 240.06733 234.563127 
L 246.830966 227.890576 
L 253.594602 219.21626 
L 260.358239 213.210965 
L 267.121875 207.205669 
L 273.885511 199.198608 
L 280.649148 191.925528 
L 287.412784 186.520762 
L 294.17642 182.517231 
L 300.940057 176.511936 
L 307.703693 169.17213 
L 314.46733 167.83762 
L 321.230966 161.832324 
L 327.994602 160.497814 
L 334.758239 154.492518 
L 341.521875 150.488988 
L 348.285511 147.152712 
L 355.049148 142.481927 
L 361.812784 139.812907 
L 368.57642 138.478396 
L 375.340057 133.140356 
L 382.103693 131.805846 
L 388.86733 127.13506 
L 395.630966 125.133295 
L 402.394602 125.133295 
L 409.158239 119.127999 
L 415.921875 117.793489 
L 422.685511 117.793489 
L 429.449148 117.126234 
L 436.212784 111.788193 
L 442.97642 110.453683 
L 449.740057 110.453683 
L 456.503693 110.453683 
L 463.26733 110.453683 
L 470.030966 107.117408 
L 476.794602 103.113877 
L 483.558239 103.781133 
L 490.321875 103.113877 
L 497.085511 103.113877 
L 503.849148 103.113877 
L 510.612784 99.110347 
L 517.37642 97.775837 
L 524.140057 95.774072 
L 530.903693 95.774072 
L 537.66733 95.774072 
L 544.430966 95.774072 
L 551.194602 95.774072 
L 557.958239 95.774072 
" clip-path="url(#p14ee65dc71)" style="fill: none; stroke: #7f7f7f; stroke-width: 1.5; stroke-linecap: round"/>
   </g>
   <g id="line2d_23">
    <path d="M 50.685511 323.308052 
L 57.449148 323.975307 
L 64.212784 323.308052 
L 70.97642 323.975307 
L 77.740057 323.975307 
L 84.503693 324.642562 
L 91.26733 323.975307 
L 98.030966 324.042033 
L 104.794602 324.642562 
L 111.558239 324.642562 
L 118.321875 323.975307 
L 125.085511 323.308052 
L 131.849148 323.975307 
L 138.612784 323.308052 
L 145.37642 321.306287 
L 152.140057 317.302757 
L 158.903693 312.631971 
L 165.66733 307.160479 
L 172.430966 301.95589 
L 179.194602 295.283339 
L 185.958239 289.945298 
L 192.721875 280.603727 
L 199.485511 269.927646 
L 206.249148 261.920585 
L 213.012784 254.580779 
L 219.77642 245.906463 
L 226.540057 235.897637 
L 233.303693 226.556066 
L 240.06733 217.614848 
L 246.830966 211.2092 
L 253.594602 205.203904 
L 260.358239 196.529588 
L 267.121875 189.857037 
L 273.885511 183.184486 
L 280.649148 177.179191 
L 287.412784 168.504875 
L 294.17642 163.834089 
L 300.940057 159.830559 
L 307.703693 154.492518 
L 314.46733 150.488988 
L 321.230966 145.818202 
L 327.994602 140.480162 
L 334.758239 134.474866 
L 341.521875 131.138591 
L 348.285511 125.133295 
L 355.049148 120.462509 
L 361.812784 117.793489 
L 368.57642 114.457214 
L 375.340057 110.453683 
L 382.103693 109.719703 
L 388.86733 105.782898 
L 395.630966 103.113877 
L 402.394602 103.113877 
L 409.158239 98.443092 
L 415.921875 95.774072 
L 422.685511 95.774072 
L 429.449148 91.103286 
L 436.212784 88.434266 
L 442.97642 88.434266 
L 449.740057 88.434266 
L 456.503693 83.296402 
L 463.26733 81.09446 
L 470.030966 81.09446 
L 476.794602 81.09446 
L 483.558239 81.09446 
L 490.321875 79.092695 
L 497.085511 79.092695 
L 503.849148 79.75995 
L 510.612784 78.42544 
L 517.37642 76.423674 
L 524.140057 77.09093 
L 530.903693 74.488635 
L 537.66733 73.754654 
L 544.430966 73.754654 
L 551.194602 73.754654 
L 557.958239 73.754654 
" clip-path="url(#p14ee65dc71)" style="fill: none; stroke: #bcbd22; stroke-width: 1.5; stroke-linecap: round"/>
   </g>
   <g id="line2d_24">
    <path d="M 50.685511 323.308052 
L 57.449148 323.308052 
L 64.212784 324.642562 
L 70.97642 323.975307 
L 77.740057 325.977072 
L 84.503693 325.977072 
L 91.26733 325.977072 
L 98.030966 326.644328 
L 104.794602 326.644328 
L 111.558239 327.978838 
L 118.321875 326.644328 
L 125.085511 325.509994 
L 131.849148 323.308052 
L 138.612784 323.308052 
L 145.37642 318.637267 
L 152.140057 313.966481 
L 158.903693 308.628441 
L 165.66733 301.95589 
L 172.430966 295.950594 
L 179.194602 289.278043 
L 185.958239 278.601962 
L 192.721875 268.993489 
L 199.485511 259.251565 
L 206.249148 249.909994 
L 213.012784 239.901168 
L 219.77642 230.559597 
L 226.540057 218.549005 
L 233.303693 208.540179 
L 240.06733 201.200373 
L 246.830966 190.524292 
L 253.594602 181.182721 
L 260.358239 172.842033 
L 267.121875 163.834089 
L 273.885511 159.163304 
L 280.649148 151.823498 
L 287.412784 143.816437 
L 294.17642 136.476631 
L 300.940057 130.471336 
L 307.703693 122.464275 
L 314.46733 117.126234 
L 321.230966 111.788193 
L 327.994602 106.78378 
L 334.758239 103.113877 
L 341.521875 98.443092 
L 348.285511 93.772306 
L 355.049148 88.434266 
L 361.812784 85.09799 
L 368.57642 81.09446 
L 375.340057 78.42544 
L 382.103693 74.421909 
L 388.86733 73.754654 
L 395.630966 71.085634 
L 402.394602 66.414848 
L 409.158239 65.747593 
L 415.921875 59.742298 
L 422.685511 59.075042 
L 429.449148 58.407787 
L 436.212784 54.404257 
L 442.97642 51.735237 
L 449.740057 51.735237 
L 456.503693 51.735237 
L 463.26733 49.733471 
L 470.030966 45.729941 
L 476.794602 45.062686 
L 483.558239 44.395431 
L 490.321875 44.395431 
L 497.085511 43.060921 
L 503.849148 40.3919 
L 510.612784 37.055625 
L 517.37642 37.72288 
L 524.140057 37.055625 
L 530.903693 37.055625 
L 537.66733 37.055625 
L 544.430966 37.055625 
L 551.194602 37.055625 
L 557.958239 37.055625 
" clip-path="url(#p14ee65dc71)" style="fill: none; stroke: #17becf; stroke-width: 1.5; stroke-linecap: round"/>
   </g>
   <g id="patch_3">
    <path d="M 25.321875 354.575625 
L 25.321875 21.935625 
" style="fill: none; stroke: #000000; stroke-width: 0.8; stroke-linejoin: miter; stroke-linecap: square"/>
   </g>
   <g id="patch_4">
    <path d="M 583.321875 354.575625 
L 583.321875 21.935625 
" style="fill: none; stroke: #000000; stroke-width: 0.8; stroke-linejoin: miter; stroke-linecap: square"/>
   </g>
   <g id="patch_5">
    <path d="M 25.321875 354.575625 
L 583.321875 354.575625 
" style="fill: none; stroke: #000000; stroke-width: 0.8; stroke-linejoin: miter; stroke-linecap: square"/>
   </g>
   <g id="patch_6">
    <path d="M 25.321875 21.935625 
L 583.321875 21.935625 
" style="fill: none; stroke: #000000; stroke-width: 0.8; stroke-linejoin: miter; stroke-linecap: square"/>
   </g>
   <g id="text_15">
    <!-- Heat applied for 15s - Grouphead temp: 47.67 C -->
    <g transform="translate(175.920937 15.935625) scale(0.12 -0.12)">
     <defs>
      <path id="ArialMT-48" d="M 513 0 
L 513 4581 
L 1119 4581 
L 1119 2700 
L 3500 2700 
L 3500 4581 
L 4106 4581 
L 4106 0 
L 3500 0 
L 3500 2159 
L 1119 2159 
L 1119 0 
L 513 0 
z
" transform="scale(0.015625)"/>
      <path id="ArialMT-65" d="M 2694 1069 
L 3275 997 
Q 3138 488 2766 206 
Q 2394 -75 1816 -75 
Q 1088 -75 661 373 
Q 234 822 234 1631 
Q 234 2469 665 2931 
Q 1097 3394 1784 3394 
Q 2450 3394 2872 2941 
Q 3294 2488 3294 1666 
Q 3294 1616 3291 1516 
L 816 1516 
Q 847 969 1125 678 
Q 1403 388 1819 388 
Q 2128 388 2347 550 
Q 2566 713 2694 1069 
z
M 847 1978 
L 2700 1978 
Q 2663 2397 2488 2606 
Q 2219 2931 1791 2931 
Q 1403 2931 1139 2672 
Q 875 2413 847 1978 
z
" transform="scale(0.015625)"/>
      <path id="ArialMT-61" d="M 2588 409 
Q 2275 144 1986 34 
Q 1697 -75 1366 -75 
Q 819 -75 525 192 
Q 231 459 231 875 
Q 231 1119 342 1320 
Q 453 1522 633 1644 
Q 813 1766 1038 1828 
Q 1203 1872 1538 1913 
Q 2219 1994 2541 2106 
Q 2544 2222 2544 2253 
Q 2544 2597 2384 2738 
Q 2169 2928 1744 2928 
Q 1347 2928 1158 2789 
Q 969 2650 878 2297 
L 328 2372 
Q 403 2725 575 2942 
Q 747 3159 1072 3276 
Q 1397 3394 1825 3394 
Q 2250 3394 2515 3294 
Q 2781 3194 2906 3042 
Q 3031 2891 3081 2659 
Q 3109 2516 3109 2141 
L 3109 1391 
Q 3109 606 3145 398 
Q 3181 191 3288 0 
L 2700 0 
Q 2613 175 2588 409 
z
M 2541 1666 
Q 2234 1541 1622 1453 
Q 1275 1403 1131 1340 
Q 988 1278 909 1158 
Q 831 1038 831 891 
Q 831 666 1001 516 
Q 1172 366 1500 366 
Q 1825 366 2078 508 
Q 2331 650 2450 897 
Q 2541 1088 2541 1459 
L 2541 1666 
z
" transform="scale(0.015625)"/>
      <path id="ArialMT-74" d="M 1650 503 
L 1731 6 
Q 1494 -44 1306 -44 
Q 1000 -44 831 53 
Q 663 150 594 308 
Q 525 466 525 972 
L 525 2881 
L 113 2881 
L 113 3319 
L 525 3319 
L 525 4141 
L 1084 4478 
L 1084 3319 
L 1650 3319 
L 1650 2881 
L 1084 2881 
L 1084 941 
Q 1084 700 1114 631 
Q 1144 563 1211 522 
Q 1278 481 1403 481 
Q 1497 481 1650 503 
z
" transform="scale(0.015625)"/>
      <path id="ArialMT-20" transform="scale(0.015625)"/>
      <path id="ArialMT-70" d="M 422 -1272 
L 422 3319 
L 934 3319 
L 934 2888 
Q 1116 3141 1344 3267 
Q 1572 3394 1897 3394 
Q 2322 3394 2647 3175 
Q 2972 2956 3137 2557 
Q 3303 2159 3303 1684 
Q 3303 1175 3120 767 
Q 2938 359 2589 142 
Q 2241 -75 1856 -75 
Q 1575 -75 1351 44 
Q 1128 163 984 344 
L 984 -1272 
L 422 -1272 
z
M 931 1641 
Q 931 1000 1190 694 
Q 1450 388 1819 388 
Q 2194 388 2461 705 
Q 2728 1022 2728 1688 
Q 2728 2322 2467 2637 
Q 2206 2953 1844 2953 
Q 1484 2953 1207 2617 
Q 931 2281 931 1641 
z
" transform="scale(0.015625)"/>
      <path id="ArialMT-6c" d="M 409 0 
L 409 4581 
L 972 4581 
L 972 0 
L 409 0 
z
" transform="scale(0.015625)"/>
      <path id="ArialMT-69" d="M 425 3934 
L 425 4581 
L 988 4581 
L 988 3934 
L 425 3934 
z
M 425 0 
L 425 3319 
L 988 3319 
L 988 0 
L 425 0 
z
" transform="scale(0.015625)"/>
      <path id="ArialMT-64" d="M 2575 0 
L 2575 419 
Q 2259 -75 1647 -75 
Q 1250 -75 917 144 
Q 584 363 401 755 
Q 219 1147 219 1656 
Q 219 2153 384 2558 
Q 550 2963 881 3178 
Q 1213 3394 1622 3394 
Q 1922 3394 2156 3267 
Q 2391 3141 2538 2938 
L 2538 4581 
L 3097 4581 
L 3097 0 
L 2575 0 
z
M 797 1656 
Q 797 1019 1065 703 
Q 1334 388 1700 388 
Q 2069 388 2326 689 
Q 2584 991 2584 1609 
Q 2584 2291 2321 2609 
Q 2059 2928 1675 2928 
Q 1300 2928 1048 2622 
Q 797 2316 797 1656 
z
" transform="scale(0.015625)"/>
      <path id="ArialMT-66" d="M 556 0 
L 556 2881 
L 59 2881 
L 59 3319 
L 556 3319 
L 556 3672 
Q 556 4006 616 4169 
Q 697 4388 901 4523 
Q 1106 4659 1475 4659 
Q 1713 4659 2000 4603 
L 1916 4113 
Q 1741 4144 1584 4144 
Q 1328 4144 1222 4034 
Q 1116 3925 1116 3625 
L 1116 3319 
L 1763 3319 
L 1763 2881 
L 1116 2881 
L 1116 0 
L 556 0 
z
" transform="scale(0.015625)"/>
      <path id="ArialMT-6f" d="M 213 1659 
Q 213 2581 725 3025 
Q 1153 3394 1769 3394 
Q 2453 3394 2887 2945 
Q 3322 2497 3322 1706 
Q 3322 1066 3130 698 
Q 2938 331 2570 128 
Q 2203 -75 1769 -75 
Q 1072 -75 642 372 
Q 213 819 213 1659 
z
M 791 1659 
Q 791 1022 1069 705 
Q 1347 388 1769 388 
Q 2188 388 2466 706 
Q 2744 1025 2744 1678 
Q 2744 2294 2464 2611 
Q 2184 2928 1769 2928 
Q 1347 2928 1069 2612 
Q 791 2297 791 1659 
z
" transform="scale(0.015625)"/>
      <path id="ArialMT-72" d="M 416 0 
L 416 3319 
L 922 3319 
L 922 2816 
Q 1116 3169 1280 3281 
Q 1444 3394 1641 3394 
Q 1925 3394 2219 3213 
L 2025 2691 
Q 1819 2813 1613 2813 
Q 1428 2813 1281 2702 
Q 1134 2591 1072 2394 
Q 978 2094 978 1738 
L 978 0 
L 416 0 
z
" transform="scale(0.015625)"/>
      <path id="ArialMT-73" d="M 197 991 
L 753 1078 
Q 800 744 1014 566 
Q 1228 388 1613 388 
Q 2000 388 2187 545 
Q 2375 703 2375 916 
Q 2375 1106 2209 1216 
Q 2094 1291 1634 1406 
Q 1016 1563 777 1677 
Q 538 1791 414 1992 
Q 291 2194 291 2438 
Q 291 2659 392 2848 
Q 494 3038 669 3163 
Q 800 3259 1026 3326 
Q 1253 3394 1513 3394 
Q 1903 3394 2198 3281 
Q 2494 3169 2634 2976 
Q 2775 2784 2828 2463 
L 2278 2388 
Q 2241 2644 2061 2787 
Q 1881 2931 1553 2931 
Q 1166 2931 1000 2803 
Q 834 2675 834 2503 
Q 834 2394 903 2306 
Q 972 2216 1119 2156 
Q 1203 2125 1616 2013 
Q 2213 1853 2448 1751 
Q 2684 1650 2818 1456 
Q 2953 1263 2953 975 
Q 2953 694 2789 445 
Q 2625 197 2315 61 
Q 2006 -75 1616 -75 
Q 969 -75 630 194 
Q 291 463 197 991 
z
" transform="scale(0.015625)"/>
      <path id="ArialMT-2d" d="M 203 1375 
L 203 1941 
L 1931 1941 
L 1931 1375 
L 203 1375 
z
" transform="scale(0.015625)"/>
      <path id="ArialMT-47" d="M 2638 1797 
L 2638 2334 
L 4578 2338 
L 4578 638 
Q 4131 281 3656 101 
Q 3181 -78 2681 -78 
Q 2006 -78 1454 211 
Q 903 500 622 1047 
Q 341 1594 341 2269 
Q 341 2938 620 3517 
Q 900 4097 1425 4378 
Q 1950 4659 2634 4659 
Q 3131 4659 3532 4498 
Q 3934 4338 4162 4050 
Q 4391 3763 4509 3300 
L 3963 3150 
Q 3859 3500 3706 3700 
Q 3553 3900 3268 4020 
Q 2984 4141 2638 4141 
Q 2222 4141 1919 4014 
Q 1616 3888 1430 3681 
Q 1244 3475 1141 3228 
Q 966 2803 966 2306 
Q 966 1694 1177 1281 
Q 1388 869 1791 669 
Q 2194 469 2647 469 
Q 3041 469 3416 620 
Q 3791 772 3984 944 
L 3984 1797 
L 2638 1797 
z
" transform="scale(0.015625)"/>
      <path id="ArialMT-75" d="M 2597 0 
L 2597 488 
Q 2209 -75 1544 -75 
Q 1250 -75 995 37 
Q 741 150 617 320 
Q 494 491 444 738 
Q 409 903 409 1263 
L 409 3319 
L 972 3319 
L 972 1478 
Q 972 1038 1006 884 
Q 1059 663 1231 536 
Q 1403 409 1656 409 
Q 1909 409 2131 539 
Q 2353 669 2445 892 
Q 2538 1116 2538 1541 
L 2538 3319 
L 3100 3319 
L 3100 0 
L 2597 0 
z
" transform="scale(0.015625)"/>
      <path id="ArialMT-68" d="M 422 0 
L 422 4581 
L 984 4581 
L 984 2938 
Q 1378 3394 1978 3394 
Q 2347 3394 2619 3248 
Q 2891 3103 3008 2847 
Q 3125 2591 3125 2103 
L 3125 0 
L 2563 0 
L 2563 2103 
Q 2563 2525 2380 2717 
Q 2197 2909 1863 2909 
Q 1613 2909 1392 2779 
Q 1172 2650 1078 2428 
Q 984 2206 984 1816 
L 984 0 
L 422 0 
z
" transform="scale(0.015625)"/>
      <path id="ArialMT-6d" d="M 422 0 
L 422 3319 
L 925 3319 
L 925 2853 
Q 1081 3097 1340 3245 
Q 1600 3394 1931 3394 
Q 2300 3394 2536 3241 
Q 2772 3088 2869 2813 
Q 3263 3394 3894 3394 
Q 4388 3394 4653 3120 
Q 4919 2847 4919 2278 
L 4919 0 
L 4359 0 
L 4359 2091 
Q 4359 2428 4304 2576 
Q 4250 2725 4106 2815 
Q 3963 2906 3769 2906 
Q 3419 2906 3187 2673 
Q 2956 2441 2956 1928 
L 2956 0 
L 2394 0 
L 2394 2156 
Q 2394 2531 2256 2718 
Q 2119 2906 1806 2906 
Q 1569 2906 1367 2781 
Q 1166 2656 1075 2415 
Q 984 2175 984 1722 
L 984 0 
L 422 0 
z
" transform="scale(0.015625)"/>
      <path id="ArialMT-37" d="M 303 3981 
L 303 4522 
L 3269 4522 
L 3269 4084 
Q 2831 3619 2401 2847 
Q 1972 2075 1738 1259 
Q 1569 684 1522 0 
L 944 0 
Q 953 541 1156 1306 
Q 1359 2072 1739 2783 
Q 2119 3494 2547 3981 
L 303 3981 
z
" transform="scale(0.015625)"/>
      <path id="ArialMT-2e" d="M 581 0 
L 581 641 
L 1222 641 
L 1222 0 
L 581 0 
z
" transform="scale(0.015625)"/>
      <path id="ArialMT-43" d="M 3763 1606 
L 4369 1453 
Q 4178 706 3683 314 
Q 3188 -78 2472 -78 
Q 1731 -78 1267 223 
Q 803 525 561 1097 
Q 319 1669 319 2325 
Q 319 3041 592 3573 
Q 866 4106 1370 4382 
Q 1875 4659 2481 4659 
Q 3169 4659 3637 4309 
Q 4106 3959 4291 3325 
L 3694 3184 
Q 3534 3684 3231 3912 
Q 2928 4141 2469 4141 
Q 1941 4141 1586 3887 
Q 1231 3634 1087 3207 
Q 944 2781 944 2328 
Q 944 1744 1114 1308 
Q 1284 872 1643 656 
Q 2003 441 2422 441 
Q 2931 441 3284 734 
Q 3638 1028 3763 1606 
z
" transform="scale(0.015625)"/>
     </defs>
     <use xlink:href="#ArialMT-48"/>
     <use xlink:href="#ArialMT-65" x="72.216797"/>
     <use xlink:href="#ArialMT-61" x="127.832031"/>
     <use xlink:href="#ArialMT-74" x="183.447266"/>
     <use xlink:href="#ArialMT-20" x="211.230469"/>
     <use xlink:href="#ArialMT-61" x="239.013672"/>
     <use xlink:href="#ArialMT-70" x="294.628906"/>
     <use xlink:href="#ArialMT-70" x="350.244141"/>
     <use xlink:href="#ArialMT-6c" x="405.859375"/>
     <use xlink:href="#ArialMT-69" x="428.076172"/>
     <use xlink:href="#ArialMT-65" x="450.292969"/>
     <use xlink:href="#ArialMT-64" x="505.908203"/>
     <use xlink:href="#ArialMT-20" x="561.523438"/>
     <use xlink:href="#ArialMT-66" x="589.306641"/>
     <use xlink:href="#ArialMT-6f" x="617.089844"/>
     <use xlink:href="#ArialMT-72" x="672.705078"/>
     <use xlink:href="#ArialMT-20" x="706.005859"/>
     <use xlink:href="#ArialMT-31" x="733.789062"/>
     <use xlink:href="#ArialMT-35" x="789.404297"/>
     <use xlink:href="#ArialMT-73" x="845.019531"/>
     <use xlink:href="#ArialMT-20" x="895.019531"/>
     <use xlink:href="#ArialMT-2d" x="922.802734"/>
     <use xlink:href="#ArialMT-20" x="956.103516"/>
     <use xlink:href="#ArialMT-47" x="983.886719"/>
     <use xlink:href="#ArialMT-72" x="1061.669922"/>
     <use xlink:href="#ArialMT-6f" x="1094.970703"/>
     <use xlink:href="#ArialMT-75" x="1150.585938"/>
     <use xlink:href="#ArialMT-70" x="1206.201172"/>
     <use xlink:href="#ArialMT-68" x="1261.816406"/>
     <use xlink:href="#ArialMT-65" x="1317.431641"/>
     <use xlink:href="#ArialMT-61" x="1373.046875"/>
     <use xlink:href="#ArialMT-64" x="1428.662109"/>
     <use xlink:href="#ArialMT-20" x="1484.277344"/>
     <use xlink:href="#ArialMT-74" x="1512.060547"/>
     <use xlink:href="#ArialMT-65" x="1539.84375"/>
     <use xlink:href="#ArialMT-6d" x="1595.458984"/>
     <use xlink:href="#ArialMT-70" x="1678.759766"/>
     <use xlink:href="#ArialMT-3a" x="1734.375"/>
     <use xlink:href="#ArialMT-20" x="1762.158203"/>
     <use xlink:href="#ArialMT-34" x="1789.941406"/>
     <use xlink:href="#ArialMT-37" x="1845.556641"/>
     <use xlink:href="#ArialMT-2e" x="1901.171875"/>
     <use xlink:href="#ArialMT-36" x="1928.955078"/>
     <use xlink:href="#ArialMT-37" x="1984.570312"/>
     <use xlink:href="#ArialMT-20" x="2040.185547"/>
     <use xlink:href="#ArialMT-43" x="2067.96875"/>
    </g>
   </g>
   <g id="legend_1">
    <g id="patch_7">
     <path d="M 33.021875 186.334063 
L 83.511875 186.334063 
Q 85.711875 186.334063 85.711875 184.134063 
L 85.711875 29.635625 
Q 85.711875 27.435625 83.511875 27.435625 
L 33.021875 27.435625 
Q 30.821875 27.435625 30.821875 29.635625 
L 30.821875 184.134063 
Q 30.821875 186.334063 33.021875 186.334063 
z
" style="fill: #ffffff; opacity: 0.8; stroke: #cccccc; stroke-linejoin: miter"/>
    </g>
    <g id="line2d_25">
     <path d="M 35.221875 35.859219 
L 46.221875 35.859219 
L 57.221875 35.859219 
" style="fill: none; stroke: #1f77b4; stroke-width: 1.5; stroke-linecap: round"/>
    </g>
    <g id="text_16">
     <!-- 0.1 -->
     <g style="fill: #262626" transform="translate(66.021875 39.709219) scale(0.11 -0.11)">
      <use xlink:href="#ArialMT-30"/>
      <use xlink:href="#ArialMT-2e" x="55.615234"/>
      <use xlink:href="#ArialMT-31" x="83.398438"/>
     </g>
    </g>
    <g id="line2d_26">
     <path d="M 35.221875 51.419063 
L 46.221875 51.419063 
L 57.221875 51.419063 
" style="fill: none; stroke: #ff7f0e; stroke-width: 1.5; stroke-linecap: round"/>
    </g>
    <g id="text_17">
     <!-- 0.2 -->
     <g style="fill: #262626" transform="translate(66.021875 55.269063) scale(0.11 -0.11)">
      <use xlink:href="#ArialMT-30"/>
      <use xlink:href="#ArialMT-2e" x="55.615234"/>
      <use xlink:href="#ArialMT-32" x="83.398438"/>
     </g>
    </g>
    <g id="line2d_27">
     <path d="M 35.221875 66.978906 
L 46.221875 66.978906 
L 57.221875 66.978906 
" style="fill: none; stroke: #2ca02c; stroke-width: 1.5; stroke-linecap: round"/>
    </g>
    <g id="text_18">
     <!-- 0.3 -->
     <g style="fill: #262626" transform="translate(66.021875 70.828906) scale(0.11 -0.11)">
      <use xlink:href="#ArialMT-30"/>
      <use xlink:href="#ArialMT-2e" x="55.615234"/>
      <use xlink:href="#ArialMT-33" x="83.398438"/>
     </g>
    </g>
    <g id="line2d_28">
     <path d="M 35.221875 82.53875 
L 46.221875 82.53875 
L 57.221875 82.53875 
" style="fill: none; stroke: #d62728; stroke-width: 1.5; stroke-linecap: round"/>
    </g>
    <g id="text_19">
     <!-- 0.4 -->
     <g style="fill: #262626" transform="translate(66.021875 86.38875) scale(0.11 -0.11)">
      <use xlink:href="#ArialMT-30"/>
      <use xlink:href="#ArialMT-2e" x="55.615234"/>
      <use xlink:href="#ArialMT-34" x="83.398438"/>
     </g>
    </g>
    <g id="line2d_29">
     <path d="M 35.221875 98.098594 
L 46.221875 98.098594 
L 57.221875 98.098594 
" style="fill: none; stroke: #9467bd; stroke-width: 1.5; stroke-linecap: round"/>
    </g>
    <g id="text_20">
     <!-- 0.5 -->
     <g style="fill: #262626" transform="translate(66.021875 101.948594) scale(0.11 -0.11)">
      <use xlink:href="#ArialMT-30"/>
      <use xlink:href="#ArialMT-2e" x="55.615234"/>
      <use xlink:href="#ArialMT-35" x="83.398438"/>
     </g>
    </g>
    <g id="line2d_30">
     <path d="M 35.221875 113.658438 
L 46.221875 113.658438 
L 57.221875 113.658438 
" style="fill: none; stroke: #8c564b; stroke-width: 1.5; stroke-linecap: round"/>
    </g>
    <g id="text_21">
     <!-- 0.6 -->
     <g style="fill: #262626" transform="translate(66.021875 117.508438) scale(0.11 -0.11)">
      <use xlink:href="#ArialMT-30"/>
      <use xlink:href="#ArialMT-2e" x="55.615234"/>
      <use xlink:href="#ArialMT-36" x="83.398438"/>
     </g>
    </g>
    <g id="line2d_31">
     <path d="M 35.221875 129.218281 
L 46.221875 129.218281 
L 57.221875 129.218281 
" style="fill: none; stroke: #e377c2; stroke-width: 1.5; stroke-linecap: round"/>
    </g>
    <g id="text_22">
     <!-- 0.7 -->
     <g style="fill: #262626" transform="translate(66.021875 133.068281) scale(0.11 -0.11)">
      <use xlink:href="#ArialMT-30"/>
      <use xlink:href="#ArialMT-2e" x="55.615234"/>
      <use xlink:href="#ArialMT-37" x="83.398438"/>
     </g>
    </g>
    <g id="line2d_32">
     <path d="M 35.221875 144.778125 
L 46.221875 144.778125 
L 57.221875 144.778125 
" style="fill: none; stroke: #7f7f7f; stroke-width: 1.5; stroke-linecap: round"/>
    </g>
    <g id="text_23">
     <!-- 0.8 -->
     <g style="fill: #262626" transform="translate(66.021875 148.628125) scale(0.11 -0.11)">
      <use xlink:href="#ArialMT-30"/>
      <use xlink:href="#ArialMT-2e" x="55.615234"/>
      <use xlink:href="#ArialMT-38" x="83.398438"/>
     </g>
    </g>
    <g id="line2d_33">
     <path d="M 35.221875 160.337969 
L 46.221875 160.337969 
L 57.221875 160.337969 
" style="fill: none; stroke: #bcbd22; stroke-width: 1.5; stroke-linecap: round"/>
    </g>
    <g id="text_24">
     <!-- 0.9 -->
     <g style="fill: #262626" transform="translate(66.021875 164.187969) scale(0.11 -0.11)">
      <defs>
       <path id="ArialMT-39" d="M 350 1059 
L 891 1109 
Q 959 728 1153 556 
Q 1347 384 1650 384 
Q 1909 384 2104 503 
Q 2300 622 2425 820 
Q 2550 1019 2634 1356 
Q 2719 1694 2719 2044 
Q 2719 2081 2716 2156 
Q 2547 1888 2255 1720 
Q 1963 1553 1622 1553 
Q 1053 1553 659 1965 
Q 266 2378 266 3053 
Q 266 3750 677 4175 
Q 1088 4600 1706 4600 
Q 2153 4600 2523 4359 
Q 2894 4119 3086 3673 
Q 3278 3228 3278 2384 
Q 3278 1506 3087 986 
Q 2897 466 2520 194 
Q 2144 -78 1638 -78 
Q 1100 -78 759 220 
Q 419 519 350 1059 
z
M 2653 3081 
Q 2653 3566 2395 3850 
Q 2138 4134 1775 4134 
Q 1400 4134 1122 3828 
Q 844 3522 844 3034 
Q 844 2597 1108 2323 
Q 1372 2050 1759 2050 
Q 2150 2050 2401 2323 
Q 2653 2597 2653 3081 
z
" transform="scale(0.015625)"/>
      </defs>
      <use xlink:href="#ArialMT-30"/>
      <use xlink:href="#ArialMT-2e" x="55.615234"/>
      <use xlink:href="#ArialMT-39" x="83.398438"/>
     </g>
    </g>
    <g id="line2d_34">
     <path d="M 35.221875 175.897813 
L 46.221875 175.897813 
L 57.221875 175.897813 
" style="fill: none; stroke: #17becf; stroke-width: 1.5; stroke-linecap: round"/>
    </g>
    <g id="text_25">
     <!-- 1.0 -->
     <g style="fill: #262626" transform="translate(66.021875 179.747813) scale(0.11 -0.11)">
      <use xlink:href="#ArialMT-31"/>
      <use xlink:href="#ArialMT-2e" x="55.615234"/>
      <use xlink:href="#ArialMT-30" x="83.398438"/>
     </g>
    </g>
   </g>
  </g>
 </g>
 <defs>
  <clipPath id="p14ee65dc71">
   <rect x="25.321875" y="21.935625" width="558" height="332.64"/>
  </clipPath>
 </defs>
</svg>
