<?xml version="1.0" encoding="utf-8" standalone="no"?>
<!DOCTYPE svg PUBLIC "-//W3C//DTD SVG 1.1//EN"
  "http://www.w3.org/Graphics/SVG/1.1/DTD/svg11.dtd">
<svg xmlns:xlink="http://www.w3.org/1999/xlink" width="1078.5525pt" height="790.855pt" viewBox="0 0 1078.5525 790.855" xmlns="http://www.w3.org/2000/svg" version="1.1">
 <metadata>
  <rdf:RDF xmlns:dc="http://purl.org/dc/elements/1.1/" xmlns:cc="http://creativecommons.org/ns#" xmlns:rdf="http://www.w3.org/1999/02/22-rdf-syntax-ns#">
   <cc:Work>
    <dc:type rdf:resource="http://purl.org/dc/dcmitype/StillImage"/>
    <dc:date>2023-09-15T12:01:18.796919</dc:date>
    <dc:format>image/svg+xml</dc:format>
    <dc:creator>
     <cc:Agent>
      <dc:title>Matplotlib v3.7.2, https://matplotlib.org/</dc:title>
     </cc:Agent>
    </dc:creator>
   </cc:Work>
  </rdf:RDF>
 </metadata>
 <defs>
  <style type="text/css">*{stroke-linejoin: round; stroke-linecap: butt}</style>
 </defs>
 <g id="figure_1">
  <g id="patch_1">
   <path d="M 0 790.855 
L 1078.5525 790.855 
L 1078.5525 -0 
L 0 -0 
L 0 790.855 
z
" style="fill: none"/>
  </g>
  <g id="axes_1">
   <g id="patch_2">
    <path d="M 37.1025 427.019911 
L 530.9525 427.019911 
L 530.9525 110.2725 
L 37.1025 110.2725 
L 37.1025 427.019911 
z
" style="fill: none"/>
   </g>
   <g id="PolyCollection_1"/>
   <g id="PolyCollection_2"/>
   <g id="PolyCollection_3"/>
   <g id="PolyCollection_4"/>
   <g id="matplotlib.axis_1">
    <g id="xtick_1">
     <g id="line2d_1">
      <defs>
       <path id="md282bd3d39" d="M 0 0 
L 0 3.5 
" style="stroke: #000000; stroke-width: 0.8"/>
      </defs>
      <g>
       <use xlink:href="#md282bd3d39" x="59.550227" y="427.019911" style="stroke: #000000; stroke-width: 0.8"/>
      </g>
     </g>
     <g id="text_1">
      <!-- 00:00 -->
      <g transform="translate(48.022727 440.098661) scale(0.08 -0.08)">
       <defs>
        <path id="DejaVuSans-30" d="M 2034 4250 
Q 1547 4250 1301 3770 
Q 1056 3291 1056 2328 
Q 1056 1369 1301 889 
Q 1547 409 2034 409 
Q 2525 409 2770 889 
Q 3016 1369 3016 2328 
Q 3016 3291 2770 3770 
Q 2525 4250 2034 4250 
z
M 2034 4750 
Q 2819 4750 3233 4129 
Q 3647 3509 3647 2328 
Q 3647 1150 3233 529 
Q 2819 -91 2034 -91 
Q 1250 -91 836 529 
Q 422 1150 422 2328 
Q 422 3509 836 4129 
Q 1250 4750 2034 4750 
z
" transform="scale(0.015625)"/>
        <path id="DejaVuSans-3a" d="M 750 794 
L 1409 794 
L 1409 0 
L 750 0 
L 750 794 
z
M 750 3309 
L 1409 3309 
L 1409 2516 
L 750 2516 
L 750 3309 
z
" transform="scale(0.015625)"/>
       </defs>
       <use xlink:href="#DejaVuSans-30"/>
       <use xlink:href="#DejaVuSans-30" x="63.623047"/>
       <use xlink:href="#DejaVuSans-3a" x="127.246094"/>
       <use xlink:href="#DejaVuSans-30" x="160.9375"/>
       <use xlink:href="#DejaVuSans-30" x="224.560547"/>
      </g>
     </g>
    </g>
    <g id="xtick_2">
     <g id="line2d_2">
      <g>
       <use xlink:href="#md282bd3d39" x="284.0275" y="427.019911" style="stroke: #000000; stroke-width: 0.8"/>
      </g>
     </g>
     <g id="text_2">
      <!-- 00:06 -->
      <g transform="translate(272.5 440.098661) scale(0.08 -0.08)">
       <defs>
        <path id="DejaVuSans-36" d="M 2113 2584 
Q 1688 2584 1439 2293 
Q 1191 2003 1191 1497 
Q 1191 994 1439 701 
Q 1688 409 2113 409 
Q 2538 409 2786 701 
Q 3034 994 3034 1497 
Q 3034 2003 2786 2293 
Q 2538 2584 2113 2584 
z
M 3366 4563 
L 3366 3988 
Q 3128 4100 2886 4159 
Q 2644 4219 2406 4219 
Q 1781 4219 1451 3797 
Q 1122 3375 1075 2522 
Q 1259 2794 1537 2939 
Q 1816 3084 2150 3084 
Q 2853 3084 3261 2657 
Q 3669 2231 3669 1497 
Q 3669 778 3244 343 
Q 2819 -91 2113 -91 
Q 1303 -91 875 529 
Q 447 1150 447 2328 
Q 447 3434 972 4092 
Q 1497 4750 2381 4750 
Q 2619 4750 2861 4703 
Q 3103 4656 3366 4563 
z
" transform="scale(0.015625)"/>
       </defs>
       <use xlink:href="#DejaVuSans-30"/>
       <use xlink:href="#DejaVuSans-30" x="63.623047"/>
       <use xlink:href="#DejaVuSans-3a" x="127.246094"/>
       <use xlink:href="#DejaVuSans-30" x="160.9375"/>
       <use xlink:href="#DejaVuSans-36" x="224.560547"/>
      </g>
     </g>
    </g>
    <g id="xtick_3">
     <g id="line2d_3">
      <g>
       <use xlink:href="#md282bd3d39" x="508.504773" y="427.019911" style="stroke: #000000; stroke-width: 0.8"/>
      </g>
     </g>
     <g id="text_3">
      <!-- 00:12 -->
      <g transform="translate(496.977273 440.098661) scale(0.08 -0.08)">
       <defs>
        <path id="DejaVuSans-31" d="M 794 531 
L 1825 531 
L 1825 4091 
L 703 3866 
L 703 4441 
L 1819 4666 
L 2450 4666 
L 2450 531 
L 3481 531 
L 3481 0 
L 794 0 
L 794 531 
z
" transform="scale(0.015625)"/>
        <path id="DejaVuSans-32" d="M 1228 531 
L 3431 531 
L 3431 0 
L 469 0 
L 469 531 
Q 828 903 1448 1529 
Q 2069 2156 2228 2338 
Q 2531 2678 2651 2914 
Q 2772 3150 2772 3378 
Q 2772 3750 2511 3984 
Q 2250 4219 1831 4219 
Q 1534 4219 1204 4116 
Q 875 4013 500 3803 
L 500 4441 
Q 881 4594 1212 4672 
Q 1544 4750 1819 4750 
Q 2544 4750 2975 4387 
Q 3406 4025 3406 3419 
Q 3406 3131 3298 2873 
Q 3191 2616 2906 2266 
Q 2828 2175 2409 1742 
Q 1991 1309 1228 531 
z
" transform="scale(0.015625)"/>
       </defs>
       <use xlink:href="#DejaVuSans-30"/>
       <use xlink:href="#DejaVuSans-30" x="63.623047"/>
       <use xlink:href="#DejaVuSans-3a" x="127.246094"/>
       <use xlink:href="#DejaVuSans-31" x="160.9375"/>
       <use xlink:href="#DejaVuSans-32" x="224.560547"/>
      </g>
     </g>
    </g>
   </g>
   <g id="matplotlib.axis_2">
    <g id="ytick_1">
     <g id="line2d_4">
      <defs>
       <path id="ma442114b43" d="M 0 0 
L -3.5 0 
" style="stroke: #000000; stroke-width: 0.8"/>
      </defs>
      <g>
       <use xlink:href="#ma442114b43" x="37.1025" y="427.019911" style="stroke: #000000; stroke-width: 0.8"/>
      </g>
     </g>
     <g id="text_4">
      <!-- 35.0 -->
      <g transform="translate(12.29 430.059286) scale(0.08 -0.08)">
       <defs>
        <path id="DejaVuSans-33" d="M 2597 2516 
Q 3050 2419 3304 2112 
Q 3559 1806 3559 1356 
Q 3559 666 3084 287 
Q 2609 -91 1734 -91 
Q 1441 -91 1130 -33 
Q 819 25 488 141 
L 488 750 
Q 750 597 1062 519 
Q 1375 441 1716 441 
Q 2309 441 2620 675 
Q 2931 909 2931 1356 
Q 2931 1769 2642 2001 
Q 2353 2234 1838 2234 
L 1294 2234 
L 1294 2753 
L 1863 2753 
Q 2328 2753 2575 2939 
Q 2822 3125 2822 3475 
Q 2822 3834 2567 4026 
Q 2313 4219 1838 4219 
Q 1578 4219 1281 4162 
Q 984 4106 628 3988 
L 628 4550 
Q 988 4650 1302 4700 
Q 1616 4750 1894 4750 
Q 2613 4750 3031 4423 
Q 3450 4097 3450 3541 
Q 3450 3153 3228 2886 
Q 3006 2619 2597 2516 
z
" transform="scale(0.015625)"/>
        <path id="DejaVuSans-35" d="M 691 4666 
L 3169 4666 
L 3169 4134 
L 1269 4134 
L 1269 2991 
Q 1406 3038 1543 3061 
Q 1681 3084 1819 3084 
Q 2600 3084 3056 2656 
Q 3513 2228 3513 1497 
Q 3513 744 3044 326 
Q 2575 -91 1722 -91 
Q 1428 -91 1123 -41 
Q 819 9 494 109 
L 494 744 
Q 775 591 1075 516 
Q 1375 441 1709 441 
Q 2250 441 2565 725 
Q 2881 1009 2881 1497 
Q 2881 1984 2565 2268 
Q 2250 2553 1709 2553 
Q 1456 2553 1204 2497 
Q 953 2441 691 2322 
L 691 4666 
z
" transform="scale(0.015625)"/>
        <path id="DejaVuSans-2e" d="M 684 794 
L 1344 794 
L 1344 0 
L 684 0 
L 684 794 
z
" transform="scale(0.015625)"/>
       </defs>
       <use xlink:href="#DejaVuSans-33"/>
       <use xlink:href="#DejaVuSans-35" x="63.623047"/>
       <use xlink:href="#DejaVuSans-2e" x="127.246094"/>
       <use xlink:href="#DejaVuSans-30" x="159.033203"/>
      </g>
     </g>
    </g>
    <g id="ytick_2">
     <g id="line2d_5">
      <g>
       <use xlink:href="#ma442114b43" x="37.1025" y="350.188839" style="stroke: #000000; stroke-width: 0.8"/>
      </g>
     </g>
     <g id="text_5">
      <!-- 41.25 -->
      <g transform="translate(7.2 353.228214) scale(0.08 -0.08)">
       <defs>
        <path id="DejaVuSans-34" d="M 2419 4116 
L 825 1625 
L 2419 1625 
L 2419 4116 
z
M 2253 4666 
L 3047 4666 
L 3047 1625 
L 3713 1625 
L 3713 1100 
L 3047 1100 
L 3047 0 
L 2419 0 
L 2419 1100 
L 313 1100 
L 313 1709 
L 2253 4666 
z
" transform="scale(0.015625)"/>
       </defs>
       <use xlink:href="#DejaVuSans-34"/>
       <use xlink:href="#DejaVuSans-31" x="63.623047"/>
       <use xlink:href="#DejaVuSans-2e" x="127.246094"/>
       <use xlink:href="#DejaVuSans-32" x="159.033203"/>
       <use xlink:href="#DejaVuSans-35" x="222.65625"/>
      </g>
     </g>
    </g>
    <g id="ytick_3">
     <g id="line2d_6">
      <g>
       <use xlink:href="#ma442114b43" x="37.1025" y="273.357767" style="stroke: #000000; stroke-width: 0.8"/>
      </g>
     </g>
     <g id="text_6">
      <!-- 47.5 -->
      <g transform="translate(12.29 276.397142) scale(0.08 -0.08)">
       <defs>
        <path id="DejaVuSans-37" d="M 525 4666 
L 3525 4666 
L 3525 4397 
L 1831 0 
L 1172 0 
L 2766 4134 
L 525 4134 
L 525 4666 
z
" transform="scale(0.015625)"/>
       </defs>
       <use xlink:href="#DejaVuSans-34"/>
       <use xlink:href="#DejaVuSans-37" x="63.623047"/>
       <use xlink:href="#DejaVuSans-2e" x="127.246094"/>
       <use xlink:href="#DejaVuSans-35" x="159.033203"/>
      </g>
     </g>
    </g>
    <g id="ytick_4">
     <g id="line2d_7">
      <g>
       <use xlink:href="#ma442114b43" x="37.1025" y="196.526694" style="stroke: #000000; stroke-width: 0.8"/>
      </g>
     </g>
     <g id="text_7">
      <!-- 53.75 -->
      <g transform="translate(7.2 199.566069) scale(0.08 -0.08)">
       <use xlink:href="#DejaVuSans-35"/>
       <use xlink:href="#DejaVuSans-33" x="63.623047"/>
       <use xlink:href="#DejaVuSans-2e" x="127.246094"/>
       <use xlink:href="#DejaVuSans-37" x="159.033203"/>
       <use xlink:href="#DejaVuSans-35" x="222.65625"/>
      </g>
     </g>
    </g>
    <g id="ytick_5">
     <g id="line2d_8">
      <g>
       <use xlink:href="#ma442114b43" x="37.1025" y="119.695622" style="stroke: #000000; stroke-width: 0.8"/>
      </g>
     </g>
     <g id="text_8">
      <!-- 60.0 -->
      <g transform="translate(12.29 122.734997) scale(0.08 -0.08)">
       <use xlink:href="#DejaVuSans-36"/>
       <use xlink:href="#DejaVuSans-30" x="63.623047"/>
       <use xlink:href="#DejaVuSans-2e" x="127.246094"/>
       <use xlink:href="#DejaVuSans-30" x="159.033203"/>
      </g>
     </g>
    </g>
   </g>
   <g id="line2d_9">
    <path d="M 59.550227 184.233723 
L 63.291515 190.380208 
L 67.032803 187.306966 
L 70.774091 187.306966 
L 74.515379 187.306966 
L 78.256667 187.306966 
L 81.997955 190.380208 
L 85.739242 187.306966 
L 89.48053 184.233723 
L 93.221818 184.233723 
L 96.963106 187.306966 
L 100.704394 187.306966 
L 104.445682 193.453451 
L 108.18697 187.306966 
L 111.928258 187.306966 
L 115.669545 190.380208 
L 119.410833 184.233723 
L 123.152121 184.233723 
L 126.893409 190.380208 
L 130.634697 184.233723 
L 134.375985 184.233723 
L 138.117273 187.306966 
L 141.858561 184.233723 
L 145.599848 184.233723 
L 149.341136 187.306966 
L 153.082424 187.306966 
L 156.823712 187.306966 
L 160.565 184.233723 
L 164.306288 187.306966 
L 168.047576 187.306966 
L 171.788864 184.233723 
L 175.530152 184.233723 
L 179.271439 187.306966 
L 183.012727 184.233723 
L 186.754015 184.233723 
L 190.495303 190.380208 
L 194.236591 187.306966 
L 197.977879 187.306966 
L 201.719167 190.380208 
L 205.460455 184.233723 
L 209.201742 187.306966 
L 212.94303 187.306966 
L 216.684318 187.306966 
L 220.425606 187.306966 
L 224.166894 187.306966 
L 227.908182 187.306966 
L 231.64947 187.306966 
L 235.390758 184.233723 
L 239.132045 187.306966 
L 242.873333 187.306966 
L 246.614621 184.233723 
L 250.355909 184.233723 
L 254.097197 184.233723 
L 257.838485 187.306966 
L 261.579773 187.306966 
L 265.321061 190.380208 
L 269.062348 187.306966 
L 272.803636 184.233723 
L 276.544924 187.306966 
L 280.286212 184.233723 
L 284.0275 184.233723 
L 287.768788 190.380208 
L 291.510076 184.233723 
L 295.251364 184.233723 
L 298.992652 187.306966 
L 302.733939 187.306966 
L 306.475227 184.233723 
L 310.216515 187.306966 
L 313.957803 184.233723 
L 317.699091 187.306966 
L 321.440379 187.306966 
L 325.181667 187.306966 
L 328.922955 187.306966 
L 332.664242 187.306966 
L 336.40553 187.306966 
L 340.146818 190.380208 
L 343.888106 184.233723 
L 347.629394 184.233723 
L 351.370682 187.306966 
L 355.11197 187.306966 
L 358.853258 187.306966 
L 362.594545 190.380208 
L 366.335833 184.233723 
L 370.077121 187.306966 
L 373.818409 190.380208 
L 377.559697 184.233723 
L 381.300985 184.233723 
L 385.042273 184.233723 
L 388.783561 184.233723 
L 392.524848 184.233723 
L 396.266136 184.233723 
L 400.007424 184.233723 
L 403.748712 187.306966 
L 407.49 184.233723 
L 411.231288 187.306966 
L 414.972576 190.380208 
L 418.713864 187.306966 
L 422.455152 184.233723 
L 426.196439 190.380208 
L 429.937727 187.306966 
L 433.679015 187.306966 
L 437.420303 190.380208 
L 441.161591 184.233723 
L 444.902879 187.306966 
L 448.644167 190.380208 
L 452.385455 187.306966 
L 456.126742 190.380208 
L 459.86803 187.306966 
L 463.609318 187.306966 
L 467.350606 187.306966 
L 471.091894 187.306966 
L 474.833182 187.306966 
L 478.57447 187.306966 
L 482.315758 187.306966 
L 486.057045 187.306966 
L 489.798333 187.306966 
L 493.539621 187.306966 
L 497.280909 187.306966 
L 501.022197 190.380208 
L 504.763485 187.306966 
L 508.504773 187.306966 
" clip-path="url(#pdec67ee113)" style="fill: none; stroke: #1f77b4; stroke-width: 1.5; stroke-linecap: square"/>
   </g>
   <g id="line2d_10">
    <path d="M 59.550227 122.721502 
L 63.291515 122.721502 
L 67.032803 122.721502 
L 70.774091 122.721502 
L 74.515379 122.721502 
L 78.256667 122.721502 
L 81.997955 122.721502 
L 85.739242 122.721502 
L 89.48053 122.721502 
L 93.221818 122.721502 
L 96.963106 123.568172 
L 100.704394 123.568172 
L 104.445682 123.568172 
L 108.18697 123.568172 
L 111.928258 123.568172 
L 115.669545 123.568172 
L 119.410833 123.568172 
L 123.152121 123.568172 
L 126.893409 123.568172 
L 130.634697 123.568172 
L 134.375985 124.961439 
L 138.117273 124.961439 
L 141.858561 124.961439 
L 145.599848 124.961439 
L 149.341136 124.961439 
L 153.082424 124.961439 
L 156.823712 124.961439 
L 160.565 124.961439 
L 164.306288 124.961439 
L 168.047576 124.961439 
L 171.788864 125.401351 
L 175.530152 125.401351 
L 179.271439 125.401351 
L 183.012727 125.401351 
L 186.754015 125.401351 
L 190.495303 125.401351 
L 194.236591 125.401351 
L 197.977879 125.401351 
L 201.719167 125.401351 
L 205.460455 125.401351 
L 209.201742 126.171444 
L 212.94303 126.171444 
L 216.684318 126.171444 
L 220.425606 126.171444 
L 224.166894 126.171444 
L 227.908182 126.171444 
L 231.64947 126.171444 
L 235.390758 126.171444 
L 239.132045 126.171444 
L 242.873333 126.171444 
L 246.614621 127.479364 
L 250.355909 127.479364 
L 254.097197 127.479364 
L 257.838485 127.479364 
L 261.579773 127.479364 
L 265.321061 127.479364 
L 269.062348 127.479364 
L 272.803636 127.479364 
L 276.544924 127.479364 
L 280.286212 127.479364 
L 284.0275 128.411428 
L 287.768788 128.411428 
L 291.510076 128.411428 
L 295.251364 128.411428 
L 298.992652 128.411428 
L 302.733939 128.411428 
L 306.475227 128.411428 
L 310.216515 128.411428 
L 313.957803 128.411428 
L 317.699091 128.411428 
L 321.440379 129.300772 
L 325.181667 129.300772 
L 328.922955 129.300772 
L 332.664242 129.300772 
L 336.40553 129.300772 
L 340.146818 129.300772 
L 343.888106 129.300772 
L 347.629394 129.300772 
L 351.370682 129.300772 
L 355.11197 129.300772 
L 358.853258 130.065331 
L 362.594545 130.065331 
L 366.335833 130.065331 
L 370.077121 130.065331 
L 373.818409 130.065331 
L 377.559697 130.065331 
L 381.300985 130.065331 
L 385.042273 130.065331 
L 388.783561 130.065331 
L 392.524848 130.065331 
L 396.266136 130.260645 
L 400.007424 130.260645 
L 403.748712 130.260645 
L 407.49 130.260645 
L 411.231288 130.260645 
L 414.972576 130.260645 
L 418.713864 130.260645 
L 422.455152 130.260645 
L 426.196439 130.260645 
L 429.937727 130.260645 
L 433.679015 131.025907 
L 437.420303 131.025907 
L 441.161591 131.025907 
L 444.902879 131.025907 
L 448.644167 131.025907 
L 452.385455 131.025907 
L 456.126742 131.025907 
L 459.86803 131.025907 
L 463.609318 131.025907 
L 467.350606 131.025907 
L 471.091894 131.579397 
L 474.833182 131.579397 
L 478.57447 131.579397 
L 482.315758 131.579397 
L 486.057045 131.579397 
L 489.798333 131.579397 
L 493.539621 131.579397 
L 497.280909 131.579397 
L 501.022197 131.579397 
L 504.763485 131.579397 
L 508.504773 131.579397 
" clip-path="url(#pdec67ee113)" style="fill: none; stroke: #ff7f0e; stroke-width: 1.5; stroke-linecap: square"/>
   </g>
   <g id="line2d_11">
    <path d="M 59.550227 371.701539 
L 63.291515 371.701539 
L 67.032803 371.701539 
L 70.774091 371.701539 
L 74.515379 371.701539 
L 78.256667 368.628296 
L 81.997955 371.701539 
L 85.739242 368.628296 
L 89.48053 371.701539 
L 93.221818 371.701539 
L 96.963106 371.701539 
L 100.704394 371.701539 
L 104.445682 371.701539 
L 108.18697 368.628296 
L 111.928258 371.701539 
L 115.669545 371.701539 
L 119.410833 371.701539 
L 123.152121 371.701539 
L 126.893409 371.701539 
L 130.634697 371.701539 
L 134.375985 371.701539 
L 138.117273 368.628296 
L 141.858561 368.628296 
L 145.599848 371.701539 
L 149.341136 368.628296 
L 153.082424 371.701539 
L 156.823712 368.628296 
L 160.565 368.628296 
L 164.306288 368.628296 
L 168.047576 368.628296 
L 171.788864 371.701539 
L 175.530152 368.628296 
L 179.271439 368.628296 
L 183.012727 371.701539 
L 186.754015 368.628296 
L 190.495303 368.628296 
L 194.236591 371.701539 
L 197.977879 368.628296 
L 201.719167 368.628296 
L 205.460455 368.628296 
L 209.201742 368.628296 
L 212.94303 368.628296 
L 216.684318 368.628296 
L 220.425606 368.628296 
L 224.166894 371.701539 
L 227.908182 368.628296 
L 231.64947 371.701539 
L 235.390758 371.701539 
L 239.132045 368.628296 
L 242.873333 368.628296 
L 246.614621 368.628296 
L 250.355909 368.628296 
L 254.097197 368.628296 
L 257.838485 368.628296 
L 261.579773 371.701539 
L 265.321061 368.628296 
L 269.062348 368.628296 
L 272.803636 368.628296 
L 276.544924 368.628296 
L 280.286212 368.628296 
L 284.0275 368.628296 
L 287.768788 368.628296 
L 291.510076 368.628296 
L 295.251364 368.628296 
L 298.992652 368.628296 
L 302.733939 368.628296 
L 306.475227 368.628296 
L 310.216515 368.628296 
L 313.957803 368.628296 
L 317.699091 365.555053 
L 321.440379 368.628296 
L 325.181667 368.628296 
L 328.922955 365.555053 
L 332.664242 368.628296 
L 336.40553 365.555053 
L 340.146818 365.555053 
L 343.888106 368.628296 
L 347.629394 365.555053 
L 351.370682 368.628296 
L 355.11197 368.628296 
L 358.853258 365.555053 
L 362.594545 365.555053 
L 366.335833 368.628296 
L 370.077121 365.555053 
L 373.818409 365.555053 
L 377.559697 365.555053 
L 381.300985 368.628296 
L 385.042273 368.628296 
L 388.783561 365.555053 
L 392.524848 368.628296 
L 396.266136 368.628296 
L 400.007424 365.555053 
L 403.748712 365.555053 
L 407.49 365.555053 
L 411.231288 365.555053 
L 414.972576 365.555053 
L 418.713864 365.555053 
L 422.455152 368.628296 
L 426.196439 365.555053 
L 429.937727 365.555053 
L 433.679015 365.555053 
L 437.420303 365.555053 
L 441.161591 365.555053 
L 444.902879 365.555053 
L 448.644167 365.555053 
L 452.385455 365.555053 
L 456.126742 365.555053 
L 459.86803 365.555053 
L 463.609318 365.555053 
L 467.350606 362.48181 
L 471.091894 365.555053 
L 474.833182 365.555053 
L 478.57447 365.555053 
L 482.315758 365.555053 
L 486.057045 365.555053 
L 489.798333 365.555053 
L 493.539621 365.555053 
L 497.280909 365.555053 
L 501.022197 365.555053 
L 504.763485 365.555053 
L 508.504773 362.48181 
" clip-path="url(#pdec67ee113)" style="fill: none; stroke: #2ca02c; stroke-width: 1.5; stroke-linecap: square"/>
   </g>
   <g id="line2d_12">
    <path d="M 59.550227 156.574537 
L 63.291515 156.574537 
L 67.032803 156.574537 
L 70.774091 159.647779 
L 74.515379 159.647779 
L 78.256667 159.647779 
L 81.997955 159.647779 
L 85.739242 162.721022 
L 89.48053 159.647779 
L 93.221818 159.647779 
L 96.963106 159.647779 
L 100.704394 162.721022 
L 104.445682 162.721022 
L 108.18697 162.721022 
L 111.928258 162.721022 
L 115.669545 162.721022 
L 119.410833 162.721022 
L 123.152121 162.721022 
L 126.893409 162.721022 
L 130.634697 162.721022 
L 134.375985 165.794265 
L 138.117273 165.794265 
L 141.858561 165.794265 
L 145.599848 165.794265 
L 149.341136 165.794265 
L 153.082424 165.794265 
L 156.823712 165.794265 
L 160.565 165.794265 
L 164.306288 168.867508 
L 168.047576 165.794265 
L 171.788864 168.867508 
L 175.530152 168.867508 
L 179.271439 168.867508 
L 183.012727 168.867508 
L 186.754015 168.867508 
L 190.495303 168.867508 
L 194.236591 168.867508 
L 197.977879 168.867508 
L 201.719167 168.867508 
L 205.460455 168.867508 
L 209.201742 171.940751 
L 212.94303 171.940751 
L 216.684318 171.940751 
L 220.425606 171.940751 
L 224.166894 168.867508 
L 227.908182 171.940751 
L 231.64947 171.940751 
L 235.390758 171.940751 
L 239.132045 171.940751 
L 242.873333 171.940751 
L 246.614621 175.013994 
L 250.355909 175.013994 
L 254.097197 175.013994 
L 257.838485 175.013994 
L 261.579773 175.013994 
L 265.321061 175.013994 
L 269.062348 175.013994 
L 272.803636 178.087237 
L 276.544924 175.013994 
L 280.286212 178.087237 
L 284.0275 175.013994 
L 287.768788 178.087237 
L 291.510076 178.087237 
L 295.251364 178.087237 
L 298.992652 178.087237 
L 302.733939 178.087237 
L 306.475227 178.087237 
L 310.216515 178.087237 
L 313.957803 178.087237 
L 317.699091 181.16048 
L 321.440379 181.16048 
L 325.181667 181.16048 
L 328.922955 181.16048 
L 332.664242 181.16048 
L 336.40553 184.233723 
L 340.146818 181.16048 
L 343.888106 184.233723 
L 347.629394 181.16048 
L 351.370682 184.233723 
L 355.11197 184.233723 
L 358.853258 184.233723 
L 362.594545 184.233723 
L 366.335833 184.233723 
L 370.077121 184.233723 
L 373.818409 187.306966 
L 377.559697 184.233723 
L 381.300985 184.233723 
L 385.042273 184.233723 
L 388.783561 187.306966 
L 392.524848 187.306966 
L 396.266136 184.233723 
L 400.007424 187.306966 
L 403.748712 187.306966 
L 407.49 187.306966 
L 411.231288 187.306966 
L 414.972576 187.306966 
L 418.713864 187.306966 
L 422.455152 187.306966 
L 426.196439 187.306966 
L 429.937727 187.306966 
L 433.679015 190.380208 
L 437.420303 190.380208 
L 441.161591 187.306966 
L 444.902879 190.380208 
L 448.644167 190.380208 
L 452.385455 190.380208 
L 456.126742 190.380208 
L 459.86803 193.453451 
L 463.609318 190.380208 
L 467.350606 190.380208 
L 471.091894 193.453451 
L 474.833182 190.380208 
L 478.57447 193.453451 
L 482.315758 193.453451 
L 486.057045 193.453451 
L 489.798333 193.453451 
L 493.539621 193.453451 
L 497.280909 193.453451 
L 501.022197 193.453451 
L 504.763485 193.453451 
L 508.504773 193.453451 
" clip-path="url(#pdec67ee113)" style="fill: none; stroke: #d62728; stroke-width: 1.5; stroke-linecap: square"/>
   </g>
   <g id="patch_3">
    <path d="M 37.1025 427.019911 
L 37.1025 110.2725 
" style="fill: none; stroke: #000000; stroke-width: 0.8; stroke-linejoin: miter; stroke-linecap: square"/>
   </g>
   <g id="patch_4">
    <path d="M 530.9525 427.019911 
L 530.9525 110.2725 
" style="fill: none; stroke: #000000; stroke-width: 0.8; stroke-linejoin: miter; stroke-linecap: square"/>
   </g>
   <g id="patch_5">
    <path d="M 37.1025 427.019911 
L 530.9525 427.019911 
" style="fill: none; stroke: #000000; stroke-width: 0.8; stroke-linejoin: miter; stroke-linecap: square"/>
   </g>
   <g id="patch_6">
    <path d="M 37.1025 110.2725 
L 530.9525 110.2725 
" style="fill: none; stroke: #000000; stroke-width: 0.8; stroke-linejoin: miter; stroke-linecap: square"/>
   </g>
  </g>
  <g id="axes_2">
   <g id="patch_7">
    <path d="M 571.7025 427.019911 
L 1065.5525 427.019911 
L 1065.5525 110.2725 
L 571.7025 110.2725 
L 571.7025 427.019911 
z
" style="fill: none"/>
   </g>
   <g id="PolyCollection_5"/>
   <g id="PolyCollection_6"/>
   <g id="PolyCollection_7"/>
   <g id="PolyCollection_8"/>
   <g id="matplotlib.axis_3">
    <g id="xtick_4">
     <g id="line2d_13">
      <g>
       <use xlink:href="#md282bd3d39" x="594.150227" y="427.019911" style="stroke: #000000; stroke-width: 0.8"/>
      </g>
     </g>
     <g id="text_9">
      <!-- 00:00 -->
      <g transform="translate(582.622727 440.098661) scale(0.08 -0.08)">
       <use xlink:href="#DejaVuSans-30"/>
       <use xlink:href="#DejaVuSans-30" x="63.623047"/>
       <use xlink:href="#DejaVuSans-3a" x="127.246094"/>
       <use xlink:href="#DejaVuSans-30" x="160.9375"/>
       <use xlink:href="#DejaVuSans-30" x="224.560547"/>
      </g>
     </g>
    </g>
    <g id="xtick_5">
     <g id="line2d_14">
      <g>
       <use xlink:href="#md282bd3d39" x="818.6275" y="427.019911" style="stroke: #000000; stroke-width: 0.8"/>
      </g>
     </g>
     <g id="text_10">
      <!-- 00:02 -->
      <g transform="translate(807.1 440.098661) scale(0.08 -0.08)">
       <use xlink:href="#DejaVuSans-30"/>
       <use xlink:href="#DejaVuSans-30" x="63.623047"/>
       <use xlink:href="#DejaVuSans-3a" x="127.246094"/>
       <use xlink:href="#DejaVuSans-30" x="160.9375"/>
       <use xlink:href="#DejaVuSans-32" x="224.560547"/>
      </g>
     </g>
    </g>
    <g id="xtick_6">
     <g id="line2d_15">
      <g>
       <use xlink:href="#md282bd3d39" x="1043.104773" y="427.019911" style="stroke: #000000; stroke-width: 0.8"/>
      </g>
     </g>
     <g id="text_11">
      <!-- 00:05 -->
      <g transform="translate(1031.577273 440.098661) scale(0.08 -0.08)">
       <use xlink:href="#DejaVuSans-30"/>
       <use xlink:href="#DejaVuSans-30" x="63.623047"/>
       <use xlink:href="#DejaVuSans-3a" x="127.246094"/>
       <use xlink:href="#DejaVuSans-30" x="160.9375"/>
       <use xlink:href="#DejaVuSans-35" x="224.560547"/>
      </g>
     </g>
    </g>
   </g>
   <g id="matplotlib.axis_4">
    <g id="ytick_6">
     <g id="line2d_16">
      <g>
       <use xlink:href="#ma442114b43" x="571.7025" y="427.019911" style="stroke: #000000; stroke-width: 0.8"/>
      </g>
     </g>
     <g id="text_12">
      <!-- 40.0 -->
      <g transform="translate(546.89 430.059286) scale(0.08 -0.08)">
       <use xlink:href="#DejaVuSans-34"/>
       <use xlink:href="#DejaVuSans-30" x="63.623047"/>
       <use xlink:href="#DejaVuSans-2e" x="127.246094"/>
       <use xlink:href="#DejaVuSans-30" x="159.033203"/>
      </g>
     </g>
    </g>
    <g id="ytick_7">
     <g id="line2d_17">
      <g>
       <use xlink:href="#ma442114b43" x="571.7025" y="347.833058" style="stroke: #000000; stroke-width: 0.8"/>
      </g>
     </g>
     <g id="text_13">
      <!-- 45.0 -->
      <g transform="translate(546.89 350.872433) scale(0.08 -0.08)">
       <use xlink:href="#DejaVuSans-34"/>
       <use xlink:href="#DejaVuSans-35" x="63.623047"/>
       <use xlink:href="#DejaVuSans-2e" x="127.246094"/>
       <use xlink:href="#DejaVuSans-30" x="159.033203"/>
      </g>
     </g>
    </g>
    <g id="ytick_8">
     <g id="line2d_18">
      <g>
       <use xlink:href="#ma442114b43" x="571.7025" y="268.646206" style="stroke: #000000; stroke-width: 0.8"/>
      </g>
     </g>
     <g id="text_14">
      <!-- 50.0 -->
      <g transform="translate(546.89 271.685581) scale(0.08 -0.08)">
       <use xlink:href="#DejaVuSans-35"/>
       <use xlink:href="#DejaVuSans-30" x="63.623047"/>
       <use xlink:href="#DejaVuSans-2e" x="127.246094"/>
       <use xlink:href="#DejaVuSans-30" x="159.033203"/>
      </g>
     </g>
    </g>
    <g id="ytick_9">
     <g id="line2d_19">
      <g>
       <use xlink:href="#ma442114b43" x="571.7025" y="189.459353" style="stroke: #000000; stroke-width: 0.8"/>
      </g>
     </g>
     <g id="text_15">
      <!-- 55.0 -->
      <g transform="translate(546.89 192.498728) scale(0.08 -0.08)">
       <use xlink:href="#DejaVuSans-35"/>
       <use xlink:href="#DejaVuSans-35" x="63.623047"/>
       <use xlink:href="#DejaVuSans-2e" x="127.246094"/>
       <use xlink:href="#DejaVuSans-30" x="159.033203"/>
      </g>
     </g>
    </g>
    <g id="ytick_10">
     <g id="line2d_20">
      <g>
       <use xlink:href="#ma442114b43" x="571.7025" y="110.2725" style="stroke: #000000; stroke-width: 0.8"/>
      </g>
     </g>
     <g id="text_16">
      <!-- 60.0 -->
      <g transform="translate(546.89 113.311875) scale(0.08 -0.08)">
       <use xlink:href="#DejaVuSans-36"/>
       <use xlink:href="#DejaVuSans-30" x="63.623047"/>
       <use xlink:href="#DejaVuSans-2e" x="127.246094"/>
       <use xlink:href="#DejaVuSans-30" x="159.033203"/>
      </g>
     </g>
    </g>
   </g>
   <g id="line2d_21">
    <path d="M 594.150227 233.012122 
L 602.313037 233.012122 
L 610.475847 233.012122 
L 618.638657 233.012122 
L 626.801467 236.971464 
L 634.964277 233.012122 
L 643.127087 233.012122 
L 651.289897 236.971464 
L 659.452707 233.012122 
L 667.615517 236.971464 
L 675.778326 236.971464 
L 683.941136 233.012122 
L 692.103946 233.012122 
L 700.266756 236.971464 
L 708.429566 233.012122 
L 716.592376 233.012122 
L 724.755186 240.930807 
L 732.917996 233.012122 
L 741.080806 233.012122 
L 749.243616 236.971464 
L 757.406426 233.012122 
L 765.569236 233.012122 
L 773.732045 236.971464 
L 781.894855 236.971464 
L 790.057665 233.012122 
L 798.220475 233.012122 
L 806.383285 233.012122 
L 814.546095 236.971464 
L 822.708905 233.012122 
L 830.871715 233.012122 
L 839.034525 236.971464 
L 847.197335 233.012122 
L 855.360145 233.012122 
L 863.522955 240.930807 
L 871.685764 233.012122 
L 879.848574 233.012122 
L 888.011384 236.971464 
L 896.174194 233.012122 
L 904.337004 233.012122 
L 912.499814 236.971464 
L 920.662624 233.012122 
L 928.825434 233.012122 
L 936.988244 236.971464 
L 945.151054 233.012122 
L 953.313864 233.012122 
L 961.476674 233.012122 
L 969.639483 233.012122 
L 977.802293 236.971464 
L 985.965103 233.012122 
L 994.127913 233.012122 
L 1002.290723 236.971464 
L 1010.453533 233.012122 
L 1018.616343 233.012122 
L 1026.779153 240.930807 
L 1034.941963 233.012122 
L 1043.104773 233.012122 
" clip-path="url(#pa08b182152)" style="fill: none; stroke: #1f77b4; stroke-width: 1.5; stroke-linecap: square"/>
   </g>
   <g id="line2d_22">
    <path d="M 594.150227 127.212621 
L 602.313037 127.212621 
L 610.475847 127.212621 
L 618.638657 127.212621 
L 626.801467 127.212621 
L 634.964277 127.212621 
L 643.127087 127.212621 
L 651.289897 127.212621 
L 659.452707 127.212621 
L 667.615517 127.212621 
L 675.778326 127.212621 
L 683.941136 127.212621 
L 692.103946 127.212621 
L 700.266756 127.212621 
L 708.429566 127.528591 
L 716.592376 127.528591 
L 724.755186 127.528591 
L 732.917996 127.528591 
L 741.080806 127.528591 
L 749.243616 127.528591 
L 757.406426 127.528591 
L 765.569236 127.528591 
L 773.732045 127.528591 
L 781.894855 127.528591 
L 790.057665 127.528591 
L 798.220475 127.528591 
L 806.383285 127.528591 
L 814.546095 127.528591 
L 822.708905 128.236531 
L 830.871715 128.236531 
L 839.034525 128.236531 
L 847.197335 128.236531 
L 855.360145 128.236531 
L 863.522955 128.236531 
L 871.685764 128.236531 
L 879.848574 128.236531 
L 888.011384 128.236531 
L 896.174194 128.236531 
L 904.337004 128.236531 
L 912.499814 128.236531 
L 920.662624 128.236531 
L 928.825434 128.236531 
L 936.988244 129.955633 
L 945.151054 129.955633 
L 953.313864 129.955633 
L 961.476674 129.955633 
L 969.639483 129.955633 
L 977.802293 129.955633 
L 985.965103 129.955633 
L 994.127913 129.955633 
L 1002.290723 129.955633 
L 1010.453533 129.955633 
L 1018.616343 129.955633 
L 1026.779153 129.955633 
L 1034.941963 129.955633 
L 1043.104773 129.955633 
" clip-path="url(#pa08b182152)" style="fill: none; stroke: #ff7f0e; stroke-width: 1.5; stroke-linecap: square"/>
   </g>
   <g id="line2d_23">
    <path d="M 594.150227 367.629772 
L 602.313037 367.629772 
L 610.475847 367.629772 
L 618.638657 367.629772 
L 626.801467 367.629772 
L 634.964277 367.629772 
L 643.127087 363.670429 
L 651.289897 367.629772 
L 659.452707 367.629772 
L 667.615517 367.629772 
L 675.778326 367.629772 
L 683.941136 363.670429 
L 692.103946 367.629772 
L 700.266756 367.629772 
L 708.429566 363.670429 
L 716.592376 367.629772 
L 724.755186 363.670429 
L 732.917996 367.629772 
L 741.080806 367.629772 
L 749.243616 367.629772 
L 757.406426 363.670429 
L 765.569236 367.629772 
L 773.732045 367.629772 
L 781.894855 367.629772 
L 790.057665 367.629772 
L 798.220475 367.629772 
L 806.383285 367.629772 
L 814.546095 367.629772 
L 822.708905 367.629772 
L 830.871715 367.629772 
L 839.034525 367.629772 
L 847.197335 363.670429 
L 855.360145 367.629772 
L 863.522955 363.670429 
L 871.685764 367.629772 
L 879.848574 363.670429 
L 888.011384 367.629772 
L 896.174194 367.629772 
L 904.337004 367.629772 
L 912.499814 363.670429 
L 920.662624 367.629772 
L 928.825434 363.670429 
L 936.988244 363.670429 
L 945.151054 363.670429 
L 953.313864 363.670429 
L 961.476674 367.629772 
L 969.639483 367.629772 
L 977.802293 363.670429 
L 985.965103 367.629772 
L 994.127913 367.629772 
L 1002.290723 363.670429 
L 1010.453533 367.629772 
L 1018.616343 363.670429 
L 1026.779153 363.670429 
L 1034.941963 367.629772 
L 1043.104773 367.629772 
" clip-path="url(#pa08b182152)" style="fill: none; stroke: #2ca02c; stroke-width: 1.5; stroke-linecap: square"/>
   </g>
   <g id="line2d_24">
    <path d="M 594.150227 197.378038 
L 602.313037 197.378038 
L 610.475847 201.337381 
L 618.638657 197.378038 
L 626.801467 197.378038 
L 634.964277 201.337381 
L 643.127087 201.337381 
L 651.289897 201.337381 
L 659.452707 201.337381 
L 667.615517 205.296723 
L 675.778326 201.337381 
L 683.941136 201.337381 
L 692.103946 201.337381 
L 700.266756 205.296723 
L 708.429566 205.296723 
L 716.592376 205.296723 
L 724.755186 205.296723 
L 732.917996 205.296723 
L 741.080806 205.296723 
L 749.243616 205.296723 
L 757.406426 209.256066 
L 765.569236 209.256066 
L 773.732045 209.256066 
L 781.894855 209.256066 
L 790.057665 209.256066 
L 798.220475 209.256066 
L 806.383285 209.256066 
L 814.546095 209.256066 
L 822.708905 209.256066 
L 830.871715 209.256066 
L 839.034525 209.256066 
L 847.197335 213.215409 
L 855.360145 213.215409 
L 863.522955 213.215409 
L 871.685764 213.215409 
L 879.848574 213.215409 
L 888.011384 213.215409 
L 896.174194 213.215409 
L 904.337004 217.174751 
L 912.499814 213.215409 
L 920.662624 213.215409 
L 928.825434 213.215409 
L 936.988244 217.174751 
L 945.151054 217.174751 
L 953.313864 217.174751 
L 961.476674 217.174751 
L 969.639483 217.174751 
L 977.802293 221.134094 
L 985.965103 217.174751 
L 994.127913 217.174751 
L 1002.290723 221.134094 
L 1010.453533 221.134094 
L 1018.616343 221.134094 
L 1026.779153 221.134094 
L 1034.941963 221.134094 
L 1043.104773 221.134094 
" clip-path="url(#pa08b182152)" style="fill: none; stroke: #d62728; stroke-width: 1.5; stroke-linecap: square"/>
   </g>
   <g id="patch_8">
    <path d="M 571.7025 427.019911 
L 571.7025 110.2725 
" style="fill: none; stroke: #000000; stroke-width: 0.8; stroke-linejoin: miter; stroke-linecap: square"/>
   </g>
   <g id="patch_9">
    <path d="M 1065.5525 427.019911 
L 1065.5525 110.2725 
" style="fill: none; stroke: #000000; stroke-width: 0.8; stroke-linejoin: miter; stroke-linecap: square"/>
   </g>
   <g id="patch_10">
    <path d="M 571.7025 427.019911 
L 1065.5525 427.019911 
" style="fill: none; stroke: #000000; stroke-width: 0.8; stroke-linejoin: miter; stroke-linecap: square"/>
   </g>
   <g id="patch_11">
    <path d="M 571.7025 110.2725 
L 1065.5525 110.2725 
" style="fill: none; stroke: #000000; stroke-width: 0.8; stroke-linejoin: miter; stroke-linecap: square"/>
   </g>
  </g>
  <g id="axes_3">
   <g id="patch_12">
    <path d="M 37.1025 768.9125 
L 530.9525 768.9125 
L 530.9525 452.165089 
L 37.1025 452.165089 
L 37.1025 768.9125 
z
" style="fill: none"/>
   </g>
   <g id="PolyCollection_9"/>
   <g id="PolyCollection_10"/>
   <g id="PolyCollection_11"/>
   <g id="PolyCollection_12"/>
   <g id="matplotlib.axis_5">
    <g id="xtick_7">
     <g id="line2d_25">
      <g>
       <use xlink:href="#md282bd3d39" x="59.550227" y="768.9125" style="stroke: #000000; stroke-width: 0.8"/>
      </g>
     </g>
     <g id="text_17">
      <!-- 00:00 -->
      <g transform="translate(48.022727 781.99125) scale(0.08 -0.08)">
       <use xlink:href="#DejaVuSans-30"/>
       <use xlink:href="#DejaVuSans-30" x="63.623047"/>
       <use xlink:href="#DejaVuSans-3a" x="127.246094"/>
       <use xlink:href="#DejaVuSans-30" x="160.9375"/>
       <use xlink:href="#DejaVuSans-30" x="224.560547"/>
      </g>
     </g>
    </g>
    <g id="xtick_8">
     <g id="line2d_26">
      <g>
       <use xlink:href="#md282bd3d39" x="284.0275" y="768.9125" style="stroke: #000000; stroke-width: 0.8"/>
      </g>
     </g>
     <g id="text_18">
      <!-- 00:04 -->
      <g transform="translate(272.5 781.99125) scale(0.08 -0.08)">
       <use xlink:href="#DejaVuSans-30"/>
       <use xlink:href="#DejaVuSans-30" x="63.623047"/>
       <use xlink:href="#DejaVuSans-3a" x="127.246094"/>
       <use xlink:href="#DejaVuSans-30" x="160.9375"/>
       <use xlink:href="#DejaVuSans-34" x="224.560547"/>
      </g>
     </g>
    </g>
    <g id="xtick_9">
     <g id="line2d_27">
      <g>
       <use xlink:href="#md282bd3d39" x="508.504773" y="768.9125" style="stroke: #000000; stroke-width: 0.8"/>
      </g>
     </g>
     <g id="text_19">
      <!-- 00:09 -->
      <g transform="translate(496.977273 781.99125) scale(0.08 -0.08)">
       <defs>
        <path id="DejaVuSans-39" d="M 703 97 
L 703 672 
Q 941 559 1184 500 
Q 1428 441 1663 441 
Q 2288 441 2617 861 
Q 2947 1281 2994 2138 
Q 2813 1869 2534 1725 
Q 2256 1581 1919 1581 
Q 1219 1581 811 2004 
Q 403 2428 403 3163 
Q 403 3881 828 4315 
Q 1253 4750 1959 4750 
Q 2769 4750 3195 4129 
Q 3622 3509 3622 2328 
Q 3622 1225 3098 567 
Q 2575 -91 1691 -91 
Q 1453 -91 1209 -44 
Q 966 3 703 97 
z
M 1959 2075 
Q 2384 2075 2632 2365 
Q 2881 2656 2881 3163 
Q 2881 3666 2632 3958 
Q 2384 4250 1959 4250 
Q 1534 4250 1286 3958 
Q 1038 3666 1038 3163 
Q 1038 2656 1286 2365 
Q 1534 2075 1959 2075 
z
" transform="scale(0.015625)"/>
       </defs>
       <use xlink:href="#DejaVuSans-30"/>
       <use xlink:href="#DejaVuSans-30" x="63.623047"/>
       <use xlink:href="#DejaVuSans-3a" x="127.246094"/>
       <use xlink:href="#DejaVuSans-30" x="160.9375"/>
       <use xlink:href="#DejaVuSans-39" x="224.560547"/>
      </g>
     </g>
    </g>
   </g>
   <g id="matplotlib.axis_6">
    <g id="ytick_11">
     <g id="line2d_28">
      <g>
       <use xlink:href="#ma442114b43" x="37.1025" y="768.9125" style="stroke: #000000; stroke-width: 0.8"/>
      </g>
     </g>
     <g id="text_20">
      <!-- 45.0 -->
      <g transform="translate(12.29 771.951875) scale(0.08 -0.08)">
       <use xlink:href="#DejaVuSans-34"/>
       <use xlink:href="#DejaVuSans-35" x="63.623047"/>
       <use xlink:href="#DejaVuSans-2e" x="127.246094"/>
       <use xlink:href="#DejaVuSans-30" x="159.033203"/>
      </g>
     </g>
    </g>
    <g id="ytick_12">
     <g id="line2d_29">
      <g>
       <use xlink:href="#ma442114b43" x="37.1025" y="691.278331" style="stroke: #000000; stroke-width: 0.8"/>
      </g>
     </g>
     <g id="text_21">
      <!-- 50.0 -->
      <g transform="translate(12.29 694.317706) scale(0.08 -0.08)">
       <use xlink:href="#DejaVuSans-35"/>
       <use xlink:href="#DejaVuSans-30" x="63.623047"/>
       <use xlink:href="#DejaVuSans-2e" x="127.246094"/>
       <use xlink:href="#DejaVuSans-30" x="159.033203"/>
      </g>
     </g>
    </g>
    <g id="ytick_13">
     <g id="line2d_30">
      <g>
       <use xlink:href="#ma442114b43" x="37.1025" y="613.644161" style="stroke: #000000; stroke-width: 0.8"/>
      </g>
     </g>
     <g id="text_22">
      <!-- 55.0 -->
      <g transform="translate(12.29 616.683536) scale(0.08 -0.08)">
       <use xlink:href="#DejaVuSans-35"/>
       <use xlink:href="#DejaVuSans-35" x="63.623047"/>
       <use xlink:href="#DejaVuSans-2e" x="127.246094"/>
       <use xlink:href="#DejaVuSans-30" x="159.033203"/>
      </g>
     </g>
    </g>
    <g id="ytick_14">
     <g id="line2d_31">
      <g>
       <use xlink:href="#ma442114b43" x="37.1025" y="536.009992" style="stroke: #000000; stroke-width: 0.8"/>
      </g>
     </g>
     <g id="text_23">
      <!-- 60.0 -->
      <g transform="translate(12.29 539.049367) scale(0.08 -0.08)">
       <use xlink:href="#DejaVuSans-36"/>
       <use xlink:href="#DejaVuSans-30" x="63.623047"/>
       <use xlink:href="#DejaVuSans-2e" x="127.246094"/>
       <use xlink:href="#DejaVuSans-30" x="159.033203"/>
      </g>
     </g>
    </g>
    <g id="ytick_15">
     <g id="line2d_32">
      <g>
       <use xlink:href="#ma442114b43" x="37.1025" y="458.375822" style="stroke: #000000; stroke-width: 0.8"/>
      </g>
     </g>
     <g id="text_24">
      <!-- 65.0 -->
      <g transform="translate(12.29 461.415197) scale(0.08 -0.08)">
       <use xlink:href="#DejaVuSans-36"/>
       <use xlink:href="#DejaVuSans-35" x="63.623047"/>
       <use xlink:href="#DejaVuSans-2e" x="127.246094"/>
       <use xlink:href="#DejaVuSans-30" x="159.033203"/>
      </g>
     </g>
    </g>
   </g>
   <g id="line2d_33">
    <path d="M 59.550227 504.956324 
L 64.326339 504.956324 
L 69.102452 508.838033 
L 73.878564 504.956324 
L 78.654676 508.838033 
L 83.430788 512.719741 
L 88.2069 508.838033 
L 92.983013 508.838033 
L 97.759125 512.719741 
L 102.535237 508.838033 
L 107.311349 508.838033 
L 112.087461 508.838033 
L 116.863574 508.838033 
L 121.639686 512.719741 
L 126.415798 508.838033 
L 131.19191 508.838033 
L 135.968022 508.838033 
L 140.744134 508.838033 
L 145.520247 508.838033 
L 150.296359 508.838033 
L 155.072471 508.838033 
L 159.848583 508.838033 
L 164.624695 508.838033 
L 169.400808 508.838033 
L 174.17692 508.838033 
L 178.953032 508.838033 
L 183.729144 508.838033 
L 188.505256 508.838033 
L 193.281368 512.719741 
L 198.057481 508.838033 
L 202.833593 508.838033 
L 207.609705 512.719741 
L 212.385817 508.838033 
L 217.161929 508.838033 
L 221.938042 512.719741 
L 226.714154 508.838033 
L 231.490266 508.838033 
L 236.266378 512.719741 
L 241.04249 508.838033 
L 245.818603 508.838033 
L 250.594715 508.838033 
L 255.370827 508.838033 
L 260.146939 508.838033 
L 264.923051 508.838033 
L 269.699163 508.838033 
L 274.475276 508.838033 
L 279.251388 508.838033 
L 284.0275 504.956324 
L 288.803612 516.601449 
L 293.579724 508.838033 
L 298.355837 508.838033 
L 303.131949 508.838033 
L 307.908061 508.838033 
L 312.684173 508.838033 
L 317.460285 512.719741 
L 322.236397 504.956324 
L 327.01251 508.838033 
L 331.788622 512.719741 
L 336.564734 508.838033 
L 341.340846 508.838033 
L 346.116958 508.838033 
L 350.893071 508.838033 
L 355.669183 508.838033 
L 360.445295 508.838033 
L 365.221407 508.838033 
L 369.997519 508.838033 
L 374.773632 508.838033 
L 379.549744 508.838033 
L 384.325856 512.719741 
L 389.101968 508.838033 
L 393.87808 508.838033 
L 398.654192 512.719741 
L 403.430305 508.838033 
L 408.206417 508.838033 
L 412.982529 512.719741 
L 417.758641 508.838033 
L 422.534753 508.838033 
L 427.310866 512.719741 
L 432.086978 508.838033 
L 436.86309 508.838033 
L 441.639202 508.838033 
L 446.415314 508.838033 
L 451.191426 508.838033 
L 455.967539 508.838033 
L 460.743651 508.838033 
L 465.519763 508.838033 
L 470.295875 508.838033 
L 475.071987 508.838033 
L 479.8481 512.719741 
L 484.624212 508.838033 
L 489.400324 508.838033 
L 494.176436 512.719741 
L 498.952548 508.838033 
L 503.728661 508.838033 
L 508.504773 512.719741 
" clip-path="url(#pcb08af353a)" style="fill: none; stroke: #1f77b4; stroke-width: 1.5; stroke-linecap: square"/>
   </g>
   <g id="line2d_34">
    <path d="M 59.550227 481.046644 
L 64.326339 481.046644 
L 69.102452 481.046644 
L 73.878564 481.046644 
L 78.654676 481.046644 
L 83.430788 481.046644 
L 88.2069 481.046644 
L 92.983013 481.046644 
L 97.759125 481.046644 
L 102.535237 481.046644 
L 107.311349 481.046644 
L 112.087461 486.824903 
L 116.863574 486.824903 
L 121.639686 486.824903 
L 126.415798 486.824903 
L 131.19191 486.824903 
L 135.968022 486.824903 
L 140.744134 486.824903 
L 145.520247 486.824903 
L 150.296359 486.824903 
L 155.072471 486.824903 
L 159.848583 486.824903 
L 164.624695 490.280687 
L 169.400808 490.280687 
L 174.17692 490.280687 
L 178.953032 490.280687 
L 183.729144 490.280687 
L 188.505256 490.280687 
L 193.281368 490.280687 
L 198.057481 490.280687 
L 202.833593 490.280687 
L 207.609705 490.280687 
L 212.385817 490.280687 
L 217.161929 493.890884 
L 221.938042 493.890884 
L 226.714154 493.890884 
L 231.490266 493.890884 
L 236.266378 493.890884 
L 241.04249 493.890884 
L 245.818603 493.890884 
L 250.594715 493.890884 
L 255.370827 493.890884 
L 260.146939 493.890884 
L 264.923051 493.890884 
L 269.699163 499.626793 
L 274.475276 499.626793 
L 279.251388 499.626793 
L 284.0275 499.626793 
L 288.803612 499.626793 
L 293.579724 499.626793 
L 298.355837 499.626793 
L 303.131949 499.626793 
L 307.908061 499.626793 
L 312.684173 499.626793 
L 317.460285 499.626793 
L 322.236397 502.497739 
L 327.01251 502.497739 
L 331.788622 502.497739 
L 336.564734 502.497739 
L 341.340846 502.497739 
L 346.116958 502.497739 
L 350.893071 502.497739 
L 355.669183 502.497739 
L 360.445295 502.497739 
L 365.221407 502.497739 
L 369.997519 502.497739 
L 374.773632 505.187144 
L 379.549744 505.187144 
L 384.325856 505.187144 
L 389.101968 505.187144 
L 393.87808 505.187144 
L 398.654192 505.187144 
L 403.430305 505.187144 
L 408.206417 505.187144 
L 412.982529 505.187144 
L 417.758641 505.187144 
L 422.534753 505.187144 
L 427.310866 508.940145 
L 432.086978 508.940145 
L 436.86309 508.940145 
L 441.639202 508.940145 
L 446.415314 508.940145 
L 451.191426 508.940145 
L 455.967539 508.940145 
L 460.743651 508.940145 
L 465.519763 508.940145 
L 470.295875 508.940145 
L 475.071987 508.940145 
L 479.8481 508.940145 
L 484.624212 508.940145 
L 489.400324 508.940145 
L 494.176436 508.940145 
L 498.952548 508.940145 
L 503.728661 508.940145 
L 508.504773 508.940145 
" clip-path="url(#pcb08af353a)" style="fill: none; stroke: #ff7f0e; stroke-width: 1.5; stroke-linecap: square"/>
   </g>
   <g id="line2d_35">
    <path d="M 59.550227 745.622249 
L 64.326339 745.622249 
L 69.102452 745.622249 
L 73.878564 745.622249 
L 78.654676 745.622249 
L 83.430788 745.622249 
L 88.2069 745.622249 
L 92.983013 745.622249 
L 97.759125 745.622249 
L 102.535237 745.622249 
L 107.311349 745.622249 
L 112.087461 745.622249 
L 116.863574 745.622249 
L 121.639686 745.622249 
L 126.415798 745.622249 
L 131.19191 745.622249 
L 135.968022 741.740541 
L 140.744134 745.622249 
L 145.520247 745.622249 
L 150.296359 741.740541 
L 155.072471 745.622249 
L 159.848583 741.740541 
L 164.624695 745.622249 
L 169.400808 745.622249 
L 174.17692 741.740541 
L 178.953032 745.622249 
L 183.729144 745.622249 
L 188.505256 741.740541 
L 193.281368 745.622249 
L 198.057481 745.622249 
L 202.833593 741.740541 
L 207.609705 741.740541 
L 212.385817 745.622249 
L 217.161929 741.740541 
L 221.938042 741.740541 
L 226.714154 741.740541 
L 231.490266 741.740541 
L 236.266378 741.740541 
L 241.04249 741.740541 
L 245.818603 741.740541 
L 250.594715 741.740541 
L 255.370827 741.740541 
L 260.146939 741.740541 
L 264.923051 745.622249 
L 269.699163 741.740541 
L 274.475276 741.740541 
L 279.251388 741.740541 
L 284.0275 741.740541 
L 288.803612 741.740541 
L 293.579724 741.740541 
L 298.355837 741.740541 
L 303.131949 741.740541 
L 307.908061 741.740541 
L 312.684173 741.740541 
L 317.460285 741.740541 
L 322.236397 741.740541 
L 327.01251 741.740541 
L 331.788622 741.740541 
L 336.564734 741.740541 
L 341.340846 741.740541 
L 346.116958 737.858832 
L 350.893071 741.740541 
L 355.669183 741.740541 
L 360.445295 737.858832 
L 365.221407 741.740541 
L 369.997519 737.858832 
L 374.773632 737.858832 
L 379.549744 741.740541 
L 384.325856 737.858832 
L 389.101968 741.740541 
L 393.87808 741.740541 
L 398.654192 737.858832 
L 403.430305 737.858832 
L 408.206417 737.858832 
L 412.982529 737.858832 
L 417.758641 737.858832 
L 422.534753 741.740541 
L 427.310866 737.858832 
L 432.086978 737.858832 
L 436.86309 737.858832 
L 441.639202 737.858832 
L 446.415314 737.858832 
L 451.191426 737.858832 
L 455.967539 737.858832 
L 460.743651 737.858832 
L 465.519763 737.858832 
L 470.295875 737.858832 
L 475.071987 737.858832 
L 479.8481 737.858832 
L 484.624212 737.858832 
L 489.400324 733.977124 
L 494.176436 737.858832 
L 498.952548 737.858832 
L 503.728661 737.858832 
L 508.504773 737.858832 
" clip-path="url(#pcb08af353a)" style="fill: none; stroke: #2ca02c; stroke-width: 1.5; stroke-linecap: square"/>
   </g>
   <g id="line2d_36">
    <path d="M 59.550227 466.139239 
L 64.326339 470.020948 
L 69.102452 470.020948 
L 73.878564 470.020948 
L 78.654676 470.020948 
L 83.430788 470.020948 
L 88.2069 470.020948 
L 92.983013 470.020948 
L 97.759125 470.020948 
L 102.535237 473.902656 
L 107.311349 473.902656 
L 112.087461 473.902656 
L 116.863574 473.902656 
L 121.639686 473.902656 
L 126.415798 473.902656 
L 131.19191 477.784365 
L 135.968022 473.902656 
L 140.744134 477.784365 
L 145.520247 477.784365 
L 150.296359 477.784365 
L 155.072471 477.784365 
L 159.848583 477.784365 
L 164.624695 477.784365 
L 169.400808 481.666073 
L 174.17692 481.666073 
L 178.953032 481.666073 
L 183.729144 481.666073 
L 188.505256 481.666073 
L 193.281368 481.666073 
L 198.057481 481.666073 
L 202.833593 481.666073 
L 207.609705 485.547782 
L 212.385817 485.547782 
L 217.161929 485.547782 
L 221.938042 485.547782 
L 226.714154 485.547782 
L 231.490266 485.547782 
L 236.266378 485.547782 
L 241.04249 485.547782 
L 245.818603 485.547782 
L 250.594715 489.42949 
L 255.370827 489.42949 
L 260.146939 489.42949 
L 264.923051 489.42949 
L 269.699163 489.42949 
L 274.475276 489.42949 
L 279.251388 493.311199 
L 284.0275 493.311199 
L 288.803612 493.311199 
L 293.579724 493.311199 
L 298.355837 493.311199 
L 303.131949 493.311199 
L 307.908061 493.311199 
L 312.684173 493.311199 
L 317.460285 497.192907 
L 322.236397 493.311199 
L 327.01251 497.192907 
L 331.788622 497.192907 
L 336.564734 497.192907 
L 341.340846 497.192907 
L 346.116958 497.192907 
L 350.893071 497.192907 
L 355.669183 497.192907 
L 360.445295 501.074616 
L 365.221407 501.074616 
L 369.997519 501.074616 
L 374.773632 501.074616 
L 379.549744 501.074616 
L 384.325856 501.074616 
L 389.101968 501.074616 
L 393.87808 501.074616 
L 398.654192 504.956324 
L 403.430305 504.956324 
L 408.206417 504.956324 
L 412.982529 504.956324 
L 417.758641 504.956324 
L 422.534753 504.956324 
L 427.310866 504.956324 
L 432.086978 504.956324 
L 436.86309 508.838033 
L 441.639202 508.838033 
L 446.415314 508.838033 
L 451.191426 508.838033 
L 455.967539 508.838033 
L 460.743651 508.838033 
L 465.519763 512.719741 
L 470.295875 512.719741 
L 475.071987 512.719741 
L 479.8481 512.719741 
L 484.624212 512.719741 
L 489.400324 512.719741 
L 494.176436 512.719741 
L 498.952548 512.719741 
L 503.728661 512.719741 
L 508.504773 512.719741 
" clip-path="url(#pcb08af353a)" style="fill: none; stroke: #d62728; stroke-width: 1.5; stroke-linecap: square"/>
   </g>
   <g id="patch_13">
    <path d="M 37.1025 768.9125 
L 37.1025 452.165089 
" style="fill: none; stroke: #000000; stroke-width: 0.8; stroke-linejoin: miter; stroke-linecap: square"/>
   </g>
   <g id="patch_14">
    <path d="M 530.9525 768.9125 
L 530.9525 452.165089 
" style="fill: none; stroke: #000000; stroke-width: 0.8; stroke-linejoin: miter; stroke-linecap: square"/>
   </g>
   <g id="patch_15">
    <path d="M 37.1025 768.9125 
L 530.9525 768.9125 
" style="fill: none; stroke: #000000; stroke-width: 0.8; stroke-linejoin: miter; stroke-linecap: square"/>
   </g>
   <g id="patch_16">
    <path d="M 37.1025 452.165089 
L 530.9525 452.165089 
" style="fill: none; stroke: #000000; stroke-width: 0.8; stroke-linejoin: miter; stroke-linecap: square"/>
   </g>
  </g>
  <g id="axes_4">
   <g id="patch_17">
    <path d="M 571.7025 768.9125 
L 1065.5525 768.9125 
L 1065.5525 452.165089 
L 571.7025 452.165089 
L 571.7025 768.9125 
z
" style="fill: none"/>
   </g>
   <g id="PolyCollection_13"/>
   <g id="PolyCollection_14"/>
   <g id="PolyCollection_15"/>
   <g id="PolyCollection_16"/>
   <g id="matplotlib.axis_7">
    <g id="xtick_10">
     <g id="line2d_37">
      <g>
       <use xlink:href="#md282bd3d39" x="594.150227" y="768.9125" style="stroke: #000000; stroke-width: 0.8"/>
      </g>
     </g>
     <g id="text_25">
      <!-- 00:00 -->
      <g transform="translate(582.622727 781.99125) scale(0.08 -0.08)">
       <use xlink:href="#DejaVuSans-30"/>
       <use xlink:href="#DejaVuSans-30" x="63.623047"/>
       <use xlink:href="#DejaVuSans-3a" x="127.246094"/>
       <use xlink:href="#DejaVuSans-30" x="160.9375"/>
       <use xlink:href="#DejaVuSans-30" x="224.560547"/>
      </g>
     </g>
    </g>
    <g id="xtick_11">
     <g id="line2d_38">
      <g>
       <use xlink:href="#md282bd3d39" x="818.6275" y="768.9125" style="stroke: #000000; stroke-width: 0.8"/>
      </g>
     </g>
     <g id="text_26">
      <!-- 00:04 -->
      <g transform="translate(807.1 781.99125) scale(0.08 -0.08)">
       <use xlink:href="#DejaVuSans-30"/>
       <use xlink:href="#DejaVuSans-30" x="63.623047"/>
       <use xlink:href="#DejaVuSans-3a" x="127.246094"/>
       <use xlink:href="#DejaVuSans-30" x="160.9375"/>
       <use xlink:href="#DejaVuSans-34" x="224.560547"/>
      </g>
     </g>
    </g>
    <g id="xtick_12">
     <g id="line2d_39">
      <g>
       <use xlink:href="#md282bd3d39" x="1043.104773" y="768.9125" style="stroke: #000000; stroke-width: 0.8"/>
      </g>
     </g>
     <g id="text_27">
      <!-- 00:09 -->
      <g transform="translate(1031.577273 781.99125) scale(0.08 -0.08)">
       <use xlink:href="#DejaVuSans-30"/>
       <use xlink:href="#DejaVuSans-30" x="63.623047"/>
       <use xlink:href="#DejaVuSans-3a" x="127.246094"/>
       <use xlink:href="#DejaVuSans-30" x="160.9375"/>
       <use xlink:href="#DejaVuSans-39" x="224.560547"/>
      </g>
     </g>
    </g>
   </g>
   <g id="matplotlib.axis_8">
    <g id="ytick_16">
     <g id="line2d_40">
      <g>
       <use xlink:href="#ma442114b43" x="571.7025" y="754.51489" style="stroke: #000000; stroke-width: 0.8"/>
      </g>
     </g>
     <g id="text_28">
      <!-- 0.0 -->
      <g transform="translate(551.98 757.554265) scale(0.08 -0.08)">
       <use xlink:href="#DejaVuSans-30"/>
       <use xlink:href="#DejaVuSans-2e" x="63.623047"/>
       <use xlink:href="#DejaVuSans-30" x="95.410156"/>
      </g>
     </g>
    </g>
    <g id="ytick_17">
     <g id="line2d_41">
      <g>
       <use xlink:href="#ma442114b43" x="571.7025" y="679.786813" style="stroke: #000000; stroke-width: 0.8"/>
      </g>
     </g>
     <g id="text_29">
      <!-- 18.75 -->
      <g transform="translate(541.8 682.826188) scale(0.08 -0.08)">
       <defs>
        <path id="DejaVuSans-38" d="M 2034 2216 
Q 1584 2216 1326 1975 
Q 1069 1734 1069 1313 
Q 1069 891 1326 650 
Q 1584 409 2034 409 
Q 2484 409 2743 651 
Q 3003 894 3003 1313 
Q 3003 1734 2745 1975 
Q 2488 2216 2034 2216 
z
M 1403 2484 
Q 997 2584 770 2862 
Q 544 3141 544 3541 
Q 544 4100 942 4425 
Q 1341 4750 2034 4750 
Q 2731 4750 3128 4425 
Q 3525 4100 3525 3541 
Q 3525 3141 3298 2862 
Q 3072 2584 2669 2484 
Q 3125 2378 3379 2068 
Q 3634 1759 3634 1313 
Q 3634 634 3220 271 
Q 2806 -91 2034 -91 
Q 1263 -91 848 271 
Q 434 634 434 1313 
Q 434 1759 690 2068 
Q 947 2378 1403 2484 
z
M 1172 3481 
Q 1172 3119 1398 2916 
Q 1625 2713 2034 2713 
Q 2441 2713 2670 2916 
Q 2900 3119 2900 3481 
Q 2900 3844 2670 4047 
Q 2441 4250 2034 4250 
Q 1625 4250 1398 4047 
Q 1172 3844 1172 3481 
z
" transform="scale(0.015625)"/>
       </defs>
       <use xlink:href="#DejaVuSans-31"/>
       <use xlink:href="#DejaVuSans-38" x="63.623047"/>
       <use xlink:href="#DejaVuSans-2e" x="127.246094"/>
       <use xlink:href="#DejaVuSans-37" x="159.033203"/>
       <use xlink:href="#DejaVuSans-35" x="222.65625"/>
      </g>
     </g>
    </g>
    <g id="ytick_18">
     <g id="line2d_42">
      <g>
       <use xlink:href="#ma442114b43" x="571.7025" y="605.058735" style="stroke: #000000; stroke-width: 0.8"/>
      </g>
     </g>
     <g id="text_30">
      <!-- 37.5 -->
      <g transform="translate(546.89 608.09811) scale(0.08 -0.08)">
       <use xlink:href="#DejaVuSans-33"/>
       <use xlink:href="#DejaVuSans-37" x="63.623047"/>
       <use xlink:href="#DejaVuSans-2e" x="127.246094"/>
       <use xlink:href="#DejaVuSans-35" x="159.033203"/>
      </g>
     </g>
    </g>
    <g id="ytick_19">
     <g id="line2d_43">
      <g>
       <use xlink:href="#ma442114b43" x="571.7025" y="530.330658" style="stroke: #000000; stroke-width: 0.8"/>
      </g>
     </g>
     <g id="text_31">
      <!-- 56.25 -->
      <g transform="translate(541.8 533.370033) scale(0.08 -0.08)">
       <use xlink:href="#DejaVuSans-35"/>
       <use xlink:href="#DejaVuSans-36" x="63.623047"/>
       <use xlink:href="#DejaVuSans-2e" x="127.246094"/>
       <use xlink:href="#DejaVuSans-32" x="159.033203"/>
       <use xlink:href="#DejaVuSans-35" x="222.65625"/>
      </g>
     </g>
    </g>
    <g id="ytick_20">
     <g id="line2d_44">
      <g>
       <use xlink:href="#ma442114b43" x="571.7025" y="455.60258" style="stroke: #000000; stroke-width: 0.8"/>
      </g>
     </g>
     <g id="text_32">
      <!-- 75.0 -->
      <g transform="translate(546.89 458.641955) scale(0.08 -0.08)">
       <use xlink:href="#DejaVuSans-37"/>
       <use xlink:href="#DejaVuSans-35" x="63.623047"/>
       <use xlink:href="#DejaVuSans-2e" x="127.246094"/>
       <use xlink:href="#DejaVuSans-30" x="159.033203"/>
      </g>
     </g>
    </g>
   </g>
   <g id="line2d_45">
    <path d="M 594.150227 473.537319 
L 598.685122 474.533693 
L 603.220016 474.533693 
L 607.75491 474.533693 
L 612.289805 474.533693 
L 616.824699 473.537319 
L 621.359594 474.533693 
L 625.894488 474.533693 
L 630.429382 474.533693 
L 634.964277 475.530068 
L 639.499171 473.537319 
L 644.034066 474.533693 
L 648.56896 475.530068 
L 653.103854 474.533693 
L 657.638749 473.537319 
L 662.173643 475.530068 
L 666.708538 473.537319 
L 671.243432 474.533693 
L 675.778326 473.537319 
L 680.313221 474.533693 
L 684.848115 473.537319 
L 689.38301 474.533693 
L 693.917904 474.533693 
L 698.452798 474.533693 
L 702.987693 474.533693 
L 707.522587 473.537319 
L 712.057482 474.533693 
L 716.592376 474.533693 
L 721.12727 473.537319 
L 725.662165 475.530068 
L 730.197059 473.537319 
L 734.731954 474.533693 
L 739.266848 475.530068 
L 743.801742 474.533693 
L 748.336637 474.533693 
L 752.871531 475.530068 
L 757.406426 474.533693 
L 761.94132 474.533693 
L 766.476214 474.533693 
L 771.011109 474.533693 
L 775.546003 474.533693 
L 780.080898 474.533693 
L 784.615792 474.533693 
L 789.150686 474.533693 
L 793.685581 474.533693 
L 798.220475 474.533693 
L 802.75537 474.533693 
L 807.290264 474.533693 
L 811.825158 474.533693 
L 816.360053 474.533693 
L 820.894947 474.533693 
L 825.429842 474.533693 
L 829.964736 475.530068 
L 834.49963 474.533693 
L 839.034525 474.533693 
L 843.569419 475.530068 
L 848.104314 474.533693 
L 852.639208 474.533693 
L 857.174102 475.530068 
L 861.708997 474.533693 
L 866.243891 474.533693 
L 870.778786 473.537319 
L 875.31368 474.533693 
L 879.848574 475.530068 
L 884.383469 473.537319 
L 888.918363 474.533693 
L 893.453258 474.533693 
L 897.988152 474.533693 
L 902.523046 474.533693 
L 907.057941 474.533693 
L 911.592835 474.533693 
L 916.12773 474.533693 
L 920.662624 476.526442 
L 925.197518 474.533693 
L 929.732413 474.533693 
L 934.267307 475.530068 
L 938.802202 474.533693 
L 943.337096 474.533693 
L 947.87199 475.530068 
L 952.406885 474.533693 
L 956.941779 474.533693 
L 961.476674 474.533693 
L 966.011568 474.533693 
L 970.546462 475.530068 
L 975.081357 474.533693 
L 979.616251 474.533693 
L 984.151146 475.530068 
L 988.68604 474.533693 
L 993.220934 474.533693 
L 997.755829 475.530068 
L 1002.290723 474.533693 
L 1006.825618 474.533693 
L 1011.360512 476.526442 
L 1015.895406 475.530068 
L 1020.430301 474.533693 
L 1024.965195 475.530068 
L 1029.50009 474.533693 
L 1034.034984 475.530068 
L 1038.569878 475.530068 
L 1043.104773 474.533693 
" clip-path="url(#pf8626dd547)" style="fill: none; stroke: #1f77b4; stroke-width: 1.5; stroke-linecap: square"/>
   </g>
   <g id="line2d_46">
    <path d="M 594.150227 754.51489 
L 598.685122 754.51489 
L 603.220016 754.51489 
L 607.75491 754.51489 
L 612.289805 754.51489 
L 616.824699 754.51489 
L 621.359594 754.51489 
L 625.894488 754.51489 
L 630.429382 754.51489 
L 634.964277 754.51489 
L 639.499171 754.51489 
L 644.034066 754.51489 
L 648.56896 754.51489 
L 653.103854 754.51489 
L 657.638749 754.51489 
L 662.173643 754.51489 
L 666.708538 754.51489 
L 671.243432 754.51489 
L 675.778326 754.51489 
L 680.313221 754.51489 
L 684.848115 754.51489 
L 689.38301 754.51489 
L 693.917904 754.51489 
L 698.452798 754.51489 
L 702.987693 754.51489 
L 707.522587 754.51489 
L 712.057482 754.51489 
L 716.592376 754.51489 
L 721.12727 754.51489 
L 725.662165 754.51489 
L 730.197059 754.51489 
L 734.731954 754.51489 
L 739.266848 754.51489 
L 743.801742 754.51489 
L 748.336637 754.51489 
L 752.871531 754.51489 
L 757.406426 754.51489 
L 761.94132 754.51489 
L 766.476214 754.51489 
L 771.011109 754.51489 
L 775.546003 754.51489 
L 780.080898 754.51489 
L 784.615792 754.51489 
L 789.150686 754.51489 
L 793.685581 754.51489 
L 798.220475 754.51489 
L 802.75537 754.51489 
L 807.290264 754.51489 
L 811.825158 754.51489 
L 816.360053 754.51489 
L 820.894947 754.51489 
L 825.429842 754.51489 
L 829.964736 754.51489 
L 834.49963 754.51489 
L 839.034525 754.51489 
L 843.569419 754.51489 
L 848.104314 754.51489 
L 852.639208 754.51489 
L 857.174102 754.51489 
L 861.708997 754.51489 
L 866.243891 754.51489 
L 870.778786 754.51489 
L 875.31368 754.51489 
L 879.848574 754.51489 
L 884.383469 754.51489 
L 888.918363 754.51489 
L 893.453258 754.51489 
L 897.988152 754.51489 
L 902.523046 754.51489 
L 907.057941 754.51489 
L 911.592835 754.51489 
L 916.12773 754.51489 
L 920.662624 754.51489 
L 925.197518 754.51489 
L 929.732413 754.51489 
L 934.267307 754.51489 
L 938.802202 754.51489 
L 943.337096 754.51489 
L 947.87199 754.51489 
L 952.406885 754.51489 
L 956.941779 754.51489 
L 961.476674 754.51489 
L 966.011568 754.51489 
L 970.546462 754.51489 
L 975.081357 754.51489 
L 979.616251 754.51489 
L 984.151146 754.51489 
L 988.68604 754.51489 
L 993.220934 754.51489 
L 997.755829 754.51489 
L 1002.290723 754.51489 
L 1006.825618 754.51489 
L 1011.360512 754.51489 
L 1015.895406 754.51489 
L 1020.430301 754.51489 
L 1024.965195 754.51489 
L 1029.50009 754.51489 
L 1034.034984 754.51489 
L 1038.569878 754.51489 
L 1043.104773 754.51489 
" clip-path="url(#pf8626dd547)" style="fill: none; stroke: #ff7f0e; stroke-width: 1.5; stroke-linecap: square"/>
   </g>
   <g id="line2d_47">
    <path d="M 594.150227 543.283525 
L 598.685122 543.283525 
L 603.220016 543.283525 
L 607.75491 543.283525 
L 612.289805 544.279899 
L 616.824699 543.283525 
L 621.359594 543.283525 
L 625.894488 543.283525 
L 630.429382 543.283525 
L 634.964277 543.283525 
L 639.499171 543.283525 
L 644.034066 543.283525 
L 648.56896 544.279899 
L 653.103854 543.283525 
L 657.638749 543.283525 
L 662.173643 543.283525 
L 666.708538 543.283525 
L 671.243432 543.283525 
L 675.778326 543.283525 
L 680.313221 543.283525 
L 684.848115 543.283525 
L 689.38301 543.283525 
L 693.917904 543.283525 
L 698.452798 543.283525 
L 702.987693 543.283525 
L 707.522587 543.283525 
L 712.057482 543.283525 
L 716.592376 543.283525 
L 721.12727 543.283525 
L 725.662165 543.283525 
L 730.197059 543.283525 
L 734.731954 543.283525 
L 739.266848 543.283525 
L 743.801742 543.283525 
L 748.336637 543.283525 
L 752.871531 543.283525 
L 757.406426 542.28715 
L 761.94132 543.283525 
L 766.476214 542.28715 
L 771.011109 543.283525 
L 775.546003 542.28715 
L 780.080898 543.283525 
L 784.615792 543.283525 
L 789.150686 542.28715 
L 793.685581 543.283525 
L 798.220475 543.283525 
L 802.75537 542.28715 
L 807.290264 542.28715 
L 811.825158 543.283525 
L 816.360053 542.28715 
L 820.894947 543.283525 
L 825.429842 542.28715 
L 829.964736 542.28715 
L 834.49963 543.283525 
L 839.034525 542.28715 
L 843.569419 542.28715 
L 848.104314 543.283525 
L 852.639208 542.28715 
L 857.174102 542.28715 
L 861.708997 543.283525 
L 866.243891 542.28715 
L 870.778786 543.283525 
L 875.31368 542.28715 
L 879.848574 542.28715 
L 884.383469 542.28715 
L 888.918363 542.28715 
L 893.453258 542.28715 
L 897.988152 543.283525 
L 902.523046 542.28715 
L 907.057941 542.28715 
L 911.592835 542.28715 
L 916.12773 542.28715 
L 920.662624 543.283525 
L 925.197518 542.28715 
L 929.732413 542.28715 
L 934.267307 542.28715 
L 938.802202 541.290776 
L 943.337096 542.28715 
L 947.87199 543.283525 
L 952.406885 542.28715 
L 956.941779 542.28715 
L 961.476674 542.28715 
L 966.011568 542.28715 
L 970.546462 542.28715 
L 975.081357 541.290776 
L 979.616251 542.28715 
L 984.151146 542.28715 
L 988.68604 542.28715 
L 993.220934 541.290776 
L 997.755829 542.28715 
L 1002.290723 541.290776 
L 1006.825618 541.290776 
L 1011.360512 542.28715 
L 1015.895406 541.290776 
L 1020.430301 542.28715 
L 1024.965195 541.290776 
L 1029.50009 542.28715 
L 1034.034984 542.28715 
L 1038.569878 541.290776 
L 1043.104773 541.290776 
" clip-path="url(#pf8626dd547)" style="fill: none; stroke: #2ca02c; stroke-width: 1.5; stroke-linecap: square"/>
   </g>
   <g id="line2d_48">
    <path d="M 594.150227 466.562698 
L 598.685122 467.559073 
L 603.220016 467.559073 
L 607.75491 467.559073 
L 612.289805 467.559073 
L 616.824699 467.559073 
L 621.359594 468.555447 
L 625.894488 468.555447 
L 630.429382 468.555447 
L 634.964277 468.555447 
L 639.499171 468.555447 
L 644.034066 469.551822 
L 648.56896 469.551822 
L 653.103854 469.551822 
L 657.638749 469.551822 
L 662.173643 469.551822 
L 666.708538 469.551822 
L 671.243432 470.548196 
L 675.778326 470.548196 
L 680.313221 470.548196 
L 684.848115 470.548196 
L 689.38301 470.548196 
L 693.917904 470.548196 
L 698.452798 470.548196 
L 702.987693 470.548196 
L 707.522587 470.548196 
L 712.057482 471.54457 
L 716.592376 471.54457 
L 721.12727 471.54457 
L 725.662165 471.54457 
L 730.197059 472.540945 
L 734.731954 472.540945 
L 739.266848 472.540945 
L 743.801742 473.537319 
L 748.336637 472.540945 
L 752.871531 473.537319 
L 757.406426 472.540945 
L 761.94132 473.537319 
L 766.476214 473.537319 
L 771.011109 473.537319 
L 775.546003 473.537319 
L 780.080898 474.533693 
L 784.615792 473.537319 
L 789.150686 474.533693 
L 793.685581 474.533693 
L 798.220475 474.533693 
L 802.75537 474.533693 
L 807.290264 474.533693 
L 811.825158 474.533693 
L 816.360053 475.530068 
L 820.894947 475.530068 
L 825.429842 475.530068 
L 829.964736 475.530068 
L 834.49963 475.530068 
L 839.034525 475.530068 
L 843.569419 476.526442 
L 848.104314 476.526442 
L 852.639208 476.526442 
L 857.174102 476.526442 
L 861.708997 476.526442 
L 866.243891 476.526442 
L 870.778786 477.522816 
L 875.31368 477.522816 
L 879.848574 477.522816 
L 884.383469 477.522816 
L 888.918363 477.522816 
L 893.453258 478.519191 
L 897.988152 478.519191 
L 902.523046 478.519191 
L 907.057941 478.519191 
L 911.592835 478.519191 
L 916.12773 479.515565 
L 920.662624 478.519191 
L 925.197518 479.515565 
L 929.732413 478.519191 
L 934.267307 479.515565 
L 938.802202 479.515565 
L 943.337096 479.515565 
L 947.87199 480.51194 
L 952.406885 479.515565 
L 956.941779 479.515565 
L 961.476674 480.51194 
L 966.011568 480.51194 
L 970.546462 480.51194 
L 975.081357 480.51194 
L 979.616251 481.508314 
L 984.151146 481.508314 
L 988.68604 481.508314 
L 993.220934 481.508314 
L 997.755829 481.508314 
L 1002.290723 481.508314 
L 1006.825618 482.504688 
L 1011.360512 481.508314 
L 1015.895406 482.504688 
L 1020.430301 482.504688 
L 1024.965195 482.504688 
L 1029.50009 482.504688 
L 1034.034984 482.504688 
L 1038.569878 482.504688 
L 1043.104773 482.504688 
" clip-path="url(#pf8626dd547)" style="fill: none; stroke: #d62728; stroke-width: 1.5; stroke-linecap: square"/>
   </g>
   <g id="patch_18">
    <path d="M 571.7025 768.9125 
L 571.7025 452.165089 
" style="fill: none; stroke: #000000; stroke-width: 0.8; stroke-linejoin: miter; stroke-linecap: square"/>
   </g>
   <g id="patch_19">
    <path d="M 1065.5525 768.9125 
L 1065.5525 452.165089 
" style="fill: none; stroke: #000000; stroke-width: 0.8; stroke-linejoin: miter; stroke-linecap: square"/>
   </g>
   <g id="patch_20">
    <path d="M 571.7025 768.9125 
L 1065.5525 768.9125 
" style="fill: none; stroke: #000000; stroke-width: 0.8; stroke-linejoin: miter; stroke-linecap: square"/>
   </g>
   <g id="patch_21">
    <path d="M 571.7025 452.165089 
L 1065.5525 452.165089 
" style="fill: none; stroke: #000000; stroke-width: 0.8; stroke-linejoin: miter; stroke-linecap: square"/>
   </g>
  </g>
  <g id="text_33">
   <!-- Shots -->
   <g transform="translate(519.591875 97.430625) scale(0.12 -0.12)">
    <defs>
     <path id="DejaVuSans-53" d="M 3425 4513 
L 3425 3897 
Q 3066 4069 2747 4153 
Q 2428 4238 2131 4238 
Q 1616 4238 1336 4038 
Q 1056 3838 1056 3469 
Q 1056 3159 1242 3001 
Q 1428 2844 1947 2747 
L 2328 2669 
Q 3034 2534 3370 2195 
Q 3706 1856 3706 1288 
Q 3706 609 3251 259 
Q 2797 -91 1919 -91 
Q 1588 -91 1214 -16 
Q 841 59 441 206 
L 441 856 
Q 825 641 1194 531 
Q 1563 422 1919 422 
Q 2459 422 2753 634 
Q 3047 847 3047 1241 
Q 3047 1584 2836 1778 
Q 2625 1972 2144 2069 
L 1759 2144 
Q 1053 2284 737 2584 
Q 422 2884 422 3419 
Q 422 4038 858 4394 
Q 1294 4750 2059 4750 
Q 2388 4750 2728 4690 
Q 3069 4631 3425 4513 
z
" transform="scale(0.015625)"/>
     <path id="DejaVuSans-68" d="M 3513 2113 
L 3513 0 
L 2938 0 
L 2938 2094 
Q 2938 2591 2744 2837 
Q 2550 3084 2163 3084 
Q 1697 3084 1428 2787 
Q 1159 2491 1159 1978 
L 1159 0 
L 581 0 
L 581 4863 
L 1159 4863 
L 1159 2956 
Q 1366 3272 1645 3428 
Q 1925 3584 2291 3584 
Q 2894 3584 3203 3211 
Q 3513 2838 3513 2113 
z
" transform="scale(0.015625)"/>
     <path id="DejaVuSans-6f" d="M 1959 3097 
Q 1497 3097 1228 2736 
Q 959 2375 959 1747 
Q 959 1119 1226 758 
Q 1494 397 1959 397 
Q 2419 397 2687 759 
Q 2956 1122 2956 1747 
Q 2956 2369 2687 2733 
Q 2419 3097 1959 3097 
z
M 1959 3584 
Q 2709 3584 3137 3096 
Q 3566 2609 3566 1747 
Q 3566 888 3137 398 
Q 2709 -91 1959 -91 
Q 1206 -91 779 398 
Q 353 888 353 1747 
Q 353 2609 779 3096 
Q 1206 3584 1959 3584 
z
" transform="scale(0.015625)"/>
     <path id="DejaVuSans-74" d="M 1172 4494 
L 1172 3500 
L 2356 3500 
L 2356 3053 
L 1172 3053 
L 1172 1153 
Q 1172 725 1289 603 
Q 1406 481 1766 481 
L 2356 481 
L 2356 0 
L 1766 0 
Q 1100 0 847 248 
Q 594 497 594 1153 
L 594 3053 
L 172 3053 
L 172 3500 
L 594 3500 
L 594 4494 
L 1172 4494 
z
" transform="scale(0.015625)"/>
     <path id="DejaVuSans-73" d="M 2834 3397 
L 2834 2853 
Q 2591 2978 2328 3040 
Q 2066 3103 1784 3103 
Q 1356 3103 1142 2972 
Q 928 2841 928 2578 
Q 928 2378 1081 2264 
Q 1234 2150 1697 2047 
L 1894 2003 
Q 2506 1872 2764 1633 
Q 3022 1394 3022 966 
Q 3022 478 2636 193 
Q 2250 -91 1575 -91 
Q 1294 -91 989 -36 
Q 684 19 347 128 
L 347 722 
Q 666 556 975 473 
Q 1284 391 1588 391 
Q 1994 391 2212 530 
Q 2431 669 2431 922 
Q 2431 1156 2273 1281 
Q 2116 1406 1581 1522 
L 1381 1569 
Q 847 1681 609 1914 
Q 372 2147 372 2553 
Q 372 3047 722 3315 
Q 1072 3584 1716 3584 
Q 2034 3584 2315 3537 
Q 2597 3491 2834 3397 
z
" transform="scale(0.015625)"/>
    </defs>
    <use xlink:href="#DejaVuSans-53"/>
    <use xlink:href="#DejaVuSans-68" x="63.476562"/>
    <use xlink:href="#DejaVuSans-6f" x="126.855469"/>
    <use xlink:href="#DejaVuSans-74" x="188.037109"/>
    <use xlink:href="#DejaVuSans-73" x="227.246094"/>
   </g>
  </g>
  <g id="legend_1">
   <g id="patch_22">
    <path d="M 941.980625 68.9125 
L 1069.3525 68.9125 
Q 1071.3525 68.9125 1071.3525 66.9125 
L 1071.3525 9.2 
Q 1071.3525 7.2 1069.3525 7.2 
L 941.980625 7.2 
Q 939.980625 7.2 939.980625 9.2 
L 939.980625 66.9125 
Q 939.980625 68.9125 941.980625 68.9125 
z
" style="fill: #ffffff; opacity: 0.8; stroke: #cccccc; stroke-linejoin: miter"/>
   </g>
   <g id="line2d_49">
    <path d="M 943.980625 15.298438 
L 953.980625 15.298438 
L 963.980625 15.298438 
" style="fill: none; stroke: #1f77b4; stroke-width: 1.5; stroke-linecap: square"/>
   </g>
   <g id="text_34">
    <!-- Thermofilter -->
    <g transform="translate(971.980625 18.798438) scale(0.1 -0.1)">
     <defs>
      <path id="DejaVuSans-54" d="M -19 4666 
L 3928 4666 
L 3928 4134 
L 2272 4134 
L 2272 0 
L 1638 0 
L 1638 4134 
L -19 4134 
L -19 4666 
z
" transform="scale(0.015625)"/>
      <path id="DejaVuSans-65" d="M 3597 1894 
L 3597 1613 
L 953 1613 
Q 991 1019 1311 708 
Q 1631 397 2203 397 
Q 2534 397 2845 478 
Q 3156 559 3463 722 
L 3463 178 
Q 3153 47 2828 -22 
Q 2503 -91 2169 -91 
Q 1331 -91 842 396 
Q 353 884 353 1716 
Q 353 2575 817 3079 
Q 1281 3584 2069 3584 
Q 2775 3584 3186 3129 
Q 3597 2675 3597 1894 
z
M 3022 2063 
Q 3016 2534 2758 2815 
Q 2500 3097 2075 3097 
Q 1594 3097 1305 2825 
Q 1016 2553 972 2059 
L 3022 2063 
z
" transform="scale(0.015625)"/>
      <path id="DejaVuSans-72" d="M 2631 2963 
Q 2534 3019 2420 3045 
Q 2306 3072 2169 3072 
Q 1681 3072 1420 2755 
Q 1159 2438 1159 1844 
L 1159 0 
L 581 0 
L 581 3500 
L 1159 3500 
L 1159 2956 
Q 1341 3275 1631 3429 
Q 1922 3584 2338 3584 
Q 2397 3584 2469 3576 
Q 2541 3569 2628 3553 
L 2631 2963 
z
" transform="scale(0.015625)"/>
      <path id="DejaVuSans-6d" d="M 3328 2828 
Q 3544 3216 3844 3400 
Q 4144 3584 4550 3584 
Q 5097 3584 5394 3201 
Q 5691 2819 5691 2113 
L 5691 0 
L 5113 0 
L 5113 2094 
Q 5113 2597 4934 2840 
Q 4756 3084 4391 3084 
Q 3944 3084 3684 2787 
Q 3425 2491 3425 1978 
L 3425 0 
L 2847 0 
L 2847 2094 
Q 2847 2600 2669 2842 
Q 2491 3084 2119 3084 
Q 1678 3084 1418 2786 
Q 1159 2488 1159 1978 
L 1159 0 
L 581 0 
L 581 3500 
L 1159 3500 
L 1159 2956 
Q 1356 3278 1631 3431 
Q 1906 3584 2284 3584 
Q 2666 3584 2933 3390 
Q 3200 3197 3328 2828 
z
" transform="scale(0.015625)"/>
      <path id="DejaVuSans-66" d="M 2375 4863 
L 2375 4384 
L 1825 4384 
Q 1516 4384 1395 4259 
Q 1275 4134 1275 3809 
L 1275 3500 
L 2222 3500 
L 2222 3053 
L 1275 3053 
L 1275 0 
L 697 0 
L 697 3053 
L 147 3053 
L 147 3500 
L 697 3500 
L 697 3744 
Q 697 4328 969 4595 
Q 1241 4863 1831 4863 
L 2375 4863 
z
" transform="scale(0.015625)"/>
      <path id="DejaVuSans-69" d="M 603 3500 
L 1178 3500 
L 1178 0 
L 603 0 
L 603 3500 
z
M 603 4863 
L 1178 4863 
L 1178 4134 
L 603 4134 
L 603 4863 
z
" transform="scale(0.015625)"/>
      <path id="DejaVuSans-6c" d="M 603 4863 
L 1178 4863 
L 1178 0 
L 603 0 
L 603 4863 
z
" transform="scale(0.015625)"/>
     </defs>
     <use xlink:href="#DejaVuSans-54"/>
     <use xlink:href="#DejaVuSans-68" x="61.083984"/>
     <use xlink:href="#DejaVuSans-65" x="124.462891"/>
     <use xlink:href="#DejaVuSans-72" x="185.986328"/>
     <use xlink:href="#DejaVuSans-6d" x="225.349609"/>
     <use xlink:href="#DejaVuSans-6f" x="322.761719"/>
     <use xlink:href="#DejaVuSans-66" x="383.943359"/>
     <use xlink:href="#DejaVuSans-69" x="419.148438"/>
     <use xlink:href="#DejaVuSans-6c" x="446.931641"/>
     <use xlink:href="#DejaVuSans-74" x="474.714844"/>
     <use xlink:href="#DejaVuSans-65" x="513.923828"/>
     <use xlink:href="#DejaVuSans-72" x="575.447266"/>
    </g>
   </g>
   <g id="line2d_50">
    <path d="M 943.980625 29.976563 
L 953.980625 29.976563 
L 963.980625 29.976563 
" style="fill: none; stroke: #ff7f0e; stroke-width: 1.5; stroke-linecap: square"/>
   </g>
   <g id="text_35">
    <!-- Thermofilter (pred) -->
    <g transform="translate(971.980625 33.476563) scale(0.1 -0.1)">
     <defs>
      <path id="DejaVuSans-20" transform="scale(0.015625)"/>
      <path id="DejaVuSans-28" d="M 1984 4856 
Q 1566 4138 1362 3434 
Q 1159 2731 1159 2009 
Q 1159 1288 1364 580 
Q 1569 -128 1984 -844 
L 1484 -844 
Q 1016 -109 783 600 
Q 550 1309 550 2009 
Q 550 2706 781 3412 
Q 1013 4119 1484 4856 
L 1984 4856 
z
" transform="scale(0.015625)"/>
      <path id="DejaVuSans-70" d="M 1159 525 
L 1159 -1331 
L 581 -1331 
L 581 3500 
L 1159 3500 
L 1159 2969 
Q 1341 3281 1617 3432 
Q 1894 3584 2278 3584 
Q 2916 3584 3314 3078 
Q 3713 2572 3713 1747 
Q 3713 922 3314 415 
Q 2916 -91 2278 -91 
Q 1894 -91 1617 61 
Q 1341 213 1159 525 
z
M 3116 1747 
Q 3116 2381 2855 2742 
Q 2594 3103 2138 3103 
Q 1681 3103 1420 2742 
Q 1159 2381 1159 1747 
Q 1159 1113 1420 752 
Q 1681 391 2138 391 
Q 2594 391 2855 752 
Q 3116 1113 3116 1747 
z
" transform="scale(0.015625)"/>
      <path id="DejaVuSans-64" d="M 2906 2969 
L 2906 4863 
L 3481 4863 
L 3481 0 
L 2906 0 
L 2906 525 
Q 2725 213 2448 61 
Q 2172 -91 1784 -91 
Q 1150 -91 751 415 
Q 353 922 353 1747 
Q 353 2572 751 3078 
Q 1150 3584 1784 3584 
Q 2172 3584 2448 3432 
Q 2725 3281 2906 2969 
z
M 947 1747 
Q 947 1113 1208 752 
Q 1469 391 1925 391 
Q 2381 391 2643 752 
Q 2906 1113 2906 1747 
Q 2906 2381 2643 2742 
Q 2381 3103 1925 3103 
Q 1469 3103 1208 2742 
Q 947 2381 947 1747 
z
" transform="scale(0.015625)"/>
      <path id="DejaVuSans-29" d="M 513 4856 
L 1013 4856 
Q 1481 4119 1714 3412 
Q 1947 2706 1947 2009 
Q 1947 1309 1714 600 
Q 1481 -109 1013 -844 
L 513 -844 
Q 928 -128 1133 580 
Q 1338 1288 1338 2009 
Q 1338 2731 1133 3434 
Q 928 4138 513 4856 
z
" transform="scale(0.015625)"/>
     </defs>
     <use xlink:href="#DejaVuSans-54"/>
     <use xlink:href="#DejaVuSans-68" x="61.083984"/>
     <use xlink:href="#DejaVuSans-65" x="124.462891"/>
     <use xlink:href="#DejaVuSans-72" x="185.986328"/>
     <use xlink:href="#DejaVuSans-6d" x="225.349609"/>
     <use xlink:href="#DejaVuSans-6f" x="322.761719"/>
     <use xlink:href="#DejaVuSans-66" x="383.943359"/>
     <use xlink:href="#DejaVuSans-69" x="419.148438"/>
     <use xlink:href="#DejaVuSans-6c" x="446.931641"/>
     <use xlink:href="#DejaVuSans-74" x="474.714844"/>
     <use xlink:href="#DejaVuSans-65" x="513.923828"/>
     <use xlink:href="#DejaVuSans-72" x="575.447266"/>
     <use xlink:href="#DejaVuSans-20" x="616.560547"/>
     <use xlink:href="#DejaVuSans-28" x="648.347656"/>
     <use xlink:href="#DejaVuSans-70" x="687.361328"/>
     <use xlink:href="#DejaVuSans-72" x="750.837891"/>
     <use xlink:href="#DejaVuSans-65" x="789.701172"/>
     <use xlink:href="#DejaVuSans-64" x="851.224609"/>
     <use xlink:href="#DejaVuSans-29" x="914.701172"/>
    </g>
   </g>
   <g id="line2d_51">
    <path d="M 943.980625 44.654688 
L 953.980625 44.654688 
L 963.980625 44.654688 
" style="fill: none; stroke: #2ca02c; stroke-width: 1.5; stroke-linecap: square"/>
   </g>
   <g id="text_36">
    <!-- Grouphead -->
    <g transform="translate(971.980625 48.154688) scale(0.1 -0.1)">
     <defs>
      <path id="DejaVuSans-47" d="M 3809 666 
L 3809 1919 
L 2778 1919 
L 2778 2438 
L 4434 2438 
L 4434 434 
Q 4069 175 3628 42 
Q 3188 -91 2688 -91 
Q 1594 -91 976 548 
Q 359 1188 359 2328 
Q 359 3472 976 4111 
Q 1594 4750 2688 4750 
Q 3144 4750 3555 4637 
Q 3966 4525 4313 4306 
L 4313 3634 
Q 3963 3931 3569 4081 
Q 3175 4231 2741 4231 
Q 1884 4231 1454 3753 
Q 1025 3275 1025 2328 
Q 1025 1384 1454 906 
Q 1884 428 2741 428 
Q 3075 428 3337 486 
Q 3600 544 3809 666 
z
" transform="scale(0.015625)"/>
      <path id="DejaVuSans-75" d="M 544 1381 
L 544 3500 
L 1119 3500 
L 1119 1403 
Q 1119 906 1312 657 
Q 1506 409 1894 409 
Q 2359 409 2629 706 
Q 2900 1003 2900 1516 
L 2900 3500 
L 3475 3500 
L 3475 0 
L 2900 0 
L 2900 538 
Q 2691 219 2414 64 
Q 2138 -91 1772 -91 
Q 1169 -91 856 284 
Q 544 659 544 1381 
z
M 1991 3584 
L 1991 3584 
z
" transform="scale(0.015625)"/>
      <path id="DejaVuSans-61" d="M 2194 1759 
Q 1497 1759 1228 1600 
Q 959 1441 959 1056 
Q 959 750 1161 570 
Q 1363 391 1709 391 
Q 2188 391 2477 730 
Q 2766 1069 2766 1631 
L 2766 1759 
L 2194 1759 
z
M 3341 1997 
L 3341 0 
L 2766 0 
L 2766 531 
Q 2569 213 2275 61 
Q 1981 -91 1556 -91 
Q 1019 -91 701 211 
Q 384 513 384 1019 
Q 384 1609 779 1909 
Q 1175 2209 1959 2209 
L 2766 2209 
L 2766 2266 
Q 2766 2663 2505 2880 
Q 2244 3097 1772 3097 
Q 1472 3097 1187 3025 
Q 903 2953 641 2809 
L 641 3341 
Q 956 3463 1253 3523 
Q 1550 3584 1831 3584 
Q 2591 3584 2966 3190 
Q 3341 2797 3341 1997 
z
" transform="scale(0.015625)"/>
     </defs>
     <use xlink:href="#DejaVuSans-47"/>
     <use xlink:href="#DejaVuSans-72" x="77.490234"/>
     <use xlink:href="#DejaVuSans-6f" x="116.353516"/>
     <use xlink:href="#DejaVuSans-75" x="177.535156"/>
     <use xlink:href="#DejaVuSans-70" x="240.914062"/>
     <use xlink:href="#DejaVuSans-68" x="304.390625"/>
     <use xlink:href="#DejaVuSans-65" x="367.769531"/>
     <use xlink:href="#DejaVuSans-61" x="429.292969"/>
     <use xlink:href="#DejaVuSans-64" x="490.572266"/>
    </g>
   </g>
   <g id="line2d_52">
    <path d="M 943.980625 59.332813 
L 953.980625 59.332813 
L 963.980625 59.332813 
" style="fill: none; stroke: #d62728; stroke-width: 1.5; stroke-linecap: square"/>
   </g>
   <g id="text_37">
    <!-- Boiler -->
    <g transform="translate(971.980625 62.832813) scale(0.1 -0.1)">
     <defs>
      <path id="DejaVuSans-42" d="M 1259 2228 
L 1259 519 
L 2272 519 
Q 2781 519 3026 730 
Q 3272 941 3272 1375 
Q 3272 1813 3026 2020 
Q 2781 2228 2272 2228 
L 1259 2228 
z
M 1259 4147 
L 1259 2741 
L 2194 2741 
Q 2656 2741 2882 2914 
Q 3109 3088 3109 3444 
Q 3109 3797 2882 3972 
Q 2656 4147 2194 4147 
L 1259 4147 
z
M 628 4666 
L 2241 4666 
Q 2963 4666 3353 4366 
Q 3744 4066 3744 3513 
Q 3744 3084 3544 2831 
Q 3344 2578 2956 2516 
Q 3422 2416 3680 2098 
Q 3938 1781 3938 1306 
Q 3938 681 3513 340 
Q 3088 0 2303 0 
L 628 0 
L 628 4666 
z
" transform="scale(0.015625)"/>
     </defs>
     <use xlink:href="#DejaVuSans-42"/>
     <use xlink:href="#DejaVuSans-6f" x="68.603516"/>
     <use xlink:href="#DejaVuSans-69" x="129.785156"/>
     <use xlink:href="#DejaVuSans-6c" x="157.568359"/>
     <use xlink:href="#DejaVuSans-65" x="185.351562"/>
     <use xlink:href="#DejaVuSans-72" x="246.875"/>
    </g>
   </g>
  </g>
 </g>
 <defs>
  <clipPath id="pdec67ee113">
   <rect x="37.1025" y="110.2725" width="493.85" height="316.747411"/>
  </clipPath>
  <clipPath id="pa08b182152">
   <rect x="571.7025" y="110.2725" width="493.85" height="316.747411"/>
  </clipPath>
  <clipPath id="pcb08af353a">
   <rect x="37.1025" y="452.165089" width="493.85" height="316.747411"/>
  </clipPath>
  <clipPath id="pf8626dd547">
   <rect x="571.7025" y="452.165089" width="493.85" height="316.747411"/>
  </clipPath>
 </defs>
</svg>
