<?xml version="1.0" encoding="UTF-8"?>
<!DOCTYPE svg PUBLIC "-//W3C//DTD SVG 1.1//EN" "http://www.w3.org/Graphics/SVG/1.1/DTD/svg11.dtd">
<svg xmlns="http://www.w3.org/2000/svg" xmlns:xlink="http://www.w3.org/1999/xlink" version="1.1" width="912px" height="302px" viewBox="-0.5 -0.5 912 302"><defs><clipPath id="mx-clip-0-30-30-30-0"><rect x="0" y="30" width="30" height="30"/></clipPath><clipPath id="mx-clip-36-30-224-30-0"><rect x="36" y="30" width="224" height="30"/></clipPath><clipPath id="mx-clip-36-60-224-30-0"><rect x="36" y="60" width="224" height="30"/></clipPath><clipPath id="mx-clip-36-90-224-30-0"><rect x="36" y="90" width="224" height="30"/></clipPath><clipPath id="mx-clip-36-120-224-30-0"><rect x="36" y="120" width="224" height="30"/></clipPath><clipPath id="mx-clip-36-150-224-30-0"><rect x="36" y="150" width="224" height="30"/></clipPath><clipPath id="mx-clip-36-180-224-30-0"><rect x="36" y="180" width="224" height="30"/></clipPath><clipPath id="mx-clip-36-210-224-30-0"><rect x="36" y="210" width="224" height="30"/></clipPath><clipPath id="mx-clip-36-240-224-30-0"><rect x="36" y="240" width="224" height="30"/></clipPath><clipPath id="mx-clip-36-270-224-30-0"><rect x="36" y="270" width="224" height="30"/></clipPath><clipPath id="mx-clip-680-30-30-30-0"><rect x="680" y="30" width="30" height="30"/></clipPath><clipPath id="mx-clip-716-30-194-30-0"><rect x="716" y="30" width="194" height="30"/></clipPath><clipPath id="mx-clip-716-60-194-30-0"><rect x="716" y="60" width="194" height="30"/></clipPath><clipPath id="mx-clip-340-30-30-30-0"><rect x="340" y="30" width="30" height="30"/></clipPath><clipPath id="mx-clip-376-30-254-30-0"><rect x="376" y="30" width="254" height="30"/></clipPath><clipPath id="mx-clip-376-60-254-30-0"><rect x="376" y="60" width="254" height="30"/></clipPath><clipPath id="mx-clip-376-90-254-30-0"><rect x="376" y="90" width="254" height="30"/></clipPath><clipPath id="mx-clip-376-120-254-30-0"><rect x="376" y="120" width="254" height="30"/></clipPath><clipPath id="mx-clip-376-150-254-30-0"><rect x="376" y="150" width="254" height="30"/></clipPath></defs><g><path d="M 0 30 L 0 0 L 260 0 L 260 30" fill="rgb(255, 255, 255)" stroke="rgb(0, 0, 0)" stroke-miterlimit="10" pointer-events="all"/><path d="M 0 30 L 0 300 L 260 300 L 260 30" fill="none" stroke="rgb(0, 0, 0)" stroke-miterlimit="10" pointer-events="none"/><path d="M 0 30 L 260 30" fill="none" stroke="rgb(0, 0, 0)" stroke-miterlimit="10" pointer-events="none"/><path d="M 30 30 L 30 60 L 30 90 L 30 120 L 30 150 L 30 180 L 30 210 L 30 240 L 30 270 L 30 300" fill="none" stroke="rgb(0, 0, 0)" stroke-miterlimit="10" pointer-events="none"/><g fill="rgb(0, 0, 0)" font-family="Helvetica" font-weight="bold" pointer-events="none" text-anchor="middle" font-size="12px"><text x="129.5" y="19.5">measurement</text></g><path d="M 0 30 M 260 30 M 260 60 L 0 60" fill="none" stroke="rgb(0, 0, 0)" stroke-linecap="square" stroke-miterlimit="10" pointer-events="none"/><path d="M 0 30 M 30 30 M 30 60 M 0 60" fill="none" stroke="rgb(0, 0, 0)" stroke-linecap="square" stroke-miterlimit="10" pointer-events="none"/><g fill="rgb(0, 0, 0)" font-family="Helvetica" font-weight="bold" pointer-events="none" clip-path="url(#mx-clip-0-30-30-30-0)" text-anchor="middle" font-size="12px"><text x="14.5" y="49.5">PK</text></g><path d="M 30 30 M 260 30 M 260 60 M 30 60" fill="none" stroke="rgb(0, 0, 0)" stroke-linecap="square" stroke-miterlimit="10" pointer-events="none"/><g fill="rgb(0, 0, 0)" font-family="Helvetica" font-weight="bold" text-decoration="underline" pointer-events="none" clip-path="url(#mx-clip-36-30-224-30-0)" font-size="12px"><text x="37.5" y="49.5">time INTEGER  NOT NULL</text></g><path d="M 0 60 M 30 60 M 30 90 M 0 90" fill="none" stroke="rgb(0, 0, 0)" stroke-linecap="square" stroke-miterlimit="10" pointer-events="none"/><path d="M 30 60 M 260 60 M 260 90 M 30 90" fill="none" stroke="rgb(0, 0, 0)" stroke-linecap="square" stroke-miterlimit="10" pointer-events="none"/><g fill="rgb(0, 0, 0)" font-family="Helvetica" pointer-events="none" clip-path="url(#mx-clip-36-60-224-30-0)" font-size="12px"><text x="37.5" y="79.5">target_temp_c FLOAT NOT NULL</text></g><path d="M 0 90 M 30 90 M 30 120 M 0 120" fill="none" stroke="rgb(0, 0, 0)" stroke-linecap="square" stroke-miterlimit="10" pointer-events="none"/><path d="M 30 90 M 260 90 M 260 120 M 30 120" fill="none" stroke="rgb(0, 0, 0)" stroke-linecap="square" stroke-miterlimit="10" pointer-events="none"/><g fill="rgb(0, 0, 0)" font-family="Helvetica" pointer-events="none" clip-path="url(#mx-clip-36-90-224-30-0)" font-size="12px"><text x="37.5" y="109.5">boiler_temp_c FLOAT NOT NULL</text></g><path d="M 0 120 M 30 120 M 30 150 M 0 150" fill="none" stroke="rgb(0, 0, 0)" stroke-linecap="square" stroke-miterlimit="10" pointer-events="none"/><path d="M 30 120 M 260 120 M 260 150 M 30 150" fill="none" stroke="rgb(0, 0, 0)" stroke-linecap="square" stroke-miterlimit="10" pointer-events="none"/><g fill="rgb(0, 0, 0)" font-family="Helvetica" pointer-events="none" clip-path="url(#mx-clip-36-120-224-30-0)" font-size="12px"><text x="37.5" y="139.5">grouphead_temp_c FLOAT NOT NULL</text></g><path d="M 0 150 M 30 150 M 30 180 M 0 180" fill="none" stroke="rgb(0, 0, 0)" stroke-linecap="square" stroke-miterlimit="10" pointer-events="none"/><path d="M 30 150 M 260 150 M 260 180 M 30 180" fill="none" stroke="rgb(0, 0, 0)" stroke-linecap="square" stroke-miterlimit="10" pointer-events="none"/><g fill="rgb(0, 0, 0)" font-family="Helvetica" pointer-events="none" clip-path="url(#mx-clip-36-150-224-30-0)" font-size="12px"><text x="37.5" y="169.5">thermofilter_temp_c FLOAT NULL</text></g><path d="M 0 180 M 30 180 M 30 210 M 0 210" fill="none" stroke="rgb(0, 0, 0)" stroke-linecap="square" stroke-miterlimit="10" pointer-events="none"/><path d="M 30 180 M 260 180 M 260 210 M 30 210" fill="none" stroke="rgb(0, 0, 0)" stroke-linecap="square" stroke-miterlimit="10" pointer-events="none"/><g fill="rgb(0, 0, 0)" font-family="Helvetica" pointer-events="none" clip-path="url(#mx-clip-36-180-224-30-0)" font-size="12px"><text x="37.5" y="199.5">power BOOLEAN NOT NULL</text></g><path d="M 0 210 M 30 210 M 30 240 M 0 240" fill="none" stroke="rgb(0, 0, 0)" stroke-linecap="square" stroke-miterlimit="10" pointer-events="none"/><path d="M 30 210 M 260 210 M 260 240 M 30 240" fill="none" stroke="rgb(0, 0, 0)" stroke-linecap="square" stroke-miterlimit="10" pointer-events="none"/><g fill="rgb(0, 0, 0)" font-family="Helvetica" pointer-events="none" clip-path="url(#mx-clip-36-210-224-30-0)" font-size="12px"><text x="37.5" y="229.5">heat_level FLOAT NOT NULL</text></g><path d="M 0 240 M 30 240 M 30 270 M 0 270" fill="none" stroke="rgb(0, 0, 0)" stroke-linecap="square" stroke-miterlimit="10" pointer-events="none"/><path d="M 30 240 M 260 240 M 260 270 M 30 270" fill="none" stroke="rgb(0, 0, 0)" stroke-linecap="square" stroke-miterlimit="10" pointer-events="none"/><g fill="rgb(0, 0, 0)" font-family="Helvetica" pointer-events="none" clip-path="url(#mx-clip-36-240-224-30-0)" font-size="12px"><text x="37.5" y="259.5">pull BOOLEAN NOT NULL</text></g><path d="M 0 270 M 30 270 M 30 300 M 0 300" fill="none" stroke="rgb(0, 0, 0)" stroke-linecap="square" stroke-miterlimit="10" pointer-events="none"/><path d="M 30 270 M 260 270 M 260 300 M 30 300" fill="none" stroke="rgb(0, 0, 0)" stroke-linecap="square" stroke-miterlimit="10" pointer-events="none"/><g fill="rgb(0, 0, 0)" font-family="Helvetica" pointer-events="none" clip-path="url(#mx-clip-36-270-224-30-0)" font-size="12px"><text x="37.5" y="289.5">steam BOOLEAN NOT NULL</text></g><path d="M 680 30 L 680 0 L 910 0 L 910 30" fill="rgb(255, 255, 255)" stroke="rgb(0, 0, 0)" stroke-miterlimit="10" pointer-events="none"/><path d="M 680 30 L 680 90 L 910 90 L 910 30" fill="none" stroke="rgb(0, 0, 0)" stroke-miterlimit="10" pointer-events="none"/><path d="M 680 30 L 910 30" fill="none" stroke="rgb(0, 0, 0)" stroke-miterlimit="10" pointer-events="none"/><path d="M 710 30 L 710 60 L 710 90" fill="none" stroke="rgb(0, 0, 0)" stroke-miterlimit="10" pointer-events="none"/><g fill="rgb(0, 0, 0)" font-family="Helvetica" font-weight="bold" pointer-events="none" text-anchor="middle" font-size="12px"><text x="794.5" y="19.5">config</text></g><path d="M 680 30 M 910 30 M 910 60 L 680 60" fill="none" stroke="rgb(0, 0, 0)" stroke-linecap="square" stroke-miterlimit="10" pointer-events="none"/><path d="M 680 30 M 710 30 M 710 60 M 680 60" fill="none" stroke="rgb(0, 0, 0)" stroke-linecap="square" stroke-miterlimit="10" pointer-events="none"/><g fill="rgb(0, 0, 0)" font-family="Helvetica" font-weight="bold" pointer-events="none" clip-path="url(#mx-clip-680-30-30-30-0)" text-anchor="middle" font-size="12px"><text x="694.5" y="49.5">PK</text></g><path d="M 710 30 M 910 30 M 910 60 M 710 60" fill="none" stroke="rgb(0, 0, 0)" stroke-linecap="square" stroke-miterlimit="10" pointer-events="none"/><g fill="rgb(0, 0, 0)" font-family="Helvetica" font-weight="bold" text-decoration="underline" pointer-events="none" clip-path="url(#mx-clip-716-30-194-30-0)" font-size="12px"><text x="717.5" y="49.5">key VARCHAR(30)  NOT NULL</text></g><path d="M 680 60 M 710 60 M 710 90 M 680 90" fill="none" stroke="rgb(0, 0, 0)" stroke-linecap="square" stroke-miterlimit="10" pointer-events="none"/><path d="M 710 60 M 910 60 M 910 90 M 710 90" fill="none" stroke="rgb(0, 0, 0)" stroke-linecap="square" stroke-miterlimit="10" pointer-events="none"/><g fill="rgb(0, 0, 0)" font-family="Helvetica" pointer-events="none" clip-path="url(#mx-clip-716-60-194-30-0)" font-size="12px"><text x="717.5" y="79.5">value VARCHAR(30) NOT NULL</text></g><path d="M 340 30 L 340 0 L 630 0 L 630 30" fill="rgb(255, 255, 255)" stroke="rgb(0, 0, 0)" stroke-miterlimit="10" pointer-events="none"/><path d="M 340 30 L 340 180 L 630 180 L 630 30" fill="none" stroke="rgb(0, 0, 0)" stroke-miterlimit="10" pointer-events="none"/><path d="M 340 30 L 630 30" fill="none" stroke="rgb(0, 0, 0)" stroke-miterlimit="10" pointer-events="none"/><path d="M 370 30 L 370 60 L 370 90 L 370 120 L 370 150 L 370 180" fill="none" stroke="rgb(0, 0, 0)" stroke-miterlimit="10" pointer-events="none"/><g fill="rgb(0, 0, 0)" font-family="Helvetica" font-weight="bold" pointer-events="none" text-anchor="middle" font-size="12px"><text x="484.5" y="19.5">shot</text></g><path d="M 340 30 M 630 30 M 630 60 L 340 60" fill="none" stroke="rgb(0, 0, 0)" stroke-linecap="square" stroke-miterlimit="10" pointer-events="none"/><path d="M 340 30 M 370 30 M 370 60 M 340 60" fill="none" stroke="rgb(0, 0, 0)" stroke-linecap="square" stroke-miterlimit="10" pointer-events="none"/><g fill="rgb(0, 0, 0)" font-family="Helvetica" font-weight="bold" pointer-events="none" clip-path="url(#mx-clip-340-30-30-30-0)" text-anchor="middle" font-size="12px"><text x="354.5" y="49.5">PK</text></g><path d="M 370 30 M 630 30 M 630 60 M 370 60" fill="none" stroke="rgb(0, 0, 0)" stroke-linecap="square" stroke-miterlimit="10" pointer-events="none"/><g fill="rgb(0, 0, 0)" font-family="Helvetica" font-weight="bold" text-decoration="underline" pointer-events="none" clip-path="url(#mx-clip-376-30-254-30-0)" font-size="12px"><text x="377.5" y="49.5">start_time INTEGER  NOT NULL</text></g><path d="M 340 60 M 370 60 M 370 90 M 340 90" fill="none" stroke="rgb(0, 0, 0)" stroke-linecap="square" stroke-miterlimit="10" pointer-events="none"/><path d="M 370 60 M 630 60 M 630 90 M 370 90" fill="none" stroke="rgb(0, 0, 0)" stroke-linecap="square" stroke-miterlimit="10" pointer-events="none"/><g fill="rgb(0, 0, 0)" font-family="Helvetica" pointer-events="none" clip-path="url(#mx-clip-376-60-254-30-0)" font-size="12px"><text x="377.5" y="79.5">end_time INTEGER NOT NULL</text></g><path d="M 340 90 M 370 90 M 370 120 M 340 120" fill="none" stroke="rgb(0, 0, 0)" stroke-linecap="square" stroke-miterlimit="10" pointer-events="none"/><path d="M 370 90 M 630 90 M 630 120 M 370 120" fill="none" stroke="rgb(0, 0, 0)" stroke-linecap="square" stroke-miterlimit="10" pointer-events="none"/><g fill="rgb(0, 0, 0)" font-family="Helvetica" pointer-events="none" clip-path="url(#mx-clip-376-90-254-30-0)" font-size="12px"><text x="377.5" y="109.5">total_time INTEGER NOT NULL</text></g><path d="M 340 120 M 370 120 M 370 150 M 340 150" fill="none" stroke="rgb(0, 0, 0)" stroke-linecap="square" stroke-miterlimit="10" pointer-events="none"/><path d="M 370 120 M 630 120 M 630 150 M 370 150" fill="none" stroke="rgb(0, 0, 0)" stroke-linecap="square" stroke-miterlimit="10" pointer-events="none"/><g fill="rgb(0, 0, 0)" font-family="Helvetica" pointer-events="none" clip-path="url(#mx-clip-376-120-254-30-0)" font-size="12px"><text x="377.5" y="139.5">brew_temp_average_c FLOAT NOT NULL</text></g><path d="M 340 150 M 370 150 M 370 180 M 340 180" fill="none" stroke="rgb(0, 0, 0)" stroke-linecap="square" stroke-miterlimit="10" pointer-events="none"/><path d="M 370 150 M 630 150 M 630 180 M 370 180" fill="none" stroke="rgb(0, 0, 0)" stroke-linecap="square" stroke-miterlimit="10" pointer-events="none"/><g fill="rgb(0, 0, 0)" font-family="Helvetica" pointer-events="none" clip-path="url(#mx-clip-376-150-254-30-0)" font-size="12px"><text x="377.5" y="169.5">grouphead_temp_avg_c FLOAT NOT NULL</text></g></g></svg>