<svg xmlns="http://www.w3.org/2000/svg" id="export" class="canvas" preserveAspectRatio="xMidYMid meet" style="" width="721" height="47"><rect id="background" fill="#fff" pointer-events="all" width="721" height="47"/><g id="origin" transform="translate(2.1, 2.1) scale(1)"><g id="clusters" class="clusters"/><g id="edge-paths" class="edge-paths"><defs><marker id="arrowhead" viewBox="0 0 10 10" refX="9" refY="5" markerUnits="strokeWidth" markerWidth="8" markerHeight="6" orient="auto" style="fill: rgb(0, 0, 0);"><path d="M 0 0 L 10 5 L 0 10 L 4 5 z" style="stroke-width: 1;"/></marker><marker id="arrowhead-select" viewBox="0 0 10 10" refX="9" refY="5" markerUnits="strokeWidth" markerWidth="8" markerHeight="6" orient="auto" style="fill: rgb(238, 0, 0);"><path d="M 0 0 L 10 5 L 0 10 L 4 5 z" style="stroke-width: 1;"/></marker><marker id="arrowhead-hover" viewBox="0 0 10 10" refX="9" refY="5" markerUnits="strokeWidth" markerWidth="8" markerHeight="6" orient="auto"><path d="M 0 0 L 10 5 L 0 10 L 4 5 z" style="stroke-width: 1;"/></marker></defs><path id="edge-input" class="edge-path" d="M40.59375,20L42.260416666666664,20C43.927083333333336,20,47.260416666666664,20,54.5546875,20C61.848958333333336,20,73.10416666666667,20,84.359375,20C95.61458333333333,20,106.86979166666667,20,114.1640625,20C121.45833333333333,20,124.79166666666667,20,126.45833333333333,20L128.125,20" style="stroke: rgb(0, 0, 0); stroke-width: 1px; fill: none; marker-end: url(&quot;#arrowhead&quot;);"/><path class="edge-path-hit-test" d="M40.59375,20L42.260416666666664,20C43.927083333333336,20,47.260416666666664,20,54.5546875,20C61.848958333333336,20,73.10416666666667,20,84.359375,20C95.61458333333333,20,106.86979166666667,20,114.1640625,20C121.45833333333333,20,124.79166666666667,20,126.45833333333333,20L128.125,20" style="pointer-events: stroke; stroke-width: 0.5em; fill: none; stroke: rgb(0, 0, 0); stroke-opacity: 0.001;"/><path id="edge-sequential/input/MatMul:0" class="edge-path" d="M203.125,20L204.79166666666666,20C206.45833333333334,20,209.79166666666666,20,213.125,20C216.45833333333334,20,219.79166666666666,20,221.45833333333334,20L223.125,20" style="stroke: rgb(0, 0, 0); stroke-width: 1px; fill: none; marker-end: url(&quot;#arrowhead&quot;);"/><path class="edge-path-hit-test" d="M203.125,20L204.79166666666666,20C206.45833333333334,20,209.79166666666666,20,213.125,20C216.45833333333334,20,219.79166666666666,20,221.45833333333334,20L223.125,20" style="pointer-events: stroke; stroke-width: 0.5em; fill: none; stroke: rgb(0, 0, 0); stroke-opacity: 0.001;"/><path id="edge-sequential/input/BiasAdd:0" class="edge-path" d="M298.125,20L299.7916666666667,20C301.4583333333333,20,304.7916666666667,20,308.125,20C311.4583333333333,20,314.7916666666667,20,316.4583333333333,20L318.125,20" style="stroke: rgb(0, 0, 0); stroke-width: 1px; fill: none; marker-end: url(&quot;#arrowhead&quot;);"/><path class="edge-path-hit-test" d="M298.125,20L299.7916666666667,20C301.4583333333333,20,304.7916666666667,20,308.125,20C311.4583333333333,20,314.7916666666667,20,316.4583333333333,20L318.125,20" style="pointer-events: stroke; stroke-width: 0.5em; fill: none; stroke: rgb(0, 0, 0); stroke-opacity: 0.001;"/><path id="edge-sequential/input/Relu:0" class="edge-path" d="M354.90625,20L356.5729166666667,20C358.2395833333333,20,361.5729166666667,20,364.90625,20C368.2395833333333,20,371.5729166666667,20,373.2395833333333,20L374.90625,20" style="stroke: rgb(0, 0, 0); stroke-width: 1px; fill: none; marker-end: url(&quot;#arrowhead&quot;);"/><path class="edge-path-hit-test" d="M354.90625,20L356.5729166666667,20C358.2395833333333,20,361.5729166666667,20,364.90625,20C368.2395833333333,20,371.5729166666667,20,373.2395833333333,20L374.90625,20" style="pointer-events: stroke; stroke-width: 0.5em; fill: none; stroke: rgb(0, 0, 0); stroke-opacity: 0.001;"/><path id="edge-sequential/output/MatMul:0" class="edge-path" d="M449.90625,20L451.5729166666667,20C453.2395833333333,20,456.5729166666667,20,459.90625,20C463.2395833333333,20,466.5729166666667,20,468.2395833333333,20L469.90625,20" style="stroke: rgb(0, 0, 0); stroke-width: 1px; fill: none; marker-end: url(&quot;#arrowhead&quot;);"/><path class="edge-path-hit-test" d="M449.90625,20L451.5729166666667,20C453.2395833333333,20,456.5729166666667,20,459.90625,20C463.2395833333333,20,466.5729166666667,20,468.2395833333333,20L469.90625,20" style="pointer-events: stroke; stroke-width: 0.5em; fill: none; stroke: rgb(0, 0, 0); stroke-opacity: 0.001;"/><path id="edge-sequential/output/BiasAdd:0" class="edge-path" d="M544.90625,20L546.5729166666666,20C548.2395833333334,20,551.5729166666666,20,554.90625,20C558.2395833333334,20,561.5729166666666,20,563.2395833333334,20L564.90625,20" style="stroke: rgb(0, 0, 0); stroke-width: 1px; fill: none; marker-end: url(&quot;#arrowhead&quot;);"/><path class="edge-path-hit-test" d="M544.90625,20L546.5729166666666,20C548.2395833333334,20,551.5729166666666,20,554.90625,20C558.2395833333334,20,561.5729166666666,20,563.2395833333334,20L564.90625,20" style="pointer-events: stroke; stroke-width: 0.5em; fill: none; stroke: rgb(0, 0, 0); stroke-opacity: 0.001;"/><path id="edge-output" class="edge-path" d="M601.6875,20L607.18359375,20C612.6796875,20,623.671875,20,634.6640625,20C645.65625,20,656.6484375,20,662.14453125,20L667.640625,20" style="stroke: rgb(0, 0, 0); stroke-width: 1px; fill: none; marker-end: url(&quot;#arrowhead&quot;);"/><path class="edge-path-hit-test" d="M601.6875,20L607.18359375,20C612.6796875,20,623.671875,20,634.6640625,20C645.65625,20,656.6484375,20,662.14453125,20L667.640625,20" style="pointer-events: stroke; stroke-width: 0.5em; fill: none; stroke: rgb(0, 0, 0); stroke-opacity: 0.001;"/></g><g id="edge-labels" class="edge-labels"><text class="edge-label" id="edge-label-edge-input" transform="translate(60.59375,30)" style="opacity: 1; font-family: -apple-system, BlinkMacSystemFont, &quot;Segoe WPC&quot;, &quot;Segoe UI&quot;, Ubuntu, &quot;Droid Sans&quot;, sans-serif, &quot;PingFang SC&quot;; font-size: 10px;"><tspan xml:space="preserve" dy="1em" x="1">unk__6×2</tspan></text><text class="edge-label" id="edge-label-edge-output" transform="translate(611.6875,30)" style="opacity: 1; font-family: -apple-system, BlinkMacSystemFont, &quot;Segoe WPC&quot;, &quot;Segoe UI&quot;, Ubuntu, &quot;Droid Sans&quot;, sans-serif, &quot;PingFang SC&quot;; font-size: 10px;"><tspan xml:space="preserve" dy="1em" x="1">unk__7×1</tspan></text></g><g id="nodes" class="nodes"><g id="input-name-input" class="node graph-input" transform="translate(0,9.5)" style="opacity: 1;"><g class="node-item graph-item-input" transform="translate(0,0)"><path d="M5,0h30.59375a5,5 0 0 1 5,5v11a5,5 0 0 1 -5,5h-30.59375a5,5 0 0 1 -5,-5v-11a5,5 0 0 1 5,-5z" style="stroke: rgb(0, 0, 0); fill: rgb(238, 238, 238); stroke-width: 0;"/><text x="6" y="15" style="font-family: -apple-system, BlinkMacSystemFont, &quot;Segoe WPC&quot;, &quot;Segoe UI&quot;, Ubuntu, &quot;Droid Sans&quot;, sans-serif, &quot;PingFang SC&quot;; font-size: 11px; text-rendering: geometricprecision;">input</text><title>float32[unk__6,2]</title></g><path class="node border" d="M5,0h30.59375a5,5 0 0 1 5,5v11a5,5 0 0 1 -5,5h-30.59375a5,5 0 0 1 -5,-5v-11a5,5 0 0 1 5,-5z" style="stroke: rgb(51, 51, 51); fill: none; stroke-width: 1px;"/></g><g id="node-name-sequential/input/MatMul" class="node graph-node" transform="translate(128.125,0)" style="opacity: 1;"><g class="node-item node-item-type" transform="translate(0,0)"><path d="M5,0h65a5,5 0 0 1 5,5v16a0,0 0 0 1 0,0h-75a0,0 0 0 1 0,0v-16a5,5 0 0 1 5,-5z" style="stroke: rgb(0, 0, 0); fill: rgb(0, 0, 0); stroke-width: 0;"/><text x="6" y="15" style="font-family: -apple-system, BlinkMacSystemFont, &quot;Segoe WPC&quot;, &quot;Segoe UI&quot;, Ubuntu, &quot;Droid Sans&quot;, sans-serif, &quot;PingFang SC&quot;; font-size: 11px; text-rendering: geometricprecision; fill: rgb(255, 255, 255);">MatMul</text><title>sequential/input/MatMul</title></g><g class="node-attribute" transform="translate(0,21)"><path d="M0,0h75a0,0 0 0 1 0,0v14a5,5 0 0 1 -5,5h-65a5,5 0 0 1 -5,-5v-14a0,0 0 0 1 0,0z" style="stroke: rgb(0, 0, 0); fill: rgb(255, 255, 255); stroke-width: 0;"/><text id="initializer-sequential/input/MatMul/ReadVariableOp:0" xml:space="preserve" x="6" y="13" style="font-family: -apple-system, BlinkMacSystemFont, &quot;Segoe WPC&quot;, &quot;Segoe UI&quot;, Ubuntu, &quot;Droid Sans&quot;, sans-serif, &quot;PingFang SC&quot;; font-size: 9px; font-weight: normal; text-rendering: geometricprecision;"><title>float32[2,32]</title><tspan style="font-weight: bold;">B</tspan><tspan>〈2×32〉</tspan></text><line class="node" x1="0" x2="75" y1="0" y2="0" style="stroke: rgb(51, 51, 51); fill: none; stroke-width: 1px;"/></g><path class="node border" d="M5,0h65a5,5 0 0 1 5,5v30a5,5 0 0 1 -5,5h-65a5,5 0 0 1 -5,-5v-30a5,5 0 0 1 5,-5z" style="stroke: rgb(51, 51, 51); fill: none; stroke-width: 1px;"/></g><g id="node-name-sequential/input/BiasAdd" class="node graph-node" transform="translate(223.125,0)" style="opacity: 1;"><g class="node-item node-item-type" transform="translate(0,0)"><path d="M5,0h65a5,5 0 0 1 5,5v16a0,0 0 0 1 0,0h-75a0,0 0 0 1 0,0v-16a5,5 0 0 1 5,-5z" style="stroke: rgb(0, 0, 0); fill: rgb(0, 0, 0); stroke-width: 0;"/><text x="6" y="15" style="font-family: -apple-system, BlinkMacSystemFont, &quot;Segoe WPC&quot;, &quot;Segoe UI&quot;, Ubuntu, &quot;Droid Sans&quot;, sans-serif, &quot;PingFang SC&quot;; font-size: 11px; text-rendering: geometricprecision; fill: rgb(255, 255, 255);">Add</text><title>sequential/input/BiasAdd</title></g><g class="node-attribute" transform="translate(0,21)"><path d="M0,0h75a0,0 0 0 1 0,0v14a5,5 0 0 1 -5,5h-65a5,5 0 0 1 -5,-5v-14a0,0 0 0 1 0,0z" style="stroke: rgb(0, 0, 0); fill: rgb(255, 255, 255); stroke-width: 0;"/><text id="initializer-sequential/input/BiasAdd/ReadVariableOp:0" xml:space="preserve" x="6" y="13" style="font-family: -apple-system, BlinkMacSystemFont, &quot;Segoe WPC&quot;, &quot;Segoe UI&quot;, Ubuntu, &quot;Droid Sans&quot;, sans-serif, &quot;PingFang SC&quot;; font-size: 9px; font-weight: normal; text-rendering: geometricprecision;"><title>float32[32]</title><tspan style="font-weight: bold;">B</tspan><tspan>〈32〉</tspan></text><line class="node" x1="0" x2="75" y1="0" y2="0" style="stroke: rgb(51, 51, 51); fill: none; stroke-width: 1px;"/></g><path class="node border" d="M5,0h65a5,5 0 0 1 5,5v30a5,5 0 0 1 -5,5h-65a5,5 0 0 1 -5,-5v-30a5,5 0 0 1 5,-5z" style="stroke: rgb(51, 51, 51); fill: none; stroke-width: 1px;"/></g><g id="node-name-sequential/input/Relu" class="node graph-node" transform="translate(318.125,9.5)" style="opacity: 1;"><g class="node-item node-item-type node-item-type-activation" transform="translate(0,0)"><path d="M5,0h26.78125a5,5 0 0 1 5,5v11a5,5 0 0 1 -5,5h-26.78125a5,5 0 0 1 -5,-5v-11a5,5 0 0 1 5,-5z" style="stroke: rgb(0, 0, 0); fill: rgb(112, 41, 33); stroke-width: 0;"/><text x="6" y="15" style="font-family: -apple-system, BlinkMacSystemFont, &quot;Segoe WPC&quot;, &quot;Segoe UI&quot;, Ubuntu, &quot;Droid Sans&quot;, sans-serif, &quot;PingFang SC&quot;; font-size: 11px; text-rendering: geometricprecision; fill: rgb(255, 255, 255);">Relu</text><title>sequential/input/Relu</title></g><path class="node border" d="M5,0h26.78125a5,5 0 0 1 5,5v11a5,5 0 0 1 -5,5h-26.78125a5,5 0 0 1 -5,-5v-11a5,5 0 0 1 5,-5z" style="stroke: rgb(51, 51, 51); fill: none; stroke-width: 1px;"/></g><g id="node-name-sequential/output/MatMul" class="node graph-node" transform="translate(374.90625,0)" style="opacity: 1;"><g class="node-item node-item-type" transform="translate(0,0)"><path d="M5,0h65a5,5 0 0 1 5,5v16a0,0 0 0 1 0,0h-75a0,0 0 0 1 0,0v-16a5,5 0 0 1 5,-5z" style="stroke: rgb(0, 0, 0); fill: rgb(0, 0, 0); stroke-width: 0;"/><text x="6" y="15" style="font-family: -apple-system, BlinkMacSystemFont, &quot;Segoe WPC&quot;, &quot;Segoe UI&quot;, Ubuntu, &quot;Droid Sans&quot;, sans-serif, &quot;PingFang SC&quot;; font-size: 11px; text-rendering: geometricprecision; fill: rgb(255, 255, 255);">MatMul</text><title>sequential/output/MatMul</title></g><g class="node-attribute" transform="translate(0,21)"><path d="M0,0h75a0,0 0 0 1 0,0v14a5,5 0 0 1 -5,5h-65a5,5 0 0 1 -5,-5v-14a0,0 0 0 1 0,0z" style="stroke: rgb(0, 0, 0); fill: rgb(255, 255, 255); stroke-width: 0;"/><text id="initializer-sequential/output/MatMul/ReadVariableOp:0" xml:space="preserve" x="6" y="13" style="font-family: -apple-system, BlinkMacSystemFont, &quot;Segoe WPC&quot;, &quot;Segoe UI&quot;, Ubuntu, &quot;Droid Sans&quot;, sans-serif, &quot;PingFang SC&quot;; font-size: 9px; font-weight: normal; text-rendering: geometricprecision;"><title>float32[32,1]</title><tspan style="font-weight: bold;">B</tspan><tspan>〈32×1〉</tspan></text><line class="node" x1="0" x2="75" y1="0" y2="0" style="stroke: rgb(51, 51, 51); fill: none; stroke-width: 1px;"/></g><path class="node border" d="M5,0h65a5,5 0 0 1 5,5v30a5,5 0 0 1 -5,5h-65a5,5 0 0 1 -5,-5v-30a5,5 0 0 1 5,-5z" style="stroke: rgb(51, 51, 51); fill: none; stroke-width: 1px;"/></g><g id="node-name-sequential/output/BiasAdd" class="node graph-node" transform="translate(469.90625,0)" style="opacity: 1;"><g class="node-item node-item-type" transform="translate(0,0)"><path d="M5,0h65a5,5 0 0 1 5,5v16a0,0 0 0 1 0,0h-75a0,0 0 0 1 0,0v-16a5,5 0 0 1 5,-5z" style="stroke: rgb(0, 0, 0); fill: rgb(0, 0, 0); stroke-width: 0;"/><text x="6" y="15" style="font-family: -apple-system, BlinkMacSystemFont, &quot;Segoe WPC&quot;, &quot;Segoe UI&quot;, Ubuntu, &quot;Droid Sans&quot;, sans-serif, &quot;PingFang SC&quot;; font-size: 11px; text-rendering: geometricprecision; fill: rgb(255, 255, 255);">Add</text><title>sequential/output/BiasAdd</title></g><g class="node-attribute" transform="translate(0,21)"><path d="M0,0h75a0,0 0 0 1 0,0v14a5,5 0 0 1 -5,5h-65a5,5 0 0 1 -5,-5v-14a0,0 0 0 1 0,0z" style="stroke: rgb(0, 0, 0); fill: rgb(255, 255, 255); stroke-width: 0;"/><text id="initializer-sequential/output/BiasAdd/ReadVariableOp:0" xml:space="preserve" x="6" y="13" style="font-family: -apple-system, BlinkMacSystemFont, &quot;Segoe WPC&quot;, &quot;Segoe UI&quot;, Ubuntu, &quot;Droid Sans&quot;, sans-serif, &quot;PingFang SC&quot;; font-size: 9px; font-weight: normal; text-rendering: geometricprecision;"><title>float32[1]</title><tspan style="font-weight: bold;">B</tspan><tspan>〈1〉</tspan></text><line class="node" x1="0" x2="75" y1="0" y2="0" style="stroke: rgb(51, 51, 51); fill: none; stroke-width: 1px;"/></g><path class="node border" d="M5,0h65a5,5 0 0 1 5,5v30a5,5 0 0 1 -5,5h-65a5,5 0 0 1 -5,-5v-30a5,5 0 0 1 5,-5z" style="stroke: rgb(51, 51, 51); fill: none; stroke-width: 1px;"/></g><g id="node-name-sequential/output/Relu" class="node graph-node" transform="translate(564.90625,9.5)" style="opacity: 1;"><g class="node-item node-item-type node-item-type-activation" transform="translate(0,0)"><path d="M5,0h26.78125a5,5 0 0 1 5,5v11a5,5 0 0 1 -5,5h-26.78125a5,5 0 0 1 -5,-5v-11a5,5 0 0 1 5,-5z" style="stroke: rgb(0, 0, 0); fill: rgb(112, 41, 33); stroke-width: 0;"/><text x="6" y="15" style="font-family: -apple-system, BlinkMacSystemFont, &quot;Segoe WPC&quot;, &quot;Segoe UI&quot;, Ubuntu, &quot;Droid Sans&quot;, sans-serif, &quot;PingFang SC&quot;; font-size: 11px; text-rendering: geometricprecision; fill: rgb(255, 255, 255);">Relu</text><title>sequential/output/Relu</title></g><path class="node border" d="M5,0h26.78125a5,5 0 0 1 5,5v11a5,5 0 0 1 -5,5h-26.78125a5,5 0 0 1 -5,-5v-11a5,5 0 0 1 5,-5z" style="stroke: rgb(51, 51, 51); fill: none; stroke-width: 1px;"/></g><g class="node" transform="translate(667.640625,9.5)" style="opacity: 1;"><g class="node-item graph-item-output" transform="translate(0,0)"><path d="M5,0h38.4375a5,5 0 0 1 5,5v11a5,5 0 0 1 -5,5h-38.4375a5,5 0 0 1 -5,-5v-11a5,5 0 0 1 5,-5z" style="stroke: rgb(0, 0, 0); fill: rgb(238, 238, 238); stroke-width: 0;"/><text x="6" y="15" style="font-family: -apple-system, BlinkMacSystemFont, &quot;Segoe WPC&quot;, &quot;Segoe UI&quot;, Ubuntu, &quot;Droid Sans&quot;, sans-serif, &quot;PingFang SC&quot;; font-size: 11px; text-rendering: geometricprecision;">output</text><title>float32[unk__7,1]</title></g><path class="node border" d="M5,0h38.4375a5,5 0 0 1 5,5v11a5,5 0 0 1 -5,5h-38.4375a5,5 0 0 1 -5,-5v-11a5,5 0 0 1 5,-5z" style="stroke: rgb(51, 51, 51); fill: none; stroke-width: 1px;"/></g></g></g></svg>